<svg width="213" height="79" viewBox="0 0 213 79" fill="none" xmlns="http://www.w3.org/2000/svg">
<path d="M91.1511 37.1725C98.3722 37.1725 101.874 33.562 101.874 29.3377C101.874 20.0586 87.1795 23.272 87.1795 18.6144C87.1795 17.0257 88.5154 15.7259 91.9815 15.7259C94.22 15.7259 96.6391 16.3758 98.986 17.7117L100.791 13.2708C98.4444 11.7904 95.1949 11.0322 92.0176 11.0322C84.8326 11.0322 81.3665 14.6067 81.3665 18.9032C81.3665 28.2906 96.0614 25.0411 96.0614 29.7709C96.0614 31.3235 94.6533 32.4788 91.1872 32.4788C88.1543 32.4788 84.9771 31.3957 82.8468 29.8431L80.861 34.248C83.0996 35.9811 87.1434 37.1725 91.1511 37.1725Z" fill="white"/>
<path d="M123.202 11.4655V21.4306H111.72V11.4655H105.871V36.7393H111.72V26.377H123.202V36.7393H129.051V11.4655H123.202Z" fill="white"/>
<path d="M135.03 36.7393H140.879V11.4655H135.03V36.7393Z" fill="white"/>
<path d="M165.436 23.5969C167.494 22.5137 168.793 20.5641 168.793 18.0367C168.793 14.1012 165.544 11.4655 159.226 11.4655H146.878V36.7393H159.948C166.591 36.7393 170.057 34.2119 170.057 29.8431C170.057 26.6659 168.252 24.4995 165.436 23.5969ZM158.503 15.8703C161.356 15.8703 162.908 16.8452 162.908 18.831C162.908 20.8168 161.356 21.8277 158.503 21.8277H152.69V15.8703H158.503ZM159.514 32.3344H152.69V26.0882H159.514C162.547 26.0882 164.172 27.0991 164.172 29.2293C164.172 31.3957 162.547 32.3344 159.514 32.3344Z" fill="white"/>
<path d="M193.369 36.7393H199.506L188.205 11.4655H182.429L171.164 36.7393H177.157L179.396 31.3235H191.13L193.369 36.7393ZM181.273 26.8825L185.281 17.2062L189.289 26.8825H181.273Z" fill="white"/>
<path d="M100.141 70.0866H106.965L95.8809 56.0777L106.351 44.8128H99.8525L88.6598 56.6193V44.8128H82.8468V70.0866H88.6598V63.696L92.0537 60.1576L100.141 70.0866Z" fill="white"/>
<path d="M115.386 65.3929V59.5438H127.121V54.9946H115.386V49.5065H128.673V44.8128H109.573V70.0866H129.142V65.3929H115.386Z" fill="white"/>
<path d="M151.199 44.8128V60.1576L138.634 44.8128H133.796V70.0866H139.573V54.7418L152.174 70.0866H156.976V44.8128H151.199Z" fill="white"/>
<path d="M169.057 65.3207L182.886 48.6039V44.8128H161.62V49.5787H175.195L161.331 66.2955V70.0866H183.427V65.3207H169.057Z" fill="white"/>
<path d="M199.172 70.5199C207.115 70.5199 213 64.9958 213 57.4497C213 49.9037 207.115 44.3796 199.172 44.3796C191.192 44.3796 185.343 49.9398 185.343 57.4497C185.343 64.9596 191.192 70.5199 199.172 70.5199ZM199.172 65.5373C194.658 65.5373 191.265 62.2517 191.265 57.4497C191.265 52.6477 194.658 49.3621 199.172 49.3621C203.685 49.3621 207.079 52.6477 207.079 57.4497C207.079 62.2517 203.685 65.5373 199.172 65.5373Z" fill="white"/>
<path d="M34.6265 64.9051C30.7359 68.8667 22.698 69.1235 17.8949 67.282C14.6655 66.0471 11.447 63.5882 10.152 60.2768C8.82963 56.9108 10.0591 53.6323 12.9169 51.8236C13.2775 51.5941 13.6655 51.3919 14.0753 51.2116C14.9278 50.84 15.884 50.6214 16.8512 50.5668C19.4522 50.4138 22.1734 51.4247 23.463 53.7743C24.4575 55.5885 24.6269 57.4299 23.9274 58.796C24.0476 58.8944 24.1733 58.9927 24.299 59.0856C24.4793 59.2222 24.6596 59.3534 24.8454 59.479C26.8836 60.856 29.348 61.6538 31.7304 62.1893C33.0418 62.4844 35.1401 62.6374 35.3205 63.5554C35.3205 63.5609 35.3205 63.5663 35.3205 63.5663C35.3751 63.8996 35.1893 64.3313 34.6265 64.9051Z" fill="#F89C27"/>
<path opacity="0.5" d="M35.315 63.5662C31.4244 64.2383 22.7253 60.4734 22.851 60.4461C23.6925 60.2493 24.0968 59.6647 24.2935 59.0854C24.4739 59.2221 24.6542 59.3532 24.84 59.4789C26.8781 60.8559 29.3425 61.6537 31.725 62.1892C33.0364 62.4842 35.1347 62.6372 35.315 63.5552C35.315 63.5607 35.315 63.5607 35.315 63.5662Z" fill="#F89C27"/>
<path opacity="0.5" d="M20.0095 60.834C20.0095 60.834 23.922 59.0636 22.0149 54.5282C21.0641 52.2715 18.8129 51.1404 16.8457 50.5612C19.4467 50.4082 22.1679 51.4191 23.4575 53.7687C24.452 55.5829 24.6214 57.4243 23.922 58.7904C21.474 61.7028 20.0095 60.834 20.0095 60.834Z" fill="#F89C27"/>
<path d="M34.6265 64.905C30.7359 68.8666 22.698 69.1234 17.8949 67.2819C14.6655 66.047 11.447 63.5881 10.152 60.2767C8.82963 56.9107 10.0591 53.6322 12.9169 51.8235C12.9715 55.0638 14.3376 59.8614 21.0805 62.8449C28.1131 65.9596 32.8397 64.7902 35.3205 63.5553C35.3806 63.8886 35.1948 64.3203 34.6265 64.905Z" fill="white"/>
<path d="M32.3916 64.55C28.1677 66.8723 21.9057 66.7958 17.8894 65.2658C14.66 64.0309 11.4416 61.5719 10.1465 58.2606C9.92251 57.6923 9.77498 57.124 9.69301 56.5667C9.51269 57.7415 9.6493 59.0037 10.1465 60.2769C11.447 63.5883 14.66 66.0472 17.8894 67.2821C22.6925 69.1181 30.7305 68.8667 34.6211 64.9051C35.1893 64.3259 35.3751 63.8888 35.3096 63.5555C34.5555 63.9325 33.5828 64.3041 32.3916 64.55Z" fill="#CCCCCC"/>
<path d="M24.4411 68.9596C22.0314 68.9596 19.6162 68.5607 17.6818 67.8231C13.8514 66.3586 10.8296 63.6156 9.60561 60.49C8.82422 58.501 8.84061 56.4956 9.64386 54.6869C10.4198 52.9438 11.9061 51.5177 13.835 50.6816C15.5289 49.9439 17.5616 49.7745 19.4085 50.2062C21.4467 50.6871 23.0641 51.851 23.9603 53.4957C24.9493 55.2989 25.1843 57.1404 24.6324 58.6212C26.3864 59.9545 28.6978 60.9162 31.8507 61.6266C32.1075 61.6867 32.3971 61.7359 32.7031 61.7905C34.091 62.0419 35.5227 62.2987 35.8451 63.3096C36.1292 64.2002 35.3041 65.0363 35.0364 65.315C33.1676 67.222 30.195 68.4733 26.6596 68.8503C25.9329 68.9214 25.1897 68.9596 24.4411 68.9596ZM17.3485 51.1352C16.2884 51.1352 15.2284 51.3428 14.3049 51.7472C10.846 53.2498 9.35972 56.6759 10.693 60.0692C11.8023 62.8997 14.5726 65.3915 18.1026 66.7411C20.4686 67.6482 23.627 68.0034 26.5449 67.6919C29.8071 67.3422 32.5337 66.2111 34.2113 64.4953C34.7085 63.9926 34.7632 63.7194 34.7468 63.6593C34.7468 63.6538 34.6867 63.4899 34.1238 63.2986C33.6648 63.1402 33.0747 63.0364 32.5009 62.9325C32.1785 62.8724 31.878 62.8178 31.5993 62.7577C28.053 61.9599 25.4957 60.8452 23.5559 59.2441C23.3428 59.0693 23.2827 58.7742 23.4084 58.5338C24.0204 57.3316 23.851 55.7033 22.9494 54.0531C21.8565 52.0586 19.5888 51.1352 17.3485 51.1352Z" fill="#1B1464"/>
<path d="M20.0915 60.6483C20.4576 60.5991 20.8128 60.5226 21.1571 60.4133C21.4959 60.304 21.8237 60.162 22.1188 59.9871C22.4139 59.8068 22.6761 59.5937 22.8947 59.3478C23.1133 59.1019 23.2881 58.8287 23.4084 58.5336C23.534 58.2385 23.8783 58.1019 24.1734 58.2276C24.4684 58.3533 24.605 58.6975 24.4794 58.9926C24.4684 59.0145 24.4575 59.0363 24.4466 59.0527L24.4411 59.0637C24.2171 59.4462 23.9329 59.7959 23.6051 60.0855C23.2772 60.3751 22.9056 60.6046 22.5231 60.774C22.1406 60.9488 21.7363 61.0636 21.3374 61.1401C20.9385 61.2166 20.5341 61.2494 20.1353 61.2548C19.9713 61.2603 19.8347 61.1237 19.8293 60.9598C19.8293 60.8013 19.9385 60.6701 20.0915 60.6483Z" fill="#1B1464"/>
<path d="M44.1125 78.1068C58.8698 78.1068 70.8329 76.6218 70.8329 74.79C70.8329 72.9581 58.8698 71.4731 44.1125 71.4731C29.3553 71.4731 17.3922 72.9581 17.3922 74.79C17.3922 76.6218 29.3553 78.1068 44.1125 78.1068Z" fill="#CCCCCC"/>
<path d="M33.96 74.0689C33.96 75.7464 25.9603 75.7464 25.9603 74.0689C25.9603 72.3914 27.7526 71.0308 29.9601 71.0308C32.1677 71.0308 33.96 72.3914 33.96 74.0689Z" fill="white"/>
<path d="M29.9602 75.9111C28.8618 75.9111 27.8291 75.7909 27.0532 75.5778C25.6707 75.1898 25.3811 74.545 25.3811 74.0751C25.3811 72.0807 27.4357 70.4578 29.9602 70.4578C32.4847 70.4578 34.5392 72.0807 34.5392 74.0751C34.5392 75.7745 31.0366 75.9111 29.9602 75.9111ZM26.545 74.0533C26.6761 74.2937 27.8291 74.7418 29.9602 74.7418C32.0967 74.7418 33.2442 74.2882 33.3753 74.0533C33.3644 72.7036 31.8344 71.6107 29.9602 71.6107C28.0804 71.6162 26.5559 72.709 26.545 74.0533Z" fill="#1B1464"/>
<path d="M30.5776 73.4894C30.5229 73.5933 30.4737 73.7244 30.441 73.8446C30.4082 73.9703 30.3863 74.096 30.3754 74.2216C30.3645 74.3473 30.359 74.473 30.3699 74.5932C30.3699 74.6533 30.3809 74.7189 30.3863 74.779C30.3972 74.8391 30.4082 74.8992 30.4191 74.9593V74.9757C30.4519 75.1779 30.3207 75.3691 30.1186 75.4019C29.9164 75.4347 29.7251 75.3036 29.6924 75.1014C29.6869 75.0631 29.6869 75.0194 29.6924 74.9866C29.7033 74.9101 29.7142 74.8336 29.7251 74.7571C29.7415 74.6806 29.7525 74.6041 29.7743 74.5331C29.8126 74.3856 29.8672 74.2435 29.9219 74.1014C29.982 73.9648 30.053 73.8337 30.135 73.708C30.2169 73.5823 30.3044 73.473 30.4191 73.3637C30.4574 73.3255 30.5175 73.331 30.5557 73.3692C30.583 73.402 30.5885 73.4457 30.5721 73.4785L30.5776 73.4894Z" fill="#1B1464"/>
<path d="M28.3974 73.5169C28.3646 73.5552 28.3263 73.6153 28.2936 73.6699C28.2662 73.7245 28.2389 73.7792 28.2171 73.8393C28.1733 73.954 28.1515 74.0743 28.146 74.1945C28.146 74.3147 28.1515 74.4294 28.1788 74.5442C28.1843 74.5715 28.1897 74.5988 28.2007 74.6316L28.228 74.7136C28.2498 74.7682 28.2717 74.8229 28.2936 74.8775L28.299 74.8939C28.3701 75.0851 28.2772 75.2983 28.0859 75.3693C27.8947 75.4403 27.6816 75.3474 27.6105 75.1562C27.5996 75.1234 27.5887 75.0851 27.5887 75.0524C27.5832 74.9704 27.5723 74.8884 27.5723 74.8065V74.6808C27.5723 74.6425 27.5723 74.5988 27.5777 74.5551C27.5887 74.3912 27.6269 74.2273 27.6816 74.0743C27.7362 73.9213 27.8182 73.7792 27.9111 73.648C27.9602 73.5825 28.0149 73.5278 28.0695 73.4732C28.1296 73.4185 28.1843 73.3694 28.2608 73.3257C28.3099 73.2929 28.381 73.3093 28.4138 73.3584C28.4411 73.4021 28.4356 73.4513 28.4083 73.4896L28.3974 73.5169Z" fill="#1B1464"/>
<path d="M54.4074 74.0689C54.4074 75.7464 62.4071 75.7464 62.4071 74.0689C62.4071 72.3914 60.6148 71.0308 58.4072 71.0308C56.1997 71.0308 54.4074 72.3914 54.4074 74.0689Z" fill="white"/>
<path d="M58.4072 75.9101C57.3089 75.9101 56.2761 75.7899 55.5002 75.5768C54.1178 75.1888 53.8281 74.5441 53.8281 74.0741C53.8281 72.0797 55.8827 70.4568 58.4072 70.4568C60.9317 70.4568 62.9863 72.0797 62.9863 74.0741C62.9863 75.7735 59.4782 75.9101 58.4072 75.9101ZM54.9866 74.0523C55.1177 74.2927 56.2707 74.7408 58.4018 74.7408C60.5383 74.7408 61.6858 74.2872 61.8169 74.0523C61.806 72.7026 60.276 71.6097 58.4018 71.6097C56.5275 71.6152 54.9975 72.7081 54.9866 74.0523Z" fill="#1B1464"/>
<path d="M57.9318 73.3649C58.0465 73.4742 58.134 73.5835 58.2159 73.7091C58.2979 73.8348 58.3689 73.966 58.429 74.1026C58.4891 74.2392 58.5438 74.3812 58.5766 74.5342C58.5984 74.6107 58.6093 74.6818 58.6257 74.7583C58.6421 74.8348 58.6476 74.9113 58.6585 74.9878C58.6913 75.19 58.5492 75.3757 58.3471 75.4085C58.1449 75.4413 57.9591 75.2992 57.9263 75.0971C57.9208 75.0588 57.9208 75.0206 57.9263 74.9823L57.9318 74.9659C57.9427 74.9058 57.9536 74.8457 57.9646 74.7856C57.97 74.7255 57.981 74.6654 57.981 74.5998C57.9919 74.4741 57.9864 74.3539 57.9755 74.2282C57.9646 74.1026 57.9427 73.9769 57.9099 73.8512C57.8771 73.731 57.828 73.5999 57.7733 73.496L57.7678 73.4851C57.7405 73.4359 57.7624 73.3813 57.8061 73.354C57.8607 73.3266 57.9044 73.3376 57.9318 73.3649Z" fill="#1B1464"/>
<path d="M60.1011 73.3366C60.1776 73.3858 60.2322 73.4295 60.2924 73.4841C60.347 73.5388 60.4016 73.5989 60.4508 73.659C60.5492 73.7847 60.6257 73.9267 60.6803 74.0852C60.735 74.2382 60.7732 74.4021 60.7841 74.566C60.7896 74.6098 60.7896 74.648 60.7896 74.6917V74.8174C60.7841 74.8994 60.7787 74.9813 60.7732 75.0633C60.7568 75.2655 60.582 75.4185 60.3798 75.4021C60.1776 75.3857 60.0246 75.2108 60.041 75.0087C60.0465 74.9704 60.0519 74.9376 60.0629 74.9048L60.0683 74.883C60.0902 74.8283 60.112 74.7737 60.1339 74.7191L60.1612 74.6371C60.1721 74.6098 60.1776 74.5824 60.1831 74.5497C60.2104 74.4349 60.2213 74.3147 60.2159 74.1999C60.2104 74.0797 60.1885 73.9595 60.1448 73.8448C60.123 73.7847 60.0956 73.73 60.0683 73.6754C60.041 73.6207 59.9973 73.5661 59.9645 73.5224L59.9536 73.506C59.9153 73.4568 59.9208 73.3858 59.97 73.3475C60.0137 73.3147 60.0629 73.3093 60.1011 73.3366Z" fill="#1B1464"/>
<path d="M56.3198 73.5989C55.9099 73.6372 55.5165 73.659 55.1395 73.6645C53.981 73.6809 52.9647 73.5388 52.1123 73.2383H36.1128C35.5227 73.4514 34.8451 73.5825 34.102 73.6372C33.6211 73.6754 33.1075 73.6754 32.5665 73.6481C32.348 73.6372 32.1294 73.6208 31.9054 73.5989C25.4684 72.9705 23.321 66.6265 25.9165 62.4245C25.9438 62.3808 25.9711 62.3371 25.9985 62.2879C26.7143 61.1021 27.4902 59.4956 28.2334 57.7962C30.1732 53.3702 31.9054 48.2993 31.9054 48.2993H56.3198C56.3198 48.2993 58.2049 53.8128 60.2431 58.3591C60.9371 59.9109 61.6529 61.3535 62.3086 62.4245C64.9041 66.6265 62.7567 72.976 56.3198 73.5989Z" fill="#F89C27"/>
<g opacity="0.5">
<path opacity="0.5" d="M60.2431 58.359C59.3633 63.4735 56.8989 69.6755 55.1394 73.6699C53.981 73.6863 52.9647 73.5442 52.1122 73.2437H36.1128C35.5227 73.4568 34.8451 73.5879 34.102 73.6425C30.7469 69.293 29.0311 62.2823 28.2333 57.8016C30.1731 53.3755 31.9053 48.3047 31.9053 48.3047H56.3197C56.3197 48.2992 58.2104 53.8127 60.2431 58.359Z" fill="#F7A528"/>
</g>
<g opacity="0.5">
<g opacity="0.5">
<path opacity="0.5" d="M32.5665 73.6478C32.348 73.6369 32.1294 73.6205 31.9054 73.5987C25.4684 72.9703 23.321 66.6262 25.9165 62.4242C25.9438 62.3805 25.9711 62.3368 25.9985 62.2876C25.9329 66.0907 25.2389 70.26 32.5665 73.6478Z" fill="#F7A528"/>
</g>
</g>
<g opacity="0.5">
<g opacity="0.5">
<path opacity="0.5" d="M55.6586 73.6478C55.8772 73.6369 56.0958 73.6205 56.3198 73.5987C62.7567 72.9703 64.9042 66.6262 62.3087 62.4242C62.2814 62.3805 62.254 62.3368 62.2267 62.2876C62.2923 66.0907 62.7841 71.0304 55.6586 73.6478Z" fill="#F7A528"/>
</g>
</g>
<path d="M54.9482 74.3036C53.839 74.3036 52.8554 74.1615 52.0139 73.8774H36.2112C35.02 74.2763 33.5556 74.3965 31.8507 74.2326C28.7907 73.9375 26.3263 72.331 25.0859 69.8338C23.8783 67.4022 24.0095 64.4679 25.4247 62.1729C27.9547 58.0747 31.3261 48.2663 31.3589 48.1625C31.4409 47.9275 31.6595 47.769 31.9108 47.769H56.3252C56.5711 47.769 56.7951 47.9275 56.8771 48.1625C56.9099 48.2608 60.2814 58.0747 62.8113 62.1729C64.2266 64.4624 64.3522 67.4022 63.1501 69.8338C61.9097 72.331 59.4453 73.9375 56.3853 74.2326C55.8826 74.2817 55.4018 74.3036 54.9482 74.3036ZM36.1129 72.7135H52.1123C52.1778 72.7135 52.2434 72.7244 52.309 72.7463C53.3526 73.1178 54.6859 73.2271 56.2651 73.0741C58.9535 72.8118 61.03 71.4786 62.101 69.3147C63.1282 67.2383 63.0244 64.7356 61.8168 62.7794C59.4836 58.9981 56.5766 50.84 55.9099 48.9329H32.3152C31.6485 50.8454 28.7415 58.9981 26.4083 62.7794C25.2007 64.7356 25.0914 67.2383 26.1241 69.3147C27.1951 71.4786 29.2716 72.8118 31.96 73.0741C33.5392 73.2271 34.8725 73.1178 35.9161 72.7463C35.9817 72.7244 36.0473 72.7135 36.1129 72.7135Z" fill="#1B1464"/>
<path d="M55.6095 60.2715L55.533 60.3207C55.5057 60.3371 55.4784 60.359 55.451 60.3808C55.3964 60.4245 55.3417 60.4628 55.2871 60.512C55.1778 60.5994 55.074 60.6978 54.9756 60.7961C54.7789 60.9983 54.5931 61.2114 54.4237 61.4354C54.085 61.889 53.8008 62.3808 53.5659 62.8944C53.3254 63.408 53.1396 63.949 52.9866 64.4954C52.8282 65.0419 52.7244 65.6047 52.6369 66.1675L52.5768 66.5937L52.5331 67.0199L52.5113 67.233C52.5058 67.3041 52.5003 67.3751 52.4949 67.4461L52.4675 67.8778C52.4566 68.0199 52.4566 68.1674 52.4511 68.3095C52.4457 68.4516 52.4347 68.5991 52.4347 68.7412L52.4293 69.1729C52.4293 69.3149 52.4238 69.4625 52.4238 69.6045C52.4184 70.763 52.4894 71.9214 52.544 73.0962V73.1017C52.5604 73.4623 52.2818 73.7683 51.9211 73.7847C51.5878 73.8011 51.3036 73.5661 51.249 73.2437C51.0359 72.0471 50.9485 70.8231 50.9594 69.5936C50.9594 69.4406 50.9649 69.2876 50.9703 69.1346L50.9922 68.6756C51.0031 68.5226 51.014 68.3696 51.0304 68.2166C51.0468 68.0636 51.0578 67.9106 51.0741 67.7576L51.1343 67.2986C51.1452 67.2221 51.1561 67.1456 51.167 67.0691L51.2053 66.8396L51.2873 66.3806L51.3856 65.9271C51.5277 65.3205 51.6971 64.7195 51.9211 64.1403C52.1397 63.5556 52.4129 62.9873 52.7353 62.4463C53.0631 61.9108 53.4347 61.3972 53.8828 60.9546C54.1068 60.7305 54.3418 60.5229 54.5986 60.3371C54.7297 60.2442 54.8554 60.1568 54.9975 60.0748C55.0631 60.0366 55.1396 59.9983 55.2106 59.9601C55.2489 59.9437 55.2816 59.9218 55.3199 59.9054C55.3581 59.889 55.3909 59.8727 55.4401 59.8563C55.5549 59.8125 55.686 59.8672 55.7352 59.9874C55.7734 60.0912 55.7352 60.2005 55.6477 60.2606L55.6095 60.2715Z" fill="#1B1464"/>
<path d="M32.8398 59.7634C32.8944 59.7852 32.9272 59.8016 32.9709 59.8235C33.0092 59.8453 33.0474 59.8617 33.0857 59.8836C33.1567 59.9218 33.2277 59.9655 33.2988 60.0093C33.4354 60.0967 33.5665 60.1951 33.6922 60.2934C33.9435 60.4956 34.1785 60.7142 34.3971 60.9491C34.8342 61.4136 35.1949 61.9382 35.5118 62.49C35.8233 63.0419 36.0801 63.6157 36.2932 64.2058C36.5063 64.796 36.6648 65.4025 36.7959 66.009L36.8888 66.468L36.9653 66.927L37.0035 67.1565C37.0145 67.233 37.0254 67.3095 37.0309 67.386L37.0855 67.8505C37.1019 68.0035 37.1128 68.1565 37.1238 68.315C37.1347 68.468 37.1511 68.621 37.1565 68.7794L37.1784 69.2439C37.1839 69.3969 37.1948 69.5554 37.1893 69.7084C37.2057 70.9433 37.1292 72.1728 36.9762 73.3858C36.9325 73.7465 36.6046 73.9978 36.244 73.9541C35.8888 73.9104 35.6375 73.5935 35.6757 73.2383V73.2328C35.7959 72.058 35.8888 70.8832 35.8998 69.7138C35.9162 68.5445 35.8506 67.3751 35.6757 66.2276C35.5828 65.6539 35.4681 65.0856 35.2987 64.5392C35.1348 63.9873 34.938 63.4463 34.6867 62.9327C34.4408 62.419 34.1403 61.9327 33.7851 61.4901C33.6102 61.2715 33.419 61.0584 33.2113 60.8672C33.1075 60.7743 33.0037 60.6814 32.8944 60.5994C32.8398 60.5557 32.7851 60.5174 32.7305 60.4792C32.7032 60.4628 32.6758 60.4409 32.6485 60.4245L32.5775 60.3808L32.5447 60.359C32.3862 60.2661 32.337 60.0639 32.4299 59.9054C32.5119 59.7524 32.6922 59.6978 32.8398 59.7634Z" fill="#1B1464"/>
<path d="M58.9809 54.3864C58.724 58.8671 57.5328 64.539 54.4073 70.8667C53.8991 71.8885 53.3417 72.9267 52.7352 73.9813C53.7352 75.2326 52.2052 75.5222 51.7407 75.555C49.5932 75.6916 48.1561 75.6861 45.8502 75.1452C45.7846 75.1288 45.6098 74.0523 45.4021 72.5059C44.4186 72.566 43.5661 72.5551 42.8448 72.5169C42.6317 74.0523 42.4624 75.1288 42.3968 75.1397C40.0909 75.6807 38.6483 75.6861 36.5063 75.5495C36.0364 75.5167 34.5118 75.2326 35.5118 73.9758C34.9053 72.9321 34.3534 71.9049 33.8561 70.894C30.7141 64.5554 29.5229 58.8671 29.2661 54.3755C28.971 49.2062 29.9218 45.6271 30.5721 44.4851H57.6913C58.3252 45.6381 59.2759 49.2172 58.9809 54.3864Z" fill="#F7A528"/>
<g opacity="0.5">
<path opacity="0.5" d="M59.0519 54.3864C54.9045 55.7416 49.7572 56.5394 44.1836 56.5394C38.61 56.5394 33.4627 55.7361 29.3153 54.3864C29.0202 49.2172 29.971 45.6381 30.6213 44.4961H57.7405C58.3962 45.6381 59.347 49.2172 59.0519 54.3864Z" fill="#F7A528"/>
</g>
<path d="M52.8007 73.9869C53.8007 75.2382 52.2707 75.5278 51.8062 75.5606C49.6588 75.6972 48.2217 75.6917 45.9158 75.1508C45.8502 75.1344 45.6753 74.0579 45.4677 72.5115C44.4841 72.5716 43.6317 72.5607 42.9104 72.5225C42.6973 74.0579 42.5279 75.1344 42.4623 75.1453C40.1564 75.6863 38.7138 75.6917 36.5718 75.5551C36.1019 75.5223 34.5774 75.2382 35.5773 73.9814C34.9708 72.9377 34.4189 71.9105 33.9217 70.8996C34.1512 70.7903 34.3916 70.7029 34.6484 70.6427C34.7249 70.6264 34.7959 70.6045 34.8724 70.5881C35.5172 70.4296 36.1893 70.4351 36.8232 70.61C37.6428 70.834 38.7084 71.1072 38.8122 71.0526C38.8942 71.0089 39.3695 70.8559 39.8559 70.6974C40.5935 70.457 41.3913 70.4515 42.1345 70.6701L43.0634 70.9433C43.8011 71.1619 44.5879 71.1509 45.3256 70.9214L46.8338 70.446C47.5223 70.2275 48.2599 70.2056 48.9594 70.3859L49.2162 70.4515C49.8391 70.61 50.4894 70.61 51.1177 70.457L51.4675 70.3695C52.1396 70.2001 52.8445 70.2165 53.5111 70.4132C53.8663 70.5171 54.1941 70.6701 54.4947 70.8613C53.9701 71.8941 53.4127 72.9323 52.8007 73.9869Z" fill="white"/>
<path d="M54.1395 55.6378C53.4838 58.9 51.309 61.736 48.9211 63.0091C48.7627 63.0911 48.6042 63.1676 48.4457 63.2386C44.353 65.0419 45.0907 72.823 45.0907 72.823C45.0907 72.823 43.1509 72.823 42.8776 72.823C43.5334 67.6975 43.8831 67.0746 39.916 63.2386C39.7849 63.1621 39.6592 63.0856 39.5335 63.0091C36.621 61.1568 34.8506 57.9328 34.3206 55.6597C33.4791 52.0314 34.6266 48.9769 35.1238 48.8676C35.1238 48.8676 52.3363 47.5616 53.2215 49.2228C54.3636 51.3374 54.5548 53.5723 54.1395 55.6378Z" fill="white"/>
<path d="M48.9211 63.0037C48.7627 63.0856 48.6042 63.1621 48.4457 63.2332C44.353 65.0364 45.0907 72.8175 45.0907 72.8175C45.0907 72.8175 43.1508 72.8175 42.8776 72.8175C43.5333 67.692 43.8831 67.0691 39.916 63.2332C39.7848 63.1567 39.6592 63.0802 39.5335 63.0037C42.6153 65.0801 45.7409 65.0091 48.9211 63.0037Z" fill="#CCCCCC"/>
<path d="M54.1395 55.6378C51.0905 56.2225 47.7245 56.5449 44.1836 56.5449C40.681 56.5449 37.3478 56.228 34.3261 55.6597C33.4846 52.0314 34.6321 48.9769 35.1293 48.8676C35.1293 48.8676 52.3418 47.5616 53.227 49.2228C54.3636 51.3374 54.5548 53.5723 54.1395 55.6378Z" fill="#CCCCCC"/>
<path d="M38.5171 76.2161C37.8997 76.2161 37.2494 76.1888 36.5227 76.1396C36.2877 76.1232 35.1074 76.0085 34.7468 75.1943C34.6266 74.9211 34.5664 74.5058 34.8779 73.9648C30.277 65.9105 28.9983 58.9326 28.7361 54.4737C28.4082 48.8455 29.4956 45.2992 30.1185 44.2118C30.2223 44.0315 30.4136 43.9167 30.6212 43.9167H57.7405C57.9481 43.9167 58.1393 44.026 58.2432 44.2118C58.8661 45.2992 59.9535 48.851 59.6202 54.4737C59.3579 58.9326 58.0792 65.9105 53.4783 73.9648C53.7898 74.5058 53.7297 74.9211 53.6095 75.1943C53.2488 76.0085 52.0685 76.1287 51.8336 76.1396C49.5714 76.2871 48.0851 76.2598 45.7682 75.7189C45.342 75.6205 45.2874 75.2708 45.1562 74.5058C45.0961 74.1615 45.0305 73.6971 44.9486 73.1233C44.4185 73.1452 43.8994 73.1452 43.3967 73.1343C43.3148 73.7025 43.2437 74.167 43.1891 74.5112C43.0634 75.2762 43.0033 75.626 42.5771 75.7243C41.0143 76.085 39.8285 76.2161 38.5171 76.2161ZM35.8123 74.7244C35.8724 74.8118 36.2167 74.9539 36.5992 74.9812C38.6756 75.1178 39.9925 75.1014 41.9869 74.6642C42.0416 74.3692 42.1454 73.7517 42.3257 72.4512C42.3694 72.1507 42.6317 71.9321 42.9323 71.9485C43.7191 71.9922 44.5606 71.9868 45.424 71.9376C45.7245 71.9212 45.9923 72.1397 46.036 72.4403C46.2163 73.7517 46.3201 74.3746 46.3748 74.6697C48.3692 75.1069 49.6916 75.1232 51.768 74.9866C52.1505 74.9648 52.4947 74.8172 52.5549 74.7298C52.5549 74.708 52.5385 74.5877 52.3472 74.3528C52.1997 74.167 52.1778 73.9047 52.298 73.6971C56.9317 65.7083 58.2104 58.796 58.4672 54.4027C58.735 49.8455 57.9973 46.4358 57.3853 45.0752H30.9819C30.3699 46.4358 29.6322 49.8455 29.8999 54.4027C30.1568 58.7905 31.4354 65.7028 36.0691 73.6971C36.1893 73.9047 36.1675 74.1615 36.0199 74.3528C35.8342 74.5823 35.8178 74.7025 35.8123 74.7244Z" fill="#1B1464"/>
<path d="M44.8885 72.6208C44.8338 72.2929 44.7518 71.9378 44.6808 71.5662C44.6098 71.1946 44.5551 70.7957 44.5387 70.3968C44.5333 70.1947 44.5278 70.0034 44.5333 69.8122C44.5387 69.6209 44.5442 69.4297 44.5606 69.2384C44.5879 68.8559 44.6316 68.468 44.6972 68.0855C44.8338 67.3205 45.0524 66.5664 45.3912 65.8506C45.7245 65.1347 46.1671 64.4572 46.7244 63.8834C47.0031 63.5938 47.3037 63.3315 47.6261 63.0966C47.79 62.9818 47.9539 62.8725 48.1233 62.7687L48.5987 62.49C48.7517 62.4026 48.8992 62.3097 49.0522 62.2168C49.1998 62.1185 49.3473 62.0256 49.4948 61.9272C49.7899 61.7305 50.0741 61.5229 50.3473 61.3043C50.6205 61.0857 50.8882 60.8617 51.1451 60.6212C51.3964 60.3808 51.6423 60.1295 51.8718 59.8672C52.0958 59.5994 52.3144 59.3262 52.5057 59.0366C52.604 58.8945 52.6914 58.747 52.7789 58.594C52.8226 58.5175 52.8608 58.441 52.8991 58.3645C52.9155 58.3262 52.9373 58.288 52.9537 58.2497C52.9701 58.2115 52.9865 58.1678 52.9974 58.1459L53.0084 58.1186C53.063 57.9875 53.2106 57.9274 53.3417 57.9765C53.4564 58.0257 53.5165 58.1459 53.4947 58.2661C53.4838 58.3317 53.4728 58.37 53.4564 58.4246C53.4455 58.4738 53.4291 58.5175 53.4182 58.5667C53.3909 58.6596 53.3581 58.7525 53.3253 58.8399C53.2543 59.0202 53.1778 59.1951 53.0958 59.3699C52.9264 59.7142 52.7242 60.042 52.5057 60.3535C52.2871 60.665 52.0521 60.9655 51.7953 61.2496C51.5385 61.5338 51.2762 61.8015 50.9921 62.0583C50.4347 62.572 49.8282 63.031 49.1943 63.4354C48.8664 63.6485 48.5932 63.8124 48.3255 64.02C48.0632 64.2222 47.8228 64.4462 47.5987 64.6921C47.1561 65.1839 46.7955 65.7467 46.5223 66.3587C46.2491 66.9707 46.0578 67.6265 45.9431 68.2986C45.8829 68.6373 45.8392 68.9761 45.8174 69.3204C45.8065 69.4898 45.7955 69.6646 45.7901 69.8395C45.7846 70.0143 45.7846 70.1892 45.7846 70.3477C45.7955 70.681 45.8283 71.0088 45.883 71.3531C45.9376 71.6973 46.0086 72.058 46.0523 72.4514C46.0906 72.7683 45.8611 73.0579 45.5442 73.0962C45.2218 73.1454 44.9376 72.9323 44.8885 72.6208Z" fill="#1B1464"/>
<path d="M35.3698 58.1512L35.4189 58.255C35.4353 58.2932 35.4572 58.3315 35.4736 58.3697C35.5118 58.4462 35.5556 58.5227 35.5993 58.5992C35.6867 58.7522 35.7851 58.8943 35.8834 59.0418C35.9818 59.1839 36.0856 59.326 36.1949 59.4626C36.3042 59.5992 36.4189 59.7358 36.5337 59.867C37.0036 60.3915 37.5227 60.8669 38.0746 61.2986C38.3533 61.5172 38.6374 61.7248 38.927 61.9215C39.0691 62.0199 39.2221 62.1182 39.3696 62.2111C39.5226 62.304 39.6702 62.4024 39.8232 62.4898L40.0527 62.6264C40.1346 62.6756 40.222 62.7248 40.304 62.7794C40.386 62.8341 40.4734 62.8832 40.5554 62.9379C40.6373 62.9925 40.7193 63.0526 40.8013 63.1127C41.1237 63.3477 41.4297 63.6154 41.7083 63.9051C42.2657 64.4843 42.7138 65.1618 43.0525 65.8831C43.3913 66.6044 43.6099 67.3749 43.7356 68.1508C43.7957 68.5388 43.8285 68.9322 43.8394 69.3202C43.8449 69.5169 43.8449 69.7136 43.8394 69.9048L43.823 70.1999C43.8175 70.2983 43.8066 70.4021 43.7957 70.495C43.7574 70.8884 43.6864 71.2654 43.6154 71.6315L43.5061 72.1725C43.4678 72.3474 43.435 72.5222 43.4132 72.6698V72.6861C43.3695 72.9867 43.0908 73.1943 42.7903 73.1506C42.5061 73.1124 42.2985 72.8555 42.3203 72.5714C42.3367 72.3528 42.364 72.1616 42.3914 71.9758L42.4733 71.4294C42.528 71.0742 42.5717 70.7245 42.599 70.3857C42.6045 70.2983 42.6099 70.2163 42.6154 70.1343L42.6209 69.8775C42.6209 69.7081 42.6154 69.5333 42.6099 69.3639C42.5935 69.0196 42.5553 68.6808 42.5007 68.342C42.3914 67.6699 42.2001 67.0142 41.916 66.4022C41.6373 65.7902 41.2712 65.2219 40.8177 64.7356C40.5936 64.4897 40.3477 64.2657 40.0854 64.0581C40.0199 64.0034 39.9543 63.9597 39.8833 63.9105C39.8177 63.8613 39.7467 63.8176 39.6756 63.7684C39.6046 63.7193 39.5281 63.6756 39.457 63.6318L39.2166 63.4788C38.8942 63.2767 38.5828 63.0581 38.2768 62.8286C37.9708 62.5991 37.6757 62.3532 37.397 62.0964C36.8287 61.5827 36.3096 61.009 35.8779 60.3751C35.6594 60.0582 35.4627 59.7249 35.2933 59.3752C35.2058 59.2003 35.1348 59.02 35.0692 58.8397C35.0364 58.7468 35.0037 58.6539 34.9763 58.561C34.9654 58.5118 34.949 58.4681 34.9381 58.4189C34.9272 58.3697 34.9162 58.326 34.9053 58.2605C34.8834 58.1293 34.9709 58.0036 35.102 57.9818C35.2113 57.9599 35.3206 58.02 35.3643 58.1184L35.3698 58.1512Z" fill="#1B1464"/>
<path d="M39.8558 74.1342C39.8011 74.238 39.752 74.3692 39.7192 74.4894C39.6864 74.6151 39.6645 74.7407 39.6536 74.8664C39.6427 74.9921 39.6372 75.1178 39.6481 75.238C39.6481 75.2981 39.6591 75.3637 39.6645 75.4238C39.6755 75.4839 39.6864 75.544 39.6973 75.6041V75.6205C39.7301 75.8227 39.599 76.0139 39.3968 76.0467C39.1946 76.0795 39.0034 75.9483 38.9706 75.7462C38.9651 75.7079 38.9651 75.6642 38.9706 75.6314C38.9815 75.5549 38.9924 75.4784 39.0034 75.4019C39.0197 75.3254 39.0307 75.2489 39.0525 75.1779C39.0908 75.0303 39.1454 74.8883 39.2001 74.7462C39.2602 74.6096 39.3312 74.4784 39.4132 74.3528C39.4951 74.2271 39.5826 74.1178 39.6973 74.0085C39.7356 73.9703 39.7957 73.9757 39.8339 74.014C39.8612 74.0468 39.8667 74.0905 39.8503 74.1233L39.8558 74.1342Z" fill="#1B1464"/>
<path d="M37.6756 74.1614C37.6428 74.1997 37.6046 74.2598 37.5718 74.3144C37.5445 74.3691 37.5172 74.4237 37.4953 74.4838C37.4516 74.5986 37.4297 74.7188 37.4243 74.839C37.4243 74.9592 37.4297 75.074 37.457 75.1887C37.4625 75.216 37.468 75.2434 37.4789 75.2761L37.5062 75.3581C37.5281 75.4128 37.5499 75.4674 37.5718 75.522L37.5773 75.5384C37.6483 75.7297 37.5554 75.9428 37.3641 76.0138C37.1729 76.0849 36.9598 75.992 36.8888 75.8007C36.8778 75.7679 36.8669 75.7297 36.8669 75.6969C36.8614 75.6149 36.8505 75.533 36.8505 75.451V75.3253C36.8505 75.2871 36.8505 75.2434 36.856 75.1996C36.8669 75.0357 36.9052 74.8718 36.9598 74.7188C37.0144 74.5658 37.0964 74.4237 37.1893 74.2926C37.2385 74.227 37.2931 74.1724 37.3478 74.1177C37.4079 74.0631 37.4625 74.0139 37.539 73.9702C37.5882 73.9374 37.6592 73.9538 37.692 74.003C37.7193 74.0467 37.7139 74.0959 37.6865 74.1341L37.6756 74.1614Z" fill="#1B1464"/>
<path d="M48.7244 74.0095C48.8392 74.1188 48.9266 74.2281 49.0086 74.3538C49.0905 74.4794 49.1616 74.6106 49.2217 74.7472C49.2818 74.8838 49.3364 75.0259 49.3692 75.1789C49.3911 75.2554 49.402 75.3264 49.4184 75.4029C49.4348 75.4794 49.4403 75.5559 49.4512 75.6324C49.484 75.8346 49.3419 76.0204 49.1397 76.0532C48.9375 76.0859 48.7518 75.9439 48.719 75.7417C48.7135 75.7034 48.7135 75.6652 48.719 75.627L48.7244 75.6106C48.7354 75.5504 48.7463 75.4903 48.7572 75.4302C48.7627 75.3701 48.7736 75.31 48.7736 75.2445C48.7845 75.1188 48.7791 74.9986 48.7681 74.8729C48.7572 74.7472 48.7354 74.6215 48.7026 74.4958C48.6698 74.3756 48.6206 74.2445 48.566 74.1407L48.5605 74.1297C48.5332 74.0806 48.555 74.0259 48.5988 73.9986C48.6534 73.9767 48.6971 73.9822 48.7244 74.0095Z" fill="#1B1464"/>
<path d="M50.8936 73.9813C50.9701 74.0305 51.0248 74.0742 51.0849 74.1288C51.1395 74.1835 51.1942 74.2436 51.2433 74.3037C51.3417 74.4294 51.4182 74.5714 51.4728 74.7299C51.5275 74.8829 51.5657 75.0468 51.5767 75.2108C51.5821 75.2545 51.5821 75.2927 51.5821 75.3364V75.4621C51.5767 75.5441 51.5712 75.626 51.5657 75.708C51.5493 75.9102 51.3745 76.0632 51.1723 76.0468C50.9701 76.0304 50.8171 75.8555 50.8335 75.6534C50.839 75.6151 50.8445 75.5823 50.8554 75.5495L50.8608 75.5277C50.8827 75.473 50.9046 75.4184 50.9264 75.3638L50.9537 75.2818C50.9647 75.2545 50.9701 75.2272 50.9756 75.1944C51.0029 75.0796 51.0138 74.9594 51.0084 74.8447C51.0029 74.7244 50.9811 74.6042 50.9373 74.4895C50.9155 74.4294 50.8882 74.3747 50.8608 74.3201C50.8335 74.2654 50.7898 74.2108 50.757 74.1671L50.7461 74.1507C50.7078 74.1015 50.7133 74.0305 50.7625 73.9922C50.8062 73.9594 50.8554 73.9594 50.8936 73.9813Z" fill="#1B1464"/>
<path d="M35.5282 7.69966C35.5282 7.69966 21.2555 26.9175 20.6981 19.9779C20.6435 19.3113 20.6161 18.5845 20.6052 17.8195C20.5287 10.6613 22.4139 0.0988518 25.0804 0.60703C27.6541 1.09335 33.6867 6.13142 35.1839 7.41006C35.4025 7.59584 35.5282 7.69966 35.5282 7.69966Z" fill="#F7A528"/>
<path opacity="0.5" d="M35.1839 7.40459C33.938 7.68874 33.2277 7.91277 33.2277 7.91277C33.2277 7.91277 27.4028 1.12067 24.8291 2.07692C21.9603 3.8692 21.1134 17.9889 21.1134 17.9889C20.9549 17.9561 20.7855 17.9015 20.6052 17.8195C20.5287 10.6613 22.4139 0.0988519 25.0804 0.60703C27.6541 1.08789 33.6867 6.12595 35.1839 7.40459Z" fill="#F7A528"/>
<path d="M21.8183 22.0707C21.638 22.0707 21.485 22.0434 21.3539 22.0051C20.8511 21.863 20.2282 21.3986 20.1189 20.0216C19.6381 14.0163 21.0369 2.89106 23.6707 0.51956C24.2609 -0.0104753 24.8237 -0.043261 25.1898 0.0277747C28.2607 0.606988 35.5992 6.9838 35.9107 7.25701L36.315 7.61219L35.9927 8.04387C35.9653 8.08212 33.2223 11.765 30.1295 15.2895C25.1242 21.0051 22.9549 22.0707 21.8183 22.0707ZM24.9002 1.16981C24.8127 1.16981 24.6597 1.20259 24.4466 1.39384C23.4795 2.26266 22.5177 5.13687 21.8784 9.07662C21.2719 12.8251 21.0369 16.9834 21.2774 19.9341C21.3047 20.2565 21.3921 20.8084 21.6762 20.8904C21.8566 20.945 22.6106 20.9778 24.6488 19.2402C25.922 18.1528 27.4684 16.5681 29.2607 14.53C31.7032 11.7432 33.9272 8.85805 34.7359 7.78705C32.4026 5.79259 27.1241 1.58509 24.9712 1.17527C24.9548 1.16981 24.933 1.16981 24.9002 1.16981Z" fill="#1B1464"/>
<path d="M68.4504 18.3985C68.4395 18.9504 68.4122 19.4804 68.3684 19.9777C67.8111 26.9173 53.5439 7.69945 53.5439 7.69945C53.5439 7.69945 53.675 7.5847 53.9045 7.38799C55.4345 6.08203 61.4233 1.08767 63.9861 0.601352C66.7237 0.0877102 68.6417 11.2458 68.4504 18.3985Z" fill="#F7A528"/>
<path opacity="0.5" d="M68.4504 18.3985C68.1662 18.1854 67.9804 17.9887 67.9804 17.9887C67.9804 17.9887 67.3466 2.73789 64.2374 2.07671C61.1282 1.41553 55.806 7.91256 55.806 7.91256C55.1722 7.71584 54.5328 7.54099 53.9045 7.38799C55.4345 6.08202 61.4233 1.08767 63.9861 0.601352C66.7237 0.0877103 68.6416 11.2458 68.4504 18.3985Z" fill="#F7A528"/>
<path d="M67.2483 22.0706C66.1117 22.0706 63.9479 21.005 58.9371 15.2949C55.8444 11.7704 53.1013 8.08203 53.074 8.04924L52.7516 7.61757L53.1559 7.26239C53.4674 6.98917 60.8059 0.612359 63.8769 0.0331458C64.243 -0.0378899 64.8003 -0.00510419 65.3959 0.524931C68.0352 2.89643 69.434 14.0217 68.9477 20.0269C68.8384 21.4039 68.2155 21.8629 67.7128 22.0105C67.5762 22.0487 67.4232 22.0706 67.2483 22.0706ZM54.3308 7.78696C55.1395 8.85796 57.3689 11.7486 59.8114 14.5353C61.5982 16.5735 63.1501 18.1582 64.4178 19.2401C66.456 20.9777 67.2101 20.9449 67.3904 20.8903C67.6745 20.8083 67.762 20.2564 67.7893 19.9341C68.0242 16.9833 67.7947 12.8196 67.1882 9.07653C66.5489 5.13678 65.5872 2.26257 64.62 1.39375C64.3304 1.13147 64.1555 1.16972 64.0954 1.18064C61.9425 1.585 56.664 5.7925 54.3308 7.78696Z" fill="#1B1464"/>
<path d="M58.1721 7.585C57.7295 7.32818 57.8115 6.64515 58.1994 6.31729C59.5983 5.1534 63.0954 2.42126 64.008 2.82561C65.4942 3.48133 66.3631 10.3609 65.7948 11.7379C65.2811 12.9946 61.0026 9.21336 58.1721 7.585Z" fill="white"/>
<path d="M30.8944 7.585C31.337 7.32818 31.2551 6.64515 30.8671 6.31729C29.4683 5.1534 25.9711 2.42126 25.0586 2.82561C23.5723 3.48133 22.7035 10.3609 23.2718 11.7379C23.7854 12.9946 28.0639 9.21336 30.8944 7.585Z" fill="white"/>
<path d="M74.0623 32.0158C73.9748 31.371 73.8601 30.7262 73.7235 30.0869C71.2919 30.9776 67.3303 32.3491 64.0244 33.4857C60.3196 34.7589 56.287 34.7042 52.615 33.3436L50.4456 32.5349C46.637 31.1197 42.4405 31.1197 38.6319 32.5349L36.4626 33.3436C32.7906 34.7097 28.7579 34.7589 25.0531 33.4857C21.7473 32.3546 17.7856 30.9776 15.354 30.0869C15.2174 30.7262 15.1027 31.3656 15.0153 32.0158C14.7147 34.2452 14.8076 36.267 15.1519 38.0812C16.3977 44.6438 21.3265 49.9004 27.7525 51.7309C37.9379 54.627 48.1124 54.5286 58.4235 52.4249C59.3961 52.2282 60.3688 52.0041 61.325 51.7309C67.751 49.9059 72.6853 44.6492 73.9257 38.0812C74.2699 36.267 74.3573 34.2452 74.0623 32.0158Z" fill="white"/>
<path d="M73.9257 35.2124C72.6799 41.775 67.7511 47.0316 61.3251 48.8622C60.3689 49.1354 59.3962 49.3539 58.4236 49.5561C48.107 51.6599 37.938 51.7582 27.7526 48.8622C21.3266 47.0371 16.3923 41.7804 15.152 35.2124C15.0317 34.5731 14.9443 33.9119 14.8897 33.2234C14.7585 34.9774 14.8733 36.6003 15.152 38.0811C16.3978 44.6437 21.3266 49.9004 27.7526 51.7309C37.938 54.627 48.1125 54.5286 58.4236 52.4249C59.3962 52.2281 60.3689 52.0041 61.3251 51.7309C67.7511 49.9058 72.6853 44.6492 73.9257 38.0811C74.2044 36.6003 74.3192 34.9774 74.188 33.2234C74.1334 33.9119 74.0459 34.5785 73.9257 35.2124Z" fill="#CCCCCC"/>
<path d="M73.7235 30.0925C71.2919 30.9831 67.3248 32.3601 64.0244 33.4912C60.3196 34.7644 56.287 34.7098 52.615 33.3492L50.4457 32.5405C46.6371 31.1252 42.4405 31.1252 38.6319 32.5405L36.4626 33.3492C32.7906 34.7152 28.758 34.7644 25.0532 33.4912C21.7473 32.3601 17.7857 30.9831 15.3541 30.0925C16.2994 25.732 18.3977 21.59 21.1244 17.9946C22.3429 16.3826 23.6816 14.8854 25.0969 13.5193C27.37 11.3281 30.1787 9.38831 33.2332 7.91842C33.2332 7.91842 33.2332 7.91842 33.2387 7.91842C36.9216 6.15346 40.9652 5.077 44.8721 5.07153C49.1343 5.07153 52.9483 6.32832 55.9209 7.79274C58.1776 8.90199 59.9535 10.126 61.0737 10.9948C67.0516 15.6449 72.1006 22.5463 73.7235 30.0925Z" fill="#F7A528"/>
<path d="M52.2107 53.1298C54.4128 52.7747 56.5985 52.3539 58.7623 51.8567C59.3033 51.731 59.8388 51.5998 60.3688 51.4578C60.6366 51.3867 60.8989 51.3102 61.1611 51.2337L61.5491 51.1135L61.7458 51.0534L61.9371 50.9878L62.3196 50.8512L62.6966 50.7037L62.8879 50.6272L63.0736 50.5452L63.4452 50.3813C63.6911 50.2611 63.937 50.1573 64.1774 50.0261C64.2976 49.966 64.4179 49.9059 64.5381 49.8403L64.8932 49.6436C66.773 48.5672 68.4614 47.1574 69.822 45.4744C71.1826 43.7969 72.2154 41.857 72.8492 39.797C73.0022 39.2834 73.1443 38.7588 73.2481 38.2288C73.3574 37.7042 73.4394 37.1687 73.4995 36.6332C73.6142 35.5622 73.6306 34.4748 73.5541 33.3929C73.5377 33.1251 73.5104 32.8519 73.4831 32.5842C73.4722 32.4475 73.4503 32.3164 73.4339 32.1798C73.4175 32.0432 73.3957 31.912 73.3738 31.7754L73.2481 30.9667L73.0842 30.1635C72.8492 29.0979 72.5651 28.0433 72.1935 27.0106L72.0624 26.6226C72.0132 26.4969 71.964 26.3658 71.9148 26.2401C71.8165 25.9833 71.7181 25.7319 71.6143 25.4751C71.3957 24.9724 71.1881 24.4642 70.9422 23.9725L70.7673 23.6009L70.6799 23.4151L70.587 23.2348L70.2045 22.508C70.0734 22.2676 69.9368 22.0326 69.8002 21.7922L69.598 21.4316C69.527 21.3113 69.4559 21.1966 69.3849 21.0818L68.9532 20.3824L68.4942 19.6939C68.3467 19.4644 68.1827 19.2404 68.0243 19.0163L67.7839 18.683L67.6636 18.5136L67.538 18.3497L67.0352 17.694C66.9533 17.5847 66.8659 17.4754 66.7784 17.3716L66.5161 17.0492C66.1774 16.6121 65.844 16.1804 65.62 15.634L65.6145 15.6285C65.5435 15.4591 65.6255 15.2624 65.8003 15.1914C65.8987 15.1531 66.0025 15.164 66.0899 15.2077C66.3522 15.3553 66.5762 15.5301 66.7948 15.7159C66.9041 15.8088 67.0079 15.9072 67.1063 16.011C67.2046 16.1148 67.2975 16.2186 67.3904 16.3279L67.6636 16.6558C67.7565 16.7651 67.844 16.8744 67.9314 16.9836L68.456 17.6557L68.5871 17.8251L68.7128 17.9945L68.9641 18.3388C69.1335 18.5683 69.3029 18.7978 69.4614 19.0327L69.9422 19.7376L70.4012 20.4589C70.4777 20.5791 70.5542 20.6993 70.6307 20.8196L70.8438 21.1857C70.9859 21.4316 71.1335 21.6775 71.2701 21.9233L71.6744 22.6774L71.7782 22.8632L71.8711 23.0545L72.0624 23.437C72.3247 23.9451 72.5432 24.4697 72.7782 24.9888C72.8875 25.2511 72.9913 25.5188 73.0951 25.7866C73.1498 25.9177 73.199 26.0543 73.2536 26.1855L73.3957 26.5898C73.7891 27.6663 74.0896 28.7701 74.341 29.8848L74.5158 30.7263L74.6524 31.5733C74.6743 31.7153 74.7016 31.8574 74.718 31.9995C74.7344 32.1415 74.7563 32.2836 74.7727 32.4312C74.8055 32.7153 74.8328 33.0049 74.8492 33.2945C74.9257 34.4475 74.9038 35.6059 74.7781 36.7589C74.7126 37.3326 74.6251 37.9064 74.5049 38.4746C74.3902 39.0429 74.2372 39.6003 74.0678 40.1576C73.9803 40.4309 73.8929 40.7095 73.7891 40.9828C73.6962 41.256 73.5815 41.5237 73.4722 41.7915C73.2427 42.3215 72.9968 42.8461 72.7181 43.3542L72.6143 43.5455L72.505 43.7313L72.2864 44.1083C72.128 44.3542 71.9804 44.6001 71.8165 44.8351C71.4941 45.3159 71.1444 45.7749 70.7783 46.223L70.4996 46.5563C70.4067 46.6656 70.3083 46.7694 70.21 46.8787C70.0187 47.0973 69.8166 47.2995 69.6144 47.5071C69.5106 47.6109 69.4067 47.7093 69.3029 47.8076L69.1445 47.9606L68.986 48.1082L68.6636 48.3978L68.3303 48.6765C68.221 48.7694 68.1062 48.8622 67.9915 48.9497C67.8767 49.0371 67.7675 49.13 67.6472 49.2174C67.4123 49.3868 67.1828 49.5617 66.9424 49.7201C66.467 50.048 65.9697 50.3431 65.467 50.6217L65.0845 50.8239C64.9588 50.8895 64.8277 50.9551 64.6965 51.0152C64.4397 51.1463 64.172 51.2611 63.9097 51.3813L63.5108 51.5452L63.3086 51.6272L63.1064 51.7037L62.7021 51.8512L62.2922 51.9878L62.0846 52.0534L61.877 52.1135L61.4617 52.2337C61.1885 52.3102 60.9098 52.3812 60.6366 52.4413C60.0847 52.5725 59.5328 52.6872 58.9754 52.7965C56.7624 53.2173 54.5384 53.5451 52.2981 53.7364C52.1287 53.7528 51.9757 53.6216 51.9593 53.4522C51.9374 53.2992 52.0522 53.1572 52.2107 53.1298Z" fill="#1B1464"/>
<path d="M23.1953 15.9454C23.0204 16.5137 22.6926 16.9399 22.3538 17.3607L22.1024 17.6776C22.0205 17.7814 21.9331 17.8853 21.8566 17.9945L21.3702 18.6393C21.2883 18.7486 21.2118 18.8579 21.1353 18.9672L20.9058 19.3005L20.6763 19.6338C20.5998 19.7431 20.5287 19.8579 20.4522 19.9726L20.0096 20.6502L19.5889 21.3387C19.5178 21.4534 19.4468 21.5682 19.3812 21.6829L19.1845 22.0326L18.9878 22.3824C18.9222 22.4971 18.8567 22.6173 18.7966 22.7375L18.425 23.4534C18.3922 23.5135 18.3649 23.5736 18.3321 23.6337L18.2447 23.814L18.0698 24.1801C17.8348 24.661 17.6272 25.1582 17.4141 25.65L17.119 26.3986C17.0698 26.5243 17.0207 26.65 16.977 26.7756L16.8458 27.1527L16.7147 27.5297C16.671 27.6554 16.6272 27.7811 16.589 27.9122L16.3595 28.6827C16.3431 28.7482 16.3212 28.8083 16.3048 28.8739L16.2557 29.0706L16.1573 29.4586L16.059 29.8466C16.0262 29.9777 16.0043 30.1088 15.977 30.24L15.8185 31.0268L15.6819 31.8082C15.5945 32.3328 15.5398 32.8628 15.5016 33.3929C15.4251 34.453 15.436 35.513 15.5453 36.5676C15.6491 37.6222 15.8622 38.6604 16.1573 39.6768C16.7584 41.704 17.742 43.622 19.0534 45.2831C19.1353 45.387 19.2173 45.4908 19.3047 45.5946C19.3922 45.6984 19.4741 45.8023 19.5616 45.9006C19.7364 46.0973 19.9113 46.2995 20.0971 46.4908C20.4577 46.8787 20.8457 47.2448 21.2391 47.6C21.4413 47.7749 21.638 47.9497 21.8511 48.1136C22.0533 48.283 22.2718 48.4415 22.4849 48.6C22.9166 48.9114 23.3538 49.212 23.8128 49.4797C24.7198 50.0316 25.687 50.4906 26.6815 50.8731C26.8072 50.9223 26.9329 50.966 27.0585 51.0097C27.1842 51.0534 27.3099 51.1026 27.4356 51.1409L27.8181 51.2611C27.9438 51.2993 28.0804 51.3376 28.206 51.3758C28.7252 51.5288 29.2497 51.6764 29.7743 51.813C30.2989 51.9496 30.8289 52.0862 31.3589 52.2064C31.889 52.3321 32.419 52.4523 32.949 52.5616C34.0146 52.7856 35.0856 52.9769 36.162 53.1462C36.3369 53.1736 36.4516 53.3375 36.4243 53.5069C36.397 53.6708 36.244 53.791 36.0801 53.7692C34.9818 53.6544 33.8944 53.5014 32.807 53.3211C31.7196 53.1408 30.6376 52.9222 29.5612 52.6709C29.0257 52.5506 28.4902 52.414 27.9547 52.272C27.8235 52.2337 27.6869 52.2009 27.5558 52.1627L27.1514 52.0479C27.0148 52.0097 26.8837 51.966 26.7471 51.9222C26.6159 51.8785 26.4793 51.8348 26.3482 51.7911C25.2881 51.4141 24.2554 50.9441 23.2827 50.3813C21.3265 49.2557 19.5889 47.7585 18.1736 45.9935C16.7529 44.234 15.6819 42.1904 15.0153 40.0265C14.6874 38.9391 14.4579 37.8244 14.3322 36.6988C14.212 35.5731 14.1902 34.4366 14.2612 33.3109C14.2995 32.7481 14.3541 32.1853 14.4415 31.6279L14.5727 30.7973L14.7421 29.9722C14.7694 29.8356 14.7967 29.699 14.8295 29.5624L14.9333 29.1526L15.0371 28.7428L15.0863 28.5406C15.1027 28.475 15.1246 28.404 15.1464 28.3384L15.3868 27.5352C15.4251 27.3986 15.4743 27.2674 15.518 27.1363L15.6546 26.7374L15.7912 26.3385C15.8349 26.2074 15.8896 26.0762 15.9442 25.9451L16.2502 25.1637L16.5835 24.3932C16.6436 24.2675 16.6928 24.1364 16.7529 24.0107L16.9387 23.6337L17.1245 23.2566L17.2174 23.0709C17.2502 23.0107 17.283 22.9452 17.3157 22.8851L17.7092 22.1474C17.7747 22.0217 17.8458 21.9015 17.9113 21.7813L18.119 21.4206L18.3266 21.06C18.3977 20.9398 18.4742 20.825 18.5452 20.7048L18.9878 19.9945L19.4523 19.3005C19.5288 19.1858 19.6053 19.0655 19.6872 18.9563L19.9331 18.6175L20.179 18.2787C20.261 18.1639 20.3429 18.0546 20.4249 17.9454L20.9331 17.2842C21.0151 17.1749 21.1025 17.0656 21.1954 16.9563L21.4577 16.6339C21.5451 16.5246 21.6325 16.4154 21.7254 16.317C21.8183 16.2132 21.9221 16.1203 22.0259 16.0219C22.1298 15.929 22.2445 15.8416 22.3593 15.7596C22.474 15.6777 22.5997 15.6012 22.7363 15.5411C22.9112 15.4646 23.1133 15.5411 23.1898 15.7159C23.2117 15.7815 23.2172 15.8689 23.1953 15.9454Z" fill="#1B1464"/>
<path opacity="0.5" d="M55.9099 7.78713C55.8444 7.86909 55.8061 7.91281 55.8061 7.91281C44.4459 4.39928 33.4572 7.84177 33.2277 7.91281C36.9106 6.14785 40.9542 5.07138 44.8612 5.06592C49.1288 5.06592 52.9374 6.32817 55.9099 7.78713Z" fill="#F7A528"/>
<path d="M57.2049 8.66126C56.6858 8.4864 56.1613 8.31155 55.6422 8.12576C55.1231 7.94544 54.604 7.75419 54.0848 7.56294C53.0466 7.1859 51.992 6.85805 50.9265 6.5739C50.3965 6.43183 49.861 6.30615 49.32 6.1914C48.7845 6.07665 48.2435 5.97283 47.708 5.89633C47.1671 5.81437 46.6261 5.75426 46.0906 5.71601C45.954 5.71055 45.8229 5.69962 45.6862 5.69416L45.2819 5.67776H44.8775L44.4677 5.68323C42.2765 5.72148 40.0854 5.98376 37.9652 6.50287C36.9052 6.76515 35.8615 7.09847 34.8506 7.50283L33.337 8.12576C32.8288 8.3334 32.3261 8.54104 31.7906 8.72683C31.6267 8.78147 31.4518 8.69951 31.3972 8.53558C31.3534 8.41537 31.3917 8.28969 31.4791 8.20772C31.9053 7.8143 32.3753 7.48097 32.867 7.1859C33.3588 6.89083 33.8779 6.63948 34.408 6.4209C35.468 5.9783 36.5554 5.61766 37.6647 5.33351C39.8832 4.7543 42.1673 4.48655 44.4459 4.45923H44.8721L45.3092 4.47016L45.7464 4.49201C45.8884 4.49748 46.036 4.51387 46.178 4.5248C46.7518 4.57398 47.3255 4.65048 47.8884 4.74337C49.0195 4.92916 50.1287 5.20237 51.2161 5.5193C52.309 5.83623 53.38 6.2078 54.4346 6.61762C54.9646 6.82526 55.4837 7.0493 55.9864 7.31158C56.2378 7.44272 56.4891 7.5848 56.7296 7.7378C56.97 7.8908 57.2104 8.05472 57.4344 8.24597C57.5328 8.3334 57.5437 8.4864 57.4563 8.58476C57.4017 8.66672 57.2978 8.69404 57.2049 8.66126Z" fill="#1B1464"/>
<path d="M50.4129 41.8077C50.4129 46.5507 47.7791 48.5233 44.5333 48.5233C41.2876 48.5233 38.6538 46.5507 38.6538 41.8077C38.6538 41.5071 38.6647 41.2121 38.6866 40.917C38.8887 40.9989 39.1073 41.0755 39.3532 41.1465C44.1563 42.5891 44.5333 38.7968 44.5333 37.5674C44.5333 38.7968 44.9104 42.5891 49.7135 41.1465C49.9539 41.0755 50.1779 40.9935 50.3801 40.917C50.402 41.2066 50.4129 41.5071 50.4129 41.8077Z" fill="#0C0B47"/>
<path d="M44.5333 48.8292C42.741 48.8292 41.2274 48.25 40.1564 47.1571C38.9543 45.9331 38.3478 44.1299 38.3478 41.8076C38.3478 41.507 38.3587 41.201 38.3806 40.9005C38.386 40.8021 38.4407 40.7147 38.5226 40.6655C38.6046 40.6164 38.7084 40.6054 38.7958 40.6382C38.998 40.7202 39.2166 40.7912 39.4352 40.8622C41.0034 41.3322 42.2055 41.2666 43.0143 40.671C44.1071 39.8568 44.2273 38.2394 44.2273 37.5782C44.2273 37.4088 44.3639 37.2722 44.5333 37.2722C44.7027 37.2722 44.8393 37.4088 44.8393 37.5782C44.8393 38.2394 44.9595 39.8568 46.0524 40.671C46.8611 41.2721 48.0633 41.3376 49.6315 40.8622C49.861 40.7912 50.0796 40.7202 50.2708 40.6382C50.3637 40.6 50.4621 40.6109 50.544 40.6601C50.626 40.7092 50.6806 40.8021 50.6861 40.895C50.708 41.201 50.7189 41.507 50.7189 41.8076C50.7189 44.1354 50.1124 45.9331 48.9102 47.1571C47.8392 48.25 46.3256 48.8292 44.5333 48.8292ZM38.9652 41.3431C38.9598 41.4961 38.9543 41.6491 38.9543 41.8021C38.9543 45.8785 40.987 48.2117 44.5279 48.2117C48.0687 48.2117 50.1014 45.873 50.1014 41.8021C50.1014 41.6491 50.096 41.4961 50.0905 41.3431C49.9921 41.3759 49.8938 41.4087 49.7954 41.436C48.0359 41.966 46.648 41.8677 45.6808 41.1464C45.0907 40.7092 44.741 40.0972 44.5279 39.4852C44.3148 40.0972 43.965 40.7092 43.3749 41.1464C42.4023 41.8677 41.0198 41.966 39.2603 41.436C39.1619 41.4087 39.0636 41.3759 38.9652 41.3431Z" fill="#0C0B47"/>
<path d="M47.9212 43.026C47.9212 45.25 46.8119 46.3265 44.5333 46.3265C42.2547 46.3265 41.1455 45.25 41.1455 43.026C41.1455 42.8566 41.1509 42.6873 41.1673 42.5179C41.2001 42.0971 41.2712 41.6873 41.3859 41.2993C41.4406 41.119 41.5936 40.9824 41.7793 40.9605C42.9104 40.8075 43.6317 40.0699 43.9213 38.7748C43.965 38.5727 44.1344 38.4251 44.3421 38.4033C44.4131 38.3978 44.4787 38.3923 44.5333 38.3923C44.588 38.3923 44.6481 38.3923 44.7246 38.4033C44.9268 38.4251 45.0962 38.5727 45.1453 38.7748C45.4349 40.0699 46.1562 40.8075 47.2873 40.9605C47.4731 40.9879 47.6316 41.119 47.6808 41.2993C47.801 41.7037 47.872 42.1244 47.9048 42.5616C47.9157 42.7146 47.9212 42.873 47.9212 43.026Z" fill="#E44A8A"/>
<path d="M45.7081 42.2556C46.2327 42.4031 46.9485 42.5343 47.9048 42.5616C47.8774 42.1299 47.8009 41.7037 47.6807 41.2993C47.6261 41.119 47.4731 40.9824 47.2873 40.9605C46.1562 40.8075 45.4349 40.0699 45.1453 38.7748C45.1016 38.5727 44.9322 38.4251 44.7246 38.4033C44.6535 38.3978 44.5825 38.3923 44.5333 38.3923C44.4841 38.3923 44.4186 38.3923 44.3421 38.4033C44.1344 38.4251 43.965 38.5727 43.9213 38.7748C43.6317 40.0699 42.9104 40.8075 41.7793 40.9605C41.5935 40.9879 41.4405 41.119 41.3859 41.2993C41.2711 41.6928 41.1946 42.0971 41.1673 42.5179C41.681 42.5834 42.446 42.5889 43.3202 42.2993C43.7082 42.1736 44.1235 42.3867 44.2546 42.7692L44.5388 43.5889L44.8065 42.7419C44.9213 42.3649 45.3202 42.1463 45.7081 42.2556Z" fill="#E44A8A"/>
<path d="M39.3532 35.3286C39.3532 35.3286 33.6539 39.4323 39.3532 41.1481C45.0524 42.8639 44.5224 37.2029 44.5224 37.2029L39.3532 35.3286Z" fill="white"/>
<path d="M49.7135 35.3269L44.5442 37.2012C44.5442 37.2012 44.0142 42.8621 49.7135 41.1464C55.4182 39.4306 49.7135 35.3269 49.7135 35.3269Z" fill="white"/>
<path d="M44.506 37.2014C44.3585 38.7369 43.5279 41.4362 39.3532 40.1794C37.8013 39.7095 37.091 39.0647 36.8833 38.3762C36.6156 39.409 37.08 40.4691 39.3532 41.1521C44.1563 42.5947 44.5333 38.8024 44.5333 37.573C44.5333 37.3435 44.5224 37.2014 44.5224 37.2014H44.506Z" fill="#CCCCCC"/>
<path d="M52.1833 38.376C51.9757 39.0645 51.2708 39.7093 49.7189 40.1792C45.5442 41.436 44.7136 38.7366 44.5661 37.2012L44.5497 37.2066C44.5497 37.2066 44.5388 37.3487 44.5388 37.5782C44.5388 38.8077 44.9158 42.5999 49.7189 41.1573C51.9866 40.4688 52.4456 39.4087 52.1833 38.376Z" fill="#CCCCCC"/>
<path d="M39.4188 35.4211C38.9216 35.8582 38.4462 36.3391 38.0309 36.8472C37.8232 37.1041 37.6375 37.3718 37.479 37.645C37.3205 37.9237 37.2003 38.2133 37.1402 38.5029C37.0801 38.7925 37.0965 39.0821 37.1949 39.3389C37.2932 39.5958 37.479 39.8253 37.714 40.0165C37.7686 40.0657 37.8342 40.1094 37.8943 40.1531C37.9599 40.1968 38.02 40.2405 38.091 40.2788L38.1894 40.3389L38.2932 40.3935C38.3642 40.4318 38.4352 40.4646 38.5063 40.4974C38.7959 40.6285 39.1019 40.7378 39.4133 40.8307C40.0417 41.011 40.6865 41.1476 41.3149 41.1367L41.5499 41.1312C41.6264 41.1258 41.7029 41.1148 41.7794 41.1039L41.8941 41.093L42.0034 41.0711L42.1127 41.0493C42.151 41.0438 42.1892 41.0329 42.222 41.0219L42.4351 40.9509L42.6373 40.858C42.7684 40.7924 42.8996 40.7159 43.0143 40.623C43.4897 40.2679 43.8066 39.716 43.9924 39.1149C44.0853 38.8144 44.1509 38.4974 44.1837 38.1805C44.2001 38.0221 44.211 37.8581 44.2219 37.6997C44.2219 37.6177 44.2274 37.5412 44.2274 37.4592C44.2274 37.3827 44.2274 37.2953 44.2219 37.2297V37.2243C44.211 37.0658 44.3312 36.9237 44.4897 36.9128C44.6481 36.9019 44.7847 37.0166 44.7957 37.1751C44.8066 37.2734 44.8066 37.3609 44.8121 37.4483C44.8175 37.5357 44.8175 37.6286 44.8175 37.7161C44.8175 37.8909 44.8066 38.0712 44.7902 38.2461C44.7574 38.6013 44.6918 38.951 44.5935 39.3007C44.4951 39.6449 44.3531 39.9892 44.1563 40.3061C43.9596 40.623 43.7083 40.9127 43.4077 41.1422C43.1072 41.3717 42.7575 41.552 42.3968 41.6449C42.3531 41.6613 42.3094 41.6722 42.2602 41.6831L42.1236 41.7104L41.987 41.7378C41.9433 41.7432 41.8941 41.7487 41.8504 41.7542C41.7575 41.7651 41.6701 41.776 41.5772 41.7815L41.304 41.7869C41.2603 41.7869 41.2111 41.7924 41.1674 41.7869L41.0308 41.7815L40.763 41.7651C40.5882 41.7432 40.4078 41.7214 40.233 41.6886C40.0636 41.6503 39.8887 41.6175 39.7193 41.5793C39.55 41.5301 39.3806 41.4864 39.2112 41.4372C38.8778 41.3334 38.5445 41.2132 38.2221 41.0602C38.1402 41.0219 38.0582 40.9837 37.9817 40.94L37.8615 40.8744L37.7467 40.8034C37.6702 40.7597 37.5937 40.705 37.5172 40.6504C37.4462 40.5957 37.3697 40.5411 37.2987 40.4755C37.0145 40.2351 36.7577 39.9182 36.6211 39.5411C36.479 39.1641 36.4845 38.7433 36.5719 38.3772C36.6594 38.0057 36.8287 37.6778 37.02 37.3773C37.2112 37.0767 37.4353 36.8035 37.6702 36.5467C37.9107 36.2953 38.162 36.0549 38.4298 35.8363C38.6975 35.6178 38.9707 35.4101 39.2658 35.2243C39.3205 35.1916 39.3915 35.2079 39.4243 35.2626C39.4735 35.3172 39.4625 35.3828 39.4188 35.4211Z" fill="#0C0B47"/>
<path d="M49.8009 35.2067C50.0959 35.398 50.3637 35.6056 50.6314 35.8242C50.8992 36.0428 51.1505 36.2832 51.3855 36.54C51.6205 36.7968 51.8445 37.0701 52.0357 37.3761C52.227 37.6821 52.3909 38.0099 52.4784 38.3815C52.5221 38.5673 52.5439 38.764 52.5385 38.9607C52.533 39.1574 52.4947 39.3596 52.4292 39.5508C52.2926 39.9333 52.0357 40.2503 51.7461 40.4907C51.6751 40.5563 51.5986 40.6054 51.5276 40.6655C51.4511 40.7147 51.3746 40.7694 51.2981 40.8186L51.1833 40.8896L51.0631 40.9552C50.9866 40.9989 50.9046 41.0371 50.8227 41.0754C50.5003 41.2284 50.167 41.3486 49.8336 41.4524C49.6643 41.5016 49.4949 41.5453 49.3255 41.5945C49.1561 41.6382 48.9812 41.671 48.8064 41.7038C48.6315 41.7311 48.4566 41.7529 48.2763 41.7803L48.0086 41.7967L47.872 41.8021C47.8283 41.8021 47.7791 41.8021 47.7354 41.8021L47.4621 41.7967C47.3693 41.7912 47.2818 41.7748 47.1889 41.7639C47.1452 41.7584 47.096 41.7529 47.0523 41.7475L46.9157 41.7202L46.7791 41.6928C46.7354 41.6819 46.6862 41.671 46.6425 41.6546L46.3748 41.5672L46.1179 41.4524C45.9485 41.365 45.7846 41.2666 45.6371 41.1519C45.3365 40.9224 45.0797 40.6328 44.8885 40.3158C44.6918 39.9989 44.5552 39.6547 44.4513 39.3104C44.353 38.9607 44.2874 38.611 44.2546 38.2558C44.2382 38.0809 44.2273 37.9006 44.2273 37.7258C44.2273 37.6383 44.2273 37.5509 44.2328 37.458C44.2382 37.3651 44.2382 37.2832 44.2492 37.1848C44.2655 37.0263 44.4076 36.9061 44.5661 36.9225C44.7245 36.9389 44.8393 37.0755 44.8284 37.2285V37.234C44.8229 37.2996 44.8229 37.387 44.8229 37.4635C44.8229 37.5454 44.8229 37.6219 44.8284 37.7039C44.8338 37.8624 44.8448 38.0263 44.8666 38.1848C44.8994 38.5072 44.965 38.8186 45.0579 39.1192C45.2436 39.7202 45.5606 40.2667 46.036 40.6273C46.1507 40.7202 46.2819 40.7912 46.413 40.8623L46.6152 40.9552L46.8283 41.0262C46.8611 41.0371 46.8993 41.0481 46.9376 41.0535L47.0469 41.0754L47.1561 41.0972L47.2709 41.1082C47.3474 41.1136 47.4239 41.13 47.5004 41.1355L47.7354 41.1409C48.3638 41.1464 49.0085 41.0153 49.6315 40.8295C49.9429 40.7366 50.2489 40.6273 50.5385 40.4962C50.6096 40.4634 50.6861 40.4306 50.7516 40.3923L50.8555 40.3377L50.9538 40.2776C51.0249 40.2393 51.085 40.1956 51.1505 40.1519C51.2106 40.1082 51.2762 40.0645 51.3309 40.0153C51.5658 39.8241 51.7461 39.5946 51.8445 39.3432C51.9429 39.0864 51.9592 38.8022 51.8991 38.5126C51.839 38.223 51.7188 37.9334 51.5604 37.6602C51.4019 37.387 51.2161 37.1192 51.0085 36.8624C50.5986 36.3542 50.1178 35.8788 49.6151 35.4526L49.6096 35.4472C49.5495 35.3925 49.5386 35.2996 49.5932 35.2395C49.6588 35.1739 49.7408 35.1685 49.8009 35.2067Z" fill="#0C0B47"/>
<path d="M44.5333 45.791C42.3476 45.791 41.2384 44.7965 41.1509 42.7583C41.1455 42.8457 41.1455 42.9386 41.1455 43.026C41.1455 45.25 42.2547 46.3265 44.5333 46.3265C46.8119 46.3265 47.9212 45.25 47.9212 43.026C47.9212 42.9386 47.9212 42.8457 47.9157 42.7583C47.8283 44.8019 46.719 45.791 44.5333 45.791Z" fill="#E44A8A"/>
<path d="M48.0468 34.5457C48.0468 36.0101 46.4731 37.2013 44.5333 37.2013C42.5935 37.2013 41.0198 36.0156 41.0198 34.5457C41.0198 33.0813 42.5935 32.4966 44.5333 32.4966C46.4731 32.4966 48.0468 33.0813 48.0468 34.5457Z" fill="black"/>
<path d="M48.0468 34.5457C48.0468 36.0101 46.4731 37.2013 44.5333 37.2013C42.5935 37.2013 41.0198 36.0156 41.0198 34.5457C41.0198 33.0813 42.5935 32.4966 44.5333 32.4966C46.4731 32.4966 48.0468 33.0813 48.0468 34.5457Z" fill="#0C0B47"/>
<path d="M44.5333 33.42C46.26 33.42 47.6916 33.8845 47.9922 35.0211C48.0304 34.8681 48.0468 34.7096 48.0468 34.5457C48.0468 33.0813 46.4731 32.4966 44.5333 32.4966C42.5935 32.4966 41.0198 33.0813 41.0198 34.5457C41.0198 34.7096 41.0416 34.8626 41.0744 35.0211C41.3749 33.8845 42.8066 33.42 44.5333 33.42Z" fill="#2F2F7C"/>
<path d="M44.5333 37.4911C42.4351 37.4911 40.7302 36.1687 40.7302 34.5458C40.7302 33.0595 42.1181 32.2017 44.5333 32.2017C46.9485 32.2017 48.3365 33.0541 48.3365 34.5458C48.3365 36.1687 46.6316 37.4911 44.5333 37.4911ZM44.5333 32.7863C43.5662 32.7863 41.3094 32.9557 41.3094 34.5458C41.3094 35.8463 42.7574 36.9064 44.5333 36.9064C46.3092 36.9064 47.7573 35.8463 47.7573 34.5458C47.7573 32.9612 45.5005 32.7863 44.5333 32.7863Z" fill="#0C0B47"/>
<path d="M26.5925 43.8382C28.321 42.1097 28.321 39.3073 26.5925 37.5788C24.8641 35.8504 22.0616 35.8504 20.3332 37.5788C18.6047 39.3073 18.6047 42.1097 20.3332 43.8382C22.0616 45.5666 24.8641 45.5666 26.5925 43.8382Z" fill="#FC7FC9"/>
<path d="M69.9758 41.419C70.3674 39.0061 68.7288 36.7326 66.3159 36.341C63.903 35.9494 61.6295 37.588 61.2379 40.0009C60.8463 42.4138 62.4849 44.6873 64.8978 45.0789C67.3107 45.4705 69.5842 43.8319 69.9758 41.419Z" fill="#FC7FC9"/>
<path d="M33.5501 33.0378C35.4393 33.0378 36.9708 31.3106 36.9708 29.18C36.9708 27.0495 35.4393 25.3223 33.5501 25.3223C31.661 25.3223 30.1295 27.0495 30.1295 29.18C30.1295 31.3106 31.661 33.0378 33.5501 33.0378Z" fill="#0C0B47"/>
<path d="M34.6649 29.6772C35.4616 29.6772 36.1074 28.9506 36.1074 28.0543C36.1074 27.158 35.4616 26.4314 34.6649 26.4314C33.8681 26.4314 33.2223 27.158 33.2223 28.0543C33.2223 28.9506 33.8681 29.6772 34.6649 29.6772Z" fill="white"/>
<path d="M55.5165 33.0376C57.4057 33.0376 58.9371 31.3104 58.9371 29.1798C58.9371 27.0492 57.4057 25.322 55.5165 25.322C53.6273 25.322 52.0959 27.0492 52.0959 29.1798C52.0959 31.3104 53.6273 33.0376 55.5165 33.0376Z" fill="#0C0B47"/>
<path d="M56.6311 29.6772C57.4278 29.6772 58.0737 28.9506 58.0737 28.0543C58.0737 27.158 57.4278 26.4314 56.6311 26.4314C55.8344 26.4314 55.1886 27.158 55.1886 28.0543C55.1886 28.9506 55.8344 29.6772 56.6311 29.6772Z" fill="white"/>
<path d="M32.0639 22.9506C33.9772 22.9506 35.5282 22.0772 35.5282 20.9998C35.5282 19.9225 33.9772 19.0491 32.0639 19.0491C30.1506 19.0491 28.5995 19.9225 28.5995 20.9998C28.5995 22.0772 30.1506 22.9506 32.0639 22.9506Z" fill="white"/>
<path d="M57.0029 22.9506C58.9162 22.9506 60.4673 22.0772 60.4673 20.9998C60.4673 19.9225 58.9162 19.0491 57.0029 19.0491C55.0896 19.0491 53.5386 19.9225 53.5386 20.9998C53.5386 22.0772 55.0896 22.9506 57.0029 22.9506Z" fill="white"/>
<path d="M6.34895 43.7038C5.15227 43.7038 3.90641 43.2503 3.47473 43.0754C2.49663 42.682 0.775381 41.8022 0.267203 40.3433C-0.519653 38.1029 0.491238 35.7041 2.51302 34.9938C3.18513 34.7588 3.89548 34.7315 4.58398 34.9009C5.01566 34.338 5.58395 33.9173 6.25605 33.6823C7.26148 33.3272 8.35434 33.4419 9.33244 33.9993C10.2614 34.5293 10.9717 35.4036 11.3433 36.4582C11.8515 37.9117 11.0592 39.6766 10.54 40.5946C10.234 41.1411 9.11933 42.9552 7.69316 43.4525C7.66037 43.4634 7.62212 43.4743 7.58934 43.4852C7.55655 43.5016 7.5183 43.5126 7.48552 43.5235C7.13034 43.6546 6.74237 43.7038 6.34895 43.7038ZM3.23431 37.0593C2.34909 37.3653 1.94474 38.5182 2.32724 39.622C2.45291 39.9772 3.11956 40.5782 4.28891 41.0482C5.4692 41.5236 6.44184 41.5837 6.75877 41.4689C6.75877 41.4689 6.76423 41.4689 6.77516 41.4635L6.86259 41.4252L6.95548 41.4034C6.96641 41.3979 6.97187 41.3979 6.97187 41.3979C7.2888 41.2886 8.01555 40.6329 8.63848 39.5291C9.26141 38.4308 9.40894 37.5456 9.28326 37.1904C9.08655 36.6276 8.72044 36.174 8.25051 35.9063C7.82976 35.6659 7.38169 35.6112 6.97734 35.7533C6.57298 35.8954 6.25605 36.2232 6.07573 36.6768L5.61127 37.857L4.51295 37.2177C4.0922 36.9718 3.6332 36.9172 3.23431 37.0593Z" fill="#1B1464"/>
<path d="M2.87366 36.0262C3.60587 35.7694 4.38726 35.8787 5.05937 36.2667C5.34351 35.5454 5.88448 34.9716 6.61669 34.7148C8.07019 34.2066 9.72586 35.1519 10.316 36.824C10.9007 38.4961 8.79147 41.9167 7.33797 42.4249C7.29972 42.4358 7.26694 42.4468 7.22869 42.4577C7.1959 42.4741 7.16312 42.485 7.12487 42.5014C5.67137 43.0096 1.89009 41.6599 1.29995 39.9824C0.709803 38.3048 1.4147 36.5344 2.87366 36.0262Z" fill="#E44A8A"/>
<path d="M6.95542 42.0316C6.99367 42.0207 7.02646 42.0043 7.05924 41.9879C7.09203 41.977 7.13028 41.9661 7.16853 41.9551C8.57285 41.4634 10.5837 38.2722 10.2012 36.54C10.2395 36.6329 10.2777 36.7204 10.3105 36.8187C10.8952 38.4908 8.78596 41.9114 7.33246 42.4196C7.29421 42.4305 7.26142 42.4415 7.22317 42.4524C7.19039 42.4688 7.1576 42.4797 7.11935 42.4961C5.66585 43.0043 1.88457 41.6546 1.29443 39.9771C1.26164 39.8842 1.23432 39.7858 1.207 39.6929C1.98839 41.283 5.55657 42.5234 6.95542 42.0316Z" fill="#E44A8A"/>
<path d="M7.22257 35.8306C7.67259 35.673 7.96625 35.342 7.87848 35.0914C7.79071 34.8408 7.35475 34.7653 6.90473 34.9229C6.4547 35.0805 6.16104 35.4114 6.24881 35.6621C6.33658 35.9127 6.77255 35.9882 7.22257 35.8306Z" fill="white"/>
<path d="M2.40922 36.7258C2.49118 36.9662 2.80811 37.07 3.10865 36.9662C3.41465 36.8624 3.5895 36.5783 3.50754 36.3433C3.42558 36.1029 3.10865 35.999 2.80811 36.1029C2.50211 36.2067 2.32179 36.4908 2.40922 36.7258Z" fill="white"/>
<path d="M4.11407 36.6328C4.15232 36.7421 4.25614 36.8022 4.34903 36.7695C4.44193 36.7367 4.48564 36.6219 4.44739 36.5181C4.40914 36.4088 4.30532 36.3487 4.21243 36.3815C4.11954 36.4143 4.07582 36.5236 4.11407 36.6328Z" fill="white"/>
<path d="M5.67689 36.0811C5.71514 36.1904 5.81896 36.2505 5.91185 36.2177C6.00474 36.1849 6.04846 36.0702 6.01021 35.9663C5.97196 35.8571 5.86814 35.797 5.77524 35.8297C5.68235 35.8625 5.6441 35.9718 5.67689 36.0811Z" fill="white"/>
</svg>
