<svg width="100" height="100" viewBox="0 0 100 100" fill="none" xmlns="http://www.w3.org/2000/svg">
<path d="M52.988 0.0107492C111.029 5.02318 116.893 84.6315 61.8155 99.9441C61.8155 93.3793 61.7453 86.8384 61.8416 80.2775C62.0142 76.5002 60.7141 73.2557 58.3066 70.3943C68.9398 68.3411 78.4495 62.319 79.8097 50.8873C81.1077 44.5021 78.0703 38.8491 74.9325 33.6112C75.418 28.7265 76.2386 25.5678 74.1861 20.6411C67.6598 20.1203 63.6513 26.3879 59.0308 25.2884C52.7232 23.7121 46.3914 23.8477 40.1138 25.488C39.7272 25.6081 39.318 25.6385 38.9177 25.5769C38.5175 25.5153 38.1367 25.3634 37.8046 25.1328C34.1793 22.7882 30.3433 20.8906 25.9676 20.4795C24.7779 23.4726 24.2463 26.4797 24.5873 29.6064C24.5372 31.2028 25.8754 32.9447 24.802 34.3615C15.9905 45.406 20.2358 63.4344 33.9726 68.0637C36.4524 69.0295 39.0786 69.6201 41.7469 70.4123C40.4007 72.3458 38.8499 74.2973 38.5489 76.7517C38.5029 76.8937 38.4263 77.0241 38.3245 77.1337C38.2226 77.2433 38.0979 77.3295 37.9591 77.3862C28.8065 80.8462 29.5528 66.9583 18.8996 67.8322C19.0721 69.7698 19.2386 71.6634 19.4092 73.5909C26.7902 74.856 25.0267 85.5793 38.2058 83.526V100C-20.1022 82.7857 -8.89918 -1.09071 52.988 0.0107492Z" fill="white"/>
</svg>
