<svg width="100" height="100" viewBox="0 0 100 100" fill="none" xmlns="http://www.w3.org/2000/svg">
<path d="M99.2384 41.374C96.4485 26.4152 88.4939 14.9726 75.5723 7.0441C67.4845 2.09761 58.6058 -0.215178 49.1417 0.0157097C34.5109 0.371825 22.2491 6.04619 12.4913 16.9351C5.34921 24.9066 1.16339 34.3143 0.231467 44.9665C-1.25843 62.0268 4.44665 76.3888 17.2782 87.761C25.4756 95.0261 35.1785 98.9493 46.1032 99.8376C46.3572 99.8746 46.6084 99.9289 46.855 100H53.1083C54.9701 99.7456 56.8457 99.5617 58.6939 99.2173C70.8951 96.9985 80.9426 91.058 88.7954 81.4918C95.1113 73.7981 98.6961 64.9246 99.7592 55.0336C99.8297 54.3918 99.9197 53.752 100 53.1121V46.8508C99.7553 45.0369 99.5791 43.1898 99.2384 41.374ZM81.109 26.9435L70.8911 74.7862C70.1217 78.1635 68.1091 79.0009 65.2565 77.4101L49.6938 66.0203L42.1817 73.1935C41.3496 74.0192 40.6565 74.708 39.0492 74.708L40.169 58.9685L69.0175 33.0836C70.2725 31.9722 68.7473 31.3578 67.0695 32.4692L31.4117 54.7753L16.0546 49.9951C12.7145 48.962 12.6538 46.6786 16.7515 45.0878L76.8018 22.1105C79.5839 21.0774 82.0135 22.7269 81.109 26.9435Z" fill="white"/>
</svg>
