<svg width="100" height="100" viewBox="0 0 100 100" fill="none" xmlns="http://www.w3.org/2000/svg">
<path d="M46.8569 0H53.105C53.3514 0.0704736 53.6024 0.12409 53.8562 0.160477C61.4364 0.73389 68.4846 2.97861 75.079 6.7557C92.4109 16.6877 102.358 36.8941 99.5197 56.6739C97.5772 70.2186 91.2157 81.2915 80.3842 89.6324C69.4529 98.0477 56.9959 101.279 43.3298 99.5487C34.0203 98.3745 25.6849 94.7324 18.4372 88.7517C8.91636 80.8981 2.98516 70.8879 0.78248 58.7112C0.44797 56.8598 0.262131 54.9928 0 53.1199V46.877C0.142803 45.6871 0.266043 44.4952 0.434277 43.3093C1.83883 33.3519 5.7884 24.5413 12.4571 17.0106C20.2291 8.23718 29.8986 2.77312 41.4714 0.75346C43.2535 0.442291 45.0611 0.248544 46.8569 0ZM39.5289 63.275C34.4546 67.0384 29.0241 68.5336 22.7447 68.0071C23.269 68.3457 23.5487 68.5473 23.8441 68.7156C31.2914 72.9799 39.2453 74.1209 47.5807 72.3282C62.17 69.197 72.7589 55.8735 72.7961 40.6927C72.7961 39.4833 73.0641 38.677 74.0774 37.9333C75.7695 36.6925 77.1252 35.0858 78.4123 33.1757C77.2562 33.5554 76.3192 33.9077 75.3587 34.1679C74.3982 34.4282 73.4025 34.6024 72.4244 34.8138C74.4686 33.1248 76.0434 31.2304 76.8396 28.8526C74.7914 29.5904 72.7511 30.3165 70.7206 31.0621C70.0378 31.3107 69.5703 31.1561 68.9971 30.6511C65.5777 27.6412 61.6203 26.8369 57.3695 28.4084C53.0776 29.9936 50.5815 33.209 49.979 37.7669C49.8088 39.0586 49.9535 40.3894 49.9535 41.7495C40.4855 41.0704 32.7077 37.0663 26.4948 29.792C25.0002 32.479 24.6168 35.215 25.2409 38.0801C25.8649 40.9452 27.4787 43.1684 29.7949 44.9551L29.611 45.2213L24.8261 43.8514C25.2174 49.5894 28.183 53.2667 33.6388 55.0065L33.5997 55.2453H28.8442C30.7632 60.1379 34.2335 62.7329 39.5289 63.275Z" fill="white"/>
</svg>
