<svg width="100" height="100" viewBox="0 0 100 100" fill="none" xmlns="http://www.w3.org/2000/svg">
<path d="M66.6299 50.358C66.6678 59.5739 59.2216 67.1215 50.0415 67.1834C46.7322 67.2098 43.4894 66.2524 40.7238 64.4323C37.9582 62.6123 35.7942 60.0115 34.5057 56.9592C33.2172 53.9069 32.8622 50.5404 33.4857 47.286C34.1092 44.0316 35.683 41.0356 38.008 38.6774C40.3331 36.3192 43.3046 34.7048 46.5465 34.0386C49.7884 33.3724 53.1548 33.6844 56.2195 34.9351C59.2842 36.1858 61.9093 38.319 63.7625 41.0644C65.6157 43.8099 66.6136 47.0443 66.6299 50.358V50.358Z" fill="white"/>
<path d="M99.3841 25.063C98.0308 11.4825 88.3485 1.62597 74.7816 0.500413C66.5203 -0.184098 35.5718 -0.0224496 28.4127 0.151173C22.5969 0.290869 17.0242 1.6539 12.1113 4.95672C3.90381 10.4787 0.378055 18.641 0.182734 28.1383C-0.110248 42.7066 -0.000629111 57.2909 0.162803 71.8672C0.226582 77.5648 1.69747 83.0309 4.94619 87.8524C10.463 96.0646 18.6107 99.6009 28.0958 99.7965C42.6452 100.098 57.2086 100.032 71.7581 99.8104C78.973 99.7007 85.6299 97.4855 91.0511 92.3846C97.0702 86.7249 99.4977 79.4886 99.6911 71.506C99.9821 59.55 99.99 47.59 100 35.632C99.992 32.1077 99.7329 28.5714 99.3841 25.063ZM49.9558 75.7767C44.8601 75.7862 39.8761 74.2812 35.6352 71.4524C31.3942 68.6237 28.087 64.5983 26.1325 59.8862C24.178 55.174 23.664 49.9871 24.6557 44.9823C25.6473 39.9774 28.1001 35.3798 31.7032 31.7718C35.3063 28.1637 39.8977 25.7074 44.896 24.7141C49.8943 23.7208 55.0746 24.235 59.7808 26.1917C64.4869 28.1484 68.5074 31.4595 71.3328 35.7058C74.1583 39.952 75.6616 44.9423 75.6526 50.0447C75.6457 56.8671 72.936 63.4082 68.118 68.2324C63.3001 73.0566 56.7675 75.7698 49.9538 75.7767H49.9558ZM76.7089 29.178C75.5199 29.1807 74.357 28.8292 73.3681 28.1683C72.3792 27.5074 71.609 26.5668 71.1554 25.4664C70.7019 24.3659 70.5854 23.1552 70.821 21.9883C71.0565 20.8214 71.6334 19.751 72.4782 18.9132C73.323 18.0755 74.3976 17.5083 75.5652 17.2838C76.7328 17.0593 77.9408 17.1876 79.0354 17.6525C80.13 18.1173 81.0618 18.8976 81.7122 19.8942C82.3627 20.8907 82.7024 22.0585 82.6881 23.2489C82.6855 24.0319 82.5286 24.8066 82.2264 25.5287C81.9241 26.2507 81.4825 26.906 80.9268 27.4568C80.3712 28.0076 79.7124 28.4432 78.9882 28.7386C78.2641 29.034 77.4888 29.1833 76.7069 29.178H76.7089Z" fill="white"/>
<path d="M66.6299 50.358C66.6678 59.5739 59.2216 67.1215 50.0415 67.1834C46.7322 67.2098 43.4894 66.2524 40.7238 64.4323C37.9582 62.6123 35.7942 60.0115 34.5057 56.9592C33.2172 53.9069 32.8622 50.5404 33.4857 47.286C34.1092 44.0316 35.683 41.0356 38.008 38.6774C40.3331 36.3192 43.3046 34.7048 46.5465 34.0386C49.7884 33.3724 53.1548 33.6844 56.2195 34.9351C59.2842 36.1858 61.9093 38.319 63.7625 41.0644C65.6157 43.8099 66.6136 47.0443 66.6299 50.358V50.358Z" fill="white"/>
</svg>
