<svg width="100" height="100" viewBox="0 0 100 100" fill="none" xmlns="http://www.w3.org/2000/svg">
<path d="M53.1041 100H46.8513C46.6047 99.9289 46.3535 99.8746 46.0996 99.8376C35.1758 98.9493 25.4736 95.0261 17.2768 87.761C4.4463 76.3888 -1.25834 62.0268 0.231449 44.9665C1.1633 34.3143 5.34879 24.9066 12.4904 16.9351C22.2474 6.04619 34.5082 0.371825 49.1379 0.0157097C58.6012 -0.215178 67.4792 2.09761 75.5664 7.0441C88.487 14.9726 96.441 26.4152 99.2306 41.374C99.5713 43.1898 99.7475 45.0369 100 46.8684V53.1297C99.9197 53.7696 99.8297 54.4094 99.7592 55.0512C98.6884 64.9422 95.1039 73.8157 88.7963 81.5094C80.9441 91.0756 70.8993 97.0161 58.6972 99.2349C56.8413 99.5617 54.9658 99.7456 53.1041 100ZM70.9561 44.7278C65.134 40.6716 58.5895 38.9008 51.4636 38.5525C52.5736 33.3262 53.662 28.1938 54.7642 22.9989C55.1225 23.0419 55.4102 23.0556 55.6902 23.1143C58.6149 23.7346 61.5358 24.39 64.4684 24.9731C65.2514 25.1297 65.643 25.4036 65.825 26.2587C66.3438 28.7358 68.8202 30.4597 71.2615 30.172C73.732 29.8903 75.6584 28.0921 75.9599 25.7812C76.2848 23.3021 74.981 21.0167 72.7219 20.1343C70.4627 19.2518 67.9922 19.9953 66.5317 22.091C66.2185 22.541 65.9621 22.6486 65.4257 22.5292C61.8686 21.7466 58.3037 21.0089 54.7388 20.2575C53.0493 19.9014 52.6832 20.1499 52.3308 21.8483C51.2443 27.0668 50.1226 32.2794 49.0889 37.5017C48.9147 38.3744 48.5545 38.5779 47.7538 38.6073C43.5585 38.7638 39.4709 39.5504 35.6026 41.1842C33.3101 42.1528 31.1313 43.3855 28.8232 44.538C28.8839 44.581 28.8016 44.538 28.7253 44.4695C25.1819 41.6793 20.4659 42.2623 17.9797 45.7961C15.4934 49.3299 16.5799 53.9496 20.4052 56.3622C20.5476 56.482 20.6616 56.6319 20.7391 56.8011C20.8166 56.9703 20.8557 57.1545 20.8535 57.3405C20.5305 61.3928 21.6796 64.995 24.1111 68.2099C26.983 72.0078 30.8082 74.5358 35.1562 76.3046C42.4446 79.2729 49.9973 79.8266 57.685 78.412C63.4053 77.3612 68.6754 75.1913 73.0547 71.2447C77.064 67.6326 79.4895 63.2575 79.0882 57.6731C79.0353 56.9355 79.2115 56.552 79.8713 56.1293C82.4162 54.4838 83.6143 52.0986 83.2345 49.0638C82.8548 46.029 81.1242 43.9764 78.2405 43.0411C75.5468 42.1978 73.0997 42.8513 70.9561 44.7278V44.7278Z" fill="white"/>
<path d="M38.4784 60.391C37.0993 60.3884 35.7779 59.8384 34.8046 58.8619C33.8313 57.8855 33.286 56.5626 33.2886 55.1842C33.2912 53.8059 33.8415 52.4851 34.8184 51.5123C35.7954 50.5395 37.1189 49.9945 38.4979 49.9971C39.1807 49.9984 39.8566 50.1341 40.487 50.3964C41.1173 50.6588 41.6898 51.0427 42.1717 51.5262C42.6536 52.0096 43.0355 52.5833 43.2957 53.2143C43.5558 53.8453 43.689 54.5213 43.6877 55.2038C43.6864 55.8863 43.5507 56.5618 43.2882 57.1918C43.0257 57.8219 42.6416 58.3941 42.1579 58.8757C41.6741 59.3574 41.1002 59.7391 40.4689 59.9991C39.8376 60.2591 39.1612 60.3923 38.4784 60.391V60.391Z" fill="white"/>
<path d="M66.6314 55.194C66.6397 56.5723 66.0999 57.8975 65.1306 58.878C64.1614 59.8585 62.8422 60.414 61.4632 60.4223C60.0841 60.4306 58.7583 59.891 57.7773 58.9223C56.7964 57.9535 56.2406 56.635 56.2323 55.2566C56.2282 54.5742 56.3586 53.8976 56.6161 53.2655C56.8736 52.6334 57.2531 52.0582 57.733 51.5727C58.213 51.0872 58.7838 50.7009 59.4131 50.436C60.0424 50.171 60.7177 50.0325 61.4005 50.0284C62.0833 50.0243 62.7603 50.1546 63.3927 50.412C64.0251 50.6694 64.6006 51.0487 65.0863 51.5284C65.5721 52.0081 65.9585 52.5787 66.2236 53.2076C66.4887 53.8366 66.6273 54.5116 66.6314 55.194Z" fill="white"/>
<path d="M50.4044 72.8393C46.5771 72.6848 43.2119 72.3482 40.1443 70.7242C39.2372 70.2206 38.39 69.616 37.6189 68.9221C37.0648 68.4407 37.0648 67.7481 37.5484 67.1611C38.0613 66.5525 38.7661 66.4273 39.3671 66.9556C42.0549 69.3212 45.3673 69.8026 48.7247 70.0472C51.5692 70.2565 54.4019 69.9532 57.08 68.9456C58.2135 68.521 59.2707 67.8381 60.2906 67.165C61.1559 66.5917 61.8137 66.4919 62.3755 67.0906C62.9374 67.6894 62.8336 68.5386 62.0701 69.2195C59.8717 71.1762 57.1759 71.9745 54.3471 72.4265C52.9063 72.6613 51.438 72.7356 50.4044 72.8393Z" fill="white"/>
</svg>
