<svg width="100" height="101" viewBox="0 0 100 101" fill="none" xmlns="http://www.w3.org/2000/svg">
<path d="M99.973 46.8792V52.9324C99.7617 54.6364 99.6365 56.3542 99.3235 58.0386C96.0849 75.4182 86.4887 87.9236 70.5348 95.5549C68.414 96.5703 66.1504 97.2805 63.8575 98.1706V61.0672H74.5572C75.101 56.8609 75.6312 52.7544 76.179 48.5128H63.8223C63.8223 45.4726 63.7675 42.5458 63.8379 39.6209C63.9142 36.3889 65.5713 34.7142 68.8151 34.5734C71.0258 34.4775 73.2405 34.5245 75.4532 34.5088H76.4666V23.1029C72.544 23.0422 68.6742 22.8016 64.8279 23.0011C62.8402 23.1048 60.7644 23.7231 58.9586 24.5819C53.7056 27.0705 51.3951 31.6387 50.996 37.2087C50.7554 40.5776 50.8943 43.974 50.863 47.3586C50.863 47.7342 50.863 48.1118 50.863 48.5989H40.1751V61.073H50.8551V62.2293C50.8551 74.466 50.8551 86.7041 50.8551 98.9434C50.8551 99.2975 50.7925 99.6497 50.7593 100.002H46.8464C45.9171 99.8806 44.9878 99.7514 44.0585 99.6399C34.3038 98.4778 25.5097 94.8897 18.1067 88.4629C3.05593 75.3921 -2.72919 58.874 1.19147 39.3059C5.62667 17.1632 25.7856 0.566902 48.3529 0.0191054C58.0861 -0.217621 67.2225 1.97552 75.5471 7.06221C88.481 14.9779 96.4025 26.4405 99.1904 41.3837C99.5387 43.1992 99.7147 45.0461 99.973 46.8792Z" fill="white"/>
</svg>
