<svg width="209" height="89" viewBox="0 0 209 89" fill="none" xmlns="http://www.w3.org/2000/svg">
<rect width="208.723" height="88.5948" rx="20" fill="#29ABE2"/>
<path d="M126.572 18.1698H57.0128C52.4843 18.1698 48.8132 21.8319 48.8132 26.3493V39.4037C48.8132 43.9212 52.4843 47.5833 57.0128 47.5833H126.572C131.101 47.5833 134.772 43.9212 134.772 39.4037V26.3493C134.772 21.8319 131.101 18.1698 126.572 18.1698Z" fill="#D0D3E2"/>
<path d="M126.521 18.1085H56.9611C52.4326 18.1085 48.7615 21.7706 48.7615 26.2881V39.3425C48.7615 43.8599 52.4326 47.522 56.9611 47.522H126.521C131.049 47.522 134.72 43.8599 134.72 39.3425V26.2881C134.72 21.7706 131.049 18.1085 126.521 18.1085Z" fill="#D0D3E2"/>
<path d="M126.469 18.0474H56.9094C52.3808 18.0474 48.7097 21.7095 48.7097 26.2269V39.2813C48.7097 43.7987 52.3808 47.4608 56.9094 47.4608H126.469C130.998 47.4608 134.669 43.7987 134.669 39.2813V26.2269C134.669 21.7095 130.998 18.0474 126.469 18.0474Z" fill="#D0D3E2"/>
<path d="M126.417 17.9828H56.8577C52.3291 17.9828 48.658 21.6449 48.658 26.1623V39.2167C48.658 43.7342 52.3291 47.3963 56.8577 47.3963H126.417C130.946 47.3963 134.617 43.7342 134.617 39.2167V26.1623C134.617 21.6449 130.946 17.9828 126.417 17.9828Z" fill="#D0D3E2"/>
<path d="M126.366 17.9216H56.806C52.2774 17.9216 48.6063 21.5837 48.6063 26.1012V39.1556C48.6063 43.673 52.2774 47.3351 56.806 47.3351H126.366C130.894 47.3351 134.565 43.673 134.565 39.1556V26.1012C134.565 21.5837 130.894 17.9216 126.366 17.9216Z" fill="#D0D3E2"/>
<path d="M126.314 17.8604H56.7543C52.2257 17.8604 48.5546 21.5225 48.5546 26.0399V39.0943C48.5546 43.6117 52.2257 47.2738 56.7543 47.2738H126.314C130.842 47.2738 134.514 43.6117 134.514 39.0943V26.0399C134.514 21.5225 130.842 17.8604 126.314 17.8604Z" fill="#D0D3E2"/>
<path d="M126.262 17.7991H56.7025C52.174 17.7991 48.5029 21.4612 48.5029 25.9786V39.033C48.5029 43.5504 52.174 47.2125 56.7025 47.2125H126.262C130.791 47.2125 134.462 43.5504 134.462 39.033V25.9786C134.462 21.4612 130.791 17.7991 126.262 17.7991Z" fill="#D0D3E2"/>
<path d="M126.21 17.7378H56.6508C52.1223 17.7378 48.4512 21.3999 48.4512 25.9173V38.9717C48.4512 43.4892 52.1223 47.1513 56.6508 47.1513H126.21C130.739 47.1513 134.41 43.4892 134.41 38.9717V25.9173C134.41 21.3999 130.739 17.7378 126.21 17.7378Z" fill="#D0D3E2"/>
<path d="M126.159 17.6733H56.5991C52.0706 17.6733 48.3995 21.3354 48.3995 25.8529V38.9073C48.3995 43.4247 52.0706 47.0868 56.5991 47.0868H126.159C130.687 47.0868 134.358 43.4247 134.358 38.9073V25.8529C134.358 21.3354 130.687 17.6733 126.159 17.6733Z" fill="#D0D3E2"/>
<path d="M126.107 17.6121H56.5474C52.0189 17.6121 48.3478 21.2742 48.3478 25.7916V38.846C48.3478 43.3634 52.0189 47.0255 56.5474 47.0255H126.107C130.636 47.0255 134.307 43.3634 134.307 38.846V25.7916C134.307 21.2742 130.636 17.6121 126.107 17.6121Z" fill="#D0D3E2"/>
<path d="M126.055 17.5508H56.4957C51.9671 17.5508 48.296 21.2129 48.296 25.7303V38.7847C48.296 43.3022 51.9671 46.9643 56.4957 46.9643H126.055C130.584 46.9643 134.255 43.3022 134.255 38.7847V25.7303C134.255 21.2129 130.584 17.5508 126.055 17.5508Z" fill="#D0D3E2"/>
<path d="M126.004 17.4895H56.444C51.9154 17.4895 48.2443 21.1516 48.2443 25.669V38.7234C48.2443 43.2409 51.9154 46.903 56.444 46.903H126.004C130.532 46.903 134.203 43.2409 134.203 38.7234V25.669C134.203 21.1516 130.532 17.4895 126.004 17.4895Z" fill="#D0D3E2"/>
<path d="M125.952 17.425H56.3923C51.8637 17.425 48.1926 21.0872 48.1926 25.6046V38.659C48.1926 43.1764 51.8637 46.8385 56.3923 46.8385H125.952C130.48 46.8385 134.152 43.1764 134.152 38.659V25.6046C134.152 21.0872 130.48 17.425 125.952 17.425Z" fill="#D0D3E2"/>
<path d="M125.9 17.3638H56.3405C51.812 17.3638 48.1409 21.0259 48.1409 25.5433V38.5977C48.1409 43.1151 51.812 46.7772 56.3405 46.7772H125.9C130.429 46.7772 134.1 43.1151 134.1 38.5977V25.5433C134.1 21.0259 130.429 17.3638 125.9 17.3638Z" fill="#D0D3E2"/>
<path d="M125.848 17.3025H56.2888C51.7603 17.3025 48.0892 20.9646 48.0892 25.482V38.5364C48.0892 43.0539 51.7603 46.716 56.2888 46.716H125.848C130.377 46.716 134.048 43.0539 134.048 38.5364V25.482C134.048 20.9646 130.377 17.3025 125.848 17.3025Z" fill="#D0D3E2"/>
<path d="M125.797 17.2412H56.2371C51.7086 17.2412 48.0375 20.9033 48.0375 25.4208V38.4751C48.0375 42.9926 51.7086 46.6547 56.2371 46.6547H125.797C130.325 46.6547 133.996 42.9926 133.996 38.4751V25.4208C133.996 20.9033 130.325 17.2412 125.797 17.2412Z" fill="#D0D3E2"/>
<path d="M125.745 17.1768H56.1854C51.6569 17.1768 47.9858 20.8389 47.9858 25.3563V38.4107C47.9858 42.9281 51.6569 46.5902 56.1854 46.5902H125.745C130.274 46.5902 133.945 42.9281 133.945 38.4107V25.3563C133.945 20.8389 130.274 17.1768 125.745 17.1768Z" fill="#D0D3E2"/>
<path d="M125.69 17.1156H56.1305C51.602 17.1156 47.9308 20.7777 47.9308 25.2951V38.3495C47.9308 42.867 51.602 46.5291 56.1305 46.5291H125.69C130.219 46.5291 133.89 42.867 133.89 38.3495V25.2951C133.89 20.7777 130.219 17.1156 125.69 17.1156Z" fill="#D0D3E2"/>
<path d="M125.638 17.0543H56.0788C51.5503 17.0543 47.8792 20.7164 47.8792 25.2339V38.2883C47.8792 42.8057 51.5503 46.4678 56.0788 46.4678H125.638C130.167 46.4678 133.838 42.8057 133.838 38.2883V25.2339C133.838 20.7164 130.167 17.0543 125.638 17.0543Z" fill="#D0D3E2"/>
<path d="M125.587 16.993H56.027C51.4985 16.993 47.8274 20.6551 47.8274 25.1726V38.227C47.8274 42.7444 51.4985 46.4065 56.027 46.4065H125.587C130.115 46.4065 133.786 42.7444 133.786 38.227V25.1726C133.786 20.6551 130.115 16.993 125.587 16.993Z" fill="#D0D3E2"/>
<path d="M125.535 16.9285H55.9753C51.4468 16.9285 47.7757 20.5906 47.7757 25.108V38.1624C47.7757 42.6798 51.4468 46.3419 55.9753 46.3419H125.535C130.064 46.3419 133.735 42.6798 133.735 38.1624V25.108C133.735 20.5906 130.064 16.9285 125.535 16.9285Z" fill="#D0D3E2"/>
<path d="M125.483 16.8673H55.9236C51.3951 16.8673 47.724 20.5294 47.724 25.0469V38.1012C47.724 42.6187 51.3951 46.2808 55.9236 46.2808H125.483C130.012 46.2808 133.683 42.6187 133.683 38.1012V25.0469C133.683 20.5294 130.012 16.8673 125.483 16.8673Z" fill="#D0D3E2"/>
<path d="M125.432 16.806H55.8719C51.3433 16.806 47.6722 20.4681 47.6722 24.9856V38.04C47.6722 42.5574 51.3433 46.2195 55.8719 46.2195H125.432C129.96 46.2195 133.631 42.5574 133.631 38.04V24.9856C133.631 20.4681 129.96 16.806 125.432 16.806Z" fill="#D0D3E2"/>
<path d="M125.38 16.7448H55.8202C51.2917 16.7448 47.6205 20.4069 47.6205 24.9243V37.9787C47.6205 42.4961 51.2917 46.1582 55.8202 46.1582H125.38C129.908 46.1582 133.58 42.4961 133.58 37.9787V24.9243C133.58 20.4069 129.908 16.7448 125.38 16.7448Z" fill="#D0D3E2"/>
<path d="M125.328 16.6835H55.7685C51.24 16.6835 47.5688 20.3456 47.5688 24.863V37.9174C47.5688 42.4348 51.24 46.097 55.7685 46.097H125.328C129.857 46.097 133.528 42.4348 133.528 37.9174V24.863C133.528 20.3456 129.857 16.6835 125.328 16.6835Z" fill="#D0D3E2"/>
<path d="M125.276 16.619H55.7168C51.1883 16.619 47.5172 20.2811 47.5172 24.7986V37.853C47.5172 42.3704 51.1883 46.0325 55.7168 46.0325H125.276C129.805 46.0325 133.476 42.3704 133.476 37.853V24.7986C133.476 20.2811 129.805 16.619 125.276 16.619Z" fill="#D0D3E2"/>
<path d="M125.225 16.5577H55.665C51.1365 16.5577 47.4654 20.2198 47.4654 24.7373V37.7917C47.4654 42.3091 51.1365 45.9712 55.665 45.9712H125.225C129.753 45.9712 133.424 42.3091 133.424 37.7917V24.7373C133.424 20.2198 129.753 16.5577 125.225 16.5577Z" fill="#D0D3E2"/>
<path d="M125.173 16.4965H55.6133C51.0848 16.4965 47.4137 20.1586 47.4137 24.676V37.7304C47.4137 42.2478 51.0848 45.9099 55.6133 45.9099H125.173C129.702 45.9099 133.373 42.2478 133.373 37.7304V24.676C133.373 20.1586 129.702 16.4965 125.173 16.4965Z" fill="#D0D3E2"/>
<path d="M125.121 16.4353H55.5616C51.0331 16.4353 47.362 20.0974 47.362 24.6148V37.6692C47.362 42.1867 51.0331 45.8488 55.5616 45.8488H125.121C129.65 45.8488 133.321 42.1867 133.321 37.6692V24.6148C133.321 20.0974 129.65 16.4353 125.121 16.4353Z" fill="#D0D3E2"/>
<path d="M125.07 16.3707H55.5099C50.9814 16.3707 47.3102 20.0328 47.3102 24.5503V37.6047C47.3102 42.1221 50.9814 45.7842 55.5099 45.7842H125.07C129.598 45.7842 133.269 42.1221 133.269 37.6047V24.5503C133.269 20.0328 129.598 16.3707 125.07 16.3707Z" fill="#D0D3E2"/>
<path d="M125.018 16.3096H55.4582C50.9297 16.3096 47.2585 19.9717 47.2585 24.4891V37.5435C47.2585 42.0609 50.9297 45.723 55.4582 45.723H125.018C129.546 45.723 133.217 42.0609 133.217 37.5435V24.4891C133.217 19.9717 129.546 16.3096 125.018 16.3096Z" fill="#D0D3E2"/>
<path d="M124.966 16.2483H55.4065C50.878 16.2483 47.2068 19.9104 47.2068 24.4278V37.4822C47.2068 41.9997 50.878 45.6618 55.4065 45.6618H124.966C129.495 45.6618 133.166 41.9997 133.166 37.4822V24.4278C133.166 19.9104 129.495 16.2483 124.966 16.2483Z" fill="#D0D3E2"/>
<path d="M124.914 16.187H55.3548C50.8263 16.187 47.1552 19.8491 47.1552 24.3666V37.4209C47.1552 41.9384 50.8263 45.6005 55.3548 45.6005H124.914C129.443 45.6005 133.114 41.9384 133.114 37.4209V24.3666C133.114 19.8491 129.443 16.187 124.914 16.187Z" fill="#D0D3E2"/>
<path d="M124.863 16.1226H55.3031C50.7746 16.1226 47.1035 19.7847 47.1035 24.3021V37.3565C47.1035 41.8739 50.7746 45.536 55.3031 45.536H124.863C129.391 45.536 133.062 41.8739 133.062 37.3565V24.3021C133.062 19.7847 129.391 16.1226 124.863 16.1226Z" fill="#D0D3E2"/>
<path d="M124.811 16.0613H55.2513C50.7228 16.0613 47.0517 19.7234 47.0517 24.2408V37.2952C47.0517 41.8127 50.7228 45.4748 55.2513 45.4748H124.811C129.34 45.4748 133.011 41.8127 133.011 37.2952V24.2408C133.011 19.7234 129.34 16.0613 124.811 16.0613Z" fill="#D0D3E2"/>
<path d="M124.759 16H55.1996C50.6711 16 47 19.6621 47 24.1795V37.2339C47 41.7514 50.6711 45.4135 55.1996 45.4135H124.759C129.288 45.4135 132.959 41.7514 132.959 37.2339V24.1795C132.959 19.6621 129.288 16 124.759 16Z" fill="#D0D3E2"/>
<path d="M152.8 47.5833H83.2407C78.7121 47.5833 75.041 51.2454 75.041 55.7628V68.8172C75.041 73.3346 78.7121 76.9967 83.2407 76.9967H152.8C157.329 76.9967 161 73.3346 161 68.8172V55.7628C161 51.2454 157.329 47.5833 152.8 47.5833Z" fill="#333333"/>
<path d="M152.71 47.4769H83.1502C78.6217 47.4769 74.9506 51.139 74.9506 55.6565V68.7109C74.9506 73.2283 78.6217 76.8904 83.1502 76.8904H152.71C157.238 76.8904 160.91 73.2283 160.91 68.7109V55.6565C160.91 51.139 157.238 47.4769 152.71 47.4769Z" fill="#303030"/>
<path d="M152.619 47.3673H83.0597C78.5312 47.3673 74.86 51.0294 74.86 55.5469V68.6012C74.86 73.1187 78.5312 76.7808 83.0597 76.7808H152.619C157.148 76.7808 160.819 73.1187 160.819 68.6012V55.5469C160.819 51.0294 157.148 47.3673 152.619 47.3673Z" fill="#2E2E2E"/>
<path d="M152.529 47.2577H82.9692C78.4407 47.2577 74.7696 50.9198 74.7696 55.4372V68.4916C74.7696 73.0091 78.4407 76.6712 82.9692 76.6712H152.529C157.057 76.6712 160.729 73.0091 160.729 68.4916V55.4372C160.729 50.9198 157.057 47.2577 152.529 47.2577Z" fill="#2B2B2B"/>
<path d="M152.438 47.1512H82.8787C78.3502 47.1512 74.6791 50.8134 74.6791 55.3308V68.3852C74.6791 72.9026 78.3502 76.5647 82.8787 76.5647H152.438C156.967 76.5647 160.638 72.9026 160.638 68.3852V55.3308C160.638 50.8134 156.967 47.1512 152.438 47.1512Z" fill="#292929"/>
<path d="M152.348 47.0416H82.7882C78.2597 47.0416 74.5886 50.7037 74.5886 55.2212V68.2756C74.5886 72.793 78.2597 76.4551 82.7882 76.4551H152.348C156.876 76.4551 160.548 72.793 160.548 68.2756V55.2212C160.548 50.7037 156.876 47.0416 152.348 47.0416Z" fill="#262626"/>
<path d="M152.257 46.932H82.6977C78.1692 46.932 74.498 50.5941 74.498 55.1116V68.1659C74.498 72.6834 78.1692 76.3455 82.6977 76.3455H152.257C156.786 76.3455 160.457 72.6834 160.457 68.1659V55.1116C160.457 50.5941 156.786 46.932 152.257 46.932Z" fill="#242424"/>
<path d="M152.167 46.8257H82.6072C78.0787 46.8257 74.4076 50.4878 74.4076 55.0052V68.0596C74.4076 72.5771 78.0787 76.2392 82.6072 76.2392H152.167C156.695 76.2392 160.367 72.5771 160.367 68.0596V55.0052C160.367 50.4878 156.695 46.8257 152.167 46.8257Z" fill="#212121"/>
<path d="M152.076 46.7159H82.5167C77.9882 46.7159 74.3171 50.378 74.3171 54.8955V67.9499C74.3171 72.4673 77.9882 76.1294 82.5167 76.1294H152.076C156.605 76.1294 160.276 72.4673 160.276 67.9499V54.8955C160.276 50.378 156.605 46.7159 152.076 46.7159Z" fill="#1F1F1F"/>
<path d="M151.986 46.6063H82.4262C77.8977 46.6063 74.2266 50.2684 74.2266 54.7859V67.8403C74.2266 72.3577 77.8977 76.0198 82.4262 76.0198H151.986C156.514 76.0198 160.186 72.3577 160.186 67.8403V54.7859C160.186 50.2684 156.514 46.6063 151.986 46.6063Z" fill="#1C1C1C"/>
<path d="M151.895 46.5H82.3357C77.8072 46.5 74.136 50.1621 74.136 54.6795V67.7339C74.136 72.2514 77.8072 75.9135 82.3357 75.9135H151.895C156.424 75.9135 160.095 72.2514 160.095 67.7339V54.6795C160.095 50.1621 156.424 46.5 151.895 46.5Z" fill="#1A1A1A"/>
<path d="M151.805 46.3904H82.2452C77.7167 46.3904 74.0456 50.0525 74.0456 54.5699V67.6243C74.0456 72.1418 77.7167 75.8039 82.2452 75.8039H151.805C156.333 75.8039 160.005 72.1418 160.005 67.6243V54.5699C160.005 50.0525 156.333 46.3904 151.805 46.3904Z" fill="#171717"/>
<path d="M151.714 46.2808H82.1547C77.6262 46.2808 73.9551 49.9429 73.9551 54.4603V67.5147C73.9551 72.0321 77.6262 75.6942 82.1547 75.6942H151.714C156.243 75.6942 159.914 72.0321 159.914 67.5147V54.4603C159.914 49.9429 156.243 46.2808 151.714 46.2808Z" fill="#141414"/>
<path d="M151.621 46.1744H82.061C77.5325 46.1744 73.8614 49.8365 73.8614 54.354V67.4084C73.8614 71.9258 77.5325 75.5879 82.061 75.5879H151.621C156.149 75.5879 159.82 71.9258 159.82 67.4084V54.354C159.82 49.8365 156.149 46.1744 151.621 46.1744Z" fill="#121212"/>
<path d="M151.53 46.0647H81.9705C77.442 46.0647 73.7709 49.7268 73.7709 54.2442V67.2986C73.7709 71.8161 77.442 75.4782 81.9705 75.4782H151.53C156.059 75.4782 159.73 71.8161 159.73 67.2986V54.2442C159.73 49.7268 156.059 46.0647 151.53 46.0647Z" fill="#0F0F0F"/>
<path d="M151.44 45.9584H81.88C77.3515 45.9584 73.6804 49.6205 73.6804 54.1379V67.1923C73.6804 71.7097 77.3515 75.3719 81.88 75.3719H151.44C155.968 75.3719 159.639 71.7097 159.639 67.1923V54.1379C159.639 49.6205 155.968 45.9584 151.44 45.9584Z" fill="#0D0D0D"/>
<path d="M151.349 45.8488H81.7895C77.261 45.8488 73.5898 49.5109 73.5898 54.0283V67.0827C73.5898 71.6001 77.261 75.2622 81.7895 75.2622H151.349C155.878 75.2622 159.549 71.6001 159.549 67.0827V54.0283C159.549 49.5109 155.878 45.8488 151.349 45.8488Z" fill="#0A0A0A"/>
<path d="M151.259 45.7391H81.699C77.1705 45.7391 73.4994 49.4012 73.4994 53.9187V66.9731C73.4994 71.4905 77.1705 75.1526 81.699 75.1526H151.259C155.787 75.1526 159.458 71.4905 159.458 66.9731V53.9187C159.458 49.4012 155.787 45.7391 151.259 45.7391Z" fill="#080808"/>
<path d="M151.168 45.6327H81.6085C77.08 45.6327 73.4089 49.2948 73.4089 53.8122V66.8666C73.4089 71.3841 77.08 75.0462 81.6085 75.0462H151.168C155.697 75.0462 159.368 71.3841 159.368 66.8666V53.8122C159.368 49.2948 155.697 45.6327 151.168 45.6327Z" fill="#050505"/>
<path d="M151.078 45.5231H81.518C76.9895 45.5231 73.3184 49.1852 73.3184 53.7026V66.757C73.3184 71.2744 76.9895 74.9365 81.518 74.9365H151.078C155.606 74.9365 159.277 71.2744 159.277 66.757V53.7026C159.277 49.1852 155.606 45.5231 151.078 45.5231Z" fill="#030303"/>
<path d="M150.987 45.4135H81.4275C76.899 45.4135 73.2278 49.0756 73.2278 53.593V66.6474C73.2278 71.1648 76.899 74.8269 81.4275 74.8269H150.987C155.516 74.8269 159.187 71.1648 159.187 66.6474V53.593C159.187 49.0756 155.516 45.4135 150.987 45.4135Z" fill="#807CA2"/>
<path d="M150.987 45.4135H81.4275C76.899 45.4135 73.2278 49.0756 73.2278 53.593V66.6474C73.2278 71.1648 76.899 74.8269 81.4275 74.8269H150.987C155.516 74.8269 159.187 71.1648 159.187 66.6474V53.593C159.187 49.0756 155.516 45.4135 150.987 45.4135Z" fill="#29ABE2"/>
<path d="M124.759 16H55.1996C50.6711 16 47 19.6621 47 24.1795V37.2339C47 41.7514 50.6711 45.4135 55.1996 45.4135H124.759C129.288 45.4135 132.959 41.7514 132.959 37.2339V24.1795C132.959 19.6621 129.288 16 124.759 16Z" fill="#D0D3E2"/>
<path d="M78.0436 68.8978V50.3141H81.699L89.3233 62.7237V50.3141H92.8172V68.8978H89.0454L81.5374 56.7784V68.8978H78.0436Z" fill="#D0D3E2"/>
<path d="M96.799 68.8978V50.3141H110.609V53.4576H100.558V57.578H109.911V60.7086H100.558V65.7672H110.965V68.8978H96.799Z" fill="#D0D3E2"/>
<path d="M139.229 62.8495L142.888 62.4948C143.103 63.72 143.55 64.6206 144.229 65.1966C145.002 65.8038 145.971 66.1098 146.954 66.0575C148.167 66.0575 149.08 65.8017 149.694 65.2901C149.975 65.0817 150.204 64.8116 150.364 64.5008C150.524 64.19 150.61 63.8467 150.615 63.4975C150.626 63.0891 150.488 62.6907 150.228 62.3755C149.853 61.995 149.387 61.7174 148.873 61.5695C148.442 61.419 147.438 61.1493 145.861 60.7602C143.844 60.2616 142.43 59.649 141.618 58.9225C140.71 58.1502 140.117 57.0738 139.95 55.8957C139.782 54.7176 140.053 53.5192 140.709 52.5259C141.277 51.6788 142.088 51.0225 143.036 50.643C144.202 50.1853 145.449 49.9661 146.702 49.9982C149.037 49.9982 150.796 50.5098 151.979 51.5329C152.566 52.0416 153.036 52.6703 153.357 53.3763C153.678 54.0822 153.843 54.849 153.841 55.6243L150.082 55.7919C149.921 54.8354 149.575 54.1487 149.045 53.7317C148.515 53.3126 147.723 53.0869 146.663 53.0869C145.603 53.0869 144.724 53.3126 144.096 53.7607C143.908 53.8874 143.755 54.0591 143.65 54.2602C143.546 54.4613 143.494 54.6853 143.499 54.9117C143.499 55.1299 143.55 55.3451 143.647 55.5407C143.744 55.7363 143.884 55.9072 144.058 56.0402C144.532 56.4378 145.683 56.8516 147.513 57.2814C148.914 57.5667 150.276 58.0158 151.572 58.6194C152.418 59.0501 153.13 59.7034 153.631 60.5088C154.148 61.4268 154.407 62.4669 154.381 63.5195C154.355 64.5721 154.044 65.5981 153.482 66.4895C152.881 67.4248 152.002 68.1496 150.968 68.5626C149.674 69.0505 148.297 69.2805 146.915 69.2396C144.56 69.2396 142.751 68.6969 141.488 67.6115C140.226 66.526 139.473 64.9387 139.229 62.8495Z" fill="#D0D3E2"/>
<path fill-rule="evenodd" clip-rule="evenodd" d="M127.949 57.6361C128.046 57.5394 128.049 57.4749 127.949 57.3782C127.128 56.5614 126.31 55.7446 125.493 54.9278C125.406 54.8408 125.341 54.8343 125.251 54.9278L122.781 57.3943C122.749 57.4265 122.707 57.4588 122.71 57.5136C122.713 57.5684 122.765 57.6071 122.807 57.6458C123.615 58.455 124.423 59.2578 125.231 60.0735C125.335 60.1735 125.402 60.1799 125.506 60.0735C126.317 59.2546 127.135 58.4453 127.949 57.6361Z" fill="#D0D3E2"/>
<path fill-rule="evenodd" clip-rule="evenodd" d="M120.991 64.5712L123.292 62.2788C123.476 62.0918 123.476 62.0918 123.292 61.9016L119.09 57.7103C118.89 57.5071 118.89 57.5071 119.09 57.3073C120.497 55.9058 121.905 54.5087 123.315 53.1159C123.447 52.9837 123.447 52.9064 123.315 52.7742C122.545 52.0101 121.786 51.2395 121.02 50.4722C120.832 50.2852 120.832 50.2852 120.648 50.4722L113.764 57.3395C113.576 57.5233 113.576 57.5265 113.764 57.7135L118.809 62.7463L120.664 64.5937C120.703 64.6503 120.758 64.6932 120.823 64.7162C120.897 64.6904 120.939 64.6227 120.991 64.5712Z" fill="#D0D3E2"/>
<path fill-rule="evenodd" clip-rule="evenodd" d="M127.474 52.7321C127.277 52.9288 127.277 52.9288 127.474 53.1223L131.692 57.3297C131.866 57.5038 131.87 57.507 131.692 57.6779L130.008 59.3577C129.146 60.2174 128.284 61.0772 127.422 61.9369C127.329 62.0304 127.254 62.1078 127.387 62.2368C128.192 63.0331 129.003 63.8327 129.792 64.6323C129.821 64.673 129.865 64.7007 129.914 64.7097C129.985 64.7097 130.027 64.6387 130.073 64.5936C132.38 62.2916 134.689 59.9907 136.999 57.6908C137.128 57.5618 137.141 57.4845 136.999 57.349C134.689 55.0492 132.383 52.7472 130.079 50.443C129.95 50.3141 129.876 50.327 129.756 50.443C129.009 51.2071 128.24 51.9809 127.474 52.7321Z" fill="#D0D3E2"/>
<path fill-rule="evenodd" clip-rule="evenodd" d="M125.499 69.159L127.914 66.7506C127.995 66.67 128.011 66.6087 127.914 66.5217L125.487 64.1004C125.396 64.0069 125.328 64.0165 125.241 64.1004C124.439 64.9064 123.636 65.7103 122.83 66.512C122.807 66.5267 122.788 66.5461 122.774 66.569C122.76 66.5919 122.752 66.6175 122.749 66.6442C122.77 66.676 122.794 66.7061 122.82 66.7345L125.247 69.159C125.331 69.2557 125.412 69.246 125.499 69.159Z" fill="#D0D3E2"/>
<path d="M61.4633 20.0624H69.5143C70.7028 20.0383 71.8913 20.1052 73.0695 20.2623C73.8218 20.383 74.5387 20.6658 75.1703 21.0909C75.8056 21.5285 76.3346 22.1025 76.7185 22.7706C77.1332 23.4841 77.3465 24.2963 77.3358 25.121C77.3367 26.0428 77.0698 26.9452 76.5673 27.7188C76.0648 28.4924 75.3483 29.1042 74.5045 29.48C75.622 29.7634 76.6161 30.4031 77.3358 31.3016C77.9986 32.1705 78.3472 33.2375 78.3248 34.329C78.32 35.2559 78.0987 36.1688 77.6784 36.9954C77.2851 37.8238 76.6839 38.5368 75.9331 39.0652C75.1211 39.609 74.1832 39.9364 73.2085 40.0164C72.5298 40.0916 70.8944 40.1378 68.3023 40.155H61.4633V20.0624ZM65.5389 23.3961V28.042H68.2053C69.789 28.042 70.7737 28.0184 71.1594 27.9711C71.7731 27.9262 72.3527 27.6723 72.8013 27.2521C73.0028 27.0448 73.1598 26.7986 73.2626 26.5286C73.3654 26.2586 73.4119 25.9705 73.3992 25.682C73.4239 25.131 73.2392 24.5909 72.8821 24.1699C72.4803 23.752 71.9358 23.5 71.3565 23.4638C70.9558 23.4187 69.7955 23.3961 67.8821 23.3961H65.5389ZM65.5389 31.3854V36.7568H69.2945C70.226 36.7853 71.1584 36.7444 72.0838 36.6343C72.6537 36.5432 73.1751 36.2599 73.5608 35.8315C73.9579 35.3541 74.1609 34.7454 74.1296 34.1259C74.1472 33.5811 73.9935 33.0445 73.6901 32.5912C73.3786 32.1548 72.9325 31.8321 72.4199 31.6724C71.8661 31.4789 70.6638 31.3833 68.8129 31.3854H65.5389Z" fill="#1B1464"/>
<path d="M80.7294 33.6035L84.6854 33.2199C84.9246 34.5439 85.4072 35.5176 86.1334 36.1409C86.8595 36.7642 87.842 37.0748 89.081 37.0727C90.3738 37.0727 91.379 36.7954 92.0415 36.2441C92.3448 36.0191 92.5922 35.7277 92.7648 35.3924C92.9374 35.057 93.0305 34.6866 93.037 34.3096C93.0489 33.8686 92.9009 33.4382 92.62 33.0974C92.214 32.6879 91.7101 32.3883 91.1559 32.2269C90.6798 32.0613 89.5949 31.769 87.9013 31.3499C85.7208 30.8104 84.1909 30.1484 83.3118 29.3639C82.7236 28.8675 82.2524 28.2478 81.9317 27.549C81.611 26.8501 81.4488 26.0894 81.4566 25.3208C81.4556 24.2982 81.7594 23.2983 82.3293 22.4482C82.9425 21.5325 83.8191 20.8233 84.8438 20.4137C86.1041 19.913 87.4533 19.6728 88.8095 19.7077C91.3369 19.7077 93.2395 20.2611 94.5172 21.3681C95.795 22.475 96.4662 23.9495 96.5308 25.7915L92.4649 25.9721C92.2904 24.9404 91.9187 24.1956 91.3434 23.7442C90.7681 23.2929 89.9148 23.0672 88.7578 23.0672C87.6007 23.0672 86.6537 23.309 85.9847 23.7926C85.7807 23.9298 85.6146 24.116 85.5017 24.3341C85.3887 24.5521 85.3325 24.795 85.3383 25.0403C85.3389 25.2761 85.3937 25.5085 85.4985 25.7198C85.6033 25.9311 85.7552 26.1155 85.9427 26.259C86.4555 26.6889 87.7009 27.1371 89.6789 27.6035C91.6569 28.0699 93.1199 28.5514 94.068 29.0479C94.9822 29.514 95.752 30.2195 96.2949 31.0887C96.8514 32.0787 97.1304 33.1999 97.1025 34.3345C97.0746 35.4692 96.741 36.5754 96.1365 37.5369C95.4893 38.5555 94.5372 39.3451 93.4151 39.7938C92.0167 40.3229 90.5274 40.5716 89.0325 40.5257C86.4878 40.5257 84.5324 39.9389 83.1664 38.7653C81.8003 37.5918 80.988 35.8712 80.7294 33.6035Z" fill="#1B1464"/>
<path d="M113.421 32.7557L117.364 34.0034C116.759 36.1958 115.754 37.824 114.349 38.8879C112.944 39.9519 111.16 40.4892 108.997 40.5C106.325 40.5 104.127 39.5886 102.403 37.766C100.68 35.9433 99.8178 33.451 99.8178 30.2893C99.8178 26.9469 100.68 24.3505 102.403 22.4998C104.127 20.6492 106.404 19.7239 109.233 19.7239C111.695 19.7239 113.696 20.4504 115.235 21.9034C116.152 22.7631 116.84 23.9969 117.297 25.6046L113.273 26.5719C113.086 25.5965 112.554 24.7203 111.775 24.1022C110.996 23.4841 110.021 23.1649 109.026 23.2027C108.338 23.1813 107.654 23.3152 107.025 23.5943C106.396 23.8734 105.838 24.2906 105.393 24.8147C104.462 25.8894 103.997 27.6208 103.997 30.0088C103.997 32.5494 104.455 34.3581 105.37 35.4349C105.804 35.9576 106.351 36.3746 106.971 36.654C107.59 36.9334 108.265 37.0678 108.945 37.047C109.983 37.0649 110.989 36.6867 111.757 35.9895C112.528 35.3038 113.083 34.2259 113.421 32.7557Z" fill="#1B1464"/>
</svg>
