<svg width="251" height="89" viewBox="0 0 251 89" fill="none" xmlns="http://www.w3.org/2000/svg">
<rect width="250.768" height="88.5948" rx="20" fill="#29ABE2"/>
<path d="M68.0002 45L58.0002 55H78.0002L68.0002 45Z" fill="white"/>
<path d="M48 45L38 35V55L48 45Z" fill="white"/>
<path d="M68.0002 45L78.0002 35H58.0002L68.0002 45Z" fill="white"/>
<path d="M58 35L68 25H48L58 35Z" fill="white"/>
<path d="M68.0002 65L78.0002 55H58.0002L68.0002 65Z" fill="#CFD5F9"/>
<path d="M48 65L58 55H38L48 65Z" fill="white"/>
<path d="M68.0002 25L58.0002 35H78.0002L68.0002 25Z" fill="#CFD5F9"/>
<path d="M38 35H58L48 25L38 35Z" fill="#CFD5F9"/>
<path d="M58 55L48 65H68L58 55Z" fill="white"/>
<path d="M48 45L38 55H58L48 45Z" fill="#CFD5F9"/>
<path d="M58 35H38L48 45L58 35Z" fill="white"/>
<path d="M89.5902 48.6602C90.1402 48.6602 90.5502 48.5102 90.8202 48.2102C91.0802 47.9102 91.2202 47.4702 91.2202 46.8902H94.9602L94.9902 46.9602C95.0269 47.6188 94.9116 48.277 94.6532 48.8839C94.3949 49.4908 94.0003 50.0301 93.5002 50.4602C92.4144 51.3815 91.0231 51.8631 89.6002 51.8102C87.6002 51.8102 86.0702 51.1902 85.0002 49.9502C83.8781 48.605 83.2971 46.8903 83.3702 45.1402V44.8602C83.3702 42.9002 83.9102 41.3002 84.9902 40.0602C86.0602 38.8202 87.5902 38.2002 89.5602 38.2002C91.2202 38.2002 92.5502 38.6602 93.5402 39.5902C94.0453 40.0788 94.437 40.6724 94.6875 41.329C94.9381 41.9856 95.0414 42.6892 94.9902 43.3902L94.9602 43.4602H91.2202C91.243 42.9189 91.0961 42.384 90.8002 41.9302C90.5302 41.5402 90.1102 41.3502 89.5602 41.3502C88.7802 41.3502 88.2402 41.6702 87.9302 42.3002C87.5849 43.1079 87.4243 43.9825 87.4602 44.8602V45.1402C87.4602 46.2402 87.6102 47.1002 87.9302 47.7202C88.2302 48.3402 88.7902 48.6602 89.5902 48.6602V48.6602ZM104.08 42.0502L102.58 42.0402C102.12 42.0402 101.73 42.1202 101.43 42.2702C101.13 42.4302 100.91 42.6502 100.77 42.9502V51.5502H96.6702V38.4402H100.53L100.67 40.3602C100.9 39.7446 101.278 39.1951 101.77 38.7602C102.212 38.3897 102.773 38.1909 103.35 38.2002C103.731 38.1988 104.111 38.2459 104.48 38.3402L104.08 42.0502V42.0502ZM111.86 45.7702V45.8702H111.94L114.11 38.4402H118.47L113.25 53.5002C112.85 54.4702 112.32 55.2702 111.69 55.9002C111.05 56.5302 110.03 56.8502 108.64 56.8502C108.29 56.8502 108 56.8302 107.77 56.7802C107.55 56.7402 107.19 56.6602 106.71 56.5402L107.21 53.6202L107.46 53.6802L107.67 53.7002C108.32 53.7002 108.79 53.6002 109.09 53.4102C109.39 53.2202 109.61 52.9302 109.76 52.5502L110.09 51.7002L105.55 38.4402H109.9L111.86 45.7702V45.7702ZM127.61 45.0202C127.61 43.9202 127.44 43.0202 127.11 42.3502C126.79 41.6802 126.28 41.3502 125.57 41.3502C125.1 41.3502 124.71 41.4302 124.4 41.6002C124.08 41.7702 123.82 42.0202 123.64 42.3402V47.8202C123.84 48.1002 124.09 48.3202 124.41 48.4502C124.786 48.5954 125.187 48.6634 125.59 48.6502C126.31 48.6502 126.82 48.3502 127.13 47.7602C127.486 46.9804 127.647 46.126 127.6 45.2702V45.0202H127.61ZM131.69 45.2702C131.69 47.2502 131.24 48.8302 130.35 50.0202C129.92 50.6037 129.353 51.0723 128.699 51.3845C128.045 51.6967 127.324 51.8429 126.6 51.8102C126.029 51.8259 125.463 51.7053 124.948 51.4584C124.434 51.2114 123.985 50.8452 123.64 50.3902V56.5902H119.54V38.4402H123.37L123.52 39.8802C123.833 39.3541 124.281 38.9211 124.817 38.6258C125.353 38.3304 125.958 38.1835 126.57 38.2002C128.2 38.2002 129.45 38.8202 130.35 40.0702C131.303 41.5396 131.772 43.2707 131.69 45.0202V45.2702V45.2702ZM138.34 35.1802V38.4402H140.56V41.2702H138.34V47.2902C138.34 47.7502 138.44 48.0902 138.62 48.2902C138.718 48.3958 138.837 48.479 138.97 48.5343C139.103 48.5895 139.246 48.6154 139.39 48.6102C139.793 48.6104 140.195 48.5702 140.59 48.4902L140.87 51.5202C140.048 51.7178 139.206 51.8185 138.36 51.8202C137.01 51.8102 135.99 51.4502 135.3 50.7202C134.6 50.0102 134.25 48.8702 134.25 47.3202V41.2702H132.41V38.4402H134.25V35.1802H138.34V35.1802ZM145.67 45.1302C145.67 46.2302 145.84 47.0902 146.19 47.7202C146.53 48.3402 147.11 48.6502 147.94 48.6502C148.74 48.6502 149.31 48.3402 149.66 47.7102C150.01 47.0802 150.18 46.2102 150.18 45.1302V44.8702C150.219 43.9871 150.04 43.1081 149.66 42.3102C149.31 41.6702 148.73 41.3502 147.91 41.3502C147.11 41.3502 146.53 41.6702 146.19 42.3202C145.84 42.9602 145.67 43.8202 145.67 44.8702V45.1302V45.1302ZM141.57 44.8702C141.496 43.1112 142.097 41.3905 143.25 40.0602C144.36 38.8202 145.92 38.1902 147.92 38.1902C149.92 38.1902 151.48 38.8202 152.59 40.0602C153.741 41.392 154.341 43.1117 154.27 44.8702V45.1302C154.27 47.1102 153.71 48.7202 152.59 49.9502C151.48 51.1902 149.93 51.8102 147.94 51.8102C145.93 51.8102 144.36 51.1902 143.24 49.9502C142.094 48.6133 141.5 46.8895 141.58 45.1302V44.8702H141.57ZM159.84 38.4402L160 40.2802C160.43 39.6302 160.96 39.1102 161.59 38.7502C162.228 38.3815 162.953 38.1915 163.69 38.2002C164.98 38.2002 165.99 38.6102 166.71 39.4402C167.43 40.2802 167.79 41.6002 167.79 43.4202V51.5502H163.69V43.4102C163.69 42.6602 163.54 42.1202 163.23 41.8102C162.92 41.5102 162.46 41.3502 161.85 41.3502C161.516 41.3397 161.183 41.4043 160.877 41.5393C160.57 41.6743 160.298 41.8762 160.08 42.1302V51.5502H156.01V38.4402H159.85H159.84ZM175.72 41.3502C175.13 41.3502 174.69 41.5502 174.39 41.9802C174.09 42.4002 173.92 42.9602 173.85 43.6602L173.89 43.7202H177.42V43.4102C177.42 42.7402 177.28 42.2402 177.01 41.8802C176.73 41.5202 176.31 41.3502 175.72 41.3502V41.3502ZM176.02 51.8102C174.08 51.8102 172.54 51.2102 171.39 49.9902C170.815 49.3816 170.367 48.6655 170.07 47.8829C169.773 47.1003 169.634 46.2668 169.66 45.4302V44.9702C169.66 42.9702 170.18 41.3402 171.23 40.0802C172.28 38.8202 173.77 38.1802 175.72 38.2002C177.5 38.2002 178.89 38.7302 179.9 39.8002C180.955 40.9884 181.501 42.5434 181.42 44.1302V46.2802H173.92L173.9 46.3502C174 47.0202 174.26 47.5802 174.73 48.0102C175.19 48.4402 175.8 48.6602 176.57 48.6602C177.826 48.6886 179.069 48.4069 180.19 47.8402L181.16 50.3402C180.484 50.8114 179.733 51.1663 178.94 51.3902C178.03 51.6702 177.05 51.8102 176.01 51.8102H176.02ZM194.41 46.0402H194.48L195.9 38.4402H199.68L196.6 51.5502H193.14L191 44.6002H190.93L188.79 51.5502H185.33L182.24 38.4402H186.02L187.46 46.1002H187.54L189.67 38.4402H192.25L194.41 46.0402V46.0402ZM207.98 47.8702C207.98 47.5502 207.8 47.2602 207.43 47.0002C206.809 46.6558 206.132 46.4255 205.43 46.3202C204.181 46.1377 202.995 45.6575 201.97 44.9202C201.589 44.6103 201.286 44.2157 201.084 43.7677C200.883 43.3197 200.789 42.8309 200.81 42.3402C200.81 41.7717 200.94 41.2107 201.192 40.7008C201.443 40.191 201.809 39.7459 202.26 39.4002C203.23 38.6002 204.55 38.2002 206.2 38.2002C207.95 38.2002 209.34 38.5902 210.37 39.3702C210.855 39.7048 211.245 40.1582 211.504 40.687C211.764 41.2158 211.883 41.8022 211.85 42.3902L211.83 42.4602H207.85C207.85 41.9502 207.72 41.5602 207.45 41.2902C207.19 41.0202 206.77 40.8902 206.19 40.8902C205.76 40.8902 205.4 41.0002 205.11 41.2402C204.972 41.3463 204.86 41.4842 204.786 41.6423C204.712 41.8003 204.677 41.9739 204.684 42.1483C204.691 42.3228 204.739 42.493 204.826 42.6447C204.912 42.7965 205.034 42.9252 205.18 43.0202C205.81 43.3626 206.499 43.5831 207.21 43.6702C208.492 43.8556 209.712 44.3423 210.77 45.0902C211.156 45.4134 211.461 45.8221 211.66 46.284C211.86 46.7458 211.949 47.2479 211.92 47.7502C211.92 48.9302 211.4 49.9002 210.35 50.6602C209.126 51.4777 207.671 51.8808 206.2 51.8102C204.42 51.8102 203 51.3502 201.97 50.4502C200.93 49.5502 200.43 48.5302 200.48 47.4202L200.51 47.3502H204.21C204.23 47.9702 204.41 48.4202 204.78 48.6902C205.14 48.9702 205.65 49.1002 206.31 49.1002C206.86 49.1002 207.28 49.0002 207.56 48.7802C207.84 48.5702 207.98 48.2602 207.98 47.8702" fill="white"/>
</svg>
