<svg width="251" height="89" viewBox="0 0 251 89" fill="none" xmlns="http://www.w3.org/2000/svg">
<rect width="250.768" height="88.5948" rx="20" fill="#29ABE2"/>
<path d="M33.5366 51.2269V51.5123H29.411V51.2269H29.5667C30.1894 51.2269 30.5267 50.2149 30.5267 49.6182V33.4272H27.1536C25.9081 33.4272 25.2854 34.6207 25.2854 35.5289H25V32.3374H38.0254V35.5029H37.74C37.74 34.5948 37.1432 33.4012 35.8718 33.4012H32.4728V49.6441C32.4728 50.2149 32.8101 51.2528 33.4069 51.2528H33.5366V51.2269Z" fill="white"/>
<path d="M51.2065 51.2269H51.3622C51.933 51.2269 52.2963 50.2409 52.2963 49.6181V41.7302H43.0072V49.6441C43.0072 50.2149 43.3186 51.2528 43.9154 51.2528H44.0711V51.5382H39.9714V51.2528H40.1271C40.698 51.2528 41.0612 50.2668 41.0612 49.6441V34.1537C41.0612 33.6088 40.7498 32.6488 40.1271 32.6488H39.9714V32.3374H44.0451V32.6228H43.8894C43.2667 32.6228 42.9813 33.5829 42.9813 34.1277V40.6924H52.2703V34.1537C52.2703 33.6088 51.959 32.6488 51.3363 32.6488H51.2065V32.3374H55.2802V32.6228H55.1245C54.5277 32.6228 54.2164 33.5829 54.2164 34.1277V49.6441C54.2164 50.2149 54.6056 51.2528 55.1245 51.2528H55.2802V51.5382H51.2065V51.2269Z" fill="white"/>
<path d="M57.6934 51.2269H57.849C58.4199 51.2269 58.835 50.2668 58.835 49.696V34.1537C58.835 33.6088 58.4199 32.6488 57.849 32.6488H57.6934V32.3374H68.8506V35.0359H68.5652C68.4873 34.1277 67.8906 33.3493 66.5932 33.3493H60.7551V40.6924H65.5813C66.4894 40.6924 67.1381 40.0437 67.1381 39.3172H67.4235V42.9498H67.1381C67.1381 42.2492 66.4894 41.6783 65.5813 41.6783H60.7551V50.4744H67.1121C68.5911 50.4744 69.2917 48.9176 69.2917 48.0873H69.5771V51.4863H57.6934V51.2269Z" fill="white"/>
<path d="M78.5029 51.2269H78.6586C79.2294 51.2269 79.5927 50.2149 79.5927 49.6182V34.1537C79.5927 33.6088 79.2813 32.6488 78.6586 32.6488H78.5029V32.3374H84.1075C90.257 32.3374 93.9155 36.9819 93.9155 42.0157C93.9155 46.7121 90.4905 51.5123 83.7183 51.5123H78.5029V51.2269V51.2269ZM82.9918 33.3753H81.5128V50.5263H83.0437C87.2211 50.5263 91.9176 47.9575 91.9176 42.4827C91.9435 37.5009 88.1293 33.3753 82.9918 33.3753Z" fill="white"/>
<path d="M107.512 51.2268H107.667C108.134 51.2268 108.368 51.0192 108.368 50.5781C108.368 50.4224 108.342 50.2667 108.29 50.0851L105.669 43.0275H100.584L98.0668 49.9813C98.015 50.137 97.989 50.2667 97.989 50.4224C97.989 50.9154 98.3004 51.2268 98.6377 51.2268H98.7934V51.5122H95.5759V51.2268H95.7316C96.2246 51.2268 96.7435 50.5262 97.0549 49.7218L103.645 32L110.158 49.5402C110.418 50.3186 110.885 51.2268 111.663 51.2268H111.819V51.5122H107.512V51.2268ZM100.843 42.0675H105.306L103.101 35.9699L100.843 42.0675Z" fill="white"/>
<path d="M113.661 32.3374H117.813V32.6228H117.657C117.112 32.6228 116.723 33.5569 116.723 34.1277V49.6441C116.723 50.2149 117.06 51.2528 117.657 51.2528H117.813V51.5382H113.661V51.2528H113.817C114.414 51.2528 114.777 50.2668 114.777 49.6441V34.1537C114.777 33.6088 114.44 32.6488 113.817 32.6488H113.661V32.3374Z" fill="white"/>
<path d="M120.589 51.2269H120.745C121.315 51.2269 121.731 50.2668 121.731 49.696V34.1537C121.731 33.6088 121.315 32.6488 120.745 32.6488H120.589V32.3374H124.766V32.6228H124.637C124.066 32.6228 123.677 33.5829 123.677 34.1277V50.4225H130.034C131.513 50.4225 132.213 48.8657 132.213 47.8278H132.499V51.4863H120.589V51.2269V51.2269Z" fill="white"/>
<path d="M131.746 32.3374H135.742V32.6228C135.482 32.6488 135.197 32.8563 135.197 33.2455C135.197 33.3234 135.223 33.4531 135.275 33.5569L139.634 41.2113L143.811 33.9721C143.967 33.6607 144.019 33.5569 144.019 33.3234C143.941 32.7007 143.448 32.6228 143.344 32.6228V32.3374H146.458V32.6228C145.887 32.6228 145.239 33.531 144.797 34.2575L140.283 42.1194V49.6441C140.283 50.189 140.672 51.2528 141.243 51.2528H141.398V51.5382H137.247V51.2528H137.403C137.999 51.2528 138.363 50.2668 138.363 49.6441V42.3789L133.692 34.3613C133.303 33.7904 132.55 32.6488 131.928 32.6488H131.772V32.3374H131.746Z" fill="white"/>
<path d="M166.671 51.2269H166.827C167.398 51.2269 167.761 50.2409 167.761 49.6181V41.7302H158.472V49.6441C158.472 50.2149 158.783 51.2528 159.38 51.2528H159.536V51.5382H155.462V51.2528H155.618C156.188 51.2528 156.552 50.2668 156.552 49.6441V34.1537C156.552 33.6088 156.24 32.6488 155.618 32.6488H155.462V32.3374H159.536V32.6228H159.38C158.783 32.6228 158.472 33.5829 158.472 34.1277V40.6924H167.761V34.1537C167.761 33.6088 167.449 32.6488 166.827 32.6488H166.671V32.3374H170.745V32.6228H170.589C169.992 32.6228 169.681 33.5829 169.681 34.1277V49.6441C169.681 50.2149 170.07 51.2528 170.589 51.2528H170.745V51.5382H166.671V51.2269Z" fill="white"/>
<path d="M192.67 41.8859C192.67 47.6981 188.077 51.8237 182.499 51.8237C176.557 51.8237 172.898 47.1532 172.898 42.1454C172.898 37.1376 176.557 32.052 182.914 32.052C188.933 32.052 192.67 36.6446 192.67 41.8859ZM190.698 42.2233C190.698 37.942 187.48 33.0639 182.551 33.0639C177.75 33.0639 174.87 37.7604 174.87 41.7303C174.87 46.0115 178.295 50.7858 182.914 50.7858C188.077 50.5782 190.698 46.0894 190.698 42.2233Z" fill="white"/>
<path d="M195.213 51.2269H195.369C195.939 51.2269 196.303 50.2149 196.303 49.6182V34.1537C196.303 33.6088 195.991 32.6488 195.369 32.6488H195.213V32.3374H200.817C206.967 32.3374 210.625 36.9819 210.625 42.0157C210.625 46.7121 207.2 51.5123 200.428 51.5123H195.213V51.2269ZM199.702 33.3753H198.223V50.5263H199.754C203.931 50.5263 208.628 47.9575 208.628 42.4827C208.653 37.5009 204.839 33.3753 199.702 33.3753Z" fill="white"/>
<path d="M213.116 51.2269H213.272C213.843 51.2269 214.258 50.2668 214.258 49.696V34.1537C214.258 33.6088 213.843 32.6488 213.272 32.6488H213.116V32.3374H217.294V32.6228H217.138C216.567 32.6228 216.178 33.5829 216.178 34.1277V50.4225H222.535C224.014 50.4225 224.715 48.8657 224.715 47.8278H225V51.4863H213.116V51.2269Z" fill="white"/>
<path d="M30.1636 61.0347L27.9322 56.8572C27.9581 57.4021 27.9581 58.1027 27.9581 58.6476V61.0087H27.3613V56.2864H28.2695L30.5009 60.4639C30.475 59.919 30.475 59.2184 30.475 58.6735V56.3123H31.0458L31.0718 61.0606H30.1636V61.0347Z" fill="white"/>
<path d="M36.9617 59.3741H34.3151C34.367 60.3341 34.8341 60.6715 35.353 60.6715C35.82 60.6715 36.2092 60.386 36.2871 59.8412H36.9358C36.7801 60.7234 36.1055 61.1126 35.353 61.1126C34.393 61.1126 33.6924 60.4898 33.6924 59.2184C33.6924 58.0249 34.4189 57.2983 35.4308 57.2983C36.4428 57.2983 36.9877 58.0508 36.9877 59.1146C36.9877 59.1406 36.9877 59.2444 36.9617 59.3741ZM34.3411 58.933H36.3909C36.339 58.1805 36.0017 57.7394 35.4049 57.7394C34.8341 57.7394 34.393 58.1546 34.3411 58.933Z" fill="white"/>
<path d="M43.3186 61.0348H42.618L41.8137 57.9471L41.0093 61.0088H40.3087L39.1411 57.3762H39.8157L40.672 60.4639L41.4763 57.3762H42.2029L43.0072 60.438L43.8635 57.3762H44.4862L43.3186 61.0348Z" fill="white"/>
<path d="M49.2865 58.4143H48.6637C48.5859 57.9991 48.3264 57.7396 47.8853 57.7396C47.4702 57.7396 47.2885 57.9732 47.2885 58.2845C47.2885 58.6478 47.5999 58.8035 48.0929 58.9332C48.9232 59.1408 49.3383 59.4781 49.3383 60.1008C49.3383 60.7754 48.7416 61.1387 47.9891 61.1387C47.2366 61.1387 46.6658 60.8014 46.562 59.9711H47.1847C47.2885 60.49 47.6258 60.6976 48.041 60.6976C48.4302 60.6976 48.7416 60.516 48.7416 60.1787C48.7416 59.8414 48.4821 59.6338 47.8853 59.4781C47.2366 59.2965 46.7177 59.037 46.7177 58.3883C46.7177 57.7137 47.2366 57.3245 47.9632 57.3245C48.7675 57.2726 49.2086 57.7396 49.2865 58.4143Z" fill="white"/>
<path d="M57.3041 60.4898L57.0965 60.879C56.837 61.0607 56.5257 61.1126 56.1884 61.1126C55.5397 61.1126 55.0208 60.7493 55.0208 60.0747C55.0208 59.2444 55.6435 58.8292 57.0706 58.8292H57.3041V58.7254C57.3041 58.5697 57.3041 58.4141 57.2781 58.2843C57.2522 57.947 57.0706 57.7394 56.5776 57.7394C56.0846 57.7394 55.8251 57.9989 55.7992 58.5179H55.1764C55.2283 57.7394 55.7732 57.2983 56.5776 57.2983C57.4338 57.2983 57.7971 57.6616 57.8749 58.2584C57.9009 58.4141 57.9009 58.5697 57.9009 58.7514V60.1266C57.9009 60.412 57.9268 60.6455 57.9787 61.0607H57.3819L57.3041 60.4898ZM57.3041 59.6336V59.2703C56.2922 59.1925 55.6694 59.4001 55.6694 60.0228C55.6694 60.4639 55.9548 60.6455 56.3959 60.6455C56.9408 60.6715 57.3041 60.3082 57.3041 59.6336Z" fill="white"/>
<path d="M63.8686 58.9849V61.0347H63.2719V59.0368C63.2719 58.8552 63.2719 58.6995 63.2459 58.5179C63.22 58.1027 62.9864 57.7654 62.4156 57.7654C61.8448 57.7654 61.3518 58.1805 61.3518 59.426V61.0347H60.8069V57.4021H61.4037V58.0249L61.6372 57.6097C61.9486 57.3762 62.208 57.2983 62.5972 57.2983C63.4016 57.2983 63.8427 57.7135 63.8946 58.3622C63.8686 58.5438 63.8686 58.6735 63.8686 58.9849Z" fill="white"/>
<path d="M69.9404 61.0348H69.3436V60.4381L69.0582 60.8273C68.8506 61.0089 68.4614 61.1127 68.0981 61.1127C67.0343 61.1127 66.4375 60.3083 66.4375 59.2445C66.4375 57.8952 67.2678 57.2725 68.2279 57.2725C68.5392 57.2725 68.9025 57.3504 69.11 57.506L69.3436 57.8693V55.9492H69.9404V61.0348V61.0348ZM69.3436 59.2445V59.0369C69.3436 58.1028 68.7468 57.7396 68.2279 57.7396C67.5792 57.7396 67.0862 58.2326 67.0862 59.1926C67.0862 60.0229 67.4494 60.6716 68.176 60.6716C68.7987 60.6716 69.3436 60.2824 69.3436 59.2445Z" fill="white"/>
<path d="M75.9082 61.0347V56.2864H76.505V61.0347H75.9082V61.0347Z" fill="white"/>
<path d="M82.4987 58.9849V61.0347H81.9019V59.0368C81.9019 58.8552 81.9019 58.6995 81.8759 58.5179C81.85 58.1027 81.6165 57.7654 81.0456 57.7654C80.4748 57.7654 79.9818 58.1805 79.9818 59.426V61.0347H79.385V57.4021H79.9818V58.0249L80.2153 57.6097C80.5267 57.3762 80.7861 57.2983 81.1754 57.2983C81.9797 57.2983 82.4208 57.7135 82.4727 58.3622C82.4987 58.5438 82.4987 58.6735 82.4987 58.9849Z" fill="white"/>
<path d="M87.7659 58.4143H87.1432C87.0654 57.9991 86.8059 57.7396 86.3648 57.7396C85.9497 57.7396 85.768 57.9732 85.768 58.2845C85.768 58.6478 86.0794 58.8035 86.5724 58.9332C87.4027 59.1408 87.8178 59.4781 87.8178 60.1008C87.8178 60.7754 87.2211 61.1387 86.4686 61.1387C85.7161 61.1387 85.1453 60.8014 85.0415 59.9711H85.6642C85.768 60.49 86.1053 60.6976 86.5205 60.6976C86.9097 60.6976 87.2211 60.516 87.2211 60.1787C87.2211 59.8414 86.9616 59.6338 86.3648 59.4781C85.7161 59.2965 85.1972 59.037 85.1972 58.3883C85.1972 57.7137 85.7161 57.3245 86.4426 57.3245C87.247 57.2726 87.6881 57.7396 87.7659 58.4143Z" fill="white"/>
<path d="M91.0614 56.5718C91.0614 56.7794 90.9057 56.961 90.6722 56.961C90.4386 56.961 90.283 56.8053 90.283 56.5718C90.283 56.3642 90.4386 56.1826 90.6722 56.1826C90.9057 56.1826 91.0614 56.3383 91.0614 56.5718ZM90.4127 61.0347V57.4021H91.0095V61.0347H90.4127Z" fill="white"/>
<path d="M97.081 60.1266C97.081 60.3602 97.081 60.6456 97.081 60.8272C97.055 61.891 96.4064 62.4619 95.3425 62.4619C94.3046 62.4619 93.7857 62.0208 93.7079 61.2683V61.1905H94.3046V61.2424C94.3565 61.6835 94.7198 61.9948 95.3425 61.9948C96.069 61.9948 96.4583 61.5797 96.4842 60.8791C96.4842 60.6975 96.4842 60.5937 96.4842 60.4899V60.438L96.1988 60.8272C95.9912 61.0088 95.602 61.1126 95.2387 61.1126C94.1749 61.1126 93.5781 60.3083 93.5781 59.2444C93.5781 57.8952 94.4084 57.2725 95.3685 57.2725C95.6798 57.2725 96.0431 57.3503 96.2507 57.506L96.4842 57.8692V57.3762H97.081V60.1266V60.1266ZM96.5101 59.2444V59.0369C96.5101 58.1028 95.9134 57.7395 95.3944 57.7395C94.7457 57.7395 94.2528 58.2325 94.2528 59.1925C94.2528 60.0229 94.616 60.6715 95.3425 60.6715C95.9653 60.6715 96.5101 60.2823 96.5101 59.2444Z" fill="white"/>
<path d="M103.075 58.9849V61.0347H102.478V59.0367C102.478 58.8551 102.478 58.6994 102.452 58.5178C102.426 58.1026 102.193 57.7653 101.622 57.7653C101.051 57.7913 100.584 58.1805 100.584 59.4259V61.0347H99.9871V55.9231H100.584V57.9989L100.817 57.5837C101.129 57.3502 101.388 57.2723 101.777 57.2723C102.582 57.2723 103.023 57.6875 103.075 58.3362C103.075 58.5438 103.075 58.6735 103.075 58.9849Z" fill="white"/>
<path d="M106.655 59.9449C106.655 60.0746 106.655 60.1265 106.655 60.2303C106.681 60.5935 106.837 60.6454 107.278 60.5935V61.0346C107.097 61.0606 106.941 61.0606 106.785 61.0606C106.344 61.0606 106.111 60.879 106.059 60.4119C106.059 60.3081 106.059 60.1524 106.059 59.9449V57.8172H105.566V57.3501H106.059V56.4939H106.655V57.3501H107.33V57.8172H106.655V59.9449Z" fill="white"/>
<path d="M113.168 57.0388V57.4021H113.921V57.8692H113.168V61.0347H112.571V57.8692H112.182V57.4021H112.571V57.0907C112.571 56.961 112.571 56.7794 112.597 56.6496C112.649 56.1307 113.012 55.8193 113.557 55.8193C113.713 55.8193 113.843 55.8453 113.972 55.8453V56.3383C113.531 56.2604 113.22 56.3642 113.194 56.6496C113.168 56.7794 113.168 56.9351 113.168 57.0388Z" fill="white"/>
<path d="M119.733 59.1925C119.733 60.2045 119.162 61.1126 117.916 61.1126C116.671 61.1126 116.1 60.2304 116.1 59.1925C116.1 58.1547 116.671 57.2725 117.916 57.2725C119.162 57.2725 119.733 58.1806 119.733 59.1925ZM119.084 59.1925C119.084 58.3363 118.669 57.7395 117.916 57.7395C117.164 57.7395 116.749 58.3363 116.749 59.1925C116.749 60.0488 117.164 60.6456 117.916 60.6456C118.669 60.6456 119.084 60.0488 119.084 59.1925Z" fill="white"/>
<path d="M123.988 57.3504V57.7915C123.365 57.7396 122.898 58.1028 122.898 58.9591V61.0348H122.302V57.4023H122.898V57.9731L123.236 57.4801C123.391 57.3763 123.573 57.3244 123.755 57.3244C123.858 57.2985 123.936 57.2985 123.988 57.3504Z" fill="white"/>
<path d="M130.293 59.9449C130.293 60.0746 130.293 60.1265 130.293 60.2303C130.319 60.5935 130.475 60.6454 130.916 60.5935V61.0346C130.734 61.0606 130.579 61.0606 130.423 61.0606C129.982 61.0606 129.748 60.879 129.696 60.4119C129.696 60.3081 129.696 60.1524 129.696 59.9449V57.8172H129.203V57.3501H129.696V56.4939H130.293V57.3501H130.968V57.8172H130.293V59.9449Z" fill="white"/>
<path d="M136.676 58.9849V61.0347H136.079V59.0367C136.079 58.8551 136.079 58.6994 136.053 58.5178C136.027 58.1026 135.794 57.7653 135.223 57.7653C134.652 57.7913 134.185 58.1805 134.185 59.4259V61.0347H133.588V55.9231H134.185V57.9989L134.419 57.5837C134.73 57.3502 134.99 57.2723 135.379 57.2723C136.183 57.2723 136.624 57.6875 136.676 58.3362C136.676 58.5438 136.676 58.6735 136.676 58.9849Z" fill="white"/>
<path d="M142.54 59.3741H139.894C139.945 60.3341 140.412 60.6715 140.931 60.6715C141.398 60.6715 141.788 60.386 141.866 59.8412H142.488C142.333 60.7234 141.658 61.1126 140.905 61.1126C139.945 61.1126 139.245 60.4898 139.245 59.2184C139.245 58.0249 139.971 57.2983 140.983 57.2983C141.995 57.2983 142.54 58.0508 142.54 59.1146C142.54 59.1406 142.54 59.2444 142.54 59.3741ZM139.894 58.933H141.943C141.891 58.1805 141.554 57.7394 140.957 57.7394C140.387 57.7394 139.971 58.1546 139.894 58.933Z" fill="white"/>
<path d="M152.193 58.5957C152.193 59.9968 151.388 60.8531 150.273 60.9828C150.039 61.0087 149.909 61.0087 149.676 61.0087H148.275V56.2864H149.728C149.987 56.2864 150.091 56.2864 150.324 56.3123C151.414 56.4421 152.193 57.1686 152.193 58.5957ZM151.544 58.5957C151.544 57.5318 151.051 56.9351 150.247 56.8053C150.091 56.7794 149.909 56.7794 149.676 56.7794H148.871V60.5417H149.65C149.909 60.5417 150.065 60.5417 150.221 60.5158C151.025 60.386 151.544 59.7114 151.544 58.5957Z" fill="white"/>
<path d="M155.514 56.5718C155.514 56.7794 155.358 56.961 155.125 56.961C154.891 56.961 154.735 56.8053 154.735 56.5718C154.735 56.3642 154.891 56.1826 155.125 56.1826C155.358 56.1826 155.514 56.3383 155.514 56.5718ZM154.839 61.0347V57.4021H155.436V61.0347H154.839Z" fill="white"/>
<path d="M161.534 60.1266C161.534 60.3602 161.534 60.6456 161.534 60.8272C161.508 61.891 160.859 62.4619 159.795 62.4619C158.757 62.4619 158.238 62.0208 158.16 61.2683V61.1905H158.757V61.2424C158.809 61.6835 159.172 61.9948 159.795 61.9948C160.522 61.9948 160.911 61.5797 160.937 60.8791C160.937 60.6975 160.937 60.5937 160.937 60.4899V60.438L160.651 60.8272C160.444 61.0088 160.055 61.1126 159.691 61.1126C158.628 61.1126 158.031 60.3083 158.031 59.2444C158.031 57.8952 158.861 57.2725 159.821 57.2725C160.132 57.2725 160.496 57.3503 160.703 57.506L160.937 57.8692V57.3762H161.534V60.1266V60.1266ZM160.937 59.2444V59.0369C160.937 58.1028 160.34 57.7395 159.821 57.7395C159.172 57.7395 158.679 58.2325 158.679 59.1925C158.679 60.0229 159.043 60.6715 159.769 60.6715C160.392 60.6715 160.937 60.2823 160.937 59.2444Z" fill="white"/>
<path d="M165.114 56.5718C165.114 56.7794 164.958 56.961 164.725 56.961C164.491 56.961 164.336 56.8053 164.336 56.5718C164.336 56.3642 164.491 56.1826 164.725 56.1826C164.958 56.1826 165.114 56.3383 165.114 56.5718ZM164.439 61.0347V57.4021H165.036V61.0347H164.439Z" fill="white"/>
<path d="M168.669 59.9449C168.669 60.0746 168.669 60.1265 168.669 60.2303C168.695 60.5935 168.851 60.6454 169.292 60.5935V61.0346C169.11 61.0606 168.954 61.0606 168.799 61.0606C168.358 61.0606 168.124 60.879 168.072 60.4119C168.072 60.3081 168.072 60.1524 168.072 59.9449V57.8172H167.579V57.3501H168.072V56.4939H168.669V57.3501H169.343V57.8172H168.669V59.9449Z" fill="white"/>
<path d="M173.988 60.4898L173.78 60.879C173.521 61.0607 173.21 61.1126 172.872 61.1126C172.224 61.1126 171.705 60.7493 171.705 60.0747C171.705 59.2444 172.327 58.8292 173.754 58.8292H173.988V58.7254C173.988 58.5697 173.988 58.4141 173.962 58.2843C173.936 57.947 173.754 57.7394 173.261 57.7394C172.768 57.7394 172.509 57.9989 172.483 58.5179H171.86C171.912 57.7394 172.457 57.2983 173.261 57.2983C174.118 57.2983 174.481 57.6616 174.559 58.2584C174.585 58.4141 174.585 58.5697 174.585 58.7514V60.1266C174.585 60.412 174.611 60.6455 174.663 61.0607H174.066L173.988 60.4898ZM173.988 59.6336V59.2703C172.976 59.1925 172.353 59.4001 172.353 60.0228C172.353 60.4639 172.639 60.6455 173.08 60.6455C173.625 60.6715 173.988 60.3082 173.988 59.6336Z" fill="white"/>
<path d="M178.062 59.9709C178.062 60.0747 178.062 60.2045 178.062 60.3083C178.088 60.5418 178.192 60.6196 178.503 60.5937V61.0088C178.373 61.0348 178.218 61.0348 178.088 61.0348C177.751 61.0348 177.491 60.931 177.465 60.4639C177.465 60.3342 177.465 60.1785 177.465 59.9709V55.9751H178.062V59.9709Z" fill="white"/>
<path d="M187.273 61.0347H184.133V56.2864H187.221V56.7794H184.73V58.44H187.013V58.933H184.73V60.5936H187.299V61.0347H187.273Z" fill="white"/>
<path d="M192.8 58.5958H192.177C192.047 57.999 191.736 57.7395 191.243 57.7395C190.672 57.7395 190.179 58.1806 190.179 59.1666C190.179 60.2304 190.646 60.6715 191.191 60.6715C191.684 60.6715 191.995 60.3861 192.125 59.8672H192.748C192.566 60.7234 191.969 61.1126 191.165 61.1126C190.257 61.1126 189.556 60.5418 189.556 59.1925C189.556 57.973 190.361 57.2725 191.269 57.2725C192.151 57.2725 192.696 57.8173 192.8 58.5958Z" fill="white"/>
<path d="M198.69 59.1925C198.69 60.2045 198.119 61.1126 196.873 61.1126C195.628 61.1126 195.057 60.2304 195.057 59.1925C195.057 58.1547 195.628 57.2725 196.873 57.2725C198.119 57.2725 198.69 58.1806 198.69 59.1925ZM198.041 59.1925C198.041 58.3363 197.626 57.7395 196.873 57.7395C196.121 57.7395 195.706 58.3363 195.706 59.1925C195.706 60.0488 196.121 60.6456 196.873 60.6456C197.626 60.6456 198.041 60.0488 198.041 59.1925Z" fill="white"/>
<path d="M204.346 58.9849V61.0347H203.749V59.0368C203.749 58.8552 203.749 58.6995 203.723 58.5179C203.697 58.1027 203.464 57.7654 202.893 57.7654C202.322 57.7654 201.829 58.1805 201.829 59.426V61.0347H201.232V57.4021H201.829V58.0249L202.063 57.6097C202.374 57.3762 202.634 57.2983 203.023 57.2983C203.827 57.2983 204.268 57.7135 204.32 58.3622C204.346 58.5438 204.346 58.6735 204.346 58.9849Z" fill="white"/>
<path d="M210.522 59.1925C210.522 60.2045 209.951 61.1126 208.705 61.1126C207.46 61.1126 206.889 60.2304 206.889 59.1925C206.889 58.1547 207.46 57.2725 208.705 57.2725C209.951 57.2725 210.522 58.1806 210.522 59.1925ZM209.873 59.1925C209.873 58.3363 209.458 57.7395 208.705 57.7395C207.953 57.7395 207.538 58.3363 207.538 59.1925C207.538 60.0488 207.953 60.6456 208.705 60.6456C209.458 60.6456 209.873 60.0488 209.873 59.1925Z" fill="white"/>
<path d="M217.994 58.8033V61.0347H217.397V59.0887C217.397 58.7773 217.397 58.5697 217.372 58.3881C217.32 57.973 217.06 57.7654 216.645 57.7654C216.178 57.7654 215.841 58.1286 215.841 59.2444V61.0347H215.244V59.0887C215.244 58.7773 215.244 58.5697 215.218 58.3881C215.166 57.973 214.907 57.7654 214.491 57.7654C214.024 57.7654 213.687 58.1286 213.687 59.2444V61.0347H213.116V57.4021H213.713V57.9211L213.947 57.5059C214.128 57.3502 214.388 57.2983 214.725 57.2983C215.27 57.2983 215.633 57.5838 215.763 57.973L216.074 57.5059C216.256 57.3502 216.515 57.2983 216.853 57.2983C217.501 57.2983 217.865 57.6875 217.968 58.1805C217.994 58.3622 217.994 58.4919 217.994 58.8033Z" fill="white"/>
<path d="M222.328 61.3203C222.042 62.0987 221.653 62.462 221.056 62.462C220.926 62.462 220.849 62.462 220.745 62.436V61.943C220.823 61.943 220.9 61.943 220.952 61.943C221.316 61.943 221.549 61.7874 221.731 61.2944L221.783 61.1646L220.33 57.3245H221.004L222.094 60.516L223.184 57.3245H223.832L222.328 61.3203Z" fill="white"/>
</svg>
