<svg width="756" height="993" viewBox="0 0 756 993" fill="none" xmlns="http://www.w3.org/2000/svg">
<path d="M210 678.5H205.056V681.5H210V678.5ZM195.167 678.5H185.278V681.5H195.167V678.5ZM175.389 678.5H165.5V681.5H175.389V678.5ZM155.611 678.5H145.722V681.5H155.611V678.5ZM135.833 678.5H125.944V681.5H135.833V678.5ZM116.056 678.5H106.167V681.5H116.056V678.5ZM96.2778 678.5H86.3889V681.5H96.2778V678.5ZM76.5 678.5H66.6111V681.5H76.5V678.5ZM56.7222 678.5H46.8334V681.5H56.7222V678.5ZM36.9445 678.5H32V681.5H36.9445V678.5ZM32 678.5C30.0947 678.5 28.2345 678.313 26.4362 677.957L25.854 680.9C27.843 681.294 29.8982 681.5 32 681.5V678.5ZM16.166 673.701C13.0574 671.619 10.3807 668.943 8.29949 665.834L5.80659 667.503C8.10591 670.937 11.0626 673.894 14.4971 676.193L16.166 673.701ZM4.0425 655.564C3.68675 653.766 3.5 651.905 3.5 650H0.5C0.5 652.102 0.706063 654.157 1.09954 656.146L4.0425 655.564ZM3.5 650V645.125H0.5V650H3.5ZM3.5 635.375V625.625H0.5V635.375H3.5ZM3.5 615.875V606.125H0.5V615.875H3.5ZM3.5 596.375V586.625H0.5V596.375H3.5ZM3.5 576.875V567.125H0.5V576.875H3.5ZM3.5 557.375V547.625H0.5V557.375H3.5ZM3.5 537.875V533H0.5V537.875H3.5ZM3.5 533C3.5 531.095 3.68675 529.234 4.0425 527.436L1.09954 526.854C0.706062 528.843 0.5 530.898 0.5 533H3.5ZM8.29949 517.166C10.3807 514.057 13.0574 511.381 16.166 509.299L14.4971 506.807C11.0626 509.106 8.10591 512.063 5.80659 515.497L8.29949 517.166ZM26.4362 505.043C28.2345 504.687 30.0947 504.5 32 504.5V501.5C29.8982 501.5 27.843 501.706 25.854 502.1L26.4362 505.043ZM32 504.5H36.3122V501.5H32V504.5ZM44.9367 504.5H53.5611V501.5H44.9367V504.5ZM62.1856 504.5H70.81V501.5H62.1856V504.5ZM79.4345 504.5H83.7467V501.5H79.4345V504.5Z" fill="#444F98"/>
<path d="M525 682.5H529.975V679.5H525V682.5ZM539.925 682.5H549.875V679.5H539.925V682.5ZM559.825 682.5H569.775V679.5H559.825V682.5ZM579.725 682.5H589.675V679.5H579.725V682.5ZM599.625 682.5H609.575V679.5H599.625V682.5ZM619.525 682.5H629.475V679.5H619.525V682.5ZM639.425 682.5H649.375V679.5H639.425V682.5ZM659.325 682.5H669.275V679.5H659.325V682.5ZM679.225 682.5H689.175V679.5H679.225V682.5ZM699.125 682.5H709.075V679.5H699.125V682.5ZM719.025 682.5H724V679.5H719.025V682.5ZM724 682.5C725.905 682.5 727.765 682.687 729.564 683.043L730.146 680.1C728.157 679.706 726.102 679.5 724 679.5V682.5ZM739.834 687.299C742.943 689.381 745.619 692.057 747.701 695.166L750.193 693.497C747.894 690.063 744.937 687.106 741.503 684.807L739.834 687.299ZM751.957 705.436C752.313 707.234 752.5 709.095 752.5 711H755.5C755.5 708.898 755.294 706.843 754.9 704.854L751.957 705.436ZM752.5 711V716.05H755.5V711H752.5ZM752.5 726.15V736.25H755.5V726.15H752.5ZM752.5 746.35V756.45H755.5V746.35H752.5ZM752.5 766.55V776.65H755.5V766.55H752.5ZM752.5 786.75V796.85H755.5V786.75H752.5ZM752.5 806.95V812H755.5V806.95H752.5ZM752.5 812C752.5 813.905 752.313 815.765 751.957 817.564L754.9 818.146C755.294 816.157 755.5 814.102 755.5 812H752.5ZM747.701 827.834C745.619 830.943 742.943 833.619 739.834 835.701L741.503 838.193C744.937 835.894 747.894 832.937 750.193 829.503L747.701 827.834ZM729.564 839.957C727.766 840.313 725.905 840.5 724 840.5V843.5C726.102 843.5 728.157 843.294 730.146 842.9L729.564 839.957ZM724 840.5H718.958V843.5H724V840.5ZM708.875 840.5H698.792V843.5H708.875V840.5ZM688.708 840.5H678.625V843.5H688.708V840.5ZM668.542 840.5H658.458V843.5H668.542V840.5ZM648.375 840.5H638.292V843.5H648.375V840.5ZM628.208 840.5H618.125V843.5H628.208V840.5ZM608.042 840.5H597.958V843.5H608.042V840.5ZM587.875 840.5H577.792V843.5H587.875V840.5ZM567.708 840.5H557.625V843.5H567.708V840.5ZM547.542 840.5H542.5V843.5H547.542V840.5Z" fill="#444F98"/>
<path d="M525 343.5H529.975V340.5H525V343.5ZM539.925 343.5H549.875V340.5H539.925V343.5ZM559.825 343.5H569.775V340.5H559.825V343.5ZM579.725 343.5H589.675V340.5H579.725V343.5ZM599.625 343.5H609.575V340.5H599.625V343.5ZM619.525 343.5H629.475V340.5H619.525V343.5ZM639.425 343.5H649.375V340.5H639.425V343.5ZM659.325 343.5H669.275V340.5H659.325V343.5ZM679.225 343.5H689.175V340.5H679.225V343.5ZM699.125 343.5H709.075V340.5H699.125V343.5ZM719.025 343.5H724V340.5H719.025V343.5ZM724 343.5C725.905 343.5 727.765 343.687 729.564 344.043L730.146 341.1C728.157 340.706 726.102 340.5 724 340.5V343.5ZM739.834 348.299C742.943 350.381 745.619 353.057 747.701 356.166L750.193 354.497C747.894 351.063 744.937 348.106 741.503 345.807L739.834 348.299ZM751.957 366.436C752.313 368.234 752.5 370.095 752.5 372H755.5C755.5 369.898 755.294 367.843 754.9 365.854L751.957 366.436ZM752.5 372V377.05H755.5V372H752.5ZM752.5 387.15V397.25H755.5V387.15H752.5ZM752.5 407.35V417.45H755.5V407.35H752.5ZM752.5 427.55V437.65H755.5V427.55H752.5ZM752.5 447.75V457.85H755.5V447.75H752.5ZM752.5 467.95V473H755.5V467.95H752.5ZM752.5 473C752.5 474.905 752.313 476.765 751.957 478.564L754.9 479.146C755.294 477.157 755.5 475.102 755.5 473H752.5ZM747.701 488.834C745.619 491.943 742.943 494.619 739.834 496.701L741.503 499.193C744.937 496.894 747.894 493.937 750.193 490.503L747.701 488.834ZM729.564 500.957C727.766 501.313 725.905 501.5 724 501.5V504.5C726.102 504.5 728.157 504.294 730.146 503.9L729.564 500.957ZM724 501.5H718.958V504.5H724V501.5ZM708.875 501.5H698.792V504.5H708.875V501.5ZM688.708 501.5H678.625V504.5H688.708V501.5ZM668.542 501.5H658.458V504.5H668.542V501.5ZM648.375 501.5H638.292V504.5H648.375V501.5ZM628.208 501.5H618.125V504.5H628.208V501.5ZM608.042 501.5H597.958V504.5H608.042V501.5ZM587.875 501.5H577.792V504.5H587.875V501.5ZM567.708 501.5H557.625V504.5H567.708V501.5ZM547.542 501.5H542.5V504.5H547.542V501.5Z" fill="#444F98"/>
<path d="M662.5 842L673.75 834.206V849.794L662.5 842Z" fill="#F9B54B"/>
<path d="M58 680L46.75 672.206V687.794L58 680Z" fill="#F9B54B"/>
<path d="M231 340.5H226.025V343.5H231V340.5ZM216.075 340.5H206.125V343.5H216.075V340.5ZM196.175 340.5H186.225V343.5H196.175V340.5ZM176.275 340.5H166.325V343.5H176.275V340.5ZM156.375 340.5H146.425V343.5H156.375V340.5ZM136.475 340.5H126.525V343.5H136.475V340.5ZM116.575 340.5H106.625V343.5H116.575V340.5ZM96.675 340.5H86.725V343.5H96.675V340.5ZM76.775 340.5H66.825V343.5H76.775V340.5ZM56.875 340.5H46.925V343.5H56.875V340.5ZM36.975 340.5H32V343.5H36.975V340.5ZM32 340.5C30.0947 340.5 28.2345 340.313 26.4362 339.957L25.854 342.9C27.843 343.294 29.8982 343.5 32 343.5V340.5ZM16.166 335.701C13.0574 333.619 10.3807 330.943 8.29949 327.834L5.80659 329.503C8.10591 332.937 11.0626 335.894 14.4971 338.193L16.166 335.701ZM4.0425 317.564C3.68675 315.766 3.5 313.905 3.5 312H0.5C0.5 314.102 0.706063 316.157 1.09954 318.146L4.0425 317.564ZM3.5 312V306.75H0.5V312H3.5ZM3.5 296.25V285.75H0.5V296.25H3.5ZM3.5 275.25V264.75H0.5V275.25H3.5ZM3.5 254.25V243.75H0.5V254.25H3.5ZM3.5 233.25V222.75H0.5V233.25H3.5ZM3.5 212.25V201.75H0.5V212.25H3.5ZM3.5 191.25V180.75H0.5V191.25H3.5ZM3.5 170.25V165H0.5V170.25H3.5ZM3.5 165C3.5 163.095 3.68675 161.235 4.0425 159.436L1.09954 158.854C0.706062 160.843 0.5 162.898 0.5 165H3.5ZM8.29949 149.166C10.3807 146.057 13.0574 143.381 16.166 141.299L14.4971 138.807C11.0626 141.106 8.10591 144.063 5.80658 147.497L8.29949 149.166ZM26.4362 137.043C28.2345 136.687 30.0947 136.5 32 136.5V133.5C29.8982 133.5 27.843 133.706 25.854 134.1L26.4362 137.043ZM32 136.5H37V133.5H32V136.5ZM47 136.5H57V133.5H47V136.5ZM67 136.5H77V133.5H67V136.5ZM87 136.5H92V133.5H87V136.5Z" fill="#444F98"/>
<path d="M586 179H677.2C687.246 179 692.27 179 696.37 177.809C706.232 174.943 713.944 167.232 716.809 157.37C718 153.27 718 148.246 718 138.2V103.387C718 93.341 718 88.3178 716.809 84.2177C713.944 74.3552 706.232 66.6439 696.37 63.7786C692.27 62.5874 687.246 62.5874 677.2 62.5874H586H389.8C379.754 62.5874 374.73 62.5874 370.63 61.3962C360.768 58.5309 353.056 50.8196 350.191 40.9571C349 36.857 349 31.8338 349 21.7874V0" stroke="#444F98" stroke-width="3" stroke-dasharray="10 10"/>
<path d="M94.4986 849H32C15.4315 849 1.99999 862.431 1.99999 879V912C1.99999 928.569 15.4314 942 32 942H134.715H343C359.569 942 373 955.431 373 972V992" stroke="#444F98" stroke-width="3" stroke-dasharray="10 10"/>
<path d="M349 23L356.794 11.75H341.206L349 23Z" fill="#F9B54B"/>
<path d="M373 993L380.794 981.75H365.206L373 993Z" fill="#F9B54B"/>
<path d="M662.5 179L673.75 171.206V186.794L662.5 179Z" fill="#F9B54B"/>
<path d="M662.5 503L673.75 495.206V510.794L662.5 503Z" fill="#F9B54B"/>
<path d="M58 342L46.75 334.206V349.794L58 342Z" fill="#F9B54B"/>
</svg>
