<svg width="720" height="1054" viewBox="0 0 720 1054" fill="none" xmlns="http://www.w3.org/2000/svg">
<path d="M231 251.5H226.025V254.5H231V251.5ZM216.075 251.5H206.125V254.5H216.075V251.5ZM196.175 251.5H186.225V254.5H196.175V251.5ZM176.275 251.5H166.325V254.5H176.275V251.5ZM156.375 251.5H146.425V254.5H156.375V251.5ZM136.475 251.5H126.525V254.5H136.475V251.5ZM116.575 251.5H106.625V254.5H116.575V251.5ZM96.675 251.5H86.725V254.5H96.675V251.5ZM76.775 251.5H66.825V254.5H76.775V251.5ZM56.875 251.5H46.925V254.5H56.875V251.5ZM36.975 251.5H32V254.5H36.975V251.5ZM32 251.5C30.0947 251.5 28.2345 251.313 26.4362 250.957L25.854 253.9C27.843 254.294 29.8982 254.5 32 254.5V251.5ZM16.166 246.701C13.0574 244.619 10.3807 241.943 8.29949 238.834L5.80659 240.503C8.10591 243.937 11.0626 246.894 14.4971 249.193L16.166 246.701ZM4.0425 228.564C3.68675 226.766 3.5 224.905 3.5 223H0.5C0.5 225.102 0.706063 227.157 1.09954 229.146L4.0425 228.564ZM3.5 223V218.75H0.5V223H3.5ZM3.5 210.25V201.75H0.5V210.25H3.5ZM3.5 193.25V184.75H0.5V193.25H3.5ZM3.5 176.25V172H0.5V176.25H3.5ZM3.5 172C3.5 170.095 3.68675 168.234 4.0425 166.436L1.09954 165.854C0.706062 167.843 0.5 169.898 0.5 172H3.5ZM8.29949 156.166C10.3807 153.057 13.0574 150.381 16.166 148.299L14.4971 145.807C11.0626 148.106 8.10591 151.063 5.80658 154.497L8.29949 156.166ZM26.4362 144.043C28.2345 143.687 30.0947 143.5 32 143.5V140.5C29.8982 140.5 27.843 140.706 25.854 141.1L26.4362 144.043ZM32 143.5H37V140.5H32V143.5ZM47 143.5H57V140.5H47V143.5ZM67 143.5H77V140.5H67V143.5ZM87 143.5H92V140.5H87V143.5Z" fill="#444F98"/>
<path d="M231 471.5H226.025V474.5H231V471.5ZM216.075 471.5H206.125V474.5H216.075V471.5ZM196.175 471.5H186.225V474.5H196.175V471.5ZM176.275 471.5H166.325V474.5H176.275V471.5ZM156.375 471.5H146.425V474.5H156.375V471.5ZM136.475 471.5H126.525V474.5H136.475V471.5ZM116.575 471.5H106.625V474.5H116.575V471.5ZM96.675 471.5H86.725V474.5H96.675V471.5ZM76.775 471.5H66.825V474.5H76.775V471.5ZM56.875 471.5H46.925V474.5H56.875V471.5ZM36.975 471.5H32V474.5H36.975V471.5ZM32 471.5C30.0947 471.5 28.2345 471.313 26.4362 470.957L25.854 473.9C27.843 474.294 29.8982 474.5 32 474.5V471.5ZM16.166 466.701C13.0574 464.619 10.3807 461.943 8.29949 458.834L5.80659 460.503C8.10591 463.937 11.0626 466.894 14.4971 469.193L16.166 466.701ZM4.0425 448.564C3.68675 446.766 3.5 444.905 3.5 443H0.5C0.5 445.102 0.706063 447.157 1.09954 449.146L4.0425 448.564ZM3.5 443V438.75H0.5V443H3.5ZM3.5 430.25V421.75H0.5V430.25H3.5ZM3.5 413.25V404.75H0.5V413.25H3.5ZM3.5 396.25V392H0.5V396.25H3.5ZM3.5 392C3.5 390.095 3.68675 388.234 4.0425 386.436L1.09954 385.854C0.706062 387.843 0.5 389.898 0.5 392H3.5ZM8.29949 376.166C10.3807 373.057 13.0574 370.381 16.166 368.299L14.4971 365.807C11.0626 368.106 8.10591 371.063 5.80658 374.497L8.29949 376.166ZM26.4362 364.043C28.2345 363.687 30.0947 363.5 32 363.5V360.5C29.8982 360.5 27.843 360.706 25.854 361.1L26.4362 364.043ZM32 363.5H37V360.5H32V363.5ZM47 363.5H57V360.5H47V363.5ZM67 363.5H77V360.5H67V363.5ZM87 363.5H92V360.5H87V363.5Z" fill="#444F98"/>
<path d="M231 691.5H226.025V694.5H231V691.5ZM216.075 691.5H206.125V694.5H216.075V691.5ZM196.175 691.5H186.225V694.5H196.175V691.5ZM176.275 691.5H166.325V694.5H176.275V691.5ZM156.375 691.5H146.425V694.5H156.375V691.5ZM136.475 691.5H126.525V694.5H136.475V691.5ZM116.575 691.5H106.625V694.5H116.575V691.5ZM96.675 691.5H86.725V694.5H96.675V691.5ZM76.775 691.5H66.825V694.5H76.775V691.5ZM56.875 691.5H46.925V694.5H56.875V691.5ZM36.975 691.5H32V694.5H36.975V691.5ZM32 691.5C30.0947 691.5 28.2345 691.313 26.4362 690.957L25.854 693.9C27.843 694.294 29.8982 694.5 32 694.5V691.5ZM16.166 686.701C13.0574 684.619 10.3807 681.943 8.29949 678.834L5.80659 680.503C8.10591 683.937 11.0626 686.894 14.4971 689.193L16.166 686.701ZM4.0425 668.564C3.68675 666.766 3.5 664.905 3.5 663H0.5C0.5 665.102 0.706063 667.157 1.09954 669.146L4.0425 668.564ZM3.5 663V658.75H0.5V663H3.5ZM3.5 650.25V641.75H0.5V650.25H3.5ZM3.5 633.25V624.75H0.5V633.25H3.5ZM3.5 616.25V612H0.5V616.25H3.5ZM3.5 612C3.5 610.095 3.68675 608.234 4.0425 606.436L1.09954 605.854C0.706062 607.843 0.5 609.898 0.5 612H3.5ZM8.29949 596.166C10.3807 593.057 13.0574 590.381 16.166 588.299L14.4971 585.807C11.0626 588.106 8.10591 591.063 5.80658 594.497L8.29949 596.166ZM26.4362 584.043C28.2345 583.687 30.0947 583.5 32 583.5V580.5C29.8982 580.5 27.843 580.706 25.854 581.1L26.4362 584.043ZM32 583.5H37V580.5H32V583.5ZM47 583.5H57V580.5H47V583.5ZM67 583.5H77V580.5H67V583.5ZM87 583.5H92V580.5H87V583.5Z" fill="#444F98"/>
<path d="M231 911.5H226.025V914.5H231V911.5ZM216.075 911.5H206.125V914.5H216.075V911.5ZM196.175 911.5H186.225V914.5H196.175V911.5ZM176.275 911.5H166.325V914.5H176.275V911.5ZM156.375 911.5H146.425V914.5H156.375V911.5ZM136.475 911.5H126.525V914.5H136.475V911.5ZM116.575 911.5H106.625V914.5H116.575V911.5ZM96.675 911.5H86.725V914.5H96.675V911.5ZM76.775 911.5H66.825V914.5H76.775V911.5ZM56.875 911.5H46.925V914.5H56.875V911.5ZM36.975 911.5H32V914.5H36.975V911.5ZM32 911.5C30.0947 911.5 28.2345 911.313 26.4362 910.957L25.854 913.9C27.843 914.294 29.8982 914.5 32 914.5V911.5ZM16.166 906.701C13.0574 904.619 10.3807 901.943 8.29949 898.834L5.80659 900.503C8.10591 903.937 11.0626 906.894 14.4971 909.193L16.166 906.701ZM4.0425 888.564C3.68675 886.766 3.5 884.905 3.5 883H0.5C0.5 885.102 0.706063 887.157 1.09954 889.146L4.0425 888.564ZM3.5 883V878.75H0.5V883H3.5ZM3.5 870.25V861.75H0.5V870.25H3.5ZM3.5 853.25V844.75H0.5V853.25H3.5ZM3.5 836.25V832H0.5V836.25H3.5ZM3.5 832C3.5 830.095 3.68675 828.234 4.0425 826.436L1.09954 825.854C0.706062 827.843 0.5 829.898 0.5 832H3.5ZM8.29949 816.166C10.3807 813.057 13.0574 810.381 16.166 808.299L14.4971 805.807C11.0626 808.106 8.10591 811.063 5.80658 814.497L8.29949 816.166ZM26.4362 804.043C28.2345 803.687 30.0947 803.5 32 803.5V800.5C29.8982 800.5 27.843 800.706 25.854 801.1L26.4362 804.043ZM32 803.5H37V800.5H32V803.5ZM47 803.5H57V800.5H47V803.5ZM67 803.5H77V800.5H67V803.5ZM87 803.5H92V800.5H87V803.5Z" fill="#444F98"/>
<path d="M488 361.5H492.975V364.5H488V361.5ZM502.925 361.5H512.875V364.5H502.925V361.5ZM522.825 361.5H532.775V364.5H522.825V361.5ZM542.725 361.5H552.675V364.5H542.725V361.5ZM562.625 361.5H572.575V364.5H562.625V361.5ZM582.525 361.5H592.475V364.5H582.525V361.5ZM602.425 361.5H612.375V364.5H602.425V361.5ZM622.325 361.5H632.275V364.5H622.325V361.5ZM642.225 361.5H652.175V364.5H642.225V361.5ZM662.125 361.5H672.075V364.5H662.125V361.5ZM682.025 361.5H687V364.5H682.025V361.5ZM687 361.5C688.905 361.5 690.765 361.313 692.564 360.957L693.146 363.9C691.157 364.294 689.102 364.5 687 364.5V361.5ZM702.834 356.701C705.943 354.619 708.619 351.943 710.701 348.834L713.193 350.503C710.894 353.937 707.937 356.894 704.503 359.193L702.834 356.701ZM714.957 338.564C715.313 336.766 715.5 334.905 715.5 333H718.5C718.5 335.102 718.294 337.157 717.9 339.146L714.957 338.564ZM715.5 333V328.75H718.5V333H715.5ZM715.5 320.25V311.75H718.5V320.25H715.5ZM715.5 303.25V294.75H718.5V303.25H715.5ZM715.5 286.25V282H718.5V286.25H715.5ZM715.5 282C715.5 280.095 715.313 278.234 714.957 276.436L717.9 275.854C718.294 277.843 718.5 279.898 718.5 282H715.5ZM710.701 266.166C708.619 263.057 705.943 260.381 702.834 258.299L704.503 255.807C707.937 258.106 710.894 261.063 713.193 264.497L710.701 266.166ZM692.564 254.043C690.766 253.687 688.905 253.5 687 253.5V250.5C689.102 250.5 691.157 250.706 693.146 251.1L692.564 254.043ZM687 253.5H682V250.5H687V253.5ZM672 253.5H662V250.5H672V253.5ZM652 253.5H642V250.5H652V253.5ZM632 253.5H627V250.5H632V253.5Z" fill="#444F98"/>
<path d="M488 581.5H492.975V584.5H488V581.5ZM502.925 581.5H512.875V584.5H502.925V581.5ZM522.825 581.5H532.775V584.5H522.825V581.5ZM542.725 581.5H552.675V584.5H542.725V581.5ZM562.625 581.5H572.575V584.5H562.625V581.5ZM582.525 581.5H592.475V584.5H582.525V581.5ZM602.425 581.5H612.375V584.5H602.425V581.5ZM622.325 581.5H632.275V584.5H622.325V581.5ZM642.225 581.5H652.175V584.5H642.225V581.5ZM662.125 581.5H672.075V584.5H662.125V581.5ZM682.025 581.5H687V584.5H682.025V581.5ZM687 581.5C688.905 581.5 690.765 581.313 692.564 580.957L693.146 583.9C691.157 584.294 689.102 584.5 687 584.5V581.5ZM702.834 576.701C705.943 574.619 708.619 571.943 710.701 568.834L713.193 570.503C710.894 573.937 707.937 576.894 704.503 579.193L702.834 576.701ZM714.957 558.564C715.313 556.766 715.5 554.905 715.5 553H718.5C718.5 555.102 718.294 557.157 717.9 559.146L714.957 558.564ZM715.5 553V548.75H718.5V553H715.5ZM715.5 540.25V531.75H718.5V540.25H715.5ZM715.5 523.25V514.75H718.5V523.25H715.5ZM715.5 506.25V502H718.5V506.25H715.5ZM715.5 502C715.5 500.095 715.313 498.234 714.957 496.436L717.9 495.854C718.294 497.843 718.5 499.898 718.5 502H715.5ZM710.701 486.166C708.619 483.057 705.943 480.381 702.834 478.299L704.503 475.807C707.937 478.106 710.894 481.063 713.193 484.497L710.701 486.166ZM692.564 474.043C690.766 473.687 688.905 473.5 687 473.5V470.5C689.102 470.5 691.157 470.706 693.146 471.1L692.564 474.043ZM687 473.5H682V470.5H687V473.5ZM672 473.5H662V470.5H672V473.5ZM652 473.5H642V470.5H652V473.5ZM632 473.5H627V470.5H632V473.5Z" fill="#444F98"/>
<path d="M488 801.5H492.975V804.5H488V801.5ZM502.925 801.5H512.875V804.5H502.925V801.5ZM522.825 801.5H532.775V804.5H522.825V801.5ZM542.725 801.5H552.675V804.5H542.725V801.5ZM562.625 801.5H572.575V804.5H562.625V801.5ZM582.525 801.5H592.475V804.5H582.525V801.5ZM602.425 801.5H612.375V804.5H602.425V801.5ZM622.325 801.5H632.275V804.5H622.325V801.5ZM642.225 801.5H652.175V804.5H642.225V801.5ZM662.125 801.5H672.075V804.5H662.125V801.5ZM682.025 801.5H687V804.5H682.025V801.5ZM687 801.5C688.905 801.5 690.765 801.313 692.564 800.957L693.146 803.9C691.157 804.294 689.102 804.5 687 804.5V801.5ZM702.834 796.701C705.943 794.619 708.619 791.943 710.701 788.834L713.193 790.503C710.894 793.937 707.937 796.894 704.503 799.193L702.834 796.701ZM714.957 778.564C715.313 776.766 715.5 774.905 715.5 773H718.5C718.5 775.102 718.294 777.157 717.9 779.146L714.957 778.564ZM715.5 773V768.75H718.5V773H715.5ZM715.5 760.25V751.75H718.5V760.25H715.5ZM715.5 743.25V734.75H718.5V743.25H715.5ZM715.5 726.25V722H718.5V726.25H715.5ZM715.5 722C715.5 720.095 715.313 718.234 714.957 716.436L717.9 715.854C718.294 717.843 718.5 719.898 718.5 722H715.5ZM710.701 706.166C708.619 703.057 705.943 700.381 702.834 698.299L704.503 695.807C707.937 698.106 710.894 701.063 713.193 704.497L710.701 706.166ZM692.564 694.043C690.766 693.687 688.905 693.5 687 693.5V690.5C689.102 690.5 691.157 690.706 693.146 691.1L692.564 694.043ZM687 693.5H682V690.5H687V693.5ZM672 693.5H662V690.5H672V693.5ZM652 693.5H642V690.5H652V693.5ZM632 693.5H627V690.5H632V693.5Z" fill="#444F98"/>
<path d="M586 143H677.2C687.246 143 692.27 143 696.37 141.809C706.232 138.944 713.944 131.232 716.809 121.37C718 117.27 718 112.246 718 102.2V90.8C718 80.7536 718 75.7304 716.809 71.6303C713.944 61.7678 706.232 54.0565 696.37 51.1912C692.27 50 687.246 50 677.2 50H586H389.8C379.754 50 374.73 50 370.63 48.8088C360.768 45.9435 353.056 38.2322 350.191 28.3697C349 24.2696 349 19.2464 349 9.2V0" stroke="#444F98" stroke-width="3" stroke-dasharray="10 10"/>
<path d="M626 910H688C704.569 910 718 923.431 718 940V973C718 989.569 704.569 1003 688 1003H586H379C362.431 1003 349 1016.43 349 1033V1053" stroke="#444F98" stroke-width="3" stroke-dasharray="10 10"/>
<path d="M349 23L356.794 11.75H341.206L349 23Z" fill="#F9B54B"/>
<path d="M349 1054L356.794 1042.75H341.206L349 1054Z" fill="#F9B54B"/>
<path d="M662.5 142.5L673.75 134.706V150.294L662.5 142.5Z" fill="#F9B54B"/>
<path d="M662.5 363.5L673.75 355.706V371.294L662.5 363.5Z" fill="#F9B54B"/>
<path d="M662.5 582.5L673.75 574.706V590.294L662.5 582.5Z" fill="#F9B54B"/>
<path d="M662.5 803.5L673.75 795.706V811.294L662.5 803.5Z" fill="#F9B54B"/>
<path d="M662.5 1002.5L673.75 994.706V1010.29L662.5 1002.5Z" fill="#F9B54B"/>
<path d="M59 252L47.75 244.206V259.794L59 252Z" fill="#F9B54B"/>
<path d="M59 473L47.75 465.206V480.794L59 473Z" fill="#F9B54B"/>
<path d="M59 693L47.75 685.206V700.794L59 693Z" fill="#F9B54B"/>
<path d="M59 913L47.75 905.206V920.794L59 913Z" fill="#F9B54B"/>
</svg>
