<svg width="285" height="73" viewBox="0 0 285 73" fill="none" xmlns="http://www.w3.org/2000/svg">
<path d="M119.928 29.6741H112.517V51.1602H106.411V29.6741H99V24.832H119.928V29.6741Z" fill="white"/>
<path d="M169.721 29.6741H162.294V51.1602H156.184V29.6741H148.777V24.832H169.721V29.6741Z" fill="white"/>
<path d="M128.471 27.2906C128.475 27.7238 128.383 28.1526 128.204 28.5469C128.023 28.9335 127.772 29.2826 127.462 29.576C127.142 29.8744 126.772 30.1135 126.369 30.282C125.948 30.4565 125.497 30.5447 125.041 30.5412C124.599 30.5459 124.162 30.4575 123.757 30.282C123.365 30.1114 123.007 29.8723 122.7 29.576C122.393 29.2842 122.148 28.9344 121.978 28.5469C121.801 28.1517 121.711 27.7234 121.714 27.2906C121.711 26.8487 121.801 26.4111 121.978 26.0063C122.148 25.6141 122.393 25.2591 122.7 24.9613C123.003 24.66 123.362 24.4203 123.757 24.2553C124.163 24.0847 124.6 23.9979 125.041 24C125.496 23.9991 125.947 24.0858 126.369 24.2553C126.775 24.4179 127.147 24.6576 127.462 24.9613C127.772 25.2604 128.024 25.6148 128.204 26.0063C128.384 26.4103 128.475 26.8483 128.471 27.2906ZM127.893 32.4397V51.1858H122.309V32.4397H127.893Z" fill="white"/>
<path d="M137.414 24.1133V39.2697H138.243C138.518 39.2854 138.792 39.2319 139.041 39.1141C139.255 38.9816 139.44 38.8064 139.583 38.5996L143.125 33.3228C143.317 33.0238 143.587 32.7823 143.905 32.6236C144.223 32.465 144.578 32.3951 144.932 32.4214H150.061L145.219 39.0862C144.773 39.6772 144.221 40.1803 143.592 40.5699C143.873 40.7771 144.129 41.0167 144.354 41.2839C144.593 41.5718 144.81 41.8771 145.004 42.1972L150.281 51.1594H145.223C144.851 51.1678 144.481 51.0971 144.138 50.952C143.816 50.792 143.551 50.5355 143.38 50.2181L139.839 43.6092C139.724 43.3679 139.543 43.1644 139.316 43.0228C139.063 42.9223 138.791 42.8761 138.518 42.8872H137.414V51.1834H131.83V24.1133H137.414Z" fill="white"/>
<path d="M184.941 41.7539C184.941 41.5823 184.941 41.4148 184.941 41.2473C184.941 41.2074 184.941 41.1675 184.941 41.1237C184.941 40.9881 184.941 40.8564 184.913 40.7248C184.913 40.6929 184.913 40.661 184.913 40.6291C184.855 39.9383 184.732 39.2545 184.546 38.587C184.474 38.3317 184.394 38.0844 184.302 37.8451C184.292 37.811 184.278 37.7776 184.263 37.7454C184.215 37.6138 184.159 37.4901 184.103 37.3465C184.106 37.3388 184.106 37.3304 184.103 37.3226V37.2947C184.047 37.1671 183.987 37.0394 183.924 36.9158L183.876 36.8241C183.844 36.7602 183.812 36.6964 183.776 36.6326C183.767 36.6158 183.756 36.5997 183.744 36.5847C183.367 35.9025 182.896 35.2768 182.344 34.7261C181.489 33.8811 180.464 33.2284 179.337 32.8116C178.094 32.3516 176.777 32.1244 175.452 32.1415H175.38C174.055 32.1248 172.738 32.3519 171.495 32.8116C170.368 33.2284 169.343 33.8811 168.488 34.7261C167.936 35.2768 167.465 35.9025 167.088 36.5847C167.079 36.6016 167.068 36.6176 167.056 36.6326C167.024 36.6964 166.992 36.7602 166.956 36.8241L166.909 36.9158L166.729 37.2947V37.3226V37.3465C166.673 37.4742 166.621 37.5978 166.569 37.7454L166.534 37.8451C166.442 38.0844 166.358 38.3317 166.286 38.587C166.099 39.2542 165.978 39.9382 165.923 40.6291C165.923 40.661 165.923 40.6929 165.923 40.7248L165.899 41.1237C165.899 41.1675 165.899 41.2074 165.899 41.2473C165.899 41.4148 165.899 41.5823 165.899 41.7539C165.879 43.1307 166.114 44.4993 166.593 45.7902C166.745 46.1824 166.924 46.5636 167.128 46.931C167.507 47.6342 167.985 48.279 168.548 48.8454C169.403 49.694 170.428 50.3519 171.555 50.7759C172.796 51.2421 174.114 51.472 175.44 51.4539H175.512C176.802 51.4647 178.083 51.2403 179.293 50.7918C180.42 50.3679 181.445 49.71 182.3 48.8614C182.864 48.2951 183.344 47.6502 183.724 46.9469C183.927 46.5794 184.104 46.1983 184.255 45.8062C184.733 44.5097 184.966 43.1355 184.941 41.7539ZM178.24 45.9338C177.631 46.8352 176.672 47.2899 175.364 47.2979C174.056 47.3059 173.099 46.8512 172.492 45.9338C171.878 45.0244 171.571 43.6418 171.571 41.7858C171.571 39.9298 171.885 38.5511 172.512 37.6497C173.119 36.7562 174.076 36.3055 175.384 36.2976C176.692 36.2896 177.651 36.7403 178.26 37.6497C178.874 38.5537 179.181 39.9324 179.181 41.7858C179.181 43.6391 178.867 45.0218 178.24 45.9338Z" fill="white"/>
<path d="M193.36 24.1133V39.2697H194.194C194.469 39.2863 194.743 39.2328 194.992 39.1141C195.207 38.9827 195.392 38.8073 195.534 38.5996L199.076 33.3228C199.27 33.0253 199.539 32.785 199.857 32.6265C200.175 32.468 200.529 32.3972 200.883 32.4214H206.016L201.174 39.0862C200.728 39.6772 200.176 40.1803 199.547 40.5699C199.827 40.7771 200.081 41.0168 200.304 41.2839C200.545 41.5708 200.762 41.8762 200.955 42.1972L206.231 51.1594H201.17C200.798 51.1683 200.428 51.0976 200.085 50.952C199.761 50.7922 199.495 50.5358 199.323 50.2181L195.781 43.6092C195.667 43.3679 195.486 43.1644 195.259 43.0228C195.006 42.9216 194.734 42.8753 194.461 42.8872H193.376V51.1834H187.792V24.1133H193.36Z" fill="white"/>
<path d="M239.918 24.8359V51.1601H236.728C236.317 51.1747 235.908 51.097 235.531 50.9328C235.161 50.7381 234.837 50.466 234.582 50.1351L222.201 34.4363C222.249 34.9069 222.281 35.3616 222.301 35.8003C222.321 36.2391 222.325 36.6539 222.325 37.0368V51.1521H216.94V24.8279H220.159C220.382 24.8256 220.604 24.8376 220.825 24.8638C220.995 24.8832 221.16 24.929 221.316 24.9994C221.462 25.0727 221.596 25.1667 221.715 25.2786C221.876 25.4301 222.027 25.5927 222.165 25.7652L234.689 41.5797C234.63 41.0732 234.586 40.5826 234.562 40.1039C234.538 39.6253 234.526 39.1826 234.526 38.7598V24.8359H239.918Z" fill="white"/>
<path d="M251.166 29.5346V36.2034H260.164V40.9178H251.166V51.1643H245.024V24.8401H261.971V29.5386L251.166 29.5346Z" fill="white"/>
<path d="M284.414 29.6741H277.012V51.1602H270.897V29.6741H263.49V24.832H284.414V29.6741Z" fill="white"/>
<path d="M63.9009 11.9157C58.1647 5.62062 50.4078 1.52969 41.9732 0.351204C33.5386 -0.827285 24.9574 0.980873 17.7155 5.46259C10.4736 9.9443 5.02685 16.8174 2.31846 24.8918C-0.389922 32.9662 -0.189455 41.7335 2.88514 49.6757C5.95974 57.6179 11.7149 64.2348 19.1541 68.3809C26.5933 72.5269 35.2481 73.941 43.62 72.3782C51.992 70.8154 59.5538 66.3742 64.9963 59.8236C70.4388 53.273 73.4192 45.0254 73.4215 36.5089C73.4321 27.4096 70.0356 18.636 63.9009 11.9157Z" fill="white"/>
<path d="M27.7171 30.3633C29.1851 31.9693 29.9951 34.0689 29.9859 36.2447C29.9767 38.4205 29.1491 40.5132 27.6677 42.1067C26.1862 43.7003 24.1593 44.678 21.9899 44.8455C19.8205 45.013 17.6676 44.3581 15.959 43.0109C16.7665 43.8943 17.7484 44.6008 18.8427 45.0859C19.9369 45.5709 21.1198 45.8239 22.3167 45.829C23.5136 45.834 24.6986 45.591 25.7969 45.1152C26.8952 44.6394 27.883 43.9412 28.6979 43.0645C29.5129 42.1879 30.1374 41.1519 30.532 40.0219C30.9266 38.8919 31.0827 37.6924 30.9905 36.499C30.8984 35.3056 30.5599 34.1443 29.9966 33.0883C29.4332 32.0322 28.657 31.1044 27.7171 30.3633Z" fill="#FBB03B"/>
<path d="M22.3646 28.5097C24.3068 28.5068 26.193 29.1604 27.7172 30.3643C26.9096 29.4809 25.9278 28.7743 24.8335 28.2893C23.7393 27.8043 22.5564 27.5513 21.3595 27.5462C20.1626 27.5412 18.9776 27.7842 17.8793 28.26C16.781 28.7358 15.7932 29.434 14.9782 30.3107C14.1633 31.1873 13.5388 32.2233 13.1442 33.3533C12.7496 34.4833 12.5935 35.6828 12.6856 36.8762C12.7778 38.0696 13.1162 39.2309 13.6796 40.2869C14.243 41.343 15.0191 42.2708 15.959 43.0119C14.8265 41.7708 14.0794 40.2271 13.8086 38.5688C13.5378 36.9106 13.7551 35.2094 14.434 33.6725C15.1128 32.1356 16.224 30.8292 17.632 29.9126C19.0401 28.9959 20.6844 28.5085 22.3646 28.5097Z" fill="#FF0000"/>
<path d="M29.9788 36.2016C29.974 34.4903 29.4624 32.8188 28.5084 31.3982C27.5544 29.9775 26.2009 28.8714 24.6187 28.2195C23.0365 27.5675 21.2966 27.399 19.6187 27.7351C17.9408 28.0713 16.4001 28.8971 15.1912 30.1082C13.9823 31.3194 13.1593 32.8616 12.8263 34.5401C12.4932 36.2186 12.6649 37.9582 13.3198 39.5392C13.9746 41.1201 15.0833 42.4716 16.5057 43.423C17.9281 44.3744 19.6005 44.883 21.3117 44.8846C22.452 44.8872 23.5815 44.6643 24.6353 44.2287C25.689 43.793 26.6462 43.1533 27.4518 42.3463C28.2573 41.5392 28.8953 40.5809 29.329 39.5263C29.7627 38.4717 29.9835 37.3418 29.9788 36.2016Z" fill="#C5CED4"/>
<path d="M25.4838 33.7769C24.7576 32.9726 23.7731 32.4476 22.7006 32.2929C21.6281 32.1382 20.5353 32.3635 19.6114 32.9298C18.6876 33.4961 17.9909 34.3677 17.6422 35.3937C17.2934 36.4196 17.3144 37.5352 17.7017 38.5472C18.0889 39.5592 18.818 40.4039 19.7625 40.9349C20.7071 41.466 21.8077 41.6499 22.8735 41.4548C23.9394 41.2597 24.9035 40.6979 25.5987 39.8668C26.294 39.0357 26.6766 37.9875 26.6803 36.9039C26.6854 35.7488 26.2587 34.6335 25.4838 33.7769Z" fill="white"/>
<path d="M50.9824 33.6192C54.4842 35.6705 58.4313 36.8421 62.4853 37.0334V28.6934C60.1545 28.2106 57.9616 27.2116 56.0677 25.7698C53.7537 24.5007 51.7895 22.6788 50.3504 20.4665C48.9112 18.2542 48.0418 15.7202 47.8195 13.0903H39.9501V58.6113H47.7557V31.3817C48.3991 31.9135 49.0639 32.4041 49.7499 32.8534V32.6819C50.1528 33.005 50.5636 33.3201 50.9824 33.6192Z" fill="#FBB03B"/>
<path d="M52.841 26.4178C50.9683 25.0001 49.4317 23.1865 48.341 21.1064C47.2502 19.0263 46.6323 16.731 46.5311 14.3844V13.7383H44.5728C44.7975 16.37 45.6701 18.9051 47.1128 21.1175C48.5555 23.3299 50.5234 25.1508 52.841 26.4178Z" fill="#C5CED4"/>
<path d="M44.5287 59.241H36.7272V60.5413H46.531V33.4991C45.837 33.0418 45.1722 32.5512 44.5367 32.0273L44.5287 59.241Z" fill="#C5CED4"/>
<path d="M47.7556 34.2696C51.7055 37.1163 56.3974 38.7541 61.2607 38.984V29.6309C60.5905 29.578 59.9244 29.482 59.2665 29.3438V37.6837C55.21 37.4926 51.2603 36.3211 47.7556 34.2696Z" fill="#C5CED4"/>
<path d="M59.2586 28.3285C57.0083 28.1528 54.821 27.5016 52.8411 26.418C54.7361 27.8554 56.9289 28.8503 59.2586 29.3296V28.3285Z" fill="#24F5EF"/>
<path d="M46.531 33.3159V33.4874C46.9299 33.7547 47.3287 34.0099 47.7555 34.2532C47.3367 33.966 46.9299 33.651 46.531 33.3159Z" fill="#24F5EF"/>
<path d="M47.7554 34.2716C51.2578 36.3218 55.2046 37.4933 59.2583 37.6858V29.3338C56.9276 28.8509 54.7347 27.8519 52.8408 26.4102C50.5232 25.1433 48.5553 23.3224 47.1126 21.1099C45.6699 18.8975 44.7973 16.3624 44.5726 13.7307H36.7272V59.2477H44.5287V32.034C45.1695 32.5658 45.8343 33.0564 46.523 33.5058V33.3223C46.9298 33.6573 47.3366 33.9724 47.7554 34.2716Z" fill="#11040D"/>
<path d="M44.7483 13.7376C44.7483 13.5223 44.7124 13.3029 44.7044 13.0835V12.4374H34.9006V59.2426H36.8949V13.7376H44.7483Z" fill="#FF0000"/>
</svg>
