<svg width="211" height="78" viewBox="0 0 211 78" fill="none" xmlns="http://www.w3.org/2000/svg">
<path d="M88.9044 37.1214C96.1156 37.1214 99.613 33.5158 99.613 29.2973C99.613 20.0309 84.9382 23.2398 84.9382 18.5886C84.9382 17.0022 86.2723 15.7041 89.7337 15.7041C91.9692 15.7041 94.3849 16.3531 96.7286 17.6872L98.5314 13.2523C96.1877 11.774 92.9427 11.0168 89.7697 11.0168C82.5946 11.0168 79.1332 14.5864 79.1332 18.8771C79.1332 28.2516 93.808 25.0066 93.808 29.7299C93.808 31.2803 92.4018 32.4341 88.9404 32.4341C85.9117 32.4341 82.7388 31.3525 80.6115 29.802L78.6284 34.2009C80.8639 35.9316 84.9022 37.1214 88.9044 37.1214Z" fill="white"/>
<path d="M120.911 11.4495V21.401H109.445V11.4495H103.604V36.6888H109.445V26.3407H120.911V36.6888H126.752V11.4495H120.911Z" fill="white"/>
<path d="M132.724 36.6888H138.565V11.4495H132.724V36.6888Z" fill="white"/>
<path d="M163.087 23.5644C165.143 22.4827 166.441 20.5356 166.441 18.0117C166.441 14.0816 163.196 11.4495 156.886 11.4495H144.555V36.6888H157.607C164.241 36.6888 167.703 34.1648 167.703 29.802C167.703 26.6291 165.9 24.4658 163.087 23.5644ZM156.165 15.8484C159.013 15.8484 160.564 16.8219 160.564 18.805C160.564 20.788 159.013 21.7976 156.165 21.7976H150.36V15.8484H156.165ZM157.174 32.2899H150.36V26.0522H157.174C160.203 26.0522 161.826 27.0618 161.826 29.1891C161.826 31.3525 160.203 32.2899 157.174 32.2899Z" fill="white"/>
<path d="M190.982 36.6888H197.112L185.826 11.4495H180.057L168.808 36.6888H174.793L177.028 31.2803H188.747L190.982 36.6888ZM178.903 26.8455L182.906 17.1824L186.908 26.8455H178.903Z" fill="white"/>
<path d="M97.8824 69.9905H104.697L93.6277 56.0008L104.084 44.7513H97.5939L86.4165 56.5416V44.7513H80.6115V69.9905H86.4165V63.6086L89.8058 60.0751L97.8824 69.9905Z" fill="white"/>
<path d="M113.106 65.3032V59.4622H124.825V54.9191H113.106V49.4386H126.375V44.7513H107.301V69.9905H126.844V65.3032H113.106Z" fill="white"/>
<path d="M148.87 44.7513V60.0751L136.323 44.7513H131.491V69.9905H137.26V54.6667L149.844 69.9905H154.639V44.7513H148.87Z" fill="white"/>
<path d="M166.704 65.2311L180.514 48.5372V44.7513H159.277V49.5107H172.834L158.988 66.2046V69.9905H181.055V65.2311H166.704Z" fill="white"/>
<path d="M196.777 70.4232C204.71 70.4232 210.587 64.9066 210.587 57.3709C210.587 49.8352 204.71 44.3186 196.777 44.3186C188.809 44.3186 182.968 49.8712 182.968 57.3709C182.968 64.8706 188.809 70.4232 196.777 70.4232ZM196.777 65.4475C192.27 65.4475 188.881 62.1664 188.881 57.3709C188.881 52.5754 192.27 49.2943 196.777 49.2943C201.284 49.2943 204.674 52.5754 204.674 57.3709C204.674 62.1664 201.284 65.4475 196.777 65.4475Z" fill="white"/>
<path d="M32.0978 65.7089C28.5128 69.3963 21.0357 69.6011 16.529 67.9623C13.5586 66.8356 10.5883 64.5822 9.35914 61.5095C8.13003 58.4367 9.25672 55.3639 11.9198 53.6226C12.2271 53.4178 12.6368 53.2129 12.9441 53.0081C13.7635 52.7008 14.5829 52.4959 15.5047 52.3935C17.9629 52.2911 20.4212 53.2129 21.6503 55.3639C22.5721 57.0027 22.777 58.7439 22.06 59.9731C22.1624 60.0755 22.2648 60.1779 22.3673 60.2803C22.5721 60.3828 22.6746 60.4852 22.8794 60.69C24.7231 61.9192 27.0789 62.7386 29.2298 63.2507C30.4589 63.558 32.405 63.6604 32.6099 64.4798C32.8147 64.7871 32.6099 65.1968 32.0978 65.7089Z" fill="#F89C27"/>
<path opacity="0.5" d="M32.7126 64.4796C29.1277 65.0942 21.036 61.6117 21.1384 61.6117C21.9578 61.4068 22.2651 60.8947 22.47 60.3826C22.6748 60.485 22.7772 60.5874 22.9821 60.7923C24.8258 62.0214 27.1816 62.8408 29.3325 63.3529C30.6641 63.5578 32.6102 63.6602 32.7126 64.4796Z" fill="#F89C27"/>
<path opacity="0.5" d="M18.5775 62.0213C18.5775 62.0213 22.1625 60.3825 20.4212 56.183C19.4994 54.1345 17.4508 53.0078 15.6072 52.4957C18.0654 52.3933 20.5236 53.3151 21.7528 55.4661C22.6746 57.1049 22.8794 58.8461 22.1625 60.0752C19.9091 62.7383 18.5775 62.0213 18.5775 62.0213Z" fill="#F89C27"/>
<path d="M32.0978 65.7086C28.5128 69.3959 21.0357 69.6008 16.529 67.962C13.5586 66.8353 10.5883 64.5819 9.35914 61.5091C8.13003 58.4363 9.25672 55.3636 11.9198 53.6223C11.9198 56.5927 13.2513 61.0994 19.4993 63.8649C26.0546 66.7329 30.4589 65.7086 32.7123 64.4795C32.8148 64.7868 32.6099 65.1965 32.0978 65.7086Z" fill="white"/>
<path d="M30.0494 65.4017C26.1572 67.5526 20.3189 67.4502 16.6316 66.0162C13.6612 64.8895 10.6909 62.6362 9.46175 59.5634C9.2569 59.0512 9.15447 58.5391 9.05204 58.027C8.84719 59.1537 9.05204 60.2804 9.46175 61.5095C10.6909 64.5823 13.6612 66.8356 16.6316 67.9623C21.1383 69.7036 28.513 69.3963 32.2004 65.7089C32.7125 65.1968 32.9174 64.7871 32.8149 64.4798C31.9955 64.8895 31.1761 65.1968 30.0494 65.4017Z" fill="#CCCCCC"/>
<path d="M22.6747 69.4984C20.4213 69.4984 18.168 69.0887 16.4267 68.4741C12.8418 67.1426 10.0763 64.5819 8.9496 61.714C8.23262 59.8703 8.23262 58.0267 8.9496 56.2854C9.66659 54.6466 10.9981 53.3151 12.8418 52.5981C14.3782 51.8811 16.3243 51.7787 17.9631 52.1884C19.8068 52.5981 21.3432 53.7248 22.1626 55.2611C23.0844 56.9 23.2893 58.6412 22.7771 59.9728C24.416 61.2019 26.5669 62.1237 29.4349 62.7383C29.6397 62.8407 29.947 62.8407 30.2543 62.8407C31.5858 63.0455 32.9173 63.3528 33.1222 64.2747C33.4295 65.0941 32.6101 65.9135 32.4052 66.1183C30.664 67.8596 27.8985 69.0887 24.6208 69.396C24.0063 69.4984 23.2893 69.4984 22.6747 69.4984ZM16.017 53.0078C14.9928 53.0078 14.0709 53.2126 13.1491 53.6223C9.97387 55.0563 8.5399 58.2315 9.76901 61.3043C10.7933 63.9674 13.3539 66.2208 16.6316 67.4499C18.7825 68.2693 21.7529 68.5766 24.416 68.3717C27.4887 68.0644 29.947 67.0402 31.4834 65.4013C31.9955 64.8892 31.9955 64.6844 31.9955 64.5819C31.9955 64.5819 31.8931 64.3771 31.3809 64.2747C30.9712 64.1722 30.3567 64.0698 29.8446 63.9674C29.5373 63.865 29.23 63.865 29.0251 63.7625C25.7475 63.0455 23.3917 62.0213 21.548 60.4849C21.3432 60.28 21.3432 60.0752 21.4456 59.8703C22.0602 58.7436 21.8553 57.2072 21.0359 55.6709C20.2165 53.8272 18.168 53.0078 16.017 53.0078Z" fill="#1B1464"/>
<path d="M18.5777 61.8166C18.8849 61.8166 19.2946 61.7141 19.6019 61.6117C19.9092 61.5093 20.2165 61.4069 20.5238 61.202C20.831 60.9972 21.0359 60.7923 21.2407 60.5875C21.4456 60.3826 21.6504 60.0753 21.7529 59.8705C21.8553 59.5632 22.1626 59.4608 22.4699 59.5632C22.7771 59.6656 22.8796 59.9729 22.7771 60.2802C22.7771 60.2802 22.7771 60.2802 22.7771 60.3826C22.5723 60.6899 22.265 61.0996 21.9577 61.3044C21.6504 61.6117 21.3432 61.8166 20.9335 61.919C20.6262 62.1238 20.2165 62.2263 19.8068 62.2263C19.3971 62.3287 19.0898 62.3287 18.6801 62.3287C18.5777 62.3287 18.3728 62.2263 18.3728 62.0214C18.3728 61.919 18.4752 61.8166 18.5777 61.8166Z" fill="#1B1464"/>
<path d="M40.9065 77.9999C54.6316 77.9999 65.6937 76.6684 65.6937 74.9272C65.6937 73.1859 54.6316 71.8544 40.9065 71.8544C27.1814 71.8544 16.1194 73.1859 16.1194 74.9272C16.1194 76.6684 27.1814 77.9999 40.9065 77.9999Z" fill="#CCCCCC"/>
<path d="M31.4833 74.2103C31.4833 75.7467 24.1086 75.7467 24.1086 74.2103C24.1086 72.674 25.7475 71.3424 27.796 71.3424C29.8445 71.4448 31.4833 72.674 31.4833 74.2103Z" fill="white"/>
<path d="M27.7959 75.9513C26.7716 75.9513 25.8498 75.8488 25.1328 75.644C23.8013 75.2343 23.5964 74.7222 23.5964 74.21C23.5964 72.3664 25.5425 70.83 27.7959 70.83C30.1517 70.83 31.9954 72.3664 31.9954 74.21C31.9954 75.8488 28.7177 75.9513 27.7959 75.9513ZM24.6207 74.21C24.7231 74.4149 25.8498 74.8246 27.7959 74.8246C29.742 74.8246 30.8687 74.4149 30.9711 74.21C30.9711 72.9809 29.5372 71.9567 27.7959 71.9567C26.0547 71.9567 24.6207 72.9809 24.6207 74.21Z" fill="#1B1464"/>
<path d="M28.3081 73.6979C28.3081 73.8003 28.2056 73.9027 28.2056 74.0052C28.2056 74.1076 28.2056 74.21 28.1032 74.3124C28.1032 74.4149 28.1032 74.5173 28.1032 74.6197C28.1032 74.7222 28.1032 74.7222 28.1032 74.8246C28.1032 74.927 28.1032 74.927 28.1032 75.0294C28.1032 75.2343 28.0008 75.4391 27.7959 75.4391C27.5911 75.4391 27.3862 75.3367 27.3862 75.1319V75.0294C27.3862 74.927 27.3862 74.927 27.3862 74.8246C27.3862 74.7222 27.3862 74.7222 27.3862 74.6197C27.3862 74.5173 27.4887 74.3124 27.4887 74.21C27.5911 74.1076 27.5911 74.0052 27.6935 73.8003C27.7959 73.6979 27.8984 73.5955 28.0008 73.493H28.1032C28.3081 73.5955 28.3081 73.6979 28.3081 73.6979Z" fill="#1B1464"/>
<path d="M26.3619 73.6981C26.2595 73.8006 26.2595 73.903 26.157 74.0054C26.157 74.1078 26.0546 74.2103 26.0546 74.3127C26.0546 74.4151 26.0546 74.5175 26.0546 74.62C26.0546 74.62 26.0546 74.62 26.0546 74.7224V74.8248C26.0546 74.8248 26.0546 74.9272 26.157 74.9272C26.2595 75.1321 26.157 75.3369 25.9522 75.3369C25.7473 75.4394 25.5425 75.3369 25.5425 75.1321V75.0297C25.5425 74.9272 25.5425 74.9272 25.5425 74.8248V74.7224C25.5425 74.62 25.5425 74.4151 25.6449 74.3127C25.6449 74.2103 25.7473 74.0054 25.8498 73.903C25.8498 73.8006 25.9522 73.8006 25.9522 73.6981C26.0546 73.6981 26.0546 73.5957 26.157 73.5957H26.2595C26.3619 73.5957 26.3619 73.6981 26.3619 73.6981Z" fill="#1B1464"/>
<path d="M50.4321 74.2103C50.4321 75.7467 57.8068 75.7467 57.8068 74.2103C57.8068 72.674 56.168 71.3424 54.1195 71.3424C52.0709 71.4448 50.4321 72.674 50.4321 74.2103Z" fill="white"/>
<path d="M54.1196 75.9513C53.0954 75.9513 52.1735 75.8488 51.4566 75.644C50.125 75.2343 49.9202 74.7222 49.9202 74.21C49.9202 72.3664 51.8663 70.83 54.1196 70.83C56.4754 70.83 58.3191 72.3664 58.3191 74.21C58.4215 75.8488 55.1439 75.9513 54.1196 75.9513ZM50.9444 74.21C51.0469 74.4149 52.1735 74.8246 54.1196 74.8246C56.0657 74.8246 57.1924 74.4149 57.2949 74.21C57.2949 72.9809 55.8609 71.9567 54.1196 71.9567C52.3784 71.9567 51.0469 72.9809 50.9444 74.21Z" fill="#1B1464"/>
<path d="M53.7099 73.5957C53.8123 73.6981 53.9147 73.8006 54.0171 73.903C54.1196 74.0054 54.1196 74.1078 54.222 74.3127C54.3244 74.5175 54.3244 74.62 54.3244 74.7224C54.3244 74.8248 54.3244 74.8248 54.3244 74.9272C54.3244 75.0297 54.3244 75.0297 54.3244 75.1321C54.3244 75.3369 54.222 75.5418 54.0171 75.5418C53.8123 75.5418 53.6074 75.4394 53.6074 75.2345V75.1321C53.6074 75.0297 53.6074 75.0297 53.6074 74.9272C53.6074 74.8248 53.6074 74.8248 53.6074 74.7224C53.6074 74.62 53.6074 74.5175 53.6074 74.4151C53.6074 74.3127 53.6074 74.2103 53.505 74.1078C53.505 74.0054 53.4026 73.903 53.4026 73.8006V73.6981C53.6074 73.5957 53.7099 73.5957 53.7099 73.5957Z" fill="#1B1464"/>
<path d="M55.7585 73.5957C55.8609 73.5957 55.8609 73.6981 55.9633 73.6981C55.9633 73.6981 56.0657 73.8006 56.0657 73.903C56.1682 74.0054 56.2706 74.1078 56.2706 74.3127C56.2706 74.4151 56.373 74.62 56.373 74.7224V74.8248V74.9272C56.373 75.0297 56.373 75.0297 56.373 75.1321C56.373 75.3369 56.1682 75.4394 55.9633 75.4394C55.7585 75.4394 55.656 75.2345 55.656 75.0297V74.9272C55.656 74.9272 55.656 74.8248 55.7585 74.8248V74.7224C55.7585 74.7224 55.7585 74.7224 55.7585 74.62C55.7585 74.5175 55.7585 74.4151 55.7585 74.3127C55.7585 74.2103 55.7585 74.1078 55.656 74.0054C55.656 73.903 55.656 73.903 55.5536 73.8006L55.4512 73.6981V73.5957C55.656 73.5957 55.656 73.5957 55.7585 73.5957Z" fill="#1B1464"/>
<path d="M52.2758 73.8001C51.8661 73.8001 51.5588 73.9025 51.1491 73.9025C50.1248 73.9025 49.1006 73.8001 48.3836 73.4928H33.5318C33.0196 73.6977 32.4051 73.8001 31.6881 73.9025C31.2784 73.9025 30.7663 73.9025 30.2541 73.9025C30.0493 73.9025 29.8444 73.9025 29.6396 73.9025C23.6988 73.2879 21.6503 67.4497 24.1086 63.5575C24.1086 63.5575 24.1086 63.455 24.211 63.455C24.8255 62.3283 25.6449 60.8944 26.2595 59.2556C28.1032 55.1585 29.6396 50.4469 29.6396 50.4469H52.2758C52.2758 50.4469 54.017 55.5682 55.9631 59.7677C56.5777 61.2017 57.2947 62.5332 57.9092 63.5575C60.1626 67.3472 58.2165 73.2879 52.2758 73.8001Z" fill="#F89C27"/>
<g opacity="0.5">
<path opacity="0.5" d="M55.8607 59.6659C55.0413 64.3775 52.7879 70.2158 51.1491 73.9031C50.1248 73.9031 49.1006 73.8007 48.3836 73.4934H33.5318C33.0197 73.6983 32.4051 73.8007 31.6881 73.9031C28.6153 69.9085 26.9765 63.3532 26.2595 59.1537C28.1032 55.0567 29.6396 50.3451 29.6396 50.3451H52.2758C52.2758 50.3451 54.017 55.4664 55.8607 59.6659Z" fill="#F7A528"/>
</g>
<g opacity="0.5">
<g opacity="0.5">
<path opacity="0.5" d="M30.1518 73.9024C29.947 73.9024 29.7421 73.9024 29.5373 73.9024C23.5966 73.2879 21.548 67.4496 24.0063 63.5574C24.0063 63.5574 24.0063 63.455 24.1087 63.455C24.0063 66.835 23.3917 70.7272 30.1518 73.9024Z" fill="#F7A528"/>
</g>
</g>
<g opacity="0.5">
<g opacity="0.5">
<path opacity="0.5" d="M51.6614 73.9024C51.8662 73.9024 52.0711 73.9024 52.2759 73.9024C58.2167 73.2879 60.2652 67.4496 57.807 63.5574C57.807 63.5574 57.8069 63.455 57.7045 63.455C57.8069 66.835 58.2167 71.4442 51.6614 73.9024Z" fill="#F7A528"/>
</g>
</g>
<path d="M50.9445 74.5174C49.9202 74.5174 48.9984 74.4149 48.179 74.1077H33.532C32.4053 74.5174 31.0738 74.6198 29.435 74.4149C26.567 74.1077 24.3136 72.6737 23.187 70.3179C22.0603 68.0645 22.1627 65.299 23.4942 63.2505C25.85 59.4607 28.9228 50.3448 29.0252 50.2423C29.1277 50.0375 29.3325 49.8326 29.5374 49.8326H52.1736C52.3784 49.8326 52.5833 49.9351 52.6857 50.2423C52.6857 50.3448 55.8609 59.4607 58.2167 63.2505C59.5483 65.4014 59.6507 68.0645 58.524 70.3179C57.3973 72.6737 55.0415 74.1077 52.276 74.4149C51.8663 74.4149 51.3542 74.5174 50.9445 74.5174ZM33.4296 72.981H48.2814C48.3838 72.981 48.3838 72.981 48.4862 72.981C49.4081 73.2883 50.7396 73.3907 52.1736 73.2882C54.6318 73.0834 56.5779 71.8543 57.6022 69.8058C58.524 67.8597 58.4216 65.6063 57.2949 63.7626C55.1439 60.2801 52.4809 52.7006 51.7639 50.9593H29.8447C29.2301 52.7006 26.567 60.2801 24.3136 63.7626C23.187 65.6063 23.0845 67.8597 24.0064 69.8058C25.0306 71.8543 26.9767 73.0834 29.435 73.2882C30.8689 73.3907 32.098 73.2883 33.1223 72.981C33.3271 72.981 33.4296 72.981 33.4296 72.981Z" fill="#1B1464"/>
<path d="M51.5588 61.4067C51.4564 61.5092 51.4564 61.5092 51.5588 61.4067L51.354 61.6116C51.2516 61.714 51.1491 61.8164 51.0467 61.9189C50.8419 62.1237 50.7394 62.3286 50.5346 62.5334C50.2273 62.9431 49.92 63.4553 49.7152 63.865C49.5103 64.3771 49.3055 64.8892 49.203 65.4014C49.1006 65.9135 48.9982 66.4256 48.8958 66.9377L48.7933 67.3475V67.7572V67.962C48.7933 68.0644 48.7933 68.0644 48.7933 68.1669V68.5766C48.7933 68.679 48.7933 68.8838 48.7933 68.9863C48.7933 69.0887 48.7933 69.2936 48.7933 69.396V69.8057C48.7933 69.9081 48.7933 70.113 48.7933 70.2154C48.7933 71.2396 48.8958 72.3663 48.8958 73.493C48.8958 73.8003 48.6909 74.1076 48.2812 74.1076C47.9739 74.1076 47.6667 73.9027 47.6667 73.5955C47.4618 72.4688 47.3594 71.3421 47.3594 70.2154C47.3594 70.113 47.3594 69.9081 47.3594 69.8057V69.396C47.3594 69.2936 47.3594 69.0887 47.3594 68.9863C47.3594 68.8838 47.3594 68.679 47.3594 68.5766L47.4618 68.1669C47.4618 68.0644 47.4618 68.0644 47.4618 67.962V67.7572L47.5642 67.3475L47.6667 66.9377C47.7691 66.4256 47.9739 65.8111 48.1788 65.2989C48.3836 64.7868 48.5885 64.2747 48.8958 63.7625C49.203 63.2504 49.5103 62.7383 49.92 62.3286C50.1249 62.1237 50.3297 61.9189 50.5346 61.714C50.637 61.6116 50.7394 61.5092 50.9443 61.5092C51.0467 61.5092 51.0467 61.4067 51.1491 61.4067H51.2516H51.354C51.4564 61.4067 51.5588 61.4067 51.5588 61.4067C51.6613 61.4067 51.7637 61.3043 51.5588 61.4067Z" fill="#1B1464"/>
<path d="M30.4591 60.997C30.4591 60.997 30.5615 60.997 30.4591 60.997C30.5615 61.0994 30.664 61.0994 30.664 61.2018C30.7664 61.2018 30.7664 61.3043 30.8688 61.3043C30.9712 61.4067 31.0737 61.5091 31.2785 61.6115C31.4834 61.8164 31.6882 62.0212 31.8931 62.2261C32.3028 62.6358 32.61 63.1479 32.9173 63.6601C33.2246 64.1722 33.4295 64.6843 33.6343 65.2989C33.8392 65.811 33.9416 66.4256 34.1464 66.9377L34.2489 67.3474L34.3513 67.7571V67.962C34.3513 68.0644 34.3513 68.0644 34.3513 68.1668V68.5765C34.3513 68.6789 34.3513 68.8838 34.3513 68.9862C34.3513 69.0886 34.3513 69.2935 34.3513 69.3959V69.8056C34.3513 69.908 34.3513 70.1129 34.3513 70.2153C34.3513 71.342 34.2489 72.4687 34.1464 73.5954C34.1464 73.9027 33.8392 74.21 33.4295 74.1075C33.1222 74.1075 32.9173 73.8003 32.9173 73.493C33.0198 72.3663 33.1222 71.342 33.1222 70.2153C33.1222 69.0886 33.1222 68.0644 32.9173 66.9377C32.8149 66.4256 32.7125 65.9134 32.61 65.4013C32.5076 64.8892 32.3028 64.377 31.9955 63.8649C31.7906 63.3528 31.4834 62.9431 31.1761 62.5334C30.9712 62.3285 30.8688 62.1237 30.664 61.9188C30.5615 61.8164 30.4591 61.714 30.3567 61.714L30.2542 61.6115C30.2542 61.6115 30.2542 61.6115 30.1518 61.6115H30.0494C29.947 61.5091 29.8445 61.3042 29.947 61.2018C30.1518 60.997 30.2542 60.8945 30.4591 60.997Z" fill="#1B1464"/>
<path d="M54.7339 55.9783C54.5291 60.1777 53.4024 65.4015 50.5344 71.2398C50.0223 72.1616 49.5102 73.1859 48.9981 74.1077C49.9199 75.2344 48.4859 75.5417 48.0762 75.5417C46.1301 75.6441 44.7986 75.6441 42.6476 75.132C42.5452 75.132 42.4428 74.1077 42.2379 72.6737C41.3161 72.7762 40.4967 72.6737 39.8821 72.6737C39.6773 74.1077 39.5748 75.132 39.4724 75.132C37.3215 75.6441 35.9899 75.6441 34.0438 75.5417C33.6341 75.5417 32.2001 75.2344 33.122 74.1077C32.6099 73.1859 32.0977 72.1616 31.5856 71.2398C28.7177 65.4015 27.591 60.0753 27.2837 55.8758C26.9764 51.0618 27.8982 47.7842 28.5128 46.6575H53.7097C54.1194 47.8866 54.9388 51.1642 54.7339 55.9783Z" fill="#F7A528"/>
<g opacity="0.5">
<path opacity="0.5" d="M54.7342 55.9786C50.842 57.2077 46.1304 58.0271 40.9066 58.0271C35.7853 58.0271 30.9713 57.3102 27.0791 55.9786C26.7718 51.1646 27.6937 47.8869 28.3082 46.7603H53.5051C54.1196 47.8869 55.0415 51.1646 54.7342 55.9786Z" fill="#F7A528"/>
</g>
<path d="M48.9984 74.2101C49.9202 75.3368 48.4863 75.6441 48.0766 75.6441C46.1305 75.7465 44.7989 75.7465 42.648 75.2344C42.5455 75.2344 42.4431 74.2101 42.2383 72.7761C41.3164 72.8786 40.497 72.7761 39.8825 72.7761C39.6776 74.2101 39.5752 75.2344 39.4728 75.2344C37.3218 75.7465 35.9903 75.7465 34.0442 75.6441C33.6345 75.6441 32.2005 75.3368 33.1223 74.2101C32.6102 73.2883 32.0981 72.264 31.5859 71.3422C31.7908 71.2398 31.9956 71.1373 32.3029 71.1373C32.4053 71.1373 32.4053 71.1373 32.5078 71.1373C33.1223 71.0349 33.7369 71.0349 34.3514 71.1373C35.0684 71.3422 36.0927 71.6495 36.1951 71.547C36.2975 71.547 36.7073 71.3422 37.117 71.2398C37.8339 71.0349 38.5509 71.0349 39.2679 71.2398L40.0873 71.4446C40.8043 71.6495 41.5213 71.6495 42.1358 71.4446L43.5698 71.0349C44.1844 70.8301 44.9014 70.8301 45.5159 70.9325L45.7208 71.0349C46.3353 71.1373 46.9499 71.1373 47.462 71.0349L47.7693 70.9325C48.3838 70.7276 48.9984 70.8301 49.7154 70.9325C50.0227 71.0349 50.3299 71.1373 50.6372 71.3422C50.0227 72.264 49.5105 73.1859 48.9984 74.2101Z" fill="white"/>
<path d="M50.2273 57.2075C49.6128 60.2803 47.5643 62.8409 45.4133 64.07C45.3109 64.1725 45.106 64.1725 45.0036 64.2749C41.2138 65.9137 41.9308 73.186 41.9308 73.186C41.9308 73.186 40.0871 73.186 39.8823 73.186C40.4969 68.4744 40.8041 67.8598 37.1168 64.2749C37.0144 64.1725 36.9119 64.1725 36.8095 64.07C34.1464 62.3288 32.5076 59.3584 31.9955 57.2075C31.1761 53.8274 32.3028 50.9595 32.7125 50.8571C32.7125 50.8571 48.6909 49.628 49.5104 51.1643C50.4322 53.2129 50.637 55.2614 50.2273 57.2075Z" fill="white"/>
<path d="M45.3108 63.9677C45.2084 64.0701 45.0036 64.0701 44.9011 64.1725C41.1114 65.8113 41.8283 73.0836 41.8283 73.0836C41.8283 73.0836 39.9847 73.0836 39.7798 73.0836C40.3944 68.372 40.7017 67.7574 37.0143 64.1725C36.9119 64.0701 36.8095 64.0701 36.707 63.9677C39.4725 65.9137 42.4429 65.8113 45.3108 63.9677Z" fill="#CCCCCC"/>
<path d="M50.2275 57.2075C47.3595 57.7196 44.2868 58.0269 41.0091 58.0269C37.7315 58.0269 34.6587 57.7196 31.8932 57.2075C31.0738 53.8274 32.2005 50.9595 32.6102 50.8571C32.6102 50.8571 48.5887 49.628 49.4081 51.1643C50.4323 53.2129 50.6372 55.2614 50.2275 57.2075Z" fill="#CCCCCC"/>
<path d="M35.6829 76.2588C35.0683 76.2588 34.5562 76.2588 33.8392 76.1564C33.6344 76.1564 32.5077 76.054 32.2004 75.2346C32.098 75.0297 31.9955 74.62 32.3028 74.1079C28.0009 66.6308 26.8742 60.1779 26.567 55.9784C26.2597 50.7547 27.2839 47.4771 27.8985 46.4528C28.0009 46.2479 28.2058 46.1455 28.4106 46.1455H53.6075C53.8123 46.1455 54.0172 46.2479 54.1196 46.4528C54.7342 47.4771 55.656 50.7547 55.3487 55.9784C55.1439 60.0755 53.9148 66.6308 49.6129 74.1079C49.9201 74.62 49.8177 75.0297 49.7153 75.2346C49.408 75.9515 48.2813 76.054 48.0765 76.1564C46.0279 76.2588 44.594 76.2588 42.443 75.7467C42.0333 75.6443 42.0333 75.337 41.8285 74.62C41.726 74.3127 41.726 73.903 41.6236 73.2885C41.1115 73.2885 40.5994 73.2885 40.1896 73.2885C40.0872 73.8006 40.0872 74.2103 39.9848 74.5176C39.8824 75.2346 39.7799 75.5418 39.3702 75.6443C38.0387 76.1564 36.912 76.2588 35.6829 76.2588ZM33.2247 74.8249C33.3271 74.9273 33.6344 75.0297 33.9416 75.0297C35.8877 75.1321 37.1169 75.1321 38.9605 74.7224C38.9605 74.4151 39.063 73.903 39.2678 72.6739C39.2678 72.3666 39.5751 72.1618 39.7799 72.1618C40.4969 72.1618 41.3163 72.1618 42.1357 72.1618C42.443 72.1618 42.6479 72.3666 42.7503 72.6739C42.9552 73.903 43.0576 74.5176 43.0576 74.7224C44.9013 75.1321 46.1304 75.1321 48.0765 75.0297C48.3837 75.0297 48.7934 74.8249 48.7934 74.8249C48.7934 74.8249 48.7935 74.7224 48.5886 74.5176C48.4862 74.3127 48.3837 74.1079 48.5886 73.903C52.8905 66.5283 54.1196 60.0755 54.3245 55.9784C54.5293 51.779 53.9148 48.6037 53.3002 47.3746H28.7179C28.1034 48.6037 27.4888 51.779 27.6936 55.9784C27.8985 60.0755 29.1276 66.4259 33.4295 73.903C33.5319 74.1079 33.5319 74.3127 33.4295 74.5176C33.2247 74.7224 33.2247 74.8249 33.2247 74.8249Z" fill="#1B1464"/>
<path d="M41.6234 72.8786C41.6234 72.5713 41.521 72.2641 41.4186 71.8543C41.3162 71.5471 41.3162 71.1374 41.3162 70.7277C41.3162 70.5228 41.3162 70.318 41.3162 70.2155C41.3162 70.0107 41.3162 69.9083 41.3162 69.7034C41.3162 69.3961 41.4186 68.9864 41.4186 68.6791C41.521 67.9622 41.7259 67.2452 42.0331 66.6306C42.3404 66.0161 42.7501 65.2991 43.2623 64.7869C43.5695 64.4797 43.7744 64.2748 44.0817 64.07C44.1841 63.9675 44.3889 63.8651 44.5938 63.7627L45.0035 63.4554C45.1059 63.353 45.3108 63.2505 45.4132 63.2505C45.5156 63.1481 45.7205 63.0457 45.8229 62.9433C46.1302 62.7384 46.335 62.5336 46.6423 62.3287C46.9496 62.1239 47.1545 61.919 47.3593 61.7142C47.5642 61.5093 47.8714 61.3044 48.0763 60.9972C48.2811 60.7923 48.486 60.485 48.6909 60.1778C48.7933 60.0753 48.8957 59.8705 48.8957 59.7681C48.8957 59.6656 48.9981 59.6656 48.9981 59.5632V59.4608V59.3584C48.9981 59.2559 49.203 59.1535 49.3054 59.2559C49.4078 59.2559 49.5103 59.4608 49.4078 59.5632C49.4078 59.6656 49.4078 59.6656 49.4078 59.6656V59.7681C49.4078 59.8705 49.3054 59.9729 49.3054 59.9729C49.203 60.1778 49.203 60.2802 49.1006 60.485C48.8957 60.7923 48.7933 61.0996 48.5884 61.4069C48.3836 61.7142 48.1787 62.0214 47.9739 62.2263C47.769 62.5336 47.4617 62.7384 47.2569 62.9433C46.7448 63.4554 46.1302 63.8651 45.6181 64.1724C45.3108 64.3772 45.1059 64.4797 44.7987 64.6845C44.5938 64.8894 44.2865 65.0942 44.0817 65.2991C43.672 65.7088 43.3647 66.3233 43.0574 66.8355C42.8526 67.45 42.6477 67.9622 42.5453 68.6791C42.4429 68.9864 42.4429 69.2937 42.4429 69.601C42.4429 69.8058 42.4429 69.9083 42.4429 70.1131C42.4429 70.318 42.4429 70.4204 42.4429 70.6252C42.4429 70.9325 42.4429 71.2398 42.5453 71.5471C42.5453 71.8544 42.6477 72.1616 42.7501 72.5713C42.7501 72.8786 42.5453 73.0835 42.238 73.1859C41.9307 73.3907 41.6234 73.1859 41.6234 72.8786Z" fill="#1B1464"/>
<path d="M53.4986 45.0879C53.6529 39.9992 48.0029 35.699 40.8788 35.4829C33.7547 35.2668 27.8544 39.2168 27.7001 44.3054C27.5458 49.394 33.1958 53.6943 40.3199 53.9104C47.444 54.1265 53.3443 50.1765 53.4986 45.0879Z" fill="#EC1C24"/>
<path d="M40.9065 54.2369C40.7016 54.2369 40.4968 54.2369 40.2919 54.2369C32.9172 54.032 27.0789 49.5253 27.2838 44.1991C27.4886 38.8729 33.5318 34.7759 40.9065 34.9807C44.389 35.0832 47.769 36.2099 50.2273 38.0535C52.6855 39.9996 54.017 42.4579 54.017 45.0185H53.6073H54.017C53.8122 50.2423 47.9739 54.2369 40.9065 54.2369ZM40.3944 35.9026C33.8391 35.9026 28.4105 39.5899 28.2056 44.3015C28.1032 49.1156 33.5318 53.2126 40.3944 53.4175C47.2569 53.6223 52.8904 49.8325 53.0952 45.0185C53.1976 42.7651 51.9685 40.5118 49.7151 38.7705C47.4618 37.0293 44.2865 36.005 40.9065 35.9026C40.7016 35.9026 40.5992 35.9026 40.3944 35.9026Z" fill="#231F20"/>
<path d="M40.7018 62.3286C43.6999 62.3286 46.1304 59.8982 46.1304 56.9C46.1304 53.9019 43.6999 51.4714 40.7018 51.4714C37.7037 51.4714 35.2732 53.9019 35.2732 56.9C35.2732 59.8982 37.7037 62.3286 40.7018 62.3286Z" fill="#52A4DA"/>
<path d="M40.7018 62.7384C37.5266 62.7384 34.8635 60.0753 34.8635 56.9001C34.8635 53.7248 37.5266 51.0618 40.7018 51.0618C43.877 51.0618 46.5401 53.7248 46.5401 56.9001C46.5401 60.0753 43.877 62.7384 40.7018 62.7384ZM40.7018 51.8812C37.9363 51.8812 35.6829 54.1346 35.6829 56.9001C35.6829 59.6656 37.9363 61.9189 40.7018 61.9189C43.4673 61.9189 45.7207 59.6656 45.7207 56.9001C45.7207 54.1346 43.4673 51.8812 40.7018 51.8812Z" fill="#231F20"/>
<path d="M40.5992 54.2372C41.0517 54.2372 41.4186 53.8703 41.4186 53.4178C41.4186 52.9653 41.0517 52.5984 40.5992 52.5984C40.1466 52.5984 39.7798 52.9653 39.7798 53.4178C39.7798 53.8703 40.1466 54.2372 40.5992 54.2372Z" fill="#231F20"/>
<path d="M38.7556 55.2613C38.7556 54.954 38.9605 54.6467 39.3702 54.6467C39.7799 54.6467 39.9847 54.8516 39.9847 55.2613V57.0025L41.8284 54.954C41.9308 54.8516 42.1357 54.6467 42.3405 54.6467C42.6478 54.6467 42.8527 54.8516 42.8527 55.1589C42.8527 55.3637 42.7502 55.4661 42.6478 55.5686L41.4187 56.7977L42.8527 58.9486C42.9551 59.1535 43.0575 59.2559 43.0575 59.4608C43.0575 59.8705 42.7502 60.0753 42.443 60.0753C42.2381 60.0753 42.0333 59.9729 41.9308 59.768L40.5993 57.6171L39.9847 58.2316V59.4608C39.9847 59.768 39.7799 60.0753 39.3702 60.0753C38.9605 60.0753 38.7556 59.8705 38.7556 59.4608V55.2613Z" fill="#F2E911"/>
<path d="M42.2382 54.749C42.5454 54.749 42.7503 54.9538 42.7503 55.2611C42.7503 55.466 42.6479 55.5684 42.5454 55.6708L41.3163 56.8999L42.7503 59.0509C42.8527 59.2557 42.9551 59.3581 42.9551 59.563C42.9551 59.9727 42.6479 60.1776 42.3406 60.1776C42.1357 60.1776 41.9309 60.0751 41.8285 59.8703L40.4969 57.7193L39.8824 58.3339V59.4606C39.8824 59.7679 39.6775 60.0751 39.2678 60.0751C38.8581 60.0751 38.6532 59.8703 38.6532 59.4606V55.2611C38.6532 54.9538 38.8581 54.6465 39.2678 54.6465C39.6775 54.6465 39.8824 54.8514 39.8824 55.2611V57.0023L41.726 54.9538C41.9309 54.8514 42.0333 54.749 42.2382 54.749ZM42.2382 54.1344C41.726 54.1344 41.5212 54.4417 41.3163 54.5441L40.3945 55.466V55.1587C40.3945 54.4417 39.8824 54.032 39.2678 54.032C38.6532 54.032 38.1411 54.5441 38.1411 55.1587V59.4606C38.1411 60.1776 38.6532 60.5873 39.2678 60.5873C39.8824 60.5873 40.3945 60.0751 40.3945 59.4606V58.5387L41.4188 60.0751C41.6236 60.4848 41.9309 60.6897 42.443 60.6897C43.16 60.6897 43.5697 60.1776 43.5697 59.563C43.5697 59.2557 43.4673 59.0509 43.2624 58.846C43.2624 58.846 43.2624 58.846 43.2624 58.7436L42.0333 56.8999L42.9551 55.9781C43.0576 55.8757 43.2624 55.5684 43.2624 55.1587C43.3649 54.6465 42.8527 54.1344 42.2382 54.1344Z" fill="#231F20"/>
<path d="M32.8149 59.4606C32.9173 59.563 32.9173 59.6654 32.9173 59.6654C32.9173 59.7678 33.0197 59.7678 33.0197 59.8703C33.1221 59.9727 33.2246 60.1775 33.327 60.28C33.4294 60.3824 33.5318 60.5872 33.6343 60.6897C33.7367 60.7921 33.8391 60.8945 33.9416 61.0994C34.3513 61.6115 34.8634 62.0212 35.3755 62.4309C35.6828 62.6358 35.8877 62.8406 36.1949 63.0455C36.2974 63.1479 36.5022 63.2503 36.6046 63.3528C36.7071 63.4552 36.9119 63.5576 37.0143 63.66L37.2192 63.7625C37.3216 63.7625 37.424 63.8649 37.424 63.8649C37.5265 63.8649 37.6289 63.9673 37.6289 63.9673C37.7313 63.9673 37.7313 64.0697 37.8338 64.1722C38.141 64.377 38.4483 64.6843 38.6532 64.8891C39.1653 65.4013 39.575 66.0158 39.8823 66.7328C40.1896 67.4498 40.3944 68.1668 40.4968 68.8838C40.5993 69.2935 40.5993 69.6008 40.5993 70.0105C40.5993 70.2153 40.5993 70.4202 40.5993 70.5226V70.8299C40.5993 70.9323 40.5993 71.0347 40.5993 71.1371C40.5993 71.5468 40.4968 71.8541 40.3944 72.1614L40.292 72.6735C40.292 72.8784 40.1896 72.9808 40.1896 73.1857C40.1896 73.4929 39.8823 73.6978 39.575 73.5954C39.2677 73.5954 39.1653 73.2881 39.1653 73.0832C39.1653 72.8784 39.1653 72.6735 39.2677 72.5711L39.3701 72.059C39.3701 71.7517 39.4726 71.4444 39.4726 71.1371C39.4726 71.0347 39.4726 70.9323 39.4726 70.9323V70.7274C39.4726 70.5226 39.4726 70.4202 39.4726 70.2153C39.4726 69.908 39.4726 69.6007 39.3701 69.2935C39.2677 68.6789 39.0629 68.0644 38.858 67.4498C38.5507 66.8352 38.2435 66.3231 37.8338 65.9134C37.6289 65.7086 37.424 65.5037 37.1168 65.2988C37.0143 65.2988 37.0143 65.1964 36.9119 65.1964C36.8095 65.1964 36.8095 65.094 36.7071 65.094C36.6046 65.094 36.6046 64.9916 36.5022 64.9916L36.2974 64.8891C35.9901 64.6843 35.6828 64.4794 35.3755 64.2746C35.0682 64.0697 34.8634 63.8649 34.5561 63.5576C34.044 63.0455 33.5318 62.5333 33.1221 61.9188C32.9173 61.6115 32.7124 61.3042 32.61 60.9969C32.5076 60.7921 32.5076 60.6897 32.4052 60.4848C32.4052 60.3824 32.3027 60.28 32.3027 60.1775V60.0751V59.9727C32.3027 59.8703 32.4052 59.7678 32.5076 59.6654C32.61 59.3581 32.7124 59.3581 32.8149 59.4606Z" fill="#1B1464"/>
<path d="M36.9118 74.3125C36.9118 74.4149 36.8094 74.5174 36.8094 74.6198C36.8094 74.7222 36.8094 74.8246 36.707 74.9271C36.707 75.0295 36.707 75.1319 36.707 75.2344C36.707 75.3368 36.707 75.3368 36.707 75.4392C36.707 75.5416 36.707 75.5416 36.707 75.6441C36.707 75.8489 36.6045 76.0538 36.3997 76.0538C36.1948 76.0538 35.99 75.9513 35.99 75.7465V75.6441C35.99 75.5416 35.99 75.5416 35.99 75.4392C35.99 75.3368 35.99 75.3368 35.99 75.2344C35.99 75.1319 36.0924 74.9271 36.0924 74.8246C36.1948 74.7222 36.1948 74.6198 36.2973 74.4149C36.3997 74.3125 36.5021 74.2101 36.6045 74.1077H36.707C36.9118 74.2101 36.9118 74.3125 36.9118 74.3125Z" fill="#1B1464"/>
<path d="M34.9659 74.3125C34.8635 74.4149 34.8635 74.5174 34.761 74.6198C34.761 74.7222 34.6586 74.8246 34.6586 74.9271C34.6586 75.0295 34.6586 75.1319 34.6586 75.2344C34.6586 75.2344 34.6586 75.2344 34.6586 75.3368V75.4392C34.6586 75.4392 34.6586 75.5416 34.761 75.5416C34.8635 75.7465 34.761 75.9513 34.5562 75.9513C34.3513 76.0538 34.1465 75.9513 34.1465 75.7465V75.6441C34.1465 75.5416 34.1465 75.5416 34.1465 75.4392V75.3368V75.2344C34.1465 75.1319 34.1465 74.9271 34.2489 74.8246C34.2489 74.7222 34.3513 74.5174 34.4538 74.4149C34.4538 74.3125 34.5562 74.3125 34.5562 74.2101C34.6586 74.2101 34.6586 74.1077 34.761 74.1077H34.8635C34.9659 74.2101 34.9659 74.3125 34.9659 74.3125Z" fill="#1B1464"/>
<path d="M45.2084 74.2098C45.3108 74.3123 45.4133 74.4147 45.5157 74.5171C45.6181 74.6195 45.6181 74.722 45.7205 74.9268C45.823 75.1317 45.823 75.2341 45.823 75.3365C45.823 75.439 45.823 75.439 45.823 75.5414C45.823 75.6438 45.823 75.6438 45.823 75.7462C45.823 75.9511 45.7205 76.1559 45.5157 76.1559C45.3108 76.1559 45.106 76.0535 45.106 75.8487V75.7462C45.106 75.6438 45.106 75.6438 45.106 75.5414C45.106 75.439 45.106 75.439 45.106 75.3365C45.106 75.2341 45.106 75.1317 45.106 75.0293C45.106 74.9268 45.106 74.8244 45.0036 74.722C45.0036 74.6195 44.9011 74.5171 44.9011 74.4147V74.3123C45.106 74.2098 45.106 74.2098 45.2084 74.2098Z" fill="#1B1464"/>
<path d="M47.1547 74.2102C47.2571 74.2102 47.2571 74.3127 47.3595 74.3127C47.3595 74.3127 47.462 74.4151 47.462 74.5175C47.5644 74.62 47.6668 74.7224 47.6668 74.9272C47.6668 75.0296 47.7692 75.2345 47.7692 75.3369V75.4394V75.5418C47.7692 75.6442 47.7692 75.6442 47.7692 75.7466C47.7692 75.9515 47.5644 76.0539 47.3595 76.0539C47.1547 76.0539 47.0523 75.8491 47.0523 75.6442V75.5418C47.0523 75.5418 47.0523 75.4394 47.1547 75.4394V75.3369C47.1547 75.3369 47.1547 75.3369 47.1547 75.2345C47.1547 75.1321 47.1547 75.0296 47.1547 74.9272C47.1547 74.8248 47.1547 74.7224 47.0523 74.6199C47.0523 74.5175 47.0523 74.5175 46.9498 74.4151L46.8474 74.3127V74.2102C47.1547 74.1078 47.1547 74.1078 47.1547 74.2102Z" fill="#1B1464"/>
<path d="M32.9175 7.12114C32.9175 7.12114 19.7045 24.9433 19.1924 18.4904C19.1924 17.8759 19.09 17.1589 19.09 16.4419C18.9876 9.88664 20.7288 0.0537263 23.2895 0.565857C25.6453 0.975562 31.2787 5.68717 32.7127 6.91628C32.8151 7.01871 32.9175 7.12114 32.9175 7.12114Z" fill="#F7A528"/>
<path opacity="0.5" d="M32.6102 6.81386C31.4835 7.12114 30.7666 7.32599 30.7666 7.32599C30.7666 7.32599 25.4404 1.07799 22.9822 1.8974C20.3191 3.53622 19.4997 16.6468 19.4997 16.6468C19.3973 16.6468 19.1924 16.5443 18.9875 16.4419C18.9875 9.88664 20.7288 0.0537263 23.2895 0.565857C25.6453 0.975562 31.1763 5.68717 32.6102 6.81386Z" fill="#F7A528"/>
<path d="M20.2166 20.4363C20.0118 20.4363 19.9093 20.4363 19.8069 20.3339C19.2948 20.2315 18.7827 19.8218 18.6802 18.4902C18.1681 12.9592 19.4996 2.7166 21.9579 0.463227C22.47 -0.0489042 22.9821 -0.0489042 23.3918 0.0535221C26.2598 0.565653 33.0199 6.50637 33.3272 6.71123L33.7369 7.01851L33.4296 7.42821C33.4296 7.42821 30.869 10.9107 28.001 14.1883C23.2894 19.5145 21.2409 20.4363 20.2166 20.4363ZM23.0846 1.07778C22.9821 1.07778 22.8797 1.07778 22.6749 1.28264C21.753 2.10205 20.9336 4.76513 20.319 8.45247C19.8069 11.935 19.4996 15.8272 19.8069 18.4902C19.8069 18.7975 19.9093 19.3097 20.2166 19.4121C20.4215 19.4121 21.036 19.5145 22.9821 17.8757C24.2112 16.8514 25.6452 15.4175 27.284 13.4714C29.5374 10.9107 31.5859 8.24762 32.4053 7.22336C30.0495 5.37969 25.1331 1.48749 23.0846 1.07778Z" fill="#1B1464"/>
<path d="M63.4406 17.0561C63.4406 17.5682 63.4406 18.0803 63.3381 18.49C62.826 24.9429 49.613 7.12071 49.613 7.12071C49.613 7.12071 49.7155 7.01828 49.9203 6.81343C51.3543 5.58432 56.8853 0.975137 59.2411 0.565432C61.9042 0.0533014 63.6454 10.3983 63.4406 17.0561Z" fill="#F7A528"/>
<path opacity="0.5" d="M63.4405 17.0561C63.1333 16.8512 63.0308 16.6463 63.0308 16.6463C63.0308 16.6463 62.4163 2.51153 59.5483 1.89697C56.6804 1.28242 51.764 7.32556 51.764 7.32556C51.1494 7.12071 50.5348 7.01828 50.0227 6.81343C51.4567 5.58432 56.9877 0.975137 59.3435 0.565432C61.9042 0.0533013 63.6454 10.3984 63.4405 17.0561Z" fill="#F7A528"/>
<path d="M62.4163 20.4361C61.392 20.4361 59.3435 19.4119 54.7343 14.1881C51.8664 10.9105 49.3057 7.53042 49.3057 7.42799L48.896 7.01828L49.3057 6.71101C49.613 6.50615 56.3731 0.565432 59.241 0.0533005C59.5483 -0.0491257 60.0605 0.0533005 60.675 0.463005C63.1332 2.61396 64.4648 12.959 63.9527 18.5924C63.8502 19.8216 63.2357 20.3337 62.826 20.4361C62.6211 20.4361 62.5187 20.4361 62.4163 20.4361ZM50.33 7.22314C51.0469 8.2474 53.1979 10.9105 55.4513 13.4711C57.0901 15.3148 58.5241 16.8512 59.7532 17.8755C61.5968 19.5143 62.3138 19.4119 62.5187 19.4119C62.826 19.3094 62.826 18.7973 62.9284 18.49C63.1332 15.7245 62.9284 11.9347 62.4163 8.45225C61.8017 4.76491 60.8799 2.10183 60.0605 1.28242C59.6507 1.07756 59.4459 1.07756 59.4459 1.07756C57.3974 1.48727 52.5833 5.37946 50.33 7.22314Z" fill="#1B1464"/>
<path d="M53.915 7.01857C53.5053 6.81372 53.6077 6.09674 53.915 5.89189C55.2465 4.7652 58.4218 2.30697 59.3436 2.61425C60.6751 3.2288 61.4945 9.57923 60.9824 10.9108C60.5727 12.0375 56.5781 8.55497 53.915 7.01857Z" fill="white"/>
<path d="M28.6156 7.01857C29.0253 6.81372 28.9229 6.09674 28.6156 5.89189C27.2841 4.7652 24.1088 2.30697 23.187 2.61425C21.8555 3.2288 21.0361 9.57923 21.5482 10.9108C22.0603 12.0375 26.0549 8.55497 28.6156 7.01857Z" fill="white"/>
<path d="M68.664 29.6546C68.5616 29.04 68.4591 28.4255 68.3567 27.9133C66.1033 28.7327 62.416 29.9619 59.3432 31.0885C55.8607 32.3177 52.1734 32.2152 48.7933 30.9861L46.7448 30.2691C43.1598 28.9376 39.2677 28.9376 35.7852 30.2691L33.7366 30.9861C30.3566 32.2152 26.5668 32.3177 23.1867 31.0885C20.114 30.0643 16.4266 28.7327 14.1732 27.9133C14.0708 28.5279 13.9684 29.1424 13.866 29.6546C13.5587 31.7031 13.6611 33.6492 13.9684 35.288C15.0951 41.3312 19.7042 46.2476 25.645 47.9889C35.0682 50.652 44.4914 50.5495 54.1195 48.6034C55.0413 48.3986 55.9631 48.1937 56.7825 47.9889C62.7233 46.2476 67.3324 41.4336 68.4591 35.288C68.8688 33.6492 68.9713 31.8055 68.664 29.6546Z" fill="white"/>
<path d="M68.5617 32.6252C67.435 38.6683 62.8259 43.5848 56.8851 45.326C55.9633 45.5309 55.1439 45.7357 54.2221 45.9406C44.6964 47.8867 35.1708 47.9891 25.7476 45.326C19.8068 43.5848 15.1977 38.7707 14.071 32.6252C13.9685 32.0106 13.8661 31.3961 13.8661 30.7815C13.7637 32.4203 13.8661 33.9567 14.071 35.2882C15.1977 41.3314 19.8068 46.2479 25.7476 47.9891C35.1708 50.6522 44.594 50.5498 54.2221 48.6037C55.1439 48.3988 56.0657 48.194 56.8851 47.9891C62.8259 46.2479 67.435 41.4338 68.5617 35.2882C68.869 33.9567 68.9714 32.4203 68.7666 30.7815C68.7666 31.4985 68.6642 32.113 68.5617 32.6252Z" fill="#CCCCCC"/>
<path d="M68.3571 27.9135C66.1037 28.7329 62.4163 30.0644 59.3436 31.0887C55.8611 32.3178 52.1737 32.2154 48.7936 30.9863L46.7451 30.2693C43.1602 28.9377 39.268 28.9377 35.7855 30.2693L33.737 30.9863C30.3569 32.2154 26.5672 32.3178 23.1871 31.0887C20.1143 30.0644 16.427 28.7329 14.1736 27.9135C15.0954 23.8164 17.0415 20.0267 19.4997 16.6466C20.6264 15.1102 21.8556 13.7787 23.1871 12.4471C25.338 10.3986 27.8987 8.65735 30.7666 7.22338C34.1467 5.58456 37.9365 4.5603 41.5214 4.5603C45.516 4.5603 48.9985 5.68699 51.764 7.12096C53.8125 8.14522 55.5538 9.27191 56.578 10.0913C62.2115 14.4956 66.8207 20.9485 68.3571 27.9135Z" fill="#F7A528"/>
<path d="M48.3839 49.3206C50.4324 49.0133 52.4809 48.6036 54.427 48.0915C54.9392 47.989 55.4513 47.8866 55.9634 47.6817C56.1683 47.5793 56.4756 47.5793 56.6804 47.4769L57.0901 47.3745L57.295 47.272L57.4998 47.1696L57.8071 47.0672L58.1144 46.9648L58.3192 46.8623L58.5241 46.7599L58.8314 46.6575C59.0362 46.5551 59.2411 46.4526 59.5484 46.3502C59.6508 46.2478 59.7532 46.2478 59.8556 46.1454L60.1629 45.9405C61.9042 44.9162 63.4406 43.5847 64.7721 42.0483C66.0012 40.5119 67.0255 38.6682 67.5376 36.8246C67.64 36.3124 67.8449 35.9027 67.9473 35.3906C68.0497 34.8785 68.1522 34.3663 68.1522 33.9566C68.2546 32.9324 68.2546 31.9081 68.1522 30.9863C68.1522 30.7814 68.1522 30.4741 68.0497 30.2693C68.0497 30.1669 68.0497 30.0644 68.0497 29.8596C68.0497 29.7572 68.0497 29.6547 67.9473 29.4499L67.8449 28.7329L67.7425 28.0159C67.5376 26.9916 67.2303 26.0698 66.923 25.0455L66.8206 24.6358C66.8206 24.5334 66.7182 24.431 66.7182 24.3286C66.6158 24.1237 66.5133 23.8164 66.4109 23.6116C66.2061 23.0994 66.0012 22.6897 65.7964 22.1776L65.5915 21.8703L65.4891 21.6655L65.3866 21.4606L65.0794 20.7436C64.9769 20.5388 64.8745 20.3339 64.6697 20.1291L64.4648 19.8218C64.3624 19.7194 64.3624 19.617 64.26 19.5145L63.8503 18.9L63.4406 18.2854C63.3381 18.0806 63.1333 17.8757 63.0308 17.6709L62.826 17.3636L62.7236 17.1587L62.6211 17.0563L62.2114 16.4417C62.109 16.3393 62.0066 16.2369 62.0066 16.1345L61.8017 15.8272C61.4945 15.4175 61.1872 15.0078 60.9823 14.4956C60.8799 14.2908 60.9823 14.1884 61.1872 14.0859C61.2896 14.0859 61.392 14.0859 61.4945 14.0859C61.6993 14.1884 61.9042 14.3932 62.109 14.5981C62.2114 14.7005 62.3139 14.8029 62.4163 14.9053C62.5187 15.0078 62.6211 15.1102 62.7236 15.2126L62.9284 15.5199C63.0308 15.6223 63.1333 15.7248 63.1333 15.8272L63.6454 16.4417L63.7478 16.6466L63.8503 16.8514L64.0551 17.1587C64.26 17.3636 64.3624 17.5684 64.5672 17.7733L64.9769 18.3878L65.3866 19.1048C65.4891 19.2073 65.4891 19.3097 65.5915 19.4121L65.7964 19.7194C65.8988 19.9242 66.1036 20.1291 66.2061 20.4364L66.6158 21.1533L66.7182 21.3582L66.8206 21.5631L67.0255 21.8703C67.2303 22.3825 67.4352 22.7922 67.64 23.3043C67.7425 23.5092 67.8449 23.8164 67.9473 24.0213C67.9473 24.1237 68.0497 24.2261 68.0497 24.431L68.1522 24.8407C68.5619 25.865 68.7667 26.8892 69.074 27.9135L69.2788 28.7329L69.3813 29.5523C69.3813 29.6547 69.3813 29.8596 69.4837 29.962C69.4837 30.0644 69.4837 30.2693 69.4837 30.3717C69.4837 30.679 69.5861 30.8838 69.5861 31.1911C69.6886 32.2154 69.5861 33.3421 69.4837 34.3663C69.3813 34.8785 69.3813 35.3906 69.2788 36.0052C69.1764 36.5173 69.074 37.0294 68.8691 37.5415C68.7667 37.7464 68.6643 38.0537 68.5619 38.2585C68.4594 38.4634 68.357 38.7707 68.2546 38.9755C68.0497 39.4876 67.8449 39.9998 67.5376 40.4095L67.4352 40.6143L67.3327 40.8192L67.1279 41.1265C67.0255 41.3313 66.8206 41.5362 66.7182 41.8435C66.4109 42.2532 66.1036 42.7653 65.7964 43.175L65.4891 43.4823C65.3867 43.5847 65.2842 43.6871 65.1818 43.7895C64.9769 43.9944 64.7721 44.1993 64.6697 44.4041C64.5672 44.5065 64.4648 44.609 64.3624 44.7114L64.26 44.8138L64.1575 44.9162L63.8503 45.2235L63.543 45.5308C63.4405 45.6332 63.3381 45.7356 63.2357 45.7356C63.1333 45.8381 63.0308 45.9405 62.9284 45.9405C62.7236 46.1454 62.5187 46.2478 62.3139 46.4526C61.9042 46.7599 61.392 47.0672 60.9823 47.272L60.675 47.4769C60.5726 47.5793 60.4702 47.5793 60.2653 47.6817C60.0605 47.7842 59.7532 47.8866 59.5484 47.989L59.1386 48.0915L58.9338 48.1939L58.7289 48.2963L58.3192 48.3987L57.9095 48.5012L57.7047 48.6036L57.4998 48.706L57.0901 48.8084C56.8853 48.9109 56.578 48.9109 56.3731 49.0133C55.861 49.1157 55.3489 49.2181 54.8367 49.3206C52.7882 49.7303 50.7397 50.0375 48.6912 50.2424C48.4863 50.2424 48.3839 50.14 48.3839 49.9351C48.179 49.423 48.2815 49.3206 48.3839 49.3206Z" fill="#1B1464"/>
<path d="M21.4457 14.8027C21.2409 15.3148 20.9336 15.7245 20.6263 16.1342L20.4215 16.4415C20.319 16.5439 20.2166 16.6464 20.2166 16.7488L19.8069 17.3633C19.7045 17.4658 19.7045 17.5682 19.6021 17.6706L19.3972 17.9779L19.1924 18.1828C19.0899 18.2852 19.0899 18.3876 18.9875 18.49L18.5778 19.1046L18.1681 19.8216C18.0657 19.924 18.0657 20.0264 17.9632 20.1289L17.7584 20.4361L17.5535 20.7434C17.4511 20.8458 17.4511 20.9483 17.3487 21.0507L17.0414 21.6652C17.0414 21.7677 16.939 21.7677 16.939 21.8701L16.8366 22.075L16.6317 22.3822C16.4268 22.7919 16.222 23.3041 16.0171 23.7138L15.7099 24.4308C15.7099 24.5332 15.6074 24.6356 15.6074 24.738L15.505 25.0453L15.4026 25.3526C15.4026 25.455 15.3002 25.5574 15.3002 25.6599L15.0953 26.3769C15.0953 26.4793 15.0953 26.4793 15.0953 26.5817V26.7866L14.9929 27.1963L14.8905 27.7084C14.8905 27.8108 14.8905 27.9132 14.788 28.1181L14.6856 28.7327L14.5832 29.4496C14.4807 29.9618 14.4807 30.4739 14.3783 30.8836C14.2759 31.9079 14.2759 32.8297 14.3783 33.854C14.4807 34.8782 14.6856 35.8001 14.9929 36.7219C15.505 38.5656 16.4268 40.4092 17.656 41.9456C17.7584 42.0481 17.7584 42.1505 17.8608 42.2529C17.9632 42.3553 18.0657 42.4578 18.0657 42.5602C18.2705 42.7651 18.3729 42.9699 18.5778 43.0723C18.8851 43.482 19.2948 43.7893 19.6021 44.0966C19.8069 44.3014 20.0118 44.4039 20.2166 44.6087C20.4215 44.8136 20.6263 44.916 20.8312 45.0184C21.2409 45.3257 21.6506 45.633 22.0603 45.8378C22.8797 46.35 23.8015 46.7597 24.7234 47.1694C24.8258 47.1694 24.9282 47.2718 25.0306 47.2718C25.1331 47.2718 25.2355 47.3742 25.3379 47.3742L25.6452 47.4767C25.7476 47.4767 25.8501 47.5791 26.0549 47.5791C26.567 47.6815 26.9767 47.8864 27.4889 47.9888C28.001 48.0912 28.5131 48.1936 28.9228 48.3985C29.435 48.5009 29.9471 48.6033 30.3568 48.7058C31.3811 48.9106 32.3029 49.1155 33.3272 49.2179C33.532 49.2179 33.6345 49.4228 33.532 49.5252C33.532 49.6276 33.3272 49.8325 33.2248 49.73C32.2005 49.6276 31.1762 49.5252 30.152 49.3203C29.1277 49.1155 28.1034 48.9106 27.1816 48.7058C26.6695 48.6033 26.1573 48.5009 25.6452 48.2961C25.5428 48.2961 25.4404 48.1936 25.2355 48.1936L24.8258 48.0912C24.7234 48.0912 24.6209 47.9888 24.4161 47.9888C24.3137 47.9888 24.2112 47.8864 24.0064 47.8864C22.9821 47.5791 22.0603 47.067 21.1385 46.5548C19.2948 45.5306 17.7584 44.0966 16.4268 42.4578C15.0953 40.819 14.071 38.9753 13.4565 36.9268C13.1492 35.9025 12.9444 34.8782 12.8419 33.854C12.7395 32.8297 12.7395 31.8054 12.7395 30.6788C12.7395 30.1666 12.8419 29.6545 12.9444 29.1424L13.0468 28.323L13.2516 27.606C13.2516 27.5035 13.2516 27.4011 13.3541 27.1963L13.4565 26.7866L13.5589 26.3769V26.172C13.5589 26.0696 13.5589 26.0696 13.6613 25.9671L13.8662 25.2502C13.8662 25.1477 13.9686 25.0453 13.9686 24.8405L14.071 24.4308L14.1735 24.0211C14.1735 23.9186 14.2759 23.8162 14.2759 23.6113L14.5832 22.8944L14.8905 22.1774C14.9929 22.075 14.9929 21.9725 15.0953 21.8701L15.3002 21.5628L15.505 21.2555L15.6074 21.0507C15.6074 20.9483 15.7099 20.9483 15.7099 20.8458L16.1196 20.1289C16.222 20.0264 16.222 19.924 16.3244 19.8216L16.5293 19.5143L16.7341 19.207C16.8366 19.1046 16.8366 19.0022 16.939 18.8997L17.3487 18.2852L17.7584 17.6706C17.8608 17.5682 17.8608 17.4658 17.9632 17.3633L18.1681 17.0561L18.3729 16.7488C18.4754 16.6464 18.4754 16.5439 18.5778 16.4415L19.0899 15.827C19.1924 15.7245 19.2948 15.6221 19.2948 15.5197L19.4996 15.2124C19.6021 15.11 19.7045 15.0075 19.7045 14.9051C19.8069 14.8027 19.9093 14.7003 20.0118 14.5978C20.1142 14.4954 20.2166 14.393 20.319 14.393C20.4215 14.2906 20.5239 14.2906 20.6263 14.1881C20.8312 14.0857 20.9336 14.1881 21.036 14.393C21.5482 14.5978 21.5482 14.7003 21.4457 14.8027Z" fill="#1B1464"/>
<path opacity="0.5" d="M51.8664 7.2235C51.764 7.32592 51.764 7.32592 51.764 7.32592C41.2141 4.04828 31.0739 7.2235 30.7666 7.32592C34.1467 5.6871 37.9364 4.66284 41.5214 4.66284C45.516 4.66284 49.1009 5.89196 51.8664 7.2235Z" fill="#F7A528"/>
<path d="M53.0956 8.04296C52.5834 7.83811 52.1737 7.73568 51.6616 7.53083C51.1495 7.32598 50.7398 7.22355 50.2276 7.0187C49.3058 6.71142 48.2815 6.40414 47.2573 6.09686C46.7451 5.99444 46.233 5.89201 45.7209 5.78959C45.2088 5.68716 44.6966 5.58473 44.1845 5.48231C43.6724 5.37988 43.1602 5.37988 42.6481 5.27745C42.5457 5.27745 42.4432 5.27745 42.2384 5.27745H41.8287H41.419H41.0093C38.9608 5.27745 36.9122 5.58473 34.9661 5.99444C33.9419 6.19929 33.02 6.50657 32.0982 6.91627L30.6642 7.53083C30.1521 7.73568 29.7424 7.94054 29.2303 8.04296C29.1278 8.04296 28.923 8.04296 28.8206 7.83811C28.8206 7.73568 28.8206 7.63326 28.923 7.53083C29.3327 7.12113 29.7424 6.81385 30.2545 6.609C30.6642 6.30172 31.1764 6.09686 31.6885 5.89201C32.7128 5.48231 33.6346 5.17503 34.7613 4.86775C36.8098 4.35562 38.9608 4.04834 41.0093 4.04834H41.419H41.8287H42.2384C42.3408 4.04834 42.5457 4.04834 42.6481 4.04834C43.1602 4.04834 43.6724 4.15077 44.1845 4.25319C45.2088 4.45804 46.233 4.6629 47.2573 4.97018C48.2815 5.27745 49.3058 5.58473 50.2276 5.99444C50.7398 6.19929 51.2519 6.40414 51.6616 6.609C51.8665 6.71142 52.1737 6.81385 52.3786 7.0187C52.5834 7.12113 52.7883 7.32598 52.9931 7.53083C53.0956 7.63326 53.0956 7.73568 52.9931 7.83811C53.198 8.04296 53.0956 8.04296 53.0956 8.04296Z" fill="#1B1464"/>
<path d="M46.7449 38.7706C46.7449 43.1749 44.2866 45.0186 41.3163 45.0186C38.3459 45.0186 35.8877 43.1749 35.8877 38.7706C35.8877 38.4633 35.8877 38.2585 35.8877 37.9512C36.0925 38.0536 36.2974 38.0536 36.5023 38.1561C41.009 39.4876 41.3163 36.0051 41.3163 34.8784C41.3163 36.0051 41.6236 39.4876 46.1303 38.1561C46.3352 38.0536 46.54 38.0536 46.7449 37.9512C46.7449 38.2585 46.7449 38.4633 46.7449 38.7706Z" fill="#0C0B47"/>
<path d="M41.3164 45.3259C39.6776 45.3259 38.2436 44.8138 37.2194 43.7895C36.0927 42.6628 35.5806 41.024 35.5806 38.8731C35.5806 38.5658 35.5806 38.3609 35.5806 38.0536C35.5806 37.9512 35.683 37.8488 35.683 37.8488C35.7854 37.8488 35.8878 37.7464 35.8878 37.8488C36.0927 37.9512 36.2975 37.9512 36.5024 38.0536C37.9364 38.4634 39.0631 38.4634 39.78 37.8488C40.8043 37.1318 40.9067 35.5954 40.9067 34.9809C40.9067 34.776 41.0092 34.6736 41.214 34.6736C41.4189 34.6736 41.5213 34.776 41.5213 34.9809C41.5213 35.5954 41.6237 37.1318 42.648 37.8488C43.365 38.3609 44.4916 38.4634 45.9256 38.0536C46.1305 37.9512 46.3353 37.9512 46.5402 37.8488C46.6426 37.8488 46.745 37.8488 46.745 37.8488C46.8474 37.8488 46.8475 37.9512 46.8475 38.0536C46.8475 38.3609 46.8475 38.6682 46.8475 38.8731C46.8475 41.024 46.3353 42.6628 45.2086 43.7895C44.3892 44.7114 42.9553 45.3259 41.3164 45.3259ZM36.0927 38.3609C36.0927 38.4634 36.0927 38.6682 36.0927 38.7706C36.0927 42.5604 37.9364 44.7114 41.214 44.7114C44.4916 44.7114 46.3353 42.5604 46.3353 38.7706C46.3353 38.6682 46.3353 38.4634 46.3353 38.3609C46.2329 38.3609 46.1305 38.4634 46.028 38.4634C44.3892 38.9755 43.0577 38.8731 42.2383 38.1561C41.7261 37.7464 41.3164 37.1318 41.214 36.6197C41.0092 37.2342 40.7019 37.7464 40.1897 38.1561C39.2679 38.8731 38.0388 38.8731 36.4 38.4634C36.2975 38.3609 36.1951 38.3609 36.0927 38.3609Z" fill="#0C0B47"/>
<path d="M44.3892 39.8971C44.3892 41.9456 43.365 42.9699 41.214 42.9699C39.0631 42.9699 38.0388 41.9456 38.0388 39.8971C38.0388 39.6923 38.0388 39.5898 38.0388 39.385C38.0388 38.9753 38.1412 38.5656 38.2437 38.2583C38.2437 38.0534 38.4485 37.951 38.6534 37.951C39.6776 37.8486 40.3946 37.1316 40.5995 35.9025C40.5995 35.6976 40.8043 35.5952 41.0092 35.5952C41.1116 35.5952 41.1116 35.5952 41.214 35.5952C41.214 35.5952 41.3165 35.5952 41.4189 35.5952C41.6237 35.5952 41.7262 35.8001 41.8286 35.9025C42.1359 37.1316 42.7504 37.7462 43.7747 37.951C43.9795 37.951 44.082 38.0534 44.1844 38.2583C44.2868 38.668 44.3892 38.9753 44.3892 39.385C44.3892 39.5898 44.3892 39.7947 44.3892 39.8971Z" fill="#E44A8A"/>
<path d="M42.3407 39.1805C42.8529 39.2829 43.4674 39.4878 44.3892 39.4878C44.3892 39.0781 44.2868 38.6684 44.1844 38.3611C44.1844 38.1562 43.9795 38.0538 43.7747 38.0538C42.7504 37.9514 42.0334 37.2344 41.8286 36.0053C41.8286 35.8004 41.6237 35.698 41.4189 35.698C41.3165 35.698 41.3165 35.698 41.214 35.698C41.214 35.698 41.1116 35.698 41.0092 35.698C40.8043 35.698 40.7019 35.9028 40.5995 36.0053C40.2922 37.2344 39.6776 37.8489 38.6534 38.0538C38.4485 38.0538 38.3461 38.1562 38.2437 38.3611C38.1412 38.7708 38.0388 39.0781 38.0388 39.4878C38.5509 39.5902 39.2679 39.5902 40.0873 39.2829C40.497 39.1805 40.8043 39.3853 40.9068 39.6926L41.214 40.4096L41.4189 39.5902C41.6237 39.2829 42.0334 39.0781 42.3407 39.1805Z" fill="#E44A8A"/>
<path d="M36.5024 32.7273C36.5024 32.7273 31.1763 36.5171 36.5024 38.1559C41.8286 39.7947 41.3165 34.4685 41.3165 34.4685L36.5024 32.7273Z" fill="white"/>
<path d="M46.1303 32.7273L41.3163 34.4685C41.3163 34.4685 40.8042 39.6923 46.1303 38.1559C51.3541 36.6195 46.1303 32.7273 46.1303 32.7273Z" fill="white"/>
<path d="M41.214 34.4685C41.1116 35.9025 40.2922 38.3607 36.4 37.234C34.966 36.8243 34.3515 36.2098 34.1466 35.5952C33.9418 36.517 34.3515 37.5413 36.4 38.1558C40.9067 39.4874 41.214 36.0049 41.214 34.8782C41.3165 34.6734 41.3165 34.4685 41.214 34.4685Z" fill="#CCCCCC"/>
<path d="M48.3838 35.5952C48.179 36.2098 47.5644 36.8243 46.1304 37.234C42.2382 38.3607 41.5213 35.9025 41.3164 34.4685C41.3164 34.4685 41.3164 34.5709 41.3164 34.7758C41.3164 35.9025 41.6237 39.385 46.1304 38.0534C48.179 37.5413 48.5887 36.517 48.3838 35.5952Z" fill="#CCCCCC"/>
<path d="M36.5023 32.8299C35.9902 33.2396 35.5805 33.6493 35.1708 34.1614C34.9659 34.3662 34.7611 34.6735 34.6587 34.8784C34.5562 35.1857 34.3514 35.3905 34.3514 35.6978C34.249 36.0051 34.3514 36.2099 34.3514 36.5172C34.4538 36.722 34.6587 36.9269 34.8635 37.1318C34.8635 37.1318 34.9659 37.2342 35.0684 37.2342C35.1708 37.2342 35.1708 37.3366 35.2732 37.3366L35.3756 37.439H35.4781C35.5805 37.439 35.5805 37.5415 35.6829 37.5415C35.9902 37.6439 36.1951 37.7463 36.5023 37.8487C37.1169 38.0536 37.7314 38.156 38.2436 38.156H38.4484C38.5509 38.156 38.5509 38.156 38.6533 38.156H38.7557H38.8581H38.9606H39.063L39.2678 38.0536L39.4727 37.9512C39.5751 37.8487 39.6775 37.8487 39.78 37.7463C40.1897 37.439 40.497 36.9269 40.7018 36.3123C40.8042 36.0051 40.8042 35.6978 40.9067 35.4929C40.9067 35.3905 40.9067 35.1857 40.9067 35.0832C40.9067 34.9808 40.9067 34.9808 40.9067 34.8784C40.9067 34.7759 40.9067 34.776 40.9067 34.6735C40.9067 34.5711 41.0091 34.3662 41.1115 34.3662C41.2139 34.3662 41.4188 34.4687 41.4188 34.5711C41.4188 34.6735 41.4188 34.776 41.4188 34.776C41.4188 34.8784 41.4188 34.9808 41.4188 34.9808C41.4188 35.1857 41.4188 35.2881 41.4188 35.4929C41.4188 35.8002 41.3164 36.1075 41.2139 36.5172C41.1115 36.8245 41.0091 37.1318 40.8042 37.439C40.5994 37.7463 40.3945 37.9512 40.0872 38.2584C39.78 38.4633 39.4727 38.6681 39.1654 38.7706H39.063H38.9606H38.8581H38.7557C38.6533 38.7706 38.5509 38.7706 38.5509 38.7706H38.346H38.2436H38.1412H37.9363C37.7314 38.7706 37.629 38.7706 37.4242 38.6681C37.2193 38.6681 37.1169 38.5657 36.912 38.5657C36.7072 38.5657 36.6048 38.4633 36.3999 38.4633C36.0926 38.3609 35.7853 38.2584 35.4781 38.156C35.3756 38.156 35.3756 38.0536 35.2732 38.0536L35.1708 37.9512L35.0684 37.8487C34.9659 37.8487 34.9659 37.7463 34.8635 37.7463C34.7611 37.7463 34.7611 37.6439 34.6587 37.5415C34.3514 37.3366 34.1465 37.0293 34.0441 36.7221C33.9417 36.4148 33.9417 36.0051 34.0441 35.5954C34.1465 35.2881 34.249 34.9808 34.4538 34.6735C34.6587 34.3662 34.8635 34.1614 35.0684 33.8541C35.2732 33.6493 35.4781 33.4444 35.7854 33.2396C35.9902 33.0347 36.2975 32.8299 36.6048 32.625H36.7072C36.6048 32.7274 36.6048 32.8299 36.5023 32.8299Z" fill="#0C0B47"/>
<path d="M46.1303 32.625C46.4376 32.8299 46.6424 33.0347 46.9497 33.2396C47.1546 33.4444 47.4618 33.6493 47.6667 33.8541C47.8716 34.059 48.0764 34.3662 48.2813 34.6735C48.4861 34.9808 48.5885 35.2881 48.691 35.5954C48.691 35.8002 48.7934 35.9026 48.7934 36.1075C48.7934 36.3123 48.7934 36.5172 48.691 36.6196C48.5885 36.9269 48.2813 37.2342 48.0764 37.5415C47.974 37.6439 47.974 37.6439 47.8716 37.7463C47.7691 37.7463 47.7691 37.8487 47.6667 37.8487L47.5643 37.9512L47.4618 38.0536C47.3594 38.0536 47.3594 38.156 47.257 38.156C46.9497 38.2584 46.6424 38.3609 46.3352 38.4633C46.1303 38.4633 46.0279 38.5657 45.823 38.5657C45.6182 38.5657 45.5157 38.6681 45.3109 38.6681C45.106 38.6681 45.0036 38.6681 44.7988 38.7706H44.5939H44.4915H44.3891H44.1842C44.0818 38.7706 43.9794 38.7706 43.9794 38.7706H43.8769H43.7745H43.6721H43.5697L43.3648 38.6681L43.1599 38.5657C42.9551 38.4633 42.8527 38.3609 42.7502 38.2584C42.443 38.0536 42.2381 37.7463 42.0333 37.439C41.8284 37.1318 41.726 36.8245 41.6236 36.5172C41.5211 36.2099 41.5211 35.9026 41.4187 35.4929C41.4187 35.2881 41.4187 35.1857 41.4187 34.9808C41.4187 34.8784 41.4187 34.776 41.4187 34.776V34.5711C41.4187 34.4687 41.5211 34.2638 41.726 34.3662C41.8284 34.3662 41.9308 34.4687 41.9308 34.6735C41.9308 34.776 41.9308 34.7759 41.9308 34.8784C41.9308 34.9808 41.9308 34.9808 41.9308 35.0832C41.9308 35.1857 41.9308 35.3905 41.9308 35.4929C41.9308 35.8002 42.0333 36.1075 42.1357 36.3123C42.3405 36.8245 42.6478 37.3366 43.0575 37.7463C43.1599 37.8487 43.2624 37.8487 43.3648 37.9512L43.5697 38.0536L43.7745 38.156H43.8769H43.9794H44.0818H44.1842C44.2866 38.156 44.2866 38.156 44.3891 38.156H44.5939C45.2085 38.156 45.823 38.0536 46.3352 37.8487C46.6424 37.7463 46.9497 37.6439 47.1546 37.5415C47.257 37.5415 47.257 37.439 47.3594 37.439H47.4618L47.5643 37.3366C47.6667 37.3366 47.6667 37.2342 47.7691 37.2342C47.8715 37.2342 47.8716 37.1318 47.974 37.1318C48.1788 36.9269 48.3837 36.722 48.4861 36.5172C48.5885 36.3123 48.5885 36.0051 48.4861 35.6978C48.3837 35.3905 48.2813 35.1857 48.1788 34.8784C48.0764 34.6735 47.8716 34.3662 47.6667 34.1614C47.257 33.6493 46.8473 33.2396 46.3352 32.8299C46.2327 32.8299 46.2327 32.7274 46.3352 32.625C46.0279 32.625 46.1303 32.625 46.1303 32.625Z" fill="#0C0B47"/>
<path d="M41.3166 42.4581C39.268 42.4581 38.2438 41.5363 38.1414 39.6926C38.1414 39.7951 38.1414 39.8975 38.1414 39.8975C38.1414 41.946 39.1656 42.9703 41.3166 42.9703C43.4675 42.9703 44.4918 41.946 44.4918 39.8975C44.4918 39.7951 44.4918 39.6926 44.4918 39.6926C44.3894 41.5363 43.3651 42.4581 41.3166 42.4581Z" fill="#E44A8A"/>
<path d="M44.5941 32.0106C44.5941 33.3421 43.1601 34.4688 41.3165 34.4688C39.4728 34.4688 38.0388 33.3421 38.0388 32.0106C38.0388 30.679 39.4728 30.0645 41.3165 30.0645C43.1601 30.0645 44.5941 30.679 44.5941 32.0106Z" fill="black"/>
<path d="M44.5941 32.0106C44.5941 33.3421 43.1601 34.4688 41.3165 34.4688C39.4728 34.4688 38.0388 33.3421 38.0388 32.0106C38.0388 30.679 39.4728 30.0645 41.3165 30.0645C43.1601 30.0645 44.5941 30.679 44.5941 32.0106Z" fill="#0C0B47"/>
<path d="M41.3163 30.9862C42.9552 30.9862 44.2867 31.3959 44.4916 32.5226C44.4916 32.4201 44.4916 32.2153 44.4916 32.1128C44.4916 30.7813 43.0576 30.1667 41.2139 30.1667C39.3702 30.1667 37.9363 30.6789 37.9363 32.1128C37.9363 32.2153 37.9363 32.4201 37.9363 32.5226C38.346 31.3959 39.6775 30.9862 41.3163 30.9862Z" fill="#2F2F7C"/>
<path d="M41.3165 34.7763C39.3704 34.7763 37.834 33.5472 37.834 32.0108C37.834 30.6793 39.1655 29.8599 41.3165 29.8599C43.5699 29.8599 44.799 30.6793 44.799 32.0108C44.799 33.5472 43.2626 34.7763 41.3165 34.7763ZM41.3165 30.372C40.3946 30.372 38.3461 30.5768 38.3461 32.0108C38.3461 33.2399 39.6777 34.1618 41.3165 34.1618C42.9553 34.1618 44.2868 33.1375 44.2868 32.0108C44.2868 30.5768 42.1359 30.372 41.3165 30.372Z" fill="#0C0B47"/>
<path d="M24.6209 40.6143C26.2597 38.9755 26.2597 36.4148 24.6209 34.776C22.9821 33.1372 20.4214 33.1372 18.7826 34.776C17.1438 36.4148 17.1438 38.9755 18.7826 40.6143C20.4214 42.2531 23.0845 42.2531 24.6209 40.6143Z" fill="#FC7FC9"/>
<path d="M64.8747 38.4634C65.2844 36.21 63.748 34.1615 61.4946 33.7517C59.2412 33.342 57.1927 34.8784 56.783 37.1318C56.3733 39.3852 57.9097 41.4337 60.1631 41.8434C62.4164 42.1507 64.5674 40.6143 64.8747 38.4634Z" fill="#FC7FC9"/>
<path d="M31.0739 30.6789C32.8151 30.6789 34.2491 29.04 34.2491 27.094C34.2491 25.1479 32.8151 23.509 31.0739 23.509C29.3326 23.509 27.8987 25.1479 27.8987 27.094C27.8987 29.04 29.3326 30.6789 31.0739 30.6789Z" fill="#0C0B47"/>
<path d="M32.0981 27.5039C32.8151 27.5039 33.4297 26.787 33.4297 25.9675C33.4297 25.1481 32.8151 24.4312 32.0981 24.4312C31.3812 24.4312 30.7666 25.1481 30.7666 25.9675C30.7666 26.787 31.3812 27.5039 32.0981 27.5039Z" fill="white"/>
<path d="M51.4567 30.6789C53.198 30.6789 54.6319 29.04 54.6319 27.094C54.6319 25.1479 53.198 23.509 51.4567 23.509C49.7155 23.509 48.2815 25.1479 48.2815 27.094C48.2815 29.04 49.7155 30.6789 51.4567 30.6789Z" fill="#0C0B47"/>
<path d="M52.481 27.5039C53.1979 27.5039 53.8125 26.787 53.8125 25.9675C53.8125 25.1481 53.1979 24.4312 52.481 24.4312C51.764 24.4312 51.1494 25.1481 51.1494 25.9675C51.1494 26.787 51.764 27.5039 52.481 27.5039Z" fill="white"/>
<path d="M29.7424 21.2559C31.4836 21.2559 32.9176 20.4365 32.9176 19.4123C32.9176 18.388 31.4836 17.5686 29.7424 17.5686C28.0011 17.5686 26.5672 18.388 26.5672 19.4123C26.4647 20.4365 27.8987 21.2559 29.7424 21.2559Z" fill="white"/>
<path d="M52.8906 21.2559C54.6318 21.2559 56.0658 20.4365 56.0658 19.4123C56.0658 18.388 54.6318 17.5686 52.8906 17.5686C51.1493 17.5686 49.7154 18.388 49.7154 19.4123C49.6129 20.4365 51.0469 21.2559 52.8906 21.2559Z" fill="white"/>
<path d="M5.8768 46.0427C4.75012 46.0427 3.62343 45.633 3.21372 45.4281C2.29189 45.0184 0.755493 44.199 0.243362 42.8675C-0.473621 40.819 0.448215 38.5656 2.29189 37.951C2.90644 37.7462 3.62343 37.7462 4.23798 37.8486C4.64769 37.3365 5.15982 36.9268 5.77438 36.7219C6.69621 36.4146 7.72048 36.5171 8.64231 37.0292C9.46172 37.5413 10.1787 38.3607 10.486 39.2826C10.9981 40.6141 10.1787 42.2529 9.769 43.0723C9.46172 43.5845 8.43746 45.2233 7.10592 45.7354H7.00349H6.90107C6.59379 46.0427 6.18408 46.0427 5.8768 46.0427ZM3.00887 39.8971C2.18946 40.2044 1.77976 41.2287 2.18946 42.2529C2.29189 42.5602 2.90644 43.1748 4.03313 43.5845C5.15982 43.9942 6.08166 44.0966 6.28651 43.9942H6.38894H6.49136C6.79864 43.8918 7.4132 43.2772 8.02776 42.2529C8.64231 41.2287 8.74474 40.4093 8.64231 40.102C8.43746 39.5899 8.13018 39.1801 7.72048 38.8729C7.31077 38.668 6.90107 38.5656 6.49136 38.7704C6.08166 38.8729 5.77438 39.1801 5.67195 39.5899L5.26225 40.7165L4.23798 40.102C3.72585 39.7947 3.31615 39.7947 3.00887 39.8971Z" fill="#1B1464"/>
<path d="M2.59929 38.9754C3.31627 38.7705 4.03326 38.8729 4.64781 39.1802C4.95509 38.4632 5.3648 37.9511 6.08178 37.7462C7.41332 37.2341 8.94971 38.1559 9.56427 39.6923C10.0764 41.2287 8.1303 44.404 6.79876 44.9161H6.69634H6.59391C5.26237 45.4282 1.77988 44.0967 1.16532 42.5603C0.65319 41.1263 1.26775 39.3851 2.59929 38.9754Z" fill="#E44A8A"/>
<path d="M6.38904 44.5066C6.49147 44.5066 6.49147 44.5066 6.38904 44.5066C6.49147 44.5066 6.59389 44.4041 6.59389 44.4041C7.92543 43.9944 9.76911 41.0241 9.3594 39.3853C9.3594 39.4877 9.46183 39.5901 9.46183 39.6925C9.97396 41.2289 8.02786 44.4041 6.69632 44.9163H6.59389H6.49147C5.15992 45.4284 1.67743 44.0969 1.06288 42.5605C1.06288 42.458 0.960449 42.3556 0.960449 42.2532C1.77986 43.7896 5.15992 45.0187 6.38904 44.5066Z" fill="#E44A8A"/>
<path d="M6.69608 38.7704C7.10579 38.668 7.41307 38.3607 7.31064 38.0535C7.20821 37.7462 6.79851 37.7462 6.3888 37.8486C5.9791 37.951 5.67182 38.2583 5.77425 38.5656C5.87667 38.8729 6.28638 38.9753 6.69608 38.7704Z" fill="white"/>
<path d="M2.18949 39.5903C2.29191 39.7951 2.59919 39.8976 2.80404 39.7951C3.11132 39.6927 3.21375 39.3854 3.21375 39.1806C3.11132 38.9757 2.80404 38.8733 2.59919 38.9757C2.29191 39.0782 2.08706 39.3854 2.18949 39.5903Z" fill="white"/>
<path d="M3.82832 39.4878C3.82832 39.5902 3.93074 39.6926 4.03317 39.5902C4.13559 39.5902 4.13559 39.4878 4.13559 39.3853C4.13559 39.2829 4.03317 39.1805 3.93074 39.2829C3.82831 39.2829 3.72589 39.3853 3.82832 39.4878Z" fill="white"/>
<path d="M5.2624 38.9753C5.2624 39.0777 5.36482 39.1802 5.46725 39.0777C5.56968 39.0777 5.56968 38.9753 5.56968 38.8729C5.56968 38.7705 5.46725 38.668 5.36482 38.7705C5.2624 38.7705 5.15997 38.8729 5.2624 38.9753Z" fill="white"/>
</svg>
