<svg width="186" height="110" viewBox="0 0 186 110" fill="none" xmlns="http://www.w3.org/2000/svg">
<path d="M21.221 87.8733H13.8103V109.359H7.70387V87.8733H0.293213V83.0312H21.221V87.8733Z" fill="white"/>
<path d="M71.0138 87.8733H63.5872V109.359H57.4767V87.8733H50.0701V83.0312H71.0138V87.8733Z" fill="white"/>
<path d="M29.7642 85.4898C29.7678 85.9231 29.6766 86.3519 29.497 86.7462C29.3166 87.1328 29.0649 87.4819 28.7551 87.7752C28.4357 88.0736 28.0656 88.3127 27.6623 88.4812C27.2414 88.6558 26.7897 88.7439 26.3341 88.7404C25.8925 88.7451 25.455 88.6567 25.0498 88.4812C24.6583 88.3106 24.3003 88.0715 23.9928 87.7752C23.6863 87.4835 23.4409 87.1337 23.2709 86.7462C23.0945 86.351 23.0047 85.9226 23.0077 85.4898C23.0043 85.048 23.094 84.6104 23.2709 84.2055C23.4409 83.8133 23.6862 83.4583 23.9928 83.1605C24.2964 82.8593 24.6553 82.6195 25.0498 82.4545C25.4564 82.2839 25.8932 82.1971 26.3341 82.1993C26.7891 82.1983 27.24 82.285 27.6623 82.4545C28.0687 82.6171 28.4398 82.8568 28.7551 83.1605C29.0653 83.4596 29.3169 83.814 29.497 84.2055C29.677 84.6095 29.7682 85.0475 29.7642 85.4898ZM29.1859 90.639V109.385H23.6019V90.639H29.1859Z" fill="white"/>
<path d="M38.7069 82.3125V97.4689H39.5365C39.8112 97.4846 40.0855 97.4311 40.3342 97.3133C40.5483 97.1808 40.7329 97.0056 40.8766 96.7988L44.4184 91.522C44.6106 91.223 44.8799 90.9815 45.1979 90.8228C45.5159 90.6642 45.8708 90.5943 46.2252 90.6206H51.3544L46.5124 97.2854C46.0664 97.8764 45.5146 98.3795 44.8851 98.7691C45.1662 98.9763 45.4219 99.2159 45.6469 99.4831C45.8859 99.771 46.1033 100.076 46.297 100.396L51.5738 109.359H46.5164C46.1441 109.367 45.7744 109.296 45.4315 109.151C45.1088 108.991 44.844 108.735 44.6737 108.417L41.1319 101.808C41.0172 101.567 40.8359 101.364 40.6094 101.222C40.3559 101.121 40.0841 101.075 39.8117 101.086H38.7069V109.383H33.1229V82.3125H38.7069Z" fill="white"/>
<path d="M86.2338 99.9531C86.2338 99.7816 86.2338 99.6141 86.2338 99.4465C86.2338 99.4067 86.2338 99.3668 86.2338 99.3229C86.2338 99.1873 86.2338 99.0557 86.2059 98.924C86.2059 98.8921 86.2059 98.8602 86.2059 98.8283C86.1484 98.1375 86.0256 97.4538 85.8389 96.7862C85.7671 96.5309 85.6874 96.2836 85.5956 96.0443C85.5848 96.0102 85.5715 95.9769 85.5558 95.9446C85.5079 95.813 85.4521 95.6894 85.3962 95.5458C85.399 95.538 85.399 95.5296 85.3962 95.5218V95.4939C85.3404 95.3663 85.2805 95.2386 85.2167 95.115L85.1689 95.0233C85.137 94.9595 85.1051 94.8956 85.0692 94.8318C85.0599 94.815 85.0492 94.799 85.0372 94.784C84.6602 94.1017 84.1889 93.476 83.6373 92.9253C82.7826 92.0803 81.7573 91.4276 80.6299 91.0108C79.3871 90.5508 78.0702 90.3236 76.7451 90.3407H76.6733C75.3483 90.324 74.0314 90.5511 72.7885 91.0108C71.6612 91.4276 70.6359 92.0803 69.7812 92.9253C69.2295 93.476 68.7582 94.1017 68.3812 94.784C68.372 94.8008 68.3613 94.8168 68.3493 94.8318C68.3174 94.8956 68.2855 94.9595 68.2496 95.0233L68.2017 95.115L68.0222 95.4939V95.5218V95.5458C67.9664 95.6734 67.9145 95.797 67.8627 95.9446L67.8268 96.0443C67.7351 96.2836 67.6513 96.5309 67.5795 96.7862C67.3923 97.4535 67.2708 98.1374 67.2166 98.8283C67.2166 98.8602 67.2166 98.8921 67.2166 98.924L67.1926 99.3229C67.1926 99.3668 67.1926 99.4067 67.1926 99.4465C67.1926 99.6141 67.1926 99.7816 67.1926 99.9531C67.1722 101.33 67.4076 102.699 67.8866 103.989C68.0381 104.382 68.2167 104.763 68.4211 105.13C68.7997 105.833 69.278 106.478 69.841 107.045C70.6959 107.893 71.7209 108.551 72.8483 108.975C74.0897 109.441 75.4073 109.671 76.7332 109.653H76.805C78.0951 109.664 79.3764 109.44 80.5861 108.991C81.7136 108.567 82.7385 107.909 83.5934 107.061C84.1577 106.494 84.6373 105.849 85.0173 105.146C85.2203 104.779 85.3976 104.397 85.5478 104.005C86.0261 102.709 86.2587 101.335 86.2338 99.9531ZM79.5331 104.133C78.9242 105.034 77.9656 105.489 76.6574 105.497C75.3492 105.505 74.3919 105.05 73.7856 104.133C73.1714 103.224 72.8643 101.841 72.8643 99.985C72.8643 98.129 73.1781 96.7503 73.8056 95.8489C74.4118 94.9555 75.3691 94.5048 76.6773 94.4968C77.9856 94.4888 78.9441 94.9395 79.553 95.8489C80.1673 96.753 80.4744 98.1317 80.4744 99.985C80.4744 101.838 80.1606 103.221 79.5331 104.133Z" fill="white"/>
<path d="M94.6537 82.3125V97.4689H95.4873C95.762 97.4855 96.0366 97.432 96.285 97.3133C96.5 97.1819 96.6848 97.0066 96.8274 96.7988L100.369 91.522C100.563 91.2245 100.832 90.9842 101.15 90.8257C101.468 90.6673 101.822 90.5964 102.176 90.6206H107.309L102.467 97.2854C102.021 97.8764 101.469 98.3795 100.84 98.7691C101.12 98.9764 101.374 99.216 101.598 99.4831C101.838 99.77 102.055 100.075 102.248 100.396L107.525 109.359H102.463C102.091 109.367 101.721 109.297 101.378 109.151C101.054 108.991 100.788 108.735 100.616 108.417L97.0747 101.808C96.96 101.567 96.7787 101.364 96.5522 101.222C96.2989 101.121 96.027 101.075 95.7545 101.086H94.6696V109.383H89.0857V82.3125H94.6537Z" fill="white"/>
<path d="M141.212 83.0351V109.359H138.021C137.61 109.374 137.201 109.296 136.824 109.132C136.454 108.937 136.13 108.665 135.875 108.334L123.495 92.6355C123.542 93.1061 123.574 93.5608 123.594 93.9996C123.614 94.4383 123.618 94.8531 123.618 95.236V109.351H118.234V83.0271H121.452C121.675 83.0248 121.897 83.0368 122.118 83.063C122.288 83.0824 122.454 83.1282 122.609 83.1986C122.755 83.2719 122.889 83.3659 123.008 83.4778C123.169 83.6294 123.32 83.792 123.459 83.9644L135.983 99.7789C135.923 99.2724 135.879 98.7818 135.855 98.3032C135.831 97.8245 135.819 97.3818 135.819 96.959V83.0351H141.212Z" fill="white"/>
<path d="M152.459 87.7338V94.4026H161.457V99.117H152.459V109.364H146.317V83.0393H163.264V87.7378L152.459 87.7338Z" fill="white"/>
<path d="M185.707 87.8733H178.305V109.359H172.19V87.8733H164.784V83.0312H185.707V87.8733Z" fill="white"/>
<path d="M122.194 12.5992C116.458 6.30422 108.701 2.21329 100.266 1.0348C91.8317 -0.143691 83.2506 1.66447 76.0086 6.14618C68.7667 10.6279 63.32 17.501 60.6116 25.5754C57.9032 33.6498 58.1037 42.4171 61.1783 50.3593C64.2529 58.3014 70.008 64.9184 77.4472 69.0645C84.8864 73.2105 93.5413 74.6246 101.913 73.0618C110.285 71.499 117.847 67.0578 123.289 60.5072C128.732 53.9566 131.712 45.709 131.715 37.1925C131.725 28.0931 128.329 19.3196 122.194 12.5992Z" fill="white"/>
<path d="M86.0103 31.0469C87.4784 32.6529 88.2883 34.7524 88.2791 36.9283C88.27 39.1041 87.4424 41.1968 85.9609 42.7903C84.4794 44.3839 82.4525 45.3616 80.2831 45.5291C78.1138 45.6966 75.9608 45.0417 74.2522 43.6945C75.0598 44.5779 76.0416 45.2844 77.1359 45.7695C78.2301 46.2545 79.413 46.5075 80.6099 46.5126C81.8068 46.5176 82.9918 46.2746 84.0901 45.7988C85.1884 45.323 86.1762 44.6247 86.9912 43.7481C87.8061 42.8715 88.4306 41.8355 88.8252 40.7055C89.2198 39.5755 89.3759 38.376 89.2838 37.1826C89.1916 35.9892 88.8532 34.8279 88.2898 33.7719C87.7264 32.7158 86.9502 31.788 86.0103 31.0469Z" fill="#FBB03B"/>
<path d="M80.6578 29.1933C82.6001 29.1904 84.4863 29.844 86.0104 31.0479C85.2028 30.1645 84.221 29.4579 83.1267 28.9729C82.0325 28.4879 80.8496 28.2349 79.6527 28.2298C78.4558 28.2248 77.2708 28.4678 76.1725 28.9436C75.0742 29.4194 74.0864 30.1176 73.2714 30.9943C72.4565 31.8709 71.832 32.9069 71.4374 34.0369C71.0428 35.1669 70.8867 36.3664 70.9788 37.5598C71.071 38.7532 71.4094 39.9145 71.9728 40.9705C72.5362 42.0266 73.3124 42.9544 74.2522 43.6955C73.1197 42.4543 72.3726 40.9107 72.1018 39.2524C71.8311 37.5942 72.0483 35.893 72.7272 34.3561C73.406 32.8192 74.5172 31.5128 75.9253 30.5962C77.3333 29.6795 78.9776 29.1921 80.6578 29.1933Z" fill="#FF0000"/>
<path d="M88.272 36.8851C88.2673 35.1739 87.7556 33.5024 86.8016 32.0818C85.8476 30.6611 84.4941 29.555 82.9119 28.903C81.3297 28.2511 79.5898 28.0826 77.9119 28.4187C76.234 28.7549 74.6933 29.5807 73.4844 30.7918C72.2755 32.003 71.4525 33.5452 71.1195 35.2237C70.7864 36.9022 70.9581 38.6418 71.613 40.2227C72.2678 41.8037 73.3765 43.1552 74.7989 44.1066C76.2213 45.058 77.8937 45.5666 79.6049 45.5681C80.7452 45.5708 81.8747 45.3479 82.9285 44.9123C83.9822 44.4766 84.9394 43.8369 85.745 43.0299C86.5505 42.2228 87.1885 41.2645 87.6222 40.2099C88.0559 39.1553 88.2767 38.0254 88.272 36.8851Z" fill="#C5CED4"/>
<path d="M83.7769 34.4605C83.0508 33.6562 82.0662 33.1312 80.9937 32.9765C79.9212 32.8218 78.8284 33.0471 77.9046 33.6134C76.9807 34.1797 76.2841 35.0513 75.9353 36.0772C75.5865 37.1032 75.6076 38.2188 75.9948 39.2308C76.3821 40.2428 77.1111 41.0875 78.0557 41.6185C79.0002 42.1496 80.1008 42.3335 81.1667 42.1384C82.2326 41.9433 83.1967 41.3815 83.8919 40.5504C84.5871 39.7193 84.9698 38.6711 84.9735 37.5875C84.9786 36.4324 84.5518 35.3171 83.7769 34.4605Z" fill="white"/>
<path d="M109.276 34.3028C112.778 36.3541 116.725 37.5256 120.779 37.717V29.377C118.448 28.8942 116.255 27.8952 114.361 26.4534C112.047 25.1843 110.083 23.3624 108.644 21.1501C107.204 18.9378 106.335 16.4038 106.113 13.7739H98.2434V59.2949H106.049V32.0653C106.692 32.5971 107.357 33.0877 108.043 33.537V33.3655C108.446 33.6886 108.857 34.0037 109.276 34.3028Z" fill="#FBB03B"/>
<path d="M111.134 27.1014C109.262 25.6837 107.725 23.8701 106.634 21.79C105.543 19.7099 104.925 17.4146 104.824 15.068V14.4219H102.866C103.091 17.0535 103.963 19.5887 105.406 21.8011C106.849 24.0135 108.817 25.8344 111.134 27.1014Z" fill="#C5CED4"/>
<path d="M102.822 59.9246H95.0205V61.2249H104.824V34.1827C104.13 33.7254 103.466 33.2348 102.83 32.7109L102.822 59.9246Z" fill="#C5CED4"/>
<path d="M106.049 34.9532C109.999 37.7999 114.691 39.4377 119.554 39.6676V30.3145C118.884 30.2616 118.218 30.1656 117.56 30.0273V38.3673C113.503 38.1762 109.554 37.0047 106.049 34.9532Z" fill="#C5CED4"/>
<path d="M117.552 29.0121C115.302 28.8364 113.114 28.1852 111.134 27.1016C113.029 28.539 115.222 29.5339 117.552 30.0132V29.0121Z" fill="#24F5EF"/>
<path d="M104.824 33.9995V34.171C105.223 34.4382 105.622 34.6935 106.049 34.9368C105.63 34.6496 105.223 34.3345 104.824 33.9995Z" fill="#24F5EF"/>
<path d="M106.049 34.9552C109.551 37.0054 113.498 38.1769 117.552 38.3693V30.0174C115.221 29.5345 113.028 28.5355 111.134 27.0938C108.817 25.8269 106.849 24.006 105.406 21.7935C103.963 19.5811 103.091 17.046 102.866 14.4143H95.0205V59.9313H102.822V32.7176C103.463 33.2494 104.128 33.74 104.816 34.1894V34.0059C105.223 34.3409 105.63 34.656 106.049 34.9552Z" fill="#11040D"/>
<path d="M103.042 14.4211C103.042 14.2057 103.006 13.9864 102.998 13.767V13.1208H93.1938V59.9261H95.1881V14.4211H103.042Z" fill="#FF0000"/>
</svg>
