<svg width="209" height="89" viewBox="0 0 209 89" fill="none" xmlns="http://www.w3.org/2000/svg">
<rect width="208.723" height="88.5948" rx="20" fill="#29ABE2"/>
<g opacity="0.8">
<g clip-path="url(#clip0)">
<path d="M37.5403 33.705H40.6476V54.8385H37.5403V33.705Z" fill="white"/>
<path d="M67.9445 55.5595L51.6866 39.4046L52.5965 39.6965L52.6823 54.8213H49.5234V33.0354H49.6608L65.7298 49.2074L65.0088 49.0014L64.9573 33.6878H68.0475V55.5423H67.9445V55.5595Z" fill="white"/>
<path d="M87.945 37.7565C87.2068 37.3616 86.417 37.0354 85.5587 36.7608C84.7003 36.4861 83.8762 36.3487 83.0865 36.3487C82.0049 36.3487 81.1294 36.5891 80.4942 37.087C79.8589 37.5848 79.5328 38.2544 79.5328 39.1127C79.5328 39.7136 79.7388 40.2458 80.168 40.6922C80.5972 41.1385 81.1465 41.5334 81.8332 41.8596C82.52 42.1858 83.2238 42.4948 83.9792 42.7867C84.6144 43.027 85.2496 43.3017 85.8848 43.6107C86.52 43.9369 87.0866 44.3318 87.6016 44.7953C88.1167 45.2588 88.5287 45.8425 88.8205 46.5292C89.1296 47.2159 89.2669 48.0572 89.2669 49.0529C89.2669 50.186 88.9922 51.1989 88.4428 52.1087C87.8935 53.0186 87.0866 53.7397 86.0565 54.2719C85.0265 54.8041 83.756 55.0788 82.2968 55.0788C81.404 55.0788 80.5285 54.9758 79.6873 54.7698C78.846 54.5637 78.0392 54.2891 77.3009 53.9629C76.5627 53.6195 75.876 53.2418 75.2751 52.847L76.6657 50.4263C77.1293 50.7525 77.6615 51.0787 78.2623 51.3705C78.8632 51.6796 79.4813 51.9027 80.1336 52.0916C80.786 52.2633 81.404 52.3491 81.9878 52.3491C82.623 52.3491 83.2582 52.2461 83.8762 52.0229C84.4942 51.7997 85.0093 51.4564 85.4213 50.9757C85.8333 50.495 86.0393 49.8769 86.0393 49.1044C86.0393 48.452 85.8677 47.8855 85.5071 47.4391C85.1466 46.9756 84.6659 46.5979 84.0822 46.2545C83.4985 45.9284 82.8633 45.6365 82.1766 45.379C81.5242 45.1215 80.8547 44.8468 80.168 44.5378C79.4813 44.2287 78.8632 43.8511 78.2795 43.4219C77.6958 42.9927 77.2323 42.4433 76.8718 41.7909C76.5112 41.1385 76.3395 40.3488 76.3395 39.3874C76.3395 38.2544 76.6142 37.2758 77.1464 36.4346C77.6786 35.5934 78.4169 34.9238 79.3782 34.4431C80.3225 33.9624 81.4212 33.6877 82.6745 33.6362C84.0822 33.6362 85.3183 33.8079 86.3655 34.1684C87.4128 34.5118 88.3398 34.941 89.1639 35.4217L87.945 37.7565Z" fill="white"/>
<path d="M96.8206 33.705H99.9279V54.8385H96.8206V33.705Z" fill="white"/>
<path d="M108.804 54.8385V33.705H114.675C116.77 33.705 118.555 34.0311 120.031 34.6664C121.508 35.3016 122.692 36.1428 123.602 37.19C124.512 38.2372 125.165 39.4047 125.577 40.6751C125.989 41.9627 126.195 43.2502 126.195 44.5378C126.195 46.1173 125.92 47.525 125.353 48.7783C124.787 50.0315 124.032 51.1131 123.053 52.023C122.074 52.9329 120.959 53.6196 119.705 54.0831C118.452 54.5638 117.113 54.8041 115.688 54.8041H108.804V54.8385ZM111.911 51.8341H115.104C116.255 51.8341 117.302 51.6624 118.263 51.3363C119.225 51.0101 120.049 50.5294 120.77 49.877C121.474 49.2418 122.023 48.4521 122.418 47.525C122.813 46.598 123.001 45.5335 123.001 44.3318C123.001 43.0271 122.778 41.894 122.349 40.9498C121.92 39.9884 121.336 39.1986 120.615 38.5634C119.894 37.9282 119.104 37.4647 118.212 37.1728C117.336 36.8638 116.426 36.7265 115.516 36.7265H111.911V51.8341Z" fill="white"/>
<path d="M133.766 33.705H147.654V36.7093H136.89V42.7352H146.47V45.7396H136.89V51.8513H148.066V54.8385H133.783V33.705H133.766Z" fill="white"/>
<path d="M161.56 33.705C162.659 33.705 163.689 33.8595 164.633 34.1513C165.578 34.4603 166.385 34.8895 167.054 35.4389C167.724 36.0054 168.256 36.6921 168.633 37.5162C169.011 38.3403 169.2 39.3016 169.2 40.3832C169.2 41.2244 169.08 42.0485 168.822 42.8554C168.565 43.6623 168.17 44.4005 167.603 45.07C167.037 45.7224 166.299 46.2546 165.389 46.6495C164.479 47.0443 163.346 47.2503 161.99 47.2503H158.899V54.8385H155.792V33.705H161.56ZM161.904 44.2975C162.693 44.2975 163.363 44.1773 163.895 43.9198C164.427 43.6623 164.839 43.3532 165.148 42.9756C165.457 42.5979 165.663 42.1858 165.784 41.7566C165.904 41.3274 165.972 40.8983 165.972 40.4862C165.972 40.0914 165.904 39.6965 165.784 39.2673C165.663 38.8381 165.44 38.4261 165.148 38.0484C164.839 37.6535 164.445 37.3445 163.947 37.087C163.449 36.8295 162.814 36.7093 162.075 36.7093H158.882V44.2975H161.904ZM165.492 46.1001L170.968 54.8385H167.363L161.801 46.2031L165.492 46.1001Z" fill="white"/>
</g>
</g>
<defs>
<clipPath id="clip0">
<rect x="37.5403" y="33.0354" width="133.428" height="22.5241" rx="11.2621" fill="white"/>
</clipPath>
</defs>
</svg>
