<svg width="251" height="89" viewBox="0 0 251 89" fill="none" xmlns="http://www.w3.org/2000/svg">
<rect x="0.231445" width="250.768" height="88.5948" rx="20" fill="#29ABE2"/>
<g opacity="0.8">
<g clip-path="url(#clip0)">
<path d="M33.2668 53.6852L33.9812 53.0485C34.9439 52.8311 35.1769 51.8528 35.3943 49.9118L36.2949 41.604C36.3104 41.4798 36.3104 41.3711 36.3104 41.2468C36.3104 40.3617 35.8446 40.0201 34.6955 40.0201C34.6334 40.0201 34.5712 40.0201 34.5091 40.0201L34.3383 39.7716L34.9129 39.166C35.4564 39.2281 35.9843 39.2592 36.4968 39.2592C37.0247 39.2592 37.5527 39.2437 38.0341 39.166C40.177 44.9737 42.1647 48.7626 43.0032 50.9677C44.5871 47.2408 46.8543 43.514 48.5935 39.166C49.2302 39.2281 49.8513 39.2592 50.5035 39.2592C51.1402 39.2592 51.7924 39.2437 52.429 39.166L52.6154 39.3989L52.0564 40.0046C51.9632 40.0046 51.8855 40.0046 51.7924 40.0046C50.5656 40.0046 50.0998 40.3307 50.0998 41.309C50.0998 41.5264 50.0998 41.7438 50.1153 42.0233L50.9228 50.9211C51.0781 52.4429 51.3886 53.0175 52.662 53.0485L52.7862 53.3436L52.1029 53.9647C51.1402 53.856 50.3948 53.7939 49.8513 53.7939C49.168 53.7939 48.2829 53.856 47.1959 53.9647L47.0096 53.6852L47.6928 53.0485C48.8109 52.9398 49.168 52.5516 49.168 51.5422C49.168 51.4801 49.1215 51.0764 49.0593 50.3621L48.345 42.2872C46.6524 46.1073 44.4629 49.8341 42.8945 54.0113H42.3666C40.8137 49.9428 38.7795 46.0762 37.3198 41.9301L36.5899 50.1602C36.5434 50.5329 36.5278 50.8745 36.5278 51.1696C36.5278 52.5671 36.9937 52.9864 38.5 53.033L38.6552 53.328L37.8633 53.9492C37.0713 53.8405 36.3415 53.7939 35.7359 53.7939C35.2856 53.7939 34.5402 53.8405 33.4998 53.9492L33.2668 53.6852Z" fill="white"/>
<path d="M59.1373 53.033C59.2305 53.033 59.3081 53.033 59.4168 53.033L59.6342 53.3125L58.951 53.9492C57.8795 53.8405 56.9944 53.7784 56.3732 53.7784C55.4571 53.7784 54.4943 53.8405 53.4383 53.9492L53.2209 53.6697L53.8887 53.033C55.2862 53.0175 55.4726 52.4274 55.4726 50.7969V42.1941C55.4726 40.517 55.3173 39.989 53.8421 39.989C53.6868 39.989 53.547 40.0046 53.3762 40.0046L53.2209 39.7716L53.8576 39.166C54.634 39.2592 55.3949 39.2592 56.1248 39.2592C56.4043 39.2592 56.6993 39.2592 56.9788 39.2592C57.9882 39.2592 59.0131 39.2592 60.038 39.2592C63.0816 39.2592 64.7121 40.5481 64.7121 42.7065C64.7121 44.5078 63.4853 45.9209 61.156 46.6663C63.0039 47.2253 63.4698 48.685 64.3083 50.6882C64.945 52.2566 65.209 53.0485 66.327 53.0485C66.4512 53.0485 66.6065 53.033 66.7773 53.0019L66.9326 53.297L66.2494 53.9336C65.799 53.8405 65.3021 53.8249 64.8207 53.8249C64.3549 53.8249 63.8425 53.8405 63.3145 53.9336C63.2679 53.3591 63.1281 52.7535 62.8797 52.0857C62.1964 50.067 61.5132 48.8248 61.3579 48.5918C60.6125 47.4117 59.7274 47.1321 57.9882 47.1321C57.8019 47.1321 57.5845 47.1477 57.3515 47.1477V50.7658C57.3515 52.505 57.5223 53.033 59.1373 53.033ZM58.6249 46.216C61.2026 46.216 62.6933 44.9116 62.6933 43.1103C62.6933 41.2468 61.4045 40.1754 59.0441 40.1754C58.5317 40.1754 57.9727 40.222 57.3515 40.3307V46.1849C57.7397 46.2004 58.1435 46.216 58.6249 46.216Z" fill="white"/>
<path d="M72.4453 53.6852L73.113 53.0485C74.5106 53.033 74.6969 52.4429 74.6969 50.8124V42.1941C74.6969 40.517 74.5416 39.989 73.0664 39.989C72.9112 39.989 72.7714 40.0046 72.6006 40.0046L72.4453 39.7716L73.082 39.166C73.6565 39.2592 74.2621 39.2592 74.8833 39.2592C75.1472 39.2592 75.3957 39.2592 75.6597 39.2592C77.3523 39.2592 78.6411 39.2592 79.4952 39.2592C82.0884 39.2592 83.4394 40.3307 83.4394 42.2562C83.4394 43.7625 82.43 45.129 80.6598 45.8743C83.0201 46.1383 84.3711 47.4893 84.3711 49.4459C84.3711 52.0392 82.4145 53.8405 78.9051 53.8405C78.051 53.8405 76.9951 53.7784 75.7528 53.7784C74.8056 53.7784 73.7652 53.8405 72.6627 53.9492L72.4453 53.6852ZM77.5852 45.7967C80.1163 45.7967 81.5139 44.6321 81.5139 42.7686C81.5139 41.1847 80.2716 40.1133 78.02 40.1133C77.5852 40.1133 77.1193 40.1598 76.5914 40.2375V45.7501C77.0417 45.7656 77.3678 45.7967 77.5852 45.7967ZM78.4237 52.9553C80.9548 52.9553 82.3524 51.7131 82.3524 49.8341C82.3524 47.7843 80.8772 46.7284 77.9113 46.7284C77.5075 46.7284 77.0572 46.7439 76.5758 46.7905V52.7069C77.1815 52.8622 77.8026 52.9553 78.4237 52.9553Z" fill="white"/>
<path d="M91.0642 53.033C91.1574 53.033 91.235 53.033 91.3437 53.033L91.5611 53.3125L90.8468 53.9492C89.7753 53.8405 88.9213 53.7784 88.3001 53.7784C87.384 53.7784 86.3901 53.8405 85.3497 53.9492L85.1323 53.6697L85.8 53.033C87.1976 53.0175 87.384 52.4274 87.384 50.7969V42.1941C87.384 40.517 87.2287 39.989 85.7535 39.989C85.5982 39.989 85.4584 40.0046 85.2876 40.0046L85.1634 39.7716L85.8 39.166C86.592 39.2592 87.3218 39.2592 87.943 39.2592C88.207 39.2592 88.4399 39.2592 88.6728 39.2592C88.9057 39.2592 89.1387 39.2592 89.3871 39.2592C90.0083 39.2592 90.6915 39.2592 91.4369 39.166L91.5922 39.3834L90.9244 40.0511C90.8779 40.0511 90.8158 40.0511 90.7692 40.0511C89.4337 40.0511 89.2629 40.6102 89.2629 42.1941V50.8124C89.2629 52.505 89.4648 53.033 91.0642 53.033Z" fill="white"/>
<path d="M94.5578 53.6858L95.2255 53.0492C96.9181 53.0026 97.1821 52.5367 97.1821 50.9218V40.3003H94.946C93.4397 40.3003 92.9583 41.0456 92.8186 42.9867L91.9335 43.8873L91.7161 43.6544C91.8869 42.1947 91.9956 40.7195 92.0577 39.1356C92.6167 39.2443 93.4553 39.2598 94.5578 39.2598C95.3032 39.2598 96.1727 39.2598 97.151 39.2598C97.8654 39.2598 98.6263 39.2598 99.4648 39.2598C99.822 39.2598 100.179 39.2598 100.521 39.2598C101.018 39.2598 101.484 39.2598 101.949 39.2598C102.679 39.2598 103.362 39.2443 104.03 39.1356C104.03 40.6108 104.139 41.9618 104.325 43.2662L103.642 43.9805L103.362 43.7165C103.145 41.0456 102.648 40.3158 100.723 40.3158H99.03V50.7975C99.03 52.6144 99.2008 53.0492 101.266 53.0492C101.313 53.0492 101.359 53.0492 101.421 53.0492L101.592 53.3442L100.924 53.9654C99.7288 53.8411 98.6263 53.779 97.6945 53.779C96.7162 53.779 95.7069 53.8722 94.6665 53.9654L94.5578 53.6858Z" fill="white"/>
<path d="M116.003 53.4676C115.164 53.4676 113.844 54.0422 111.934 54.0422C110.241 54.0422 108.673 53.5453 107.431 52.5825C105.723 51.2781 104.744 49.2439 104.744 46.7749C104.744 44.5077 105.661 42.4735 107.291 40.9827C108.689 39.7249 110.521 39.0261 112.524 39.0261C114.155 39.0261 115.211 39.4143 115.676 39.4143C116.034 39.4143 116.298 39.3056 116.531 39.0727L116.965 39.3056C116.857 39.8802 116.81 40.5479 116.81 41.2933C116.81 42.0697 116.857 42.753 116.965 43.3741L116.344 43.9797L116.018 43.8089C115.971 41.5262 114.481 40.1752 112.105 40.1752C110.707 40.1752 109.45 40.6877 108.456 41.6349C107.291 42.753 106.701 44.2748 106.701 46.1071C106.701 48.0948 107.431 49.9427 108.782 51.2937C109.791 52.3185 111.142 52.8776 112.633 52.8776C114.9 52.8776 116.36 51.6198 116.562 49.4923L117.354 48.6849L117.68 48.9178C117.416 50.1445 117.291 51.2471 117.291 52.2564C117.291 52.7223 117.307 53.1571 117.354 53.5608L116.888 53.7937C116.67 53.5763 116.391 53.4676 116.003 53.4676Z" fill="white"/>
<path d="M120.211 51.9927C118.922 50.6417 118.224 48.8249 118.224 46.8528C118.224 45.0048 118.845 43.2967 120.009 41.8836C121.469 40.0668 123.581 39.0419 125.848 39.0419C127.432 39.0419 128.907 39.5388 130.196 40.4394C131.981 41.6973 133.053 43.8091 133.053 46.185C133.053 48.1572 132.432 49.9119 131.252 51.356C129.823 53.0952 127.68 54.0735 125.227 54.0735C123.208 54.058 121.453 53.3126 120.211 51.9927ZM131.143 47.2254C131.143 45.2378 130.366 43.3278 128.938 41.9147C127.882 40.8587 126.562 40.2997 125.165 40.2997C122.307 40.2997 120.04 42.629 120.04 45.8123C120.04 47.3341 120.506 48.8094 121.298 50.0361C122.54 51.8995 124.016 52.8157 125.91 52.8157C128.907 52.8157 131.143 50.502 131.143 47.2254Z" fill="white"/>
<path d="M139.653 53.033C139.746 53.033 139.824 53.033 139.932 53.033L140.15 53.3125L139.435 53.9492C138.364 53.8405 137.51 53.7784 136.889 53.7784C135.973 53.7784 134.979 53.8405 133.938 53.9492L133.721 53.6697L134.389 53.033C135.786 53.0175 135.973 52.4274 135.973 50.7969V42.1941C135.973 40.517 135.817 39.989 134.342 39.989C134.187 39.989 134.047 40.0046 133.876 40.0046L133.736 39.7716L134.373 39.166C135.165 39.2592 135.895 39.2592 136.516 39.2592C136.78 39.2592 137.013 39.2592 137.246 39.2592C137.479 39.2592 137.712 39.2592 137.96 39.2592C138.581 39.2592 139.265 39.2592 140.01 39.166L140.165 39.3834L139.498 40.0511C139.451 40.0511 139.389 40.0511 139.342 40.0511C138.007 40.0511 137.836 40.6102 137.836 42.1941V50.8124C137.852 52.505 138.038 53.033 139.653 53.033Z" fill="white"/>
<path d="M142.82 39.2592C143.395 39.2592 143.985 39.2437 144.559 39.166C146.423 42.1475 149.529 45.7812 152.945 50.7658V42.5357C152.945 40.5481 152.79 40.0046 150.864 40.0046C150.849 40.0046 150.802 40.0046 150.755 40.0046L150.569 39.7406L151.19 39.166C151.734 39.2592 152.277 39.2592 152.836 39.2592C153.054 39.2592 153.286 39.2592 153.519 39.2592C153.799 39.2592 154.063 39.2592 154.327 39.2592C154.995 39.2592 155.616 39.2592 156.19 39.166L156.361 39.3989L155.787 40.0046C155.74 40.0046 155.678 40.0046 155.631 40.0046C154.296 40.0046 154.063 40.6102 154.063 42.3338V53.9958H153.162C149.622 49.1664 146.345 45.0203 143.736 41.2003V50.3155C143.736 52.3653 143.907 53.033 145.709 53.033C145.755 53.033 145.817 53.033 145.879 53.033L146.097 53.3591L145.491 53.9647C144.575 53.8405 143.783 53.7939 143.115 53.7939C142.153 53.7939 141.252 53.8405 140.413 53.9647L140.258 53.6852L140.895 53.0485C142.401 53.0485 142.587 52.3187 142.587 50.2689V41.8214C142.587 40.3462 142.479 40.0046 140.879 40.0046C140.77 40.0046 140.662 40.0046 140.553 40.0046L140.382 39.7716L141.019 39.166C141.64 39.2281 142.246 39.2592 142.82 39.2592Z" fill="white"/>
<path d="M164.467 39.2592C165.042 39.2592 165.632 39.2437 166.206 39.166C168.07 42.1475 171.176 45.7812 174.592 50.7658V42.5357C174.592 40.5481 174.437 40.0046 172.511 40.0046C172.495 40.0046 172.449 40.0046 172.402 40.0046L172.216 39.7406L172.837 39.166C173.381 39.2592 173.924 39.2592 174.483 39.2592C174.701 39.2592 174.933 39.2592 175.166 39.2592C175.446 39.2592 175.694 39.2592 175.974 39.2592C176.642 39.2592 177.263 39.2592 177.837 39.166L178.008 39.3989L177.434 40.0046C177.387 40.0046 177.325 40.0046 177.278 40.0046C175.943 40.0046 175.71 40.6102 175.71 42.3338V53.9958H174.809C171.269 49.1664 167.992 45.0203 165.383 41.2003V50.3155C165.383 52.3653 165.554 53.033 167.356 53.033C167.402 53.033 167.464 53.033 167.526 53.033L167.744 53.3591L167.138 53.9647C166.222 53.8405 165.43 53.7939 164.762 53.7939C163.8 53.7939 162.899 53.8405 162.06 53.9647L161.905 53.6852L162.542 53.0485C164.048 53.0485 164.234 52.3187 164.234 50.2689V41.8214C164.234 40.3462 164.126 40.0046 162.526 40.0046C162.417 40.0046 162.309 40.0046 162.2 40.0046L162.029 39.7716L162.666 39.166C163.287 39.2281 163.893 39.2592 164.467 39.2592Z" fill="white"/>
<path d="M177.573 53.6852L178.241 53.0485C179.639 53.033 179.825 52.4429 179.825 50.8124V42.1941C179.825 40.517 179.67 39.989 178.195 39.989C178.039 39.989 177.9 40.0046 177.729 40.0046L177.573 39.7716L178.21 39.166C179.049 39.2592 179.903 39.2592 180.757 39.2592C181.099 39.2592 181.44 39.2592 181.782 39.2592C182.139 39.2592 183.195 39.2592 184.934 39.2592C185.82 39.2592 186.844 39.2592 188.071 39.2592C188.071 39.4145 188.056 39.5853 188.056 39.7716C188.056 40.4549 188.118 41.4021 188.273 42.6289L187.528 43.3587L187.295 43.2034C187.233 40.7965 186.332 40.1754 183.894 40.1754C183.35 40.1754 182.652 40.222 181.735 40.3462V45.6569H183.552C184.717 45.6569 185.121 45.2687 185.121 44.0264C185.121 43.9643 185.121 43.9022 185.121 43.8401L186.006 42.9394L186.239 43.0637C186.146 44.1507 186.084 45.1134 186.084 45.983C186.084 46.6973 186.099 47.5514 186.177 48.5608L185.4 49.3372L185.136 49.1664C185.121 47.1321 184.81 46.5886 183.226 46.5886H181.72V52.7069C182.683 52.8311 183.583 52.8932 184.36 52.8932C186.518 52.8932 187.419 51.9149 187.497 49.4925L188.475 48.5142L188.739 48.685C188.475 50.036 188.351 51.4335 188.351 52.7845C188.351 53.1106 188.366 53.4678 188.397 53.856C184.375 53.8405 182.03 53.7939 181.425 53.7939C180.074 53.7939 178.878 53.856 177.806 53.9647L177.573 53.6852Z" fill="white"/>
<path d="M192.154 48.1726L190.167 41.899C189.763 40.6412 189.654 40.0201 188.661 40.0201C188.661 40.0201 188.645 40.0201 188.614 40.0201L188.521 39.7872L189.204 39.166C189.67 39.2592 190.151 39.2747 190.664 39.2747C190.834 39.2747 191.021 39.2747 191.207 39.2747C191.394 39.2747 191.611 39.2747 191.813 39.2747C192.434 39.2747 193.055 39.2592 193.692 39.166L193.816 39.43L193.102 40.0356C193.055 40.0356 193.008 40.0356 192.993 40.0356C192.201 40.0356 191.828 40.253 191.828 40.7499C191.828 41.045 191.921 41.3555 192.015 41.7127L193.925 48.2502C194.22 49.2596 194.484 50.1602 194.701 50.9522C196.502 44.9892 198.009 41.1537 198.428 39.2126H199.313C200.742 43.8246 202.652 47.6135 203.661 51.0453C204.95 45.3308 205.866 42.0388 205.866 41.076C205.866 40.2996 205.478 40.0511 204.5 40.0511C204.437 40.0511 204.344 40.0511 204.267 40.0511L204.142 39.8182L204.81 39.2126C205.431 39.2747 206.052 39.3058 206.658 39.3058C207.264 39.3058 207.854 39.2902 208.444 39.2126L208.553 39.4455L207.994 40.0511C207.528 40.2841 207.264 40.9363 206.984 42.0077L204.608 51.4646C204.375 52.3653 204.158 53.2038 204.049 54.0423H202.962C201.347 49.0732 199.515 45.2532 198.614 42.163L196.13 49.7254C195.633 51.2317 195.229 52.6603 194.903 54.0268H193.832C193.568 52.4429 192.9 50.5329 192.154 48.1726Z" fill="white"/>
<path d="M208.724 53.6856C208.879 52.6297 208.988 51.7601 208.988 50.9836C208.988 50.5488 208.941 50.083 208.879 49.5705L209.547 48.8407L209.764 48.996C209.95 51.6358 211.177 53.0023 213.32 53.0023C215.183 53.0023 216.441 51.7601 216.441 50.1451C216.441 48.9805 215.727 48.0177 214.423 47.4431C212.963 46.8065 211.736 46.4959 211.022 46.0922C209.624 45.3002 208.988 44.4772 208.988 43.002C208.988 40.7348 210.773 39.0577 213.537 39.0577C214.547 39.0577 215.323 39.2907 215.805 39.2907C216.069 39.2907 216.302 39.2441 216.519 39.1199L216.907 39.3373C216.892 39.7721 216.845 40.1292 216.845 40.4242C216.845 40.9367 216.938 41.5578 217.062 42.2721L216.534 42.8312L216.239 42.7069C215.944 40.9677 214.904 40.0671 213.242 40.0671C211.736 40.0671 210.696 41.0143 210.696 42.3653C210.696 42.9088 210.913 43.4368 211.317 43.825C212.155 44.6014 213.46 44.943 215.028 45.5642C217.171 46.4183 218.227 47.645 218.227 49.6171C218.227 52.1017 216.146 54.0583 213.273 54.0583C211.798 54.0583 210.696 53.6235 209.997 53.6235C209.702 53.6235 209.422 53.7322 209.189 53.9651L208.724 53.6856Z" fill="white"/>
</g>
</g>
<defs>
<clipPath id="clip0">
<rect x="33.2668" y="39.0419" width="184.898" height="15.0161" rx="7.50804" fill="white"/>
</clipPath>
</defs>
</svg>
