<svg width="829" height="545" viewBox="0 0 829 545" fill="none" xmlns="http://www.w3.org/2000/svg">
<g clip-path="url(#clip0)">
<path opacity="0.5" d="M46 541.982L210.613 340.627L192.61 454.396L351.389 252.117L321.324 442.111L553.842 129.052L521.004 298.782L717.499 54.6587L703.817 141.123L829 -3.4446e-05" stroke="#F9BE51" stroke-width="5"/>
<g opacity="0.67">
<path opacity="0.67" d="M41.827 544.289C28.7383 488.822 43.392 450.706 85.5035 422.119C116.091 401.355 179.259 384.146 201.168 354.421C210.558 341.621 215.822 326.261 222.366 311.754C250.678 249.46 313.418 199.113 381.849 201.815C428.087 203.522 470.625 228.269 505.196 258.847C530.093 280.892 553.141 306.919 584.298 318.439C615.597 329.959 681.04 338.919 707.076 359.826C789.449 426.102 763.414 513.142 751.89 544.289" fill="url(#paint0_linear)"/>
<path opacity="0.67" d="M41.8138 544.289C28.7293 488.822 43.3783 450.706 85.4764 422.119C116.054 401.355 179.202 384.146 201.104 354.421C210.491 341.621 215.753 326.261 222.295 311.754C250.598 249.46 313.318 199.113 381.728 201.815C427.95 203.522 470.475 228.269 505.035 258.847C529.924 280.892 552.965 306.918 584.112 318.439C615.401 329.959 680.823 338.919 706.85 359.826C789.198 426.102 763.171 513.142 751.651 544.289" fill="url(#paint1_linear)"/>
</g>
<path d="M517.147 522.244C517.147 522.244 547.023 478.439 562.246 500.626C576.473 521.533 523.549 532.484 523.549 532.484" fill="url(#paint2_linear)"/>
<path d="M329.921 493.231C329.921 493.231 291.082 456.964 315.41 445.444C338.315 434.635 341.018 488.396 341.018 488.396" fill="url(#paint3_linear)"/>
<path d="M598.951 543.72H201.026C201.31 542.867 202.733 541.302 206.716 538.742C215.253 533.338 241.857 538.173 241.857 538.173C241.857 538.173 235.597 535.756 235.597 532.485C235.597 529.213 238.016 526.369 241.003 525.089C243.991 523.809 247.263 523.667 250.535 523.809C257.08 524.236 263.624 525.658 269.599 528.076C267.038 526.511 266.185 522.529 268.034 520.111C269.742 517.693 273.725 517.124 276.144 519.116C272.018 513.569 262.344 485.551 281.977 474.742C306.447 461.088 328.356 475.737 332.34 483.844C334.332 475.737 343.579 469.622 349.697 468.2C378.719 461.231 399.917 486.12 400.202 486.546C400.486 486.12 400.771 485.693 401.056 485.266C404.043 481.284 410.161 473.889 414.856 471.755C427.802 465.64 436.765 464.644 450.707 468.057C456.825 469.622 466.072 475.595 468.064 483.702C472.048 475.453 494.242 457.106 518 471.897C539.625 485.266 528.244 513.427 524.118 518.973C526.394 516.982 530.378 517.551 532.227 519.969C533.935 522.387 533.223 526.369 530.662 527.933C536.78 525.516 543.182 524.093 549.726 523.667C552.999 523.525 556.271 523.524 559.258 524.947C562.246 526.227 564.665 529.071 564.665 532.342C564.665 535.613 558.405 538.031 558.405 538.031C558.405 538.031 585.151 533.196 593.545 538.6C597.244 541.302 598.667 542.867 598.951 543.72Z" fill="url(#paint4_linear)"/>
<path d="M633.955 82.845H560.118C556.703 82.845 554 80.1427 554 76.7294V22.1156C554 18.7022 556.703 16 560.118 16H633.955C637.37 16 640.073 18.7022 640.073 22.1156V76.5872C640.073 80.1427 637.37 82.845 633.955 82.845Z" fill="url(#paint5_linear)"/>
<path d="M638.223 92.5155H555.85C554.854 92.5155 554 91.6622 554 90.6666C554 89.671 554.854 88.8177 555.85 88.8177H638.223C639.219 88.8177 640.073 89.671 640.073 90.6666C640.073 91.6622 639.219 92.5155 638.223 92.5155Z" fill="url(#paint6_linear)"/>
<path d="M640.073 90.5252C640.073 91.5208 639.219 92.3741 638.223 92.3741H582.881V88.5341H638.223C639.219 88.6763 640.073 89.5297 640.073 90.5252Z" fill="url(#paint7_linear)"/>
<path d="M587.86 90.5257C587.86 93.3702 585.584 95.6458 582.738 95.6458C579.893 95.6458 577.617 93.3702 577.617 90.5257C577.617 87.6812 579.893 85.4056 582.738 85.4056C585.584 85.5479 587.86 87.8235 587.86 90.5257Z" fill="url(#paint8_linear)"/>
<path d="M585.726 90.5242C585.726 92.0886 584.446 93.3686 582.881 93.3686C581.316 93.3686 580.035 92.0886 580.035 90.5242C580.035 88.9597 581.316 87.6797 582.881 87.6797C584.446 87.6797 585.726 88.9597 585.726 90.5242Z" fill="url(#paint9_linear)"/>
<path d="M216.391 230.971C200.884 230.971 188.364 218.455 188.364 202.953C188.364 187.451 200.884 174.935 216.391 174.935C231.898 174.935 244.418 187.451 244.418 202.953C244.418 218.455 231.756 230.971 216.391 230.971ZM216.391 178.633C203.018 178.633 192.063 189.584 192.063 202.953C192.063 216.322 203.018 227.273 216.391 227.273C229.764 227.273 240.719 216.322 240.719 202.953C240.719 189.584 229.764 178.633 216.391 178.633Z" fill="url(#paint10_linear)"/>
<path d="M659.131 544.288H708.641V346.171H659.131V544.288Z" fill="url(#paint11_linear)"/>
<path d="M656.286 544.288H702.096V346.171H656.286V544.288Z" fill="url(#paint12_linear)"/>
<path d="M607.63 394.953L614.601 394.1L633.38 275.77C633.523 274.632 634.519 273.779 635.657 273.779H765.406L766.686 269.655L771.808 272.926C771.808 272.926 771.95 272.926 771.95 273.068C772.519 273.637 772.946 274.348 772.804 275.201L753.455 396.945C753.313 398.082 752.317 398.936 751.179 398.936H614.459C613.89 398.936 613.321 398.651 612.894 398.367L607.63 394.953Z" fill="url(#paint13_linear)"/>
<path d="M609.195 395.523H745.915C747.053 395.523 748.049 394.67 748.191 393.532L767.54 271.789C767.824 270.366 766.686 269.086 765.264 269.086H628.543C627.405 269.086 626.409 269.94 626.267 271.078L606.918 392.821C606.634 394.243 607.772 395.523 609.195 395.523Z" fill="url(#paint14_linear)"/>
<path d="M615.597 389.834H741.078C741.789 389.834 742.358 389.265 742.501 388.553L760.284 276.766C760.426 275.913 759.715 275.059 758.862 275.059H633.381C632.669 275.059 632.1 275.628 631.958 276.339L614.174 388.127C614.032 388.98 614.743 389.834 615.597 389.834Z" fill="url(#paint15_linear)"/>
<path d="M658.989 337.069H700.674C701.527 337.069 702.381 336.358 702.523 335.504L708.356 298.526C708.498 297.388 707.645 296.393 706.507 296.393H664.822C663.968 296.393 663.115 297.104 662.972 297.957L657.139 334.935C656.997 336.073 657.851 337.069 658.989 337.069Z" fill="url(#paint16_linear)"/>
<path d="M666.956 332.09H664.111C663.684 332.09 663.399 331.805 663.399 331.378L666.814 309.76C666.814 309.334 667.24 309.049 667.667 309.049H670.513C670.939 309.049 671.224 309.334 671.224 309.76L667.81 331.378C667.81 331.663 667.383 332.09 666.956 332.09Z" fill="#EDF7FF"/>
<path d="M674.354 332.091H671.508C671.082 332.091 670.797 331.806 670.797 331.38L673.5 314.171C673.5 313.744 673.927 313.459 674.354 313.459H677.199C677.626 313.459 677.911 313.744 677.911 314.171L675.208 331.38C675.208 331.664 674.781 332.091 674.354 332.091Z" fill="#EDF7FF"/>
<path d="M681.894 332.091H679.049C678.622 332.091 678.337 331.807 678.337 331.38L681.61 311.042C681.61 310.616 682.036 310.331 682.463 310.331H685.309C685.735 310.331 686.02 310.616 686.02 311.042L682.748 331.38C682.605 331.665 682.321 332.091 681.894 332.091Z" fill="#EDF7FF"/>
<path d="M689.292 332.09H686.447C686.02 332.09 685.735 331.806 685.735 331.379L690.572 300.943C690.572 300.517 690.999 300.232 691.426 300.232H694.271C694.698 300.232 694.983 300.517 694.983 300.943L690.146 331.379C690.146 331.664 689.719 332.09 689.292 332.09Z" fill="#EDF7FF"/>
<path d="M696.69 332.089H693.845C693.418 332.089 693.133 331.805 693.133 331.378L696.975 307.2C696.975 306.774 697.401 306.489 697.828 306.489H700.674C701.1 306.489 701.385 306.774 701.385 307.2L697.544 331.378C697.544 331.663 697.117 332.089 696.69 332.089Z" fill="#EDF7FF"/>
<path opacity="0.5" d="M711.913 363.095H734.818C735.387 363.095 735.814 362.668 735.814 362.242L739.086 341.904C739.228 341.335 738.659 340.766 738.09 340.766H715.185C714.616 340.766 714.189 341.193 714.189 341.619L710.917 361.815C710.775 362.526 711.344 363.095 711.913 363.095Z" fill="url(#paint17_linear)"/>
<path opacity="0.3" d="M665.249 378.598H716.039C716.75 378.598 717.319 378.029 717.461 377.46L721.872 349.869C722.014 349.015 721.303 348.304 720.449 348.304H669.659C668.948 348.304 668.379 348.873 668.236 349.442L663.826 377.033C663.684 377.744 664.253 378.598 665.249 378.598Z" fill="url(#paint18_linear)"/>
<path d="M671.224 359.968L669.374 371.63H714.047L716.323 357.266C716.323 357.266 713.478 355.844 709.779 357.835C706.791 359.399 702.523 364.093 699.678 363.808C696.69 363.524 694.841 355.986 690.857 355.986C686.874 355.986 683.601 364.235 680.329 364.377C677.057 364.519 673.216 359.968 671.224 359.968Z" fill="url(#paint19_linear)"/>
<path opacity="0.5" d="M718.457 306.49H743.212C743.496 306.49 743.781 306.206 743.923 305.922L746.057 292.553C746.057 292.126 745.773 291.699 745.346 291.699H720.591C720.307 291.699 720.022 291.984 719.88 292.268L717.746 305.637C717.604 306.064 718.03 306.49 718.457 306.49Z" fill="url(#paint20_linear)"/>
<path d="M722.725 312.18H735.814C736.241 312.18 736.525 311.896 736.668 311.469C736.668 311.043 736.525 310.758 736.099 310.758H723.01C722.583 310.758 722.298 311.043 722.156 311.469C722.156 311.896 722.441 312.18 722.725 312.18Z" fill="url(#paint21_linear)"/>
<path d="M722.298 314.882H735.387C735.814 314.882 736.099 314.597 736.241 314.171C736.241 313.744 736.098 313.459 735.672 313.459H722.583C722.156 313.459 721.872 313.744 721.729 314.171C721.729 314.455 722.014 314.882 722.298 314.882Z" fill="url(#paint22_linear)"/>
<path d="M721.872 317.443H734.96C735.387 317.443 735.672 317.158 735.814 316.731C735.814 316.305 735.672 316.02 735.245 316.02H722.156C721.729 316.02 721.445 316.305 721.303 316.731C721.303 317.158 721.587 317.443 721.872 317.443Z" fill="url(#paint23_linear)"/>
<path d="M728.701 320.003H734.534C734.96 320.003 735.245 319.718 735.387 319.292C735.387 318.865 735.245 318.581 734.818 318.581H728.985C728.558 318.581 728.274 318.865 728.131 319.292C728.131 319.718 728.416 320.003 728.701 320.003Z" fill="url(#paint24_linear)"/>
<path d="M634.803 357.122H647.892C648.319 357.122 648.603 356.837 648.745 356.411C648.745 355.984 648.603 355.7 648.176 355.7H635.088C634.661 355.7 634.376 355.984 634.234 356.411C634.092 356.695 634.376 357.122 634.803 357.122Z" fill="url(#paint25_linear)"/>
<path d="M634.376 359.682H647.465C647.892 359.682 648.176 359.398 648.319 358.971C648.319 358.544 648.176 358.26 647.75 358.26H634.519C634.092 358.26 633.807 358.544 633.665 358.971C633.665 359.398 633.95 359.682 634.376 359.682Z" fill="url(#paint26_linear)"/>
<path d="M633.95 362.243H647.038C647.465 362.243 647.75 361.958 647.892 361.532C647.892 361.105 647.75 360.821 647.323 360.821H634.234C633.807 360.821 633.523 361.105 633.381 361.532C633.238 361.958 633.523 362.243 633.95 362.243Z" fill="url(#paint27_linear)"/>
<path d="M640.778 364.944H646.611C647.038 364.944 647.323 364.66 647.465 364.233C647.465 363.806 647.323 363.522 646.896 363.522H641.063C640.636 363.522 640.352 363.806 640.209 364.233C640.067 364.66 640.352 364.944 640.778 364.944Z" fill="url(#paint28_linear)"/>
<path d="M640.778 297.815H653.867C654.294 297.815 654.578 297.531 654.721 297.104C654.721 296.677 654.578 296.393 654.152 296.393H641.063C640.636 296.393 640.352 296.677 640.209 297.104C640.209 297.531 640.352 297.815 640.778 297.815Z" fill="url(#paint29_linear)"/>
<path d="M640.352 300.516H653.44C653.867 300.516 654.152 300.232 654.294 299.805C654.294 299.379 654.152 299.094 653.725 299.094H640.636C640.209 299.094 639.925 299.379 639.783 299.805C639.783 300.09 640.067 300.516 640.352 300.516Z" fill="url(#paint30_linear)"/>
<path d="M647.181 303.077H653.014C653.44 303.077 653.725 302.793 653.867 302.366C653.867 301.939 653.725 301.655 653.298 301.655H647.465C647.038 301.655 646.754 301.939 646.611 302.366C646.611 302.793 646.896 303.077 647.181 303.077Z" fill="url(#paint31_linear)"/>
<path opacity="0.3" d="M454.264 380.305H351.973L275.005 145.636H531.089L454.264 380.305Z" fill="url(#paint32_linear)"/>
<path opacity="0.15" d="M469.06 380.305H337.177L227.488 145.636H578.607L469.06 380.305Z" fill="url(#paint33_linear)"/>
<path d="M473.613 380.304H332.482V544.288H473.613V380.304Z" fill="url(#paint34_linear)"/>
<path d="M445.159 380.304H360.936V544.288H445.159V380.304Z" fill="#2D3758"/>
<path d="M479.303 400.785H326.934C326.365 400.785 325.938 400.358 325.938 399.789V381.3C325.938 380.731 326.365 380.304 326.934 380.304H479.303C479.872 380.304 480.299 380.731 480.299 381.3V399.789C480.299 400.358 479.872 400.785 479.303 400.785Z" fill="#2D3758"/>
<path d="M473.613 400.784H332.482V408.322H473.613V400.784Z" fill="url(#paint35_linear)"/>
<path d="M385.264 400.784V544.429" stroke="url(#paint36_linear)" stroke-width="1.0668" stroke-miterlimit="10"/>
<path d="M403.047 400.784V544.429" stroke="url(#paint37_linear)" stroke-width="1.0668" stroke-miterlimit="10"/>
<path d="M420.973 400.784V544.429" stroke="url(#paint38_linear)" stroke-width="1.0668" stroke-miterlimit="10"/>
<path d="M468.349 250.739C467.637 248.179 466.784 245.619 465.788 243.201C464.934 241.352 464.081 239.361 463.085 237.654C462.231 236.09 461.235 234.525 460.097 233.103C459.101 231.681 457.963 230.401 456.825 229.121C456.398 228.694 455.971 228.125 455.545 227.699L447.008 218.881C447.435 219.308 447.862 219.876 448.289 220.303C449.427 221.583 450.565 222.863 451.561 224.285C452.699 225.708 453.695 227.272 454.549 228.836C455.545 230.685 456.54 232.534 457.252 234.383C458.248 236.801 459.101 239.361 459.813 241.921C461.947 250.17 462.231 259.13 460.382 268.659C459.955 271.077 459.386 273.352 458.674 275.628C457.821 278.472 456.825 281.175 455.545 283.877C454.549 286.01 453.553 288.001 452.415 289.993C451.419 291.841 450.281 293.548 449.142 295.255C448.004 296.819 446.866 298.384 445.728 299.948C444.59 301.37 443.309 302.793 442.029 304.215C440.749 305.637 439.326 306.917 438.045 308.197C436.623 309.477 435.2 310.757 433.635 312.037C432.07 313.317 430.363 314.597 428.656 315.735C426.664 317.015 424.814 318.295 422.68 319.291C420.12 320.713 417.559 321.851 414.998 322.988C406.035 326.544 396.361 328.393 386.686 327.966C372.033 327.255 359.655 321.282 350.692 312.179L359.229 320.997C368.049 330.242 380.569 336.073 395.223 336.784C404.897 337.353 414.571 335.504 423.534 331.806C426.095 330.811 428.656 329.531 431.217 328.108C433.208 326.971 435.2 325.833 437.192 324.553C438.899 323.415 440.606 322.135 442.171 320.855C443.736 319.575 445.159 318.437 446.582 317.015C448.004 315.735 449.285 314.455 450.565 313.033C451.846 311.611 453.126 310.188 454.264 308.766C455.544 307.202 456.683 305.637 457.679 304.073C458.817 302.366 459.955 300.659 460.951 298.81C462.089 296.819 463.085 294.828 464.081 292.695C465.219 289.993 466.357 287.29 467.211 284.446C467.922 282.17 468.491 279.895 468.918 277.477C470.767 268.09 470.483 258.988 468.349 250.739Z" fill="url(#paint39_linear)"/>
<path d="M411.157 203.094C445.159 204.943 467.353 234.241 460.524 268.801C453.695 303.219 420.689 329.815 386.686 327.966C352.684 326.117 330.49 296.819 337.319 262.259C344.006 227.841 377.012 201.245 411.157 203.094Z" fill="url(#paint40_linear)"/>
<path d="M409.734 210.205C439.895 211.769 459.386 237.796 453.411 268.232C447.435 298.668 418.128 322.135 388.109 320.57C357.948 319.006 338.457 292.979 344.433 262.543C350.266 232.107 379.573 208.64 409.734 210.205Z" fill="url(#paint41_linear)"/>
<path d="M364.208 276.197L366.769 278.899L359.229 278.615L356.526 275.771L364.208 276.197Z" fill="#C08639"/>
<path d="M367.053 261.407L369.614 264.252L366.769 278.901L364.208 276.198L367.053 261.407Z" fill="#C08639"/>
<path d="M368.334 248.464L371.037 251.166L380.142 266.669L377.581 263.824L368.334 248.464Z" fill="#C08639"/>
<path d="M382.561 277.193L385.264 279.895L378.862 279.611L376.159 276.909L382.561 277.193Z" fill="#C08639"/>
<path d="M387.967 249.459L390.67 252.303L385.264 279.895L382.561 277.193L387.967 249.459Z" fill="#C08639"/>
<path d="M387.967 249.46L382.561 277.193L376.159 276.909L367.053 261.407L364.208 276.198L356.526 275.771L362.074 248.18L368.334 248.464L377.581 263.824L380.427 249.175L387.967 249.46Z" fill="url(#paint42_linear)"/>
<path d="M414.856 250.883L413.718 256.999L400.06 256.288L398.779 262.403L401.482 265.105L402.621 258.99L416.278 259.701L417.559 253.728L414.856 250.883Z" fill="#C08639"/>
<path d="M409.734 268.945L397.641 268.376L395.792 277.905L387.967 277.479L390.67 280.181L398.353 280.608L400.202 271.079L412.295 271.79L413.433 265.674L410.872 262.972L409.734 268.945Z" fill="#C08639"/>
<path d="M414.856 250.883L413.718 256.999L400.06 256.287L398.779 262.403L410.872 262.972L409.734 268.945L397.641 268.376L395.792 277.905L387.967 277.479L393.515 249.745L414.856 250.883Z" fill="url(#paint43_linear)"/>
<path d="M423.25 257.565L414.856 257.138L417.559 259.983L425.953 260.409L423.25 257.565Z" fill="#C08639"/>
<path d="M440.606 252.303L439.326 258.419L431.074 257.992L426.806 279.468L419.124 279.041L421.685 281.886L429.509 282.17L433.635 260.837L442.029 261.263L443.167 255.006L440.606 252.303Z" fill="#C08639"/>
<path d="M440.606 252.304L439.326 258.42L431.074 257.993L426.806 279.469L419.124 279.042L423.25 257.567L414.856 257.14L416.136 251.024L440.606 252.304Z" fill="url(#paint44_linear)"/>
<path d="M352.542 192.144C355.921 192.144 358.659 189.406 358.659 186.028C358.659 182.651 355.921 179.913 352.542 179.913C349.163 179.913 346.424 182.651 346.424 186.028C346.424 189.406 349.163 192.144 352.542 192.144Z" fill="url(#paint45_linear)"/>
<path opacity="0.5" d="M369.472 348.447C369.472 352.714 366.057 356.27 361.647 356.27C357.237 356.27 353.822 352.856 353.822 348.447C353.822 344.038 357.237 340.625 361.647 340.625C366.057 340.625 369.472 344.181 369.472 348.447Z" fill="url(#paint46_linear)"/>
<path d="M457.394 329.531C457.394 331.096 456.114 332.376 454.549 332.376C452.984 332.376 451.703 331.096 451.703 329.531C451.703 327.967 452.984 326.687 454.549 326.687C456.114 326.687 457.394 327.967 457.394 329.531Z" fill="url(#paint47_linear)"/>
<path d="M410.445 368.787C410.445 370.067 409.449 371.204 408.027 371.204C406.746 371.204 405.608 370.209 405.608 368.787C405.608 367.364 406.604 366.369 408.027 366.369C409.449 366.369 410.445 367.507 410.445 368.787Z" fill="url(#paint48_linear)"/>
<path d="M325.938 247.186C325.938 248.466 324.942 249.603 323.519 249.603C322.239 249.603 321.101 248.608 321.101 247.186C321.101 245.763 322.096 244.768 323.519 244.768C324.8 244.768 325.938 245.906 325.938 247.186Z" fill="url(#paint49_linear)"/>
<path d="M439.326 188.447C439.326 189.727 438.33 190.864 436.907 190.864C435.627 190.864 434.489 189.869 434.489 188.447C434.489 187.167 435.485 186.029 436.907 186.029C438.33 186.029 439.326 187.167 439.326 188.447Z" fill="url(#paint50_linear)"/>
<path opacity="0.2" d="M440.606 356.27C442.571 356.27 444.163 354.678 444.163 352.714C444.163 350.75 442.571 349.159 440.606 349.159C438.642 349.159 437.05 350.75 437.05 352.714C437.05 354.678 438.642 356.27 440.606 356.27Z" fill="url(#paint51_linear)"/>
<path opacity="0.3" d="M480.726 235.948C480.726 237.939 479.161 239.504 477.169 239.504C475.178 239.504 473.613 237.939 473.613 235.948C473.613 233.957 475.178 232.392 477.169 232.392C479.161 232.392 480.726 233.957 480.726 235.948Z" fill="url(#paint52_linear)"/>
<path d="M644.051 298.385C643.908 298.243 643.624 298.243 643.482 298.243C643.482 298.101 643.482 298.101 643.339 297.958C643.055 297.674 642.343 297.958 641.49 298.101C641.49 297.958 641.49 297.816 641.49 297.674C641.205 297.39 640.352 297.674 640.352 297.674L635.657 299.665L635.515 299.807C635.372 299.95 635.088 300.092 634.945 300.234C634.376 300.803 633.665 301.514 633.096 302.225C631.816 303.79 630.251 304.927 628.543 305.639L609.764 313.176L624.702 314.172C624.702 314.172 630.962 310.19 632.811 309.763C634.661 309.336 637.079 309.479 638.075 308.483C639.071 307.487 641.632 304.927 641.49 303.932C641.49 303.079 640.778 303.363 640.494 303.363C639.783 303.647 638.36 305.07 637.933 305.354C637.506 305.639 636.084 305.923 635.515 305.212L638.075 302.51C638.075 302.51 639.925 300.945 641.632 300.092C643.766 299.523 644.335 298.67 644.051 298.385Z" fill="#EFCDAF"/>
<path d="M607.63 521.96L608.057 532.769C608.057 532.769 614.174 535.471 619.011 532.769L620.292 519.684" fill="#EFCDAF"/>
<path d="M608.199 532.768C608.199 532.768 606.492 534.475 606.065 537.177C605.638 539.737 606.207 543.15 606.207 543.862C606.207 544.146 613.321 544.004 620.576 544.004C628.117 544.004 635.799 544.288 636.368 544.004C637.506 543.435 619.154 532.768 619.154 532.768C619.154 532.768 614.032 534.048 608.199 532.768Z" fill="url(#paint53_linear)"/>
<path d="M551.86 517.55L548.731 527.933C548.731 527.933 553.141 532.342 558.547 531.488L563.811 518.83" fill="#EFCDAF"/>
<path d="M545.316 531.347C546.597 528.929 548.731 527.933 548.731 527.933C550.153 529.213 558.832 531.631 558.832 531.631C558.832 531.631 558.832 532.058 560.397 533.622C561.677 534.902 563.1 536.467 564.665 537.747C565.518 538.031 574.197 543.436 572.916 544.005C571.778 544.574 563.953 544.431 561.25 544.289C560.539 544.289 551.576 540.591 548.588 539.453C545.601 538.316 542.898 537.036 543.04 536.467C543.324 535.898 544.036 533.622 545.316 531.347Z" fill="url(#paint54_linear)"/>
<path d="M605.211 375.186C605.211 375.186 600.659 416.146 598.24 436.911C597.386 443.738 596.96 448.289 596.817 448.573C595.395 453.978 593.261 460.52 590.842 467.631C581.452 494.227 567.51 526.654 567.51 526.654C567.51 526.654 556.555 524.947 550.295 520.396L566.23 446.582C566.23 446.582 565.376 387.133 564.949 377.319L605.211 375.186Z" fill="url(#paint55_linear)"/>
<path opacity="0.35" d="M598.24 436.911C597.386 443.738 596.96 448.289 596.817 448.573C595.395 453.978 593.261 460.52 590.842 467.631C590.415 460.093 587.428 410.742 587.428 410.742L598.24 436.911Z" fill="url(#paint56_linear)"/>
<path d="M627.974 257.283C626.836 263.541 623.564 276.483 620.15 281.319C619.723 282.03 618.869 282.314 618.015 282.172C614.316 281.319 602.081 277.479 599.947 263.256C597.387 246.332 609.622 243.061 615.455 244.483C621.288 245.763 629.966 246.901 627.974 257.283Z" fill="#EFCDAF"/>
<path d="M622.283 371.488L624.702 442.457L621.43 528.644C621.43 528.644 610.475 530.493 602.508 529.213C602.508 529.213 595.252 462.653 594.826 453.124C594.256 441.035 579.887 378.741 580.314 370.776" fill="url(#paint57_linear)"/>
<path d="M615.455 277.763C615.455 277.763 613.89 283.309 613.036 290.563C613.036 290.563 602.508 290.136 596.533 286.865C596.533 286.865 601.085 275.771 601.797 264.536" fill="#EFCDAF"/>
<path d="M634.945 250.029C634.519 249.033 633.665 248.037 632.669 247.753C631.816 247.469 630.962 247.469 630.251 247.042C628.259 246.046 628.117 243.202 626.552 241.637C625.983 241.211 625.271 240.926 624.56 240.642C622.71 240.073 620.861 239.931 619.011 240.073C618.158 240.215 617.304 240.357 616.45 240.215C616.024 240.073 615.597 239.931 615.17 239.789C613.321 239.077 611.329 238.935 609.622 239.504C608.91 239.788 608.199 240.073 607.63 240.642C601.655 242.775 603.504 246.615 603.504 246.615C599.378 247.469 596.817 249.744 596.675 257.282C596.533 264.82 597.671 274.349 598.667 275.629C599.663 276.909 608.199 279.327 612.325 277.335C613.605 276.624 617.731 264.678 618.158 263.398C618.3 263.113 618.3 262.686 618.585 262.544C619.011 262.26 619.58 262.26 620.007 262.26C621.288 262.26 622.426 261.975 623.422 261.264C624.702 261.406 626.125 261.264 627.405 260.695C628.259 260.411 629.255 259.842 629.824 259.131C630.108 258.704 630.393 258.278 630.677 257.851C632.811 257.14 634.661 255.433 635.23 253.157C635.372 252.304 635.372 251.166 634.945 250.029Z" fill="url(#paint58_linear)"/>
<path d="M563.953 381.016C565.945 382.154 607.63 384.572 622.853 380.305C622.853 380.305 622.71 370.776 622.853 366.082C622.853 364.091 625.413 315.593 624.702 302.793C624.702 302.793 620.861 291.984 612.752 289.709C603.362 287.006 593.403 285.726 593.403 285.726C589.277 286.437 581.026 294.686 578.18 302.224C569.502 325.122 562.388 380.163 563.953 381.016Z" fill="url(#paint59_linear)"/>
<path d="M679.191 310.188C679.049 310.188 678.48 310.331 677.626 310.473C678.053 309.904 677.911 309.335 677.484 309.477C676.915 309.62 674.212 310.473 673.5 310.757C672.789 311.042 670.37 312.606 670.37 312.606C670.086 312.748 669.801 312.891 669.659 313.033C668.379 313.886 667.24 316.588 665.675 318.011C664.11 319.291 661.692 320.571 661.692 320.571L635.657 327.682L629.824 315.593L611.471 319.575C611.471 319.575 621.999 339.202 627.263 343.042C629.112 344.464 658.135 329.104 664.822 325.406C665.96 324.837 670.513 323.842 671.651 322.135C672.931 320.428 673.216 319.291 673.216 319.291L675.35 316.731C675.35 316.731 677.768 315.166 677.911 314.455C678.053 313.886 677.626 313.744 677.626 313.744L678.48 313.175C679.476 312.322 678.764 311.753 678.764 311.753C679.76 311.184 680.045 310.046 679.191 310.188Z" fill="#EFCDAF"/>
<path d="M605.069 302.367C604.642 307.772 612.609 327.114 612.609 327.114C612.609 327.114 623.848 324.981 631.816 317.727C631.816 317.727 624.987 300.092 621.572 296.678C617.446 292.554 605.78 293.976 605.069 302.367Z" fill="url(#paint60_linear)"/>
<path d="M567.226 226.135H535.357C533.508 226.135 531.943 227.7 531.943 229.549V252.02C531.943 253.869 533.508 255.433 535.357 255.433H556.555L561.25 260.553C561.819 261.122 562.815 260.696 562.815 259.985V255.433H567.368C569.217 255.433 570.782 253.869 570.782 252.02V229.549C570.64 227.7 569.075 226.135 567.226 226.135Z" fill="#2D3758"/>
<path d="M560.397 240.784C560.397 242.064 561.392 243.059 562.673 243.059C563.953 243.059 564.949 242.064 564.949 240.784C564.949 239.504 563.953 238.508 562.673 238.508C561.392 238.65 560.397 239.646 560.397 240.784Z" fill="#F0F9FF"/>
<path d="M549.015 240.784C549.015 242.064 550.011 243.059 551.291 243.059C552.572 243.059 553.568 242.064 553.568 240.784C553.568 239.504 552.572 238.508 551.291 238.508C550.011 238.65 549.015 239.646 549.015 240.784Z" fill="#F0F9FF"/>
<path d="M537.634 240.784C537.634 242.064 538.629 243.059 539.91 243.059C541.19 243.059 542.186 242.064 542.186 240.784C542.186 239.504 541.19 238.508 539.91 238.508C538.629 238.65 537.634 239.646 537.634 240.784Z" fill="#F0F9FF"/>
<path d="M210.273 531.917L201.453 533.054L197.754 512.716L209.42 512.148C209.42 512.005 209.989 531.063 210.273 531.917Z" fill="#EFCDAF"/>
<path d="M145.683 515.559C145.683 515.559 140.135 530.635 140.135 531.489L130.176 528.36L134.017 512.715L145.683 515.559Z" fill="#EFCDAF"/>
<path d="M209.562 448.715C207.57 431.506 203.444 384.003 201.737 367.932L171.292 360.963C156.638 392.252 171.861 399.932 175.417 406.901C176.271 408.466 177.694 423.826 182.958 447.151C186.23 481.426 191.636 522.813 191.636 522.813C191.636 522.813 206.432 523.382 211.554 520.68L209.562 448.715Z" fill="url(#paint61_linear)"/>
<path d="M152.939 367.079C152.939 367.079 145.541 380.021 146.537 391.399C147.39 401.212 149.382 430.083 150.805 445.87C143.265 469.764 132.168 516.697 132.168 516.697C132.168 516.697 135.724 518.831 144.403 521.249C146.11 521.675 151.943 522.529 153.081 522.244C153.081 522.244 172.857 461.657 176.271 449.284C184.096 419.986 190.071 366.652 190.071 366.652L152.939 367.079Z" fill="url(#paint62_linear)"/>
<path d="M231.044 534.76C231.044 534.76 233.036 535.471 232.04 537.604C230.618 540.591 219.094 543.72 213.545 544.289H200.03L220.374 536.893C220.374 536.893 224.927 534.902 226.776 534.618C228.626 534.333 231.044 534.76 231.044 534.76Z" fill="url(#paint63_linear)"/>
<path d="M201.31 532.201C201.31 532.201 207.143 532.485 210.131 531.347C210.131 531.347 217.671 533.907 221.797 533.907C225.923 533.907 229.906 533.907 230.902 534.761C228.057 534.334 225.211 535.188 221.797 537.179C209.135 544.574 199.745 544.29 199.745 544.29C199.745 544.29 198.749 536.041 201.31 532.201Z" fill="url(#paint64_linear)"/>
<path d="M154.504 544.29C155.215 539.312 148.955 536.894 145.114 536.183C142.553 534.903 140.562 530.494 140.562 530.494C135.155 530.494 130.603 527.508 130.603 527.508C130.603 527.508 129.038 528.645 127.615 531.632C126.192 534.477 125.908 537.89 125.908 537.89C125.908 537.89 130.176 540.734 132.879 542.299C135.582 543.863 141.273 544.29 141.273 544.29H154.504Z" fill="url(#paint65_linear)"/>
<path d="M194.624 252.019C194.624 252.019 198.607 258.562 193.912 265.246C193.912 265.246 191.636 268.802 190.213 274.917C188.791 281.033 190.64 293.122 190.64 293.122C190.64 293.122 182.815 294.26 179.259 292.553C175.844 290.988 178.547 271.077 178.547 271.077C178.547 271.077 180.966 259.984 181.393 258.988C181.819 257.85 188.791 249.602 188.791 249.602L194.624 252.019Z" fill="url(#paint66_linear)"/>
<path d="M182.389 287.433C182.246 286.722 182.531 275.486 182.531 275.486L181.535 273.78L176.982 265.957C176.982 265.957 169.584 261.406 168.873 265.957C168.304 269.229 168.731 287.007 168.731 287.007L160.621 289.851C163.467 297.247 173.568 297.958 173.568 297.958C187.937 299.238 193.912 290.135 193.912 290.135C193.912 290.135 182.531 288.144 182.389 287.433Z" fill="#EFCDAF"/>
<path d="M172.572 272.642C172.572 272.642 174.991 280.037 182.389 282.313V279.61L172.572 272.642Z" fill="#E8A77D"/>
<path d="M247.121 300.802C246.979 300.091 246.836 299.522 246.409 299.38C246.267 299.238 245.983 299.238 245.698 299.238C246.267 298.527 246.979 297.674 247.263 297.389C247.69 296.82 249.682 294.687 249.824 293.834C249.966 292.98 248.97 293.122 248.686 293.265C247.832 293.691 246.552 295.114 245.556 296.251C244.845 296.962 243.706 298.385 242.711 299.238C243.137 298.385 243.991 296.962 244.133 296.394C244.275 295.682 243.706 295.398 243.706 295.398C242.426 296.251 240.007 299.096 239.581 300.376C239.154 301.656 238.869 304.074 238.869 304.074C238.442 305.496 237.304 306.776 236.735 307.202L224.642 317.016L230.618 322.847L241.288 311.327C242.853 309.763 243.28 310.047 244.133 309.478C245.414 308.625 245.556 308.198 245.84 307.914C246.125 307.487 246.267 307.06 246.409 306.634C246.552 307.06 246.836 307.202 247.121 306.776C247.405 306.349 248.259 304.216 248.259 303.647C248.259 303.078 248.401 301.229 248.117 300.945C247.832 300.802 247.405 300.802 247.121 300.802Z" fill="#EFCDAF"/>
<path d="M194.339 249.886C194.339 249.886 194.339 279.042 186.372 280.18C182.673 280.749 174.991 276.482 171.149 270.651C171.149 270.651 165.316 262.26 166.17 253.157C166.881 244.055 190.64 237.37 194.339 249.886Z" fill="#EFCDAF"/>
<path d="M194.624 263.967C194.624 263.967 196.331 258.136 194.339 255.007C194.339 255.007 192.916 253.3 189.217 254.438C186.514 255.291 181.108 257.425 175.986 253.442C175.986 253.442 176.556 260.127 171.718 263.256C171.718 263.256 170.153 266.811 170.011 269.94C169.869 272.927 169.442 280.18 168.731 287.007L158.914 290.42C158.914 290.42 159.341 287.149 159.626 275.629C159.91 264.678 156.353 251.451 166.17 247.611C166.17 247.611 169.158 237.371 183.1 239.504C196.758 241.78 202.875 252.873 194.624 263.967Z" fill="url(#paint67_linear)"/>
<path d="M174.279 262.259C174.279 262.259 172.572 257.566 169.584 259.984C167.308 261.69 167.877 269.655 171.861 270.081" fill="#EFCDAF"/>
<path d="M228.484 314.029C228.484 314.029 220.659 320.003 214.114 324.554C211.554 319.149 210.415 316.874 204.44 303.078C199.319 291.274 195.477 290.563 195.477 290.563L190.925 319.292C190.925 319.292 203.871 341.621 210.7 342.759C214.541 343.47 227.63 331.096 235.028 322.989C235.028 322.989 233.036 317.869 229.764 314.598C229.479 314.456 228.484 314.029 228.484 314.029Z" fill="url(#paint68_linear)"/>
<path d="M151.232 344.893C151.659 351.008 147.248 378.6 146.821 382.013C146.679 383.577 147.248 384.004 147.248 384.004C147.248 384.004 180.255 393.675 202.875 384.004C202.875 384.004 203.729 383.72 203.587 381.586C203.16 377.746 199.888 333.23 199.888 333.23C199.888 333.23 203.444 325.835 204.298 321.283C205.152 316.732 200.03 308.768 199.319 305.212C198.749 301.657 195.335 290.563 195.335 290.563C195.335 290.563 192.774 289.852 185.376 288.145C185.376 288.145 180.539 300.946 164.605 288.145C163.04 288.43 156.353 289.71 154.077 290.137C153.793 290.137 153.65 290.279 153.508 290.279C152.085 290.705 149.24 292.412 147.39 294.972C145.825 300.234 144.83 309.763 147.248 320.288C149.24 328.395 150.663 337.213 151.232 344.893Z" fill="url(#paint69_linear)"/>
<path d="M149.951 365.23L180.966 377.034C181.819 377.319 182.673 376.892 182.958 376.181L200.314 330.669C200.599 329.816 200.172 328.963 199.461 328.678L168.446 316.874C167.593 316.589 166.739 317.016 166.454 317.727L149.098 363.239C148.813 363.95 149.24 364.803 149.951 365.23Z" fill="#22256F"/>
<path d="M153.508 369.924L185.092 375.044C186.23 375.187 187.368 374.475 187.652 373.195L195.193 326.404C195.335 325.266 194.624 324.128 193.343 323.844L161.76 318.724C160.621 318.582 159.483 319.293 159.199 320.573L151.658 367.364C151.516 368.502 152.37 369.64 153.508 369.924Z" fill="url(#paint70_linear)"/>
<path d="M193.77 348.305C194.339 348.305 195.05 347.878 194.766 347.451C194.481 347.025 190.498 345.318 189.502 345.602C188.506 345.887 187.083 346.74 186.088 347.025C185.092 347.309 182.958 347.025 182.958 347.025L169.584 344.18L165.316 351.86L184.238 352.998C184.238 352.998 186.088 353.851 187.51 354.42H187.652C188.364 354.705 189.502 355.131 190.213 355.131C191.351 355.131 191.921 354.42 191.921 353.994C192.49 353.851 192.774 353.425 192.774 353.14C192.774 352.856 192.774 352.714 192.632 352.571C193.201 352.429 193.486 352.002 193.486 351.718C193.486 351.434 193.486 351.291 193.343 351.149C193.912 351.007 194.197 350.58 194.197 350.296C194.197 349.869 193.912 349.442 193.912 349.442C193.628 349.016 191.067 348.305 190.356 348.02C191.494 348.162 193.201 348.305 193.77 348.305Z" fill="#EFCDAF"/>
<path d="M170.438 344.18L153.508 340.198C155.784 331.522 158.63 318.438 160.479 310.331C162.755 300.233 160.052 291.273 154.219 290.135C153.935 290.135 153.793 290.278 153.65 290.278C153.081 290.42 149.24 291.558 147.39 294.686C144.687 299.238 143.549 306.207 143.549 306.207C143.549 306.207 135.298 348.447 141.131 351.149C146.11 353.567 166.739 356.269 166.739 356.269C166.739 356.269 168.731 353.709 170.438 347.167C171.007 345.176 170.438 344.18 170.438 344.18Z" fill="url(#paint71_linear)"/>
<path opacity="0.2" d="M194.112 158.534H44.3959C35.8407 158.534 28.5076 151.509 28.5076 142.651V52.2387C28.5076 43.6863 35.5351 36.3556 44.3959 36.3556H194.112C202.667 36.3556 210 43.3808 210 52.2387V142.651C210 151.509 202.973 158.534 194.112 158.534Z" fill="url(#paint72_linear)"/>
<path d="M119.865 138.371H51.1177C47.7568 138.371 44.7013 135.622 44.7013 131.956V63.2313C44.7013 59.8714 47.4512 56.817 51.1177 56.817H119.865C123.226 56.817 126.281 59.566 126.281 63.2313V131.956C125.976 135.316 123.226 138.371 119.865 138.371Z" fill="url(#paint73_linear)"/>
<path d="M57.8397 131.042H52.0344C51.1178 131.042 50.5067 130.432 50.5067 129.515V84.9202C50.5067 84.0039 51.1178 83.393 52.0344 83.393H57.8397C58.7563 83.393 59.3674 84.0039 59.3674 84.9202V129.515C59.3674 130.126 58.7563 131.042 57.8397 131.042Z" fill="#EDF7FF"/>
<path d="M73.1169 131.045H67.3116C66.395 131.045 65.7839 130.434 65.7839 129.518V94.3917C65.7839 93.4753 66.395 92.8644 67.3116 92.8644H73.1169C74.0335 92.8644 74.6446 93.4753 74.6446 94.3917V129.518C74.6446 130.129 74.0335 131.045 73.1169 131.045Z" fill="#EDF7FF"/>
<path d="M88.394 131.045H82.5887C81.672 131.045 81.0609 130.434 81.0609 129.518V87.6719C81.0609 86.7555 81.672 86.1447 82.5887 86.1447H88.394C89.3106 86.1447 89.9217 86.7555 89.9217 87.6719V129.518C89.9217 130.129 89.3106 131.045 88.394 131.045Z" fill="#EDF7FF"/>
<path d="M103.671 131.044H97.8659C96.9492 131.044 96.3381 130.433 96.3381 129.516V66.9002C96.3381 65.9838 96.9492 65.3729 97.8659 65.3729H103.671C104.588 65.3729 105.199 65.9838 105.199 66.9002V129.516C105.199 130.127 104.588 131.044 103.671 131.044Z" fill="#EDF7FF"/>
<path d="M118.948 131.047H113.143C112.226 131.047 111.615 130.436 111.615 129.52V80.0377C111.615 79.1214 112.226 78.5105 113.143 78.5105H118.948C119.865 78.5105 120.476 79.1214 120.476 80.0377V129.52C120.476 130.131 119.865 131.047 118.948 131.047Z" fill="#EDF7FF"/>
<path d="M147.364 65.6844H190.445" stroke="white" stroke-width="1.0648" stroke-miterlimit="10" stroke-linecap="round"/>
<path d="M147.364 75.1566H184.945" stroke="white" stroke-width="1.0648" stroke-miterlimit="10" stroke-linecap="round"/>
<path d="M147.364 84.6197H184.945" stroke="white" stroke-width="1.0648" stroke-miterlimit="10" stroke-linecap="round"/>
<path d="M147.364 94.0911H190.445" stroke="white" stroke-width="1.0648" stroke-miterlimit="10" stroke-linecap="round"/>
<path d="M147.364 103.252H176.696" stroke="white" stroke-width="1.0648" stroke-miterlimit="10" stroke-linecap="round"/>
<path d="M147.364 112.724H190.445" stroke="white" stroke-width="1.0648" stroke-miterlimit="10" stroke-linecap="round"/>
<path d="M147.364 122.195H190.445" stroke="white" stroke-width="1.0648" stroke-miterlimit="10" stroke-linecap="round"/>
<path d="M147.364 131.667H177.612" stroke="white" stroke-width="1.0648" stroke-miterlimit="10" stroke-linecap="round"/>
<path opacity="0.3" d="M536.069 419.275C536.069 418.99 535.926 418.848 535.926 418.563C535.784 417.71 535.5 416.715 535.215 415.861C534.504 413.87 533.65 412.021 532.512 410.315L535.215 407.612L528.813 401.212L528.671 401.354L526.11 403.914C523.549 402.208 520.561 400.928 517.289 400.217V396.803H508.184V400.643C504.912 401.212 502.066 402.492 499.363 404.341L496.66 401.639L490.258 408.039L492.961 410.741C491.254 413.301 489.973 416.288 489.262 419.559H485.421V428.661H489.262C489.831 431.932 491.112 434.777 492.961 437.479L490.258 440.181L496.66 446.581L499.363 443.879C501.924 445.586 504.912 446.866 508.184 447.577V451.417H517.289V447.577C520.561 447.008 523.407 445.728 526.11 443.879L528.671 446.439L528.813 446.581L532.654 442.741L535.215 440.181L532.654 437.621L532.512 437.479L532.654 437.337C534.361 434.777 535.5 431.79 536.211 428.661H540.052V419.559H536.069V419.275ZM512.737 438.901C504.343 438.901 497.656 432.075 497.656 423.826C497.656 415.435 504.485 408.75 512.737 408.75C520.988 408.75 527.817 415.577 527.817 423.826C527.817 432.217 521.13 438.901 512.737 438.901Z" fill="#ACE2F9"/>
<path opacity="0.1" d="M741.22 227.984C741.22 227.842 741.22 227.699 741.078 227.557C740.936 226.988 740.793 226.562 740.651 226.135C740.224 224.997 739.798 224.002 739.086 223.148L740.509 221.726L736.952 218.17L735.529 219.593C734.107 218.597 732.4 217.886 730.692 217.602V215.468H725.713V217.602C723.863 217.886 722.298 218.597 720.876 219.593L719.453 218.17L715.896 221.726L717.319 223.148C716.323 224.571 715.612 226.277 715.327 227.984H713.193V232.962H715.327C715.612 234.811 716.323 236.375 717.319 237.797L715.896 239.22L719.453 242.775L720.876 241.353C722.298 242.348 724.006 243.06 725.713 243.344V245.477H730.692V243.344C732.542 243.06 734.107 242.348 735.529 241.353L736.952 242.775L739.086 240.642L740.509 239.22L739.086 237.797C739.086 237.797 739.086 237.797 739.086 237.655C740.082 236.233 740.651 234.668 741.078 232.82H743.212V227.842H741.22V227.984ZM728.131 238.935C723.437 238.935 719.738 235.237 719.738 230.544C719.738 225.851 723.437 222.153 728.131 222.153C732.826 222.153 736.525 225.851 736.525 230.544C736.525 235.095 732.826 238.935 728.131 238.935Z" fill="#ACE2F9"/>
<path opacity="0.2" d="M161.617 207.22C161.617 207.078 161.617 206.936 161.475 206.794C161.333 206.225 161.19 205.656 161.048 205.087C160.621 203.807 159.91 202.527 159.199 201.389L161.048 199.54L156.78 195.274L156.638 195.416L154.931 197.123C153.223 195.985 151.232 195.131 148.955 194.705V192.145H142.838V194.705C140.704 195.131 138.712 195.985 136.863 197.123L135.013 195.274L130.745 199.54L132.594 201.389C131.456 203.096 130.603 205.087 130.176 207.363H127.615V213.478H130.176C130.603 215.612 131.456 217.603 132.594 219.452L130.745 221.3L135.013 225.567L136.863 223.718C138.57 224.856 140.562 225.709 142.838 226.136V228.696H148.955V226.136C151.089 225.709 153.081 224.856 154.931 223.718L156.638 225.425L156.78 225.567L159.341 223.007L161.048 221.3L159.341 219.594L159.199 219.452C159.199 219.452 159.199 219.309 159.341 219.309C160.479 217.603 161.333 215.612 161.76 213.478H164.32V207.363H161.617V207.22ZM145.968 220.447C140.419 220.447 135.867 215.896 135.867 210.349C135.867 204.803 140.419 200.251 145.968 200.251C151.516 200.251 156.069 204.803 156.069 210.349C156.069 215.896 151.658 220.447 145.968 220.447Z" fill="#ACE2F9"/>
<path d="M82.3736 339.913C82.3736 347.166 76.5406 352.997 69.4271 352.997C62.1714 352.997 56.3384 347.166 56.3384 340.055C56.3384 332.802 62.1714 326.97 69.2849 326.97C76.5406 326.97 82.3736 332.802 82.3736 339.913Z" fill="#98E7F4"/>
<path d="M63.5941 340.625L68.858 345.602L75.6869 336.358" stroke="white" stroke-width="1.577" stroke-miterlimit="10" stroke-linecap="round" stroke-linejoin="round"/>
<path d="M801.826 332.234C801.826 337.638 797.274 342.047 791.868 341.905C786.461 341.905 782.051 337.354 782.193 331.949C782.193 326.545 786.746 322.136 792.152 322.278C797.558 322.278 801.969 326.687 801.826 332.234Z" fill="#BDF3FF"/>
<path d="M787.742 332.519L791.441 336.217L796.705 329.39" stroke="white" stroke-width="1.4684" stroke-miterlimit="10" stroke-linecap="round" stroke-linejoin="round"/>
<path opacity="0.5" d="M127.9 312.323C127.9 314.315 126.335 315.879 124.343 315.879C122.351 315.879 120.786 314.315 120.786 312.323C120.786 310.332 122.351 308.768 124.343 308.768C126.335 308.768 127.9 310.332 127.9 312.323Z" fill="#BDF3FF"/>
<path d="M120.928 397.657C120.928 398.937 119.933 399.932 118.652 399.932C117.372 399.932 116.376 398.937 116.376 397.657C116.376 396.377 117.372 395.381 118.652 395.381C119.933 395.523 120.928 396.519 120.928 397.657Z" fill="#BDF3FF"/>
<path opacity="0.3" d="M251.958 483.274C251.958 484.554 250.962 485.55 249.682 485.55C248.401 485.55 247.405 484.554 247.405 483.274C247.405 481.994 248.401 480.999 249.682 480.999C250.962 481.141 251.958 482.137 251.958 483.274Z" fill="#BDF3FF"/>
<path opacity="0.1" d="M73.9797 453.693C73.9797 456.253 71.988 458.244 69.4271 458.244C66.8663 458.244 64.8745 456.253 64.8745 453.693C64.8745 451.133 66.8663 449.142 69.4271 449.142C71.8457 449.142 73.9797 451.133 73.9797 453.693Z" fill="#BDF3FF"/>
<path opacity="0.1" d="M829 496.36C829 498.92 827.008 500.911 824.447 500.911C821.887 500.911 819.895 498.92 819.895 496.36C819.895 493.8 821.887 491.809 824.447 491.809C826.866 491.809 829 493.8 829 496.36Z" fill="#BDF3FF"/>
<path opacity="0.1" d="M450.138 4.55115C450.138 7.11117 448.147 9.1023 445.586 9.1023C443.025 9.1023 441.033 7.11117 441.033 4.55115C441.033 1.99113 443.025 0 445.586 0C448.004 0 450.138 1.99113 450.138 4.55115Z" fill="#BDF3FF"/>
<path opacity="0.1" d="M180.397 144.072C180.397 147.486 177.694 150.188 174.279 150.188C170.865 150.188 168.162 147.486 168.162 144.072C168.162 140.659 170.865 137.957 174.279 137.957C177.694 137.957 180.397 140.801 180.397 144.072Z" fill="#BDF3FF"/>
<path opacity="0.1" d="M725.855 101.689C725.855 105.103 723.152 107.805 719.738 107.805C716.323 107.805 713.62 105.103 713.62 101.689C713.62 98.2758 716.323 95.5735 719.738 95.5735C723.152 95.5735 725.855 98.418 725.855 101.689Z" fill="#BDF3FF"/>
<path d="M686.447 185.886C686.447 187.877 684.882 189.441 682.89 189.441C680.898 189.441 679.333 187.877 679.333 185.886C679.333 183.894 680.898 182.33 682.89 182.33C684.882 182.33 686.447 183.894 686.447 185.886Z" fill="#BDF3FF"/>
<path d="M645.046 462.368C645.046 464.359 643.481 465.924 641.49 465.924C639.498 465.924 637.933 464.359 637.933 462.368C637.933 460.377 639.498 458.813 641.49 458.813C643.481 458.67 645.046 460.235 645.046 462.368Z" fill="#98E7F4"/>
<path d="M417.559 100.551H414.713V97.7063C414.713 97.1374 414.144 96.5685 413.575 96.5685C413.006 96.5685 412.437 97.1374 412.437 97.7063V100.551H409.592C409.023 100.551 408.454 101.12 408.454 101.689C408.454 102.257 409.023 102.826 409.592 102.826H412.437V105.671C412.437 106.24 413.006 106.809 413.575 106.809C414.144 106.809 414.713 106.24 414.713 105.671V102.826H417.559C418.128 102.826 418.697 102.257 418.697 101.689C418.697 101.12 418.27 100.551 417.559 100.551Z" fill="#BDF3FF"/>
<path d="M650.879 252.019C650.31 252.019 649.741 251.45 649.741 250.881V242.775C649.741 242.206 650.31 241.637 650.879 241.637C651.449 241.637 652.018 242.206 652.018 242.775V250.881C652.018 251.592 651.591 252.019 650.879 252.019Z" fill="#BDF3FF"/>
<path d="M655.005 248.036H646.896C646.327 248.036 645.758 247.467 645.758 246.898C645.758 246.329 646.327 245.76 646.896 245.76H655.005C655.574 245.76 656.143 246.329 656.143 246.898C656.143 247.467 655.574 248.036 655.005 248.036Z" fill="#BDF3FF"/>
<path d="M264.762 326.829H261.917V323.985C261.917 323.416 261.348 322.847 260.779 322.847C260.21 322.847 259.64 323.416 259.64 323.985V326.829H256.795C256.226 326.829 255.657 327.398 255.657 327.967C255.657 328.536 256.226 329.105 256.795 329.105H259.64V331.949C259.64 332.518 260.21 333.087 260.779 333.087C261.348 333.087 261.917 332.518 261.917 331.949V329.105H264.762C265.331 329.105 265.9 328.536 265.9 327.967C265.9 327.398 265.331 326.829 264.762 326.829Z" fill="#BDF3FF"/>
<path d="M707.076 156.304H704.23V153.46C704.23 152.891 703.661 152.322 703.092 152.322C702.523 152.322 701.954 152.891 701.954 153.46V156.304H699.108C698.539 156.304 697.97 156.873 697.97 157.442C697.97 158.011 698.539 158.58 699.108 158.58H701.954V161.424C701.954 161.993 702.523 162.562 703.092 162.562C703.661 162.562 704.23 161.993 704.23 161.424V158.58H707.076C707.645 158.58 708.214 158.011 708.214 157.442C708.214 156.873 707.645 156.304 707.076 156.304Z" fill="#98E7F4"/>
<path opacity="0.5" d="M543.893 341.62H541.048V338.775C541.048 338.206 540.479 337.638 539.91 337.638C539.341 337.638 538.772 338.206 538.772 338.775V341.62H535.926C535.357 341.62 534.788 342.189 534.788 342.758C534.788 343.327 535.357 343.895 535.926 343.895H538.772V346.74C538.772 347.309 539.341 347.878 539.91 347.878C540.479 347.878 541.048 347.309 541.048 346.74V343.895H543.893C544.462 343.895 545.032 343.327 545.032 342.758C545.032 342.189 544.605 341.62 543.893 341.62Z" fill="#BDF3FF"/>
<path d="M0 544.289H810.221" stroke="url(#paint74_linear)" stroke-miterlimit="10"/>
<path d="M616.089 31.6517C611.924 27.081 606.292 24.1107 600.168 23.255C594.044 22.3993 587.813 23.7122 582.555 26.9663C577.297 30.2203 573.342 35.2107 571.376 41.0734C569.409 46.936 569.555 53.3018 571.787 59.0684C574.02 64.835 578.198 69.6395 583.6 72.6498C589.001 75.6601 595.285 76.6869 601.364 75.5522C607.443 74.4175 612.933 71.1928 616.885 66.4366C620.836 61.6803 623 55.6919 623.002 49.5083C623.01 42.9015 620.544 36.5312 616.089 31.6517Z" fill="white"/>
<path d="M589.817 45.0461C590.883 46.2121 591.471 47.7366 591.464 49.3164C591.458 50.8962 590.857 52.4157 589.781 53.5727C588.706 54.7298 587.234 55.4397 585.659 55.5613C584.084 55.6829 582.52 55.2074 581.28 54.2292C581.866 54.8707 582.579 55.3837 583.374 55.7358C584.168 56.088 585.027 56.2717 585.896 56.2754C586.765 56.279 587.625 56.1026 588.423 55.7571C589.22 55.4116 589.938 54.9047 590.529 54.2682C591.121 53.6317 591.574 52.8795 591.861 52.059C592.147 51.2385 592.261 50.3676 592.194 49.5011C592.127 48.6346 591.881 47.7914 591.472 47.0246C591.063 46.2579 590.5 45.5842 589.817 45.0461Z" fill="#FBB03B"/>
<path d="M585.931 43.7002C587.341 43.6982 588.711 44.1727 589.817 45.0468C589.231 44.4054 588.518 43.8924 587.723 43.5402C586.929 43.188 586.07 43.0043 585.201 43.0007C584.332 42.997 583.472 43.1735 582.674 43.5189C581.877 43.8644 581.159 44.3714 580.568 45.0079C579.976 45.6444 579.523 46.3966 579.236 47.217C578.95 48.0375 578.836 48.9085 578.903 49.7749C578.97 50.6414 579.216 51.4846 579.625 52.2514C580.034 53.0182 580.597 53.6918 581.28 54.2299C580.458 53.3288 579.915 52.2079 579.719 51.0039C579.522 49.8 579.68 48.5648 580.173 47.4488C580.665 46.3329 581.472 45.3844 582.495 44.7188C583.517 44.0532 584.711 43.6993 585.931 43.7002Z" fill="#FF0000"/>
<path d="M591.459 49.2851C591.456 48.0426 591.084 46.829 590.392 45.7975C589.699 44.766 588.716 43.9629 587.567 43.4895C586.419 43.0161 585.155 42.8937 583.937 43.1378C582.719 43.3819 581.6 43.9815 580.722 44.8609C579.845 45.7403 579.247 46.86 579.005 48.0787C578.763 49.2975 578.888 50.5605 579.364 51.7085C579.839 52.8564 580.644 53.8377 581.677 54.5284C582.71 55.2192 583.924 55.5885 585.166 55.5896C585.994 55.5916 586.814 55.4297 587.58 55.1134C588.345 54.7971 589.04 54.3326 589.625 53.7466C590.209 53.1607 590.673 52.4648 590.988 51.6991C591.302 50.9334 591.463 50.113 591.459 49.2851Z" fill="#C5CED4"/>
<path d="M588.196 47.5246C587.668 46.9406 586.953 46.5595 586.175 46.4471C585.396 46.3348 584.603 46.4984 583.932 46.9096C583.261 47.3208 582.755 47.9536 582.502 48.6985C582.249 49.4434 582.264 50.2534 582.545 50.9882C582.826 51.723 583.356 52.3363 584.042 52.7219C584.727 53.1075 585.526 53.241 586.3 53.0994C587.074 52.9577 587.774 52.5498 588.279 51.9463C588.784 51.3429 589.062 50.5818 589.064 49.7951C589.068 48.9564 588.758 48.1466 588.196 47.5246Z" fill="white"/>
<path d="M606.71 47.4101C609.252 48.8995 612.118 49.7502 615.062 49.8891V43.8336C613.369 43.483 611.777 42.7577 610.402 41.7109C608.722 40.7894 607.296 39.4666 606.251 37.8602C605.206 36.2539 604.574 34.4141 604.413 32.5046H598.699V65.5563H604.367V45.7855C604.834 46.1716 605.317 46.5278 605.815 46.8541V46.7296C606.107 46.9642 606.405 47.193 606.71 47.4101Z" fill="#FBB03B"/>
<path d="M608.059 42.1813C606.699 41.152 605.584 39.8352 604.792 38.3249C604 36.8145 603.551 35.148 603.478 33.4442V32.975H602.056C602.219 34.8858 602.852 36.7265 603.9 38.3329C604.947 39.9393 606.376 41.2614 608.059 42.1813Z" fill="#C5CED4"/>
<path d="M602.024 66.0136H596.359V66.9576H603.477V47.3229C602.974 46.9909 602.491 46.6347 602.03 46.2543L602.024 66.0136Z" fill="#C5CED4"/>
<path d="M604.367 47.8824C607.235 49.9493 610.641 51.1385 614.172 51.3054V44.5144C613.686 44.4759 613.202 44.4063 612.724 44.3058V50.3613C609.779 50.2225 606.911 49.3719 604.367 47.8824Z" fill="#C5CED4"/>
<path d="M612.719 43.5687C611.085 43.4411 609.497 42.9683 608.059 42.1815C609.435 43.2252 611.027 43.9476 612.719 44.2956V43.5687Z" fill="#24F5EF"/>
<path d="M603.478 47.1899V47.3145C603.767 47.5085 604.057 47.6938 604.367 47.8705C604.063 47.662 603.767 47.4332 603.478 47.1899Z" fill="#24F5EF"/>
<path d="M604.367 47.8838C606.91 49.3725 609.775 50.223 612.719 50.3628V44.2986C611.026 43.948 609.434 43.2226 608.059 42.1758C606.376 41.2559 604.947 39.9338 603.9 38.3274C602.852 36.721 602.219 34.8803 602.056 32.9695H596.359V66.0184H602.024V46.2592C602.489 46.6453 602.972 47.0015 603.472 47.3278V47.1946C603.767 47.4378 604.062 47.6666 604.367 47.8838Z" fill="#11040D"/>
<path d="M602.183 32.9745C602.183 32.8181 602.157 32.6588 602.151 32.4995V32.0304H595.033V66.0146H596.481V32.9745H602.183Z" fill="#FF0000"/>
<path d="M209.817 199.046C210.883 200.212 211.471 201.737 211.464 203.316C211.458 204.896 210.857 206.416 209.781 207.573C208.706 208.73 207.234 209.44 205.659 209.561C204.084 209.683 202.52 209.207 201.28 208.229C201.866 208.871 202.579 209.384 203.374 209.736C204.168 210.088 205.027 210.272 205.896 210.275C206.765 210.279 207.626 210.103 208.423 209.757C209.22 209.412 209.938 208.905 210.529 208.268C211.121 207.632 211.574 206.879 211.861 206.059C212.147 205.239 212.261 204.368 212.194 203.501C212.127 202.635 211.881 201.791 211.472 201.025C211.063 200.258 210.5 199.584 209.817 199.046Z" fill="#FBB03B"/>
<path d="M205.931 197.7C207.341 197.698 208.711 198.173 209.817 199.047C209.231 198.405 208.518 197.892 207.723 197.54C206.929 197.188 206.07 197.004 205.201 197.001C204.332 196.997 203.472 197.173 202.674 197.519C201.877 197.864 201.159 198.371 200.568 199.008C199.976 199.644 199.523 200.397 199.236 201.217C198.95 202.038 198.836 202.908 198.903 203.775C198.97 204.641 199.216 205.485 199.625 206.251C200.034 207.018 200.597 207.692 201.28 208.23C200.458 207.329 199.915 206.208 199.718 205.004C199.522 203.8 199.68 202.565 200.173 201.449C200.665 200.333 201.472 199.384 202.495 198.719C203.517 198.053 204.711 197.699 205.931 197.7Z" fill="#FF0000"/>
<path d="M211.459 203.285C211.456 202.043 211.084 200.829 210.392 199.797C209.699 198.766 208.716 197.963 207.567 197.489C206.419 197.016 205.155 196.894 203.937 197.138C202.719 197.382 201.6 197.981 200.722 198.861C199.845 199.74 199.247 200.86 199.005 202.079C198.763 203.297 198.888 204.561 199.364 205.708C199.839 206.856 200.644 207.838 201.677 208.528C202.71 209.219 203.924 209.588 205.166 209.59C205.994 209.592 206.814 209.43 207.58 209.113C208.345 208.797 209.04 208.333 209.625 207.747C210.209 207.161 210.673 206.465 210.988 205.699C211.302 204.933 211.463 204.113 211.459 203.285Z" fill="#F9D864"/>
<path d="M208.196 201.525C207.668 200.941 206.953 200.559 206.175 200.447C205.396 200.335 204.603 200.498 203.932 200.91C203.261 201.321 202.755 201.954 202.502 202.698C202.249 203.443 202.264 204.253 202.545 204.988C202.826 205.723 203.356 206.336 204.042 206.722C204.727 207.107 205.526 207.241 206.3 207.099C207.074 206.958 207.774 206.55 208.279 205.946C208.784 205.343 209.062 204.582 209.064 203.795C209.068 202.956 208.758 202.147 208.196 201.525Z" fill="#051A66"/>
<path d="M226.71 201.41C229.252 202.9 232.118 203.75 235.062 203.889V197.834C233.369 197.483 231.777 196.758 230.402 195.711C228.722 194.789 227.296 193.467 226.251 191.86C225.206 190.254 224.574 188.414 224.413 186.505H218.699V219.556H224.367V199.786C224.834 200.172 225.317 200.528 225.815 200.854V200.73C226.107 200.964 226.405 201.193 226.71 201.41Z" fill="#FBB03B"/>
<path d="M228.059 196.181C226.699 195.152 225.584 193.835 224.792 192.325C224 190.815 223.551 189.148 223.478 187.444V186.975H222.056C222.219 188.886 222.852 190.727 223.9 192.333C224.947 193.939 226.376 195.261 228.059 196.181Z" fill="#242D60"/>
<path d="M222.024 220.014H216.359V220.958H223.477V201.323C222.974 200.991 222.491 200.635 222.029 200.254L222.024 220.014Z" fill="#051A66"/>
<path d="M224.367 201.882C227.235 203.949 230.641 205.138 234.172 205.305V198.514C233.686 198.476 233.202 198.406 232.724 198.306V204.361C229.779 204.222 226.911 203.372 224.367 201.882Z" fill="#051A66"/>
<path d="M232.719 197.569C231.085 197.441 229.497 196.968 228.059 196.181C229.435 197.225 231.027 197.948 232.719 198.296V197.569Z" fill="#242D60"/>
<path d="M223.478 201.19V201.314C223.767 201.508 224.057 201.694 224.367 201.87C224.062 201.662 223.767 201.433 223.478 201.19Z" fill="#24F5EF"/>
<path d="M224.367 201.884C226.91 203.372 229.775 204.223 232.719 204.363V198.299C231.026 197.948 229.434 197.223 228.059 196.176C226.376 195.256 224.947 193.934 223.9 192.327C222.852 190.721 222.219 188.88 222.056 186.97H216.359V220.018H222.024V200.259C222.489 200.645 222.972 201.001 223.472 201.328V201.195C223.767 201.438 224.063 201.667 224.367 201.884Z" fill="#F9D965"/>
</g>
<defs>
<linearGradient id="paint0_linear" x1="401.174" y1="244.625" x2="401.174" y2="526.241" gradientUnits="userSpaceOnUse">
<stop stop-color="#E9E9EB"/>
<stop offset="1" stop-color="#A7A7A7"/>
</linearGradient>
<linearGradient id="paint1_linear" x1="401.047" y1="244.625" x2="401.047" y2="526.241" gradientUnits="userSpaceOnUse">
<stop stop-color="#2E48CD"/>
<stop offset="1" stop-color="#1F237E"/>
</linearGradient>
<linearGradient id="paint2_linear" x1="520.246" y1="527.475" x2="575.379" y2="491.298" gradientUnits="userSpaceOnUse">
<stop stop-color="#2E3E9D"/>
<stop offset="1" stop-color="#79D3FD"/>
</linearGradient>
<linearGradient id="paint3_linear" x1="335.637" y1="490.976" x2="308.3" y2="430.979" gradientUnits="userSpaceOnUse">
<stop stop-color="#2E3E9D"/>
<stop offset="1" stop-color="#79D3FD"/>
</linearGradient>
<linearGradient id="paint4_linear" x1="399.99" y1="576.601" x2="399.99" y2="440.952" gradientUnits="userSpaceOnUse">
<stop stop-color="#002AA2"/>
<stop offset="1" stop-color="#79D3FD"/>
</linearGradient>
<linearGradient id="paint5_linear" x1="555.771" y1="8.17928" x2="635.373" y2="87.8074" gradientUnits="userSpaceOnUse">
<stop stop-color="#F9DD68"/>
<stop offset="1" stop-color="#F9A942"/>
</linearGradient>
<linearGradient id="paint6_linear" x1="572.204" y1="65.7424" x2="620.096" y2="113.649" gradientUnits="userSpaceOnUse">
<stop stop-color="#10274A"/>
<stop offset="1" stop-color="#00347F"/>
</linearGradient>
<linearGradient id="paint7_linear" x1="593.943" y1="73.5954" x2="626.678" y2="106.341" gradientUnits="userSpaceOnUse">
<stop stop-color="white"/>
<stop offset="1" stop-color="#79D3FD"/>
</linearGradient>
<linearGradient id="paint8_linear" x1="578.763" y1="86.4939" x2="586.601" y2="94.3347" gradientUnits="userSpaceOnUse">
<stop stop-color="#10274A"/>
<stop offset="1" stop-color="#00347F"/>
</linearGradient>
<linearGradient id="paint9_linear" x1="580.521" y1="88.25" x2="584.967" y2="92.697" gradientUnits="userSpaceOnUse">
<stop stop-color="white"/>
<stop offset="1" stop-color="#79D3FD"/>
</linearGradient>
<linearGradient id="paint10_linear" x1="195.049" y1="181.7" x2="235.645" y2="222.309" gradientUnits="userSpaceOnUse">
<stop stop-color="#F9DD68"/>
<stop offset="1" stop-color="#F9A942"/>
</linearGradient>
<linearGradient id="paint11_linear" x1="661.382" y1="445.252" x2="710.401" y2="445.252" gradientUnits="userSpaceOnUse">
<stop stop-color="#00006C"/>
<stop offset="1" stop-color="#5793FB"/>
</linearGradient>
<linearGradient id="paint12_linear" x1="679.227" y1="544.304" x2="679.227" y2="353.744" gradientUnits="userSpaceOnUse">
<stop stop-color="#5793FB"/>
<stop offset="0.9946" stop-color="#00009A"/>
</linearGradient>
<linearGradient id="paint13_linear" x1="690.339" y1="399.089" x2="690.339" y2="274.774" gradientUnits="userSpaceOnUse">
<stop stop-color="#00006C"/>
<stop offset="1" stop-color="#5793FB"/>
</linearGradient>
<linearGradient id="paint14_linear" x1="687.195" y1="395.558" x2="687.195" y2="274.009" gradientUnits="userSpaceOnUse">
<stop stop-color="#A6E5D4"/>
<stop offset="1" stop-color="#79D3FD"/>
</linearGradient>
<linearGradient id="paint15_linear" x1="614.115" y1="332.377" x2="760.275" y2="332.377" gradientUnits="userSpaceOnUse">
<stop stop-color="#2C89FB"/>
<stop offset="1" stop-color="#0059FF"/>
</linearGradient>
<linearGradient id="paint16_linear" x1="657.172" y1="316.732" x2="708.466" y2="316.732" gradientUnits="userSpaceOnUse">
<stop stop-color="#A6E5D4"/>
<stop offset="1" stop-color="#79D3FD"/>
</linearGradient>
<linearGradient id="paint17_linear" x1="710.932" y1="351.949" x2="739.089" y2="351.949" gradientUnits="userSpaceOnUse">
<stop stop-color="#A6E5D4"/>
<stop offset="1" stop-color="#79D3FD"/>
</linearGradient>
<linearGradient id="paint18_linear" x1="663.785" y1="363.381" x2="721.767" y2="363.381" gradientUnits="userSpaceOnUse">
<stop stop-color="#A6E5D4"/>
<stop offset="1" stop-color="#79D3FD"/>
</linearGradient>
<linearGradient id="paint19_linear" x1="669.305" y1="363.84" x2="716.293" y2="363.84" gradientUnits="userSpaceOnUse">
<stop stop-color="#A6E5D4"/>
<stop offset="1" stop-color="#79D3FD"/>
</linearGradient>
<linearGradient id="paint20_linear" x1="717.714" y1="299.069" x2="745.894" y2="299.069" gradientUnits="userSpaceOnUse">
<stop stop-color="#A6E5D4"/>
<stop offset="1" stop-color="#79D3FD"/>
</linearGradient>
<linearGradient id="paint21_linear" x1="736.681" y1="311.505" x2="723.486" y2="307.324" gradientUnits="userSpaceOnUse">
<stop stop-color="white"/>
<stop offset="1" stop-color="#E2F5FF"/>
</linearGradient>
<linearGradient id="paint22_linear" x1="736.267" y1="314.118" x2="723.071" y2="309.937" gradientUnits="userSpaceOnUse">
<stop stop-color="white"/>
<stop offset="1" stop-color="#E2F5FF"/>
</linearGradient>
<linearGradient id="paint23_linear" x1="735.853" y1="316.733" x2="722.657" y2="312.551" gradientUnits="userSpaceOnUse">
<stop stop-color="white"/>
<stop offset="1" stop-color="#E2F5FF"/>
</linearGradient>
<linearGradient id="paint24_linear" x1="735.439" y1="319.347" x2="728.833" y2="317.254" gradientUnits="userSpaceOnUse">
<stop stop-color="white"/>
<stop offset="1" stop-color="#E2F5FF"/>
</linearGradient>
<linearGradient id="paint25_linear" x1="648.69" y1="356.365" x2="635.495" y2="352.184" gradientUnits="userSpaceOnUse">
<stop stop-color="white"/>
<stop offset="1" stop-color="#E2F5FF"/>
</linearGradient>
<linearGradient id="paint26_linear" x1="648.276" y1="358.98" x2="635.08" y2="354.798" gradientUnits="userSpaceOnUse">
<stop stop-color="white"/>
<stop offset="1" stop-color="#E2F5FF"/>
</linearGradient>
<linearGradient id="paint27_linear" x1="647.862" y1="361.594" x2="634.666" y2="357.413" gradientUnits="userSpaceOnUse">
<stop stop-color="white"/>
<stop offset="1" stop-color="#E2F5FF"/>
</linearGradient>
<linearGradient id="paint28_linear" x1="647.448" y1="364.207" x2="640.842" y2="362.114" gradientUnits="userSpaceOnUse">
<stop stop-color="white"/>
<stop offset="1" stop-color="#E2F5FF"/>
</linearGradient>
<linearGradient id="paint29_linear" x1="654.725" y1="297.152" x2="641.53" y2="292.971" gradientUnits="userSpaceOnUse">
<stop stop-color="white"/>
<stop offset="1" stop-color="#E2F5FF"/>
</linearGradient>
<linearGradient id="paint30_linear" x1="654.311" y1="299.765" x2="641.116" y2="295.584" gradientUnits="userSpaceOnUse">
<stop stop-color="white"/>
<stop offset="1" stop-color="#E2F5FF"/>
</linearGradient>
<linearGradient id="paint31_linear" x1="653.897" y1="302.38" x2="647.291" y2="300.286" gradientUnits="userSpaceOnUse">
<stop stop-color="white"/>
<stop offset="1" stop-color="#E2F5FF"/>
</linearGradient>
<linearGradient id="paint32_linear" x1="403.077" y1="380.296" x2="403.077" y2="150.526" gradientUnits="userSpaceOnUse">
<stop stop-color="#8AFFFF"/>
<stop offset="1" stop-color="#79D3FD" stop-opacity="0"/>
</linearGradient>
<linearGradient id="paint33_linear" x1="403.077" y1="380.296" x2="403.077" y2="150.526" gradientUnits="userSpaceOnUse">
<stop stop-color="#8AFFFF"/>
<stop offset="1" stop-color="#79D3FD" stop-opacity="0"/>
</linearGradient>
<linearGradient id="paint34_linear" x1="403.077" y1="575.841" x2="403.077" y2="397.552" gradientUnits="userSpaceOnUse">
<stop stop-color="#8AFFFF"/>
<stop offset="1" stop-color="#2D3758"/>
</linearGradient>
<linearGradient id="paint35_linear" x1="330.606" y1="404.528" x2="512.79" y2="404.528" gradientUnits="userSpaceOnUse">
<stop stop-color="#2E3E9D"/>
<stop offset="1" stop-color="#79D3FD"/>
</linearGradient>
<linearGradient id="paint36_linear" x1="-nan" y1="-nan" x2="-nan" y2="-nan" gradientUnits="userSpaceOnUse">
<stop stop-color="#79D3FD"/>
<stop offset="1" stop-color="white"/>
</linearGradient>
<linearGradient id="paint37_linear" x1="-nan" y1="-nan" x2="-nan" y2="-nan" gradientUnits="userSpaceOnUse">
<stop stop-color="#79D3FD"/>
<stop offset="1" stop-color="white"/>
</linearGradient>
<linearGradient id="paint38_linear" x1="-nan" y1="-nan" x2="-nan" y2="-nan" gradientUnits="userSpaceOnUse">
<stop stop-color="#79D3FD"/>
<stop offset="1" stop-color="white"/>
</linearGradient>
<linearGradient id="paint39_linear" x1="430.212" y1="259.972" x2="393.805" y2="327.878" gradientUnits="userSpaceOnUse">
<stop stop-color="#F9DD68"/>
<stop offset="1" stop-color="#F9A942"/>
</linearGradient>
<linearGradient id="paint40_linear" x1="336.001" y1="265.483" x2="461.675" y2="265.483" gradientUnits="userSpaceOnUse">
<stop stop-color="#F9DD68"/>
<stop offset="1" stop-color="#F9A942"/>
</linearGradient>
<linearGradient id="paint41_linear" x1="343.249" y1="265.483" x2="454.427" y2="265.483" gradientUnits="userSpaceOnUse">
<stop stop-color="#F9DD68"/>
<stop offset="1" stop-color="#F9A942"/>
</linearGradient>
<linearGradient id="paint42_linear" x1="365.19" y1="258.942" x2="428.041" y2="291.959" gradientUnits="userSpaceOnUse">
<stop stop-color="#F9DD68"/>
<stop offset="1" stop-color="#F9A942"/>
</linearGradient>
<linearGradient id="paint43_linear" x1="370.865" y1="248.14" x2="433.715" y2="281.157" gradientUnits="userSpaceOnUse">
<stop stop-color="#F9DD68"/>
<stop offset="1" stop-color="#F9A942"/>
</linearGradient>
<linearGradient id="paint44_linear" x1="376.387" y1="237.627" x2="439.237" y2="270.644" gradientUnits="userSpaceOnUse">
<stop stop-color="#F9DD68"/>
<stop offset="1" stop-color="#F9A942"/>
</linearGradient>
<linearGradient id="paint45_linear" x1="346.54" y1="186.042" x2="358.686" y2="186.042" gradientUnits="userSpaceOnUse">
<stop stop-color="#F9DD68"/>
<stop offset="1" stop-color="#F9A942"/>
</linearGradient>
<linearGradient id="paint46_linear" x1="353.908" y1="348.429" x2="369.469" y2="348.429" gradientUnits="userSpaceOnUse">
<stop stop-color="#F9DD68"/>
<stop offset="1" stop-color="#F9A942"/>
</linearGradient>
<linearGradient id="paint47_linear" x1="451.531" y1="329.53" x2="457.323" y2="329.53" gradientUnits="userSpaceOnUse">
<stop stop-color="#F9DD68"/>
<stop offset="1" stop-color="#F9A942"/>
</linearGradient>
<linearGradient id="paint48_linear" x1="405.804" y1="368.74" x2="410.511" y2="368.74" gradientUnits="userSpaceOnUse">
<stop stop-color="#F9DD68"/>
<stop offset="1" stop-color="#F9A942"/>
</linearGradient>
<linearGradient id="paint49_linear" x1="321.164" y1="247.166" x2="325.871" y2="247.166" gradientUnits="userSpaceOnUse">
<stop stop-color="#F9DD68"/>
<stop offset="1" stop-color="#F9A942"/>
</linearGradient>
<linearGradient id="paint50_linear" x1="434.662" y1="188.395" x2="439.369" y2="188.395" gradientUnits="userSpaceOnUse">
<stop stop-color="#F9DD68"/>
<stop offset="1" stop-color="#F9A942"/>
</linearGradient>
<linearGradient id="paint51_linear" x1="437.016" y1="352.647" x2="444.138" y2="352.647" gradientUnits="userSpaceOnUse">
<stop stop-color="#F9DD68"/>
<stop offset="1" stop-color="#F9A942"/>
</linearGradient>
<linearGradient id="paint52_linear" x1="473.631" y1="235.98" x2="480.754" y2="235.98" gradientUnits="userSpaceOnUse">
<stop stop-color="#F9DD68"/>
<stop offset="1" stop-color="#F9A942"/>
</linearGradient>
<linearGradient id="paint53_linear" x1="605.887" y1="538.425" x2="636.369" y2="538.425" gradientUnits="userSpaceOnUse">
<stop stop-color="#00FFFF"/>
<stop offset="1" stop-color="#5793FB"/>
</linearGradient>
<linearGradient id="paint54_linear" x1="543.071" y1="536.117" x2="573.164" y2="536.117" gradientUnits="userSpaceOnUse">
<stop stop-color="#00FFFF"/>
<stop offset="1" stop-color="#5793FB"/>
</linearGradient>
<linearGradient id="paint55_linear" x1="577.748" y1="382.45" x2="577.748" y2="499.812" gradientUnits="userSpaceOnUse">
<stop stop-color="#00004F"/>
<stop offset="1" stop-color="#000079"/>
</linearGradient>
<linearGradient id="paint56_linear" x1="592.826" y1="412.759" x2="592.826" y2="456.57" gradientUnits="userSpaceOnUse">
<stop stop-color="#00006C"/>
<stop offset="1" stop-color="#3049B9"/>
</linearGradient>
<linearGradient id="paint57_linear" x1="602.589" y1="376.407" x2="602.589" y2="498.759" gradientUnits="userSpaceOnUse">
<stop stop-color="#00004F"/>
<stop offset="1" stop-color="#000079"/>
</linearGradient>
<linearGradient id="paint58_linear" x1="615.851" y1="233.743" x2="615.851" y2="275.608" gradientUnits="userSpaceOnUse">
<stop stop-color="#00B5FF"/>
<stop offset="1" stop-color="#3049B9"/>
</linearGradient>
<linearGradient id="paint59_linear" x1="594.25" y1="382.393" x2="594.25" y2="297.172" gradientUnits="userSpaceOnUse">
<stop stop-color="#7995FD"/>
<stop offset="1" stop-color="#54DEFF"/>
</linearGradient>
<linearGradient id="paint60_linear" x1="625.865" y1="329.225" x2="612.086" y2="301.279" gradientUnits="userSpaceOnUse">
<stop stop-color="#7995FD"/>
<stop offset="1" stop-color="#54DEFF"/>
</linearGradient>
<linearGradient id="paint61_linear" x1="184.966" y1="385.984" x2="195.926" y2="531.629" gradientUnits="userSpaceOnUse">
<stop stop-color="#00006C"/>
<stop offset="1" stop-color="#5793FB"/>
</linearGradient>
<linearGradient id="paint62_linear" x1="156.33" y1="377.912" x2="167.155" y2="521.783" gradientUnits="userSpaceOnUse">
<stop stop-color="#00006C"/>
<stop offset="1" stop-color="#5793FB"/>
</linearGradient>
<linearGradient id="paint63_linear" x1="234.564" y1="536.852" x2="200.939" y2="542.977" gradientUnits="userSpaceOnUse">
<stop stop-color="#00006C"/>
<stop offset="1" stop-color="#3049B9"/>
</linearGradient>
<linearGradient id="paint64_linear" x1="191.139" y1="540.067" x2="214.696" y2="535.961" gradientUnits="userSpaceOnUse">
<stop stop-color="#00FFFF"/>
<stop offset="1" stop-color="#5793FB"/>
</linearGradient>
<linearGradient id="paint65_linear" x1="127.03" y1="531.499" x2="152.701" y2="544.781" gradientUnits="userSpaceOnUse">
<stop stop-color="#00FFFF"/>
<stop offset="1" stop-color="#5793FB"/>
</linearGradient>
<linearGradient id="paint66_linear" x1="190.014" y1="247.523" x2="183.416" y2="291.045" gradientUnits="userSpaceOnUse">
<stop stop-color="#000051"/>
<stop offset="1" stop-color="#30389C"/>
</linearGradient>
<linearGradient id="paint67_linear" x1="180.316" y1="246.054" x2="173.718" y2="289.575" gradientUnits="userSpaceOnUse">
<stop stop-color="#000051"/>
<stop offset="1" stop-color="#30389C"/>
</linearGradient>
<linearGradient id="paint68_linear" x1="212.948" y1="345.007" x2="212.948" y2="303.513" gradientUnits="userSpaceOnUse">
<stop stop-color="#7995FD"/>
<stop offset="1" stop-color="#54DEFF"/>
</linearGradient>
<linearGradient id="paint69_linear" x1="175.183" y1="387.846" x2="175.183" y2="303.351" gradientUnits="userSpaceOnUse">
<stop stop-color="#7995FD"/>
<stop offset="1" stop-color="#54DEFF"/>
</linearGradient>
<linearGradient id="paint70_linear" x1="185.292" y1="370.71" x2="159.752" y2="319.208" gradientUnits="userSpaceOnUse">
<stop stop-color="#160EC0"/>
<stop offset="1" stop-color="#5451FF"/>
</linearGradient>
<linearGradient id="paint71_linear" x1="154.92" y1="342.979" x2="154.92" y2="308.178" gradientUnits="userSpaceOnUse">
<stop stop-color="#7995FD"/>
<stop offset="1" stop-color="#54DEFF"/>
</linearGradient>
<linearGradient id="paint72_linear" x1="28.7359" y1="97.671" x2="210.016" y2="97.671" gradientUnits="userSpaceOnUse">
<stop stop-color="#2C89FB"/>
<stop offset="1" stop-color="#0059FF"/>
</linearGradient>
<linearGradient id="paint73_linear" x1="44.8205" y1="97.6678" x2="126.07" y2="97.6678" gradientUnits="userSpaceOnUse">
<stop stop-color="#8AFFFF"/>
<stop offset="1" stop-color="#79D3FD"/>
</linearGradient>
<linearGradient id="paint74_linear" x1="-nan" y1="-nan" x2="-nan" y2="-nan" gradientUnits="userSpaceOnUse">
<stop stop-color="#2EFFFF"/>
<stop offset="1" stop-color="#79D3FD"/>
</linearGradient>
<clipPath id="clip0">
<rect width="829" height="545" fill="white"/>
</clipPath>
</defs>
</svg>
